G04 #@! TF.GenerationSoftware,KiCad,Pcbnew,(6.0.9)*
G04 #@! TF.CreationDate,2023-01-15T18:07:45+00:00*
G04 #@! TF.ProjectId,CanBus-Radio-VAG,43616e42-7573-42d5-9261-64696f2d5641,1.0*
G04 #@! TF.SameCoordinates,Original*
G04 #@! TF.FileFunction,Soldermask,Top*
G04 #@! TF.FilePolarity,Negative*
%FSLAX46Y46*%
G04 Gerber Fmt 4.6, Leading zero omitted, Abs format (unit mm)*
G04 Created by KiCad (PCBNEW (6.0.9)) date 2023-01-15 18:07:45*
%MOMM*%
%LPD*%
G01*
G04 APERTURE LIST*
G04 Aperture macros list*
%AMRoundRect*
0 Rectangle with rounded corners*
0 $1 Rounding radius*
0 $2 $3 $4 $5 $6 $7 $8 $9 X,Y pos of 4 corners*
0 Add a 4 corners polygon primitive as box body*
4,1,4,$2,$3,$4,$5,$6,$7,$8,$9,$2,$3,0*
0 Add four circle primitives for the rounded corners*
1,1,$1+$1,$2,$3*
1,1,$1+$1,$4,$5*
1,1,$1+$1,$6,$7*
1,1,$1+$1,$8,$9*
0 Add four rect primitives between the rounded corners*
20,1,$1+$1,$2,$3,$4,$5,0*
20,1,$1+$1,$4,$5,$6,$7,0*
20,1,$1+$1,$6,$7,$8,$9,0*
20,1,$1+$1,$8,$9,$2,$3,0*%
G04 Aperture macros list end*
%ADD10C,2.102000*%
%ADD11C,4.502000*%
%ADD12RoundRect,0.051000X-1.750000X-0.900000X1.750000X-0.900000X1.750000X0.900000X-1.750000X0.900000X0*%
%ADD13RoundRect,0.051000X0.371231X0.760140X-0.760140X-0.371231X-0.371231X-0.760140X0.760140X0.371231X0*%
%ADD14RoundRect,0.051000X0.760140X-0.371231X-0.371231X0.760140X-0.760140X0.371231X0.371231X-0.760140X0*%
%ADD15C,1.602000*%
%ADD16RoundRect,0.201000X-0.825000X-0.150000X0.825000X-0.150000X0.825000X0.150000X-0.825000X0.150000X0*%
%ADD17RoundRect,0.201000X-0.875000X-0.150000X0.875000X-0.150000X0.875000X0.150000X-0.875000X0.150000X0*%
%ADD18RoundRect,0.301000X-0.400000X-0.625000X0.400000X-0.625000X0.400000X0.625000X-0.400000X0.625000X0*%
%ADD19RoundRect,0.301000X0.400000X0.625000X-0.400000X0.625000X-0.400000X-0.625000X0.400000X-0.625000X0*%
%ADD20RoundRect,0.051000X-0.750000X0.500000X-0.750000X-0.500000X0.750000X-0.500000X0.750000X0.500000X0*%
%ADD21RoundRect,0.051000X0.500000X0.750000X-0.500000X0.750000X-0.500000X-0.750000X0.500000X-0.750000X0*%
%ADD22O,1.802000X2.052000*%
%ADD23RoundRect,0.301000X0.600000X0.725000X-0.600000X0.725000X-0.600000X-0.725000X0.600000X-0.725000X0*%
%ADD24O,1.802000X1.802000*%
%ADD25RoundRect,0.051000X-0.850000X-0.850000X0.850000X-0.850000X0.850000X0.850000X-0.850000X0.850000X0*%
%ADD26RoundRect,0.301000X0.400000X1.450000X-0.400000X1.450000X-0.400000X-1.450000X0.400000X-1.450000X0*%
%ADD27RoundRect,0.301001X0.624999X-0.462499X0.624999X0.462499X-0.624999X0.462499X-0.624999X-0.462499X0*%
%ADD28RoundRect,0.301001X-0.462499X-0.624999X0.462499X-0.624999X0.462499X0.624999X-0.462499X0.624999X0*%
%ADD29RoundRect,0.301000X-0.375000X-0.275000X0.375000X-0.275000X0.375000X0.275000X-0.375000X0.275000X0*%
%ADD30RoundRect,0.301000X-0.412500X-0.650000X0.412500X-0.650000X0.412500X0.650000X-0.412500X0.650000X0*%
%ADD31RoundRect,0.301000X0.412500X0.650000X-0.412500X0.650000X-0.412500X-0.650000X0.412500X-0.650000X0*%
G04 APERTURE END LIST*
D10*
X73228500Y-75352000D03*
X73228500Y-60452000D03*
X81978500Y-75352000D03*
X81978500Y-60452000D03*
D11*
X73500000Y-91400000D03*
X106500000Y-91400000D03*
X73500000Y-53500000D03*
X106500000Y-53500000D03*
D12*
X80071600Y-63868300D03*
X75071600Y-63868300D03*
D13*
X89525695Y-91281603D03*
X88960010Y-90715917D03*
X88394324Y-90150232D03*
X87828639Y-89584547D03*
X87262953Y-89018861D03*
X86697268Y-88453176D03*
X86131583Y-87887490D03*
X85565897Y-87321805D03*
D14*
X85565897Y-85271195D03*
X86131583Y-84705510D03*
X86697268Y-84139824D03*
X87262953Y-83574139D03*
X87828639Y-83008453D03*
X88394324Y-82442768D03*
X88960010Y-81877083D03*
X89525695Y-81311397D03*
D13*
X91576305Y-81311397D03*
X92141990Y-81877083D03*
X92707676Y-82442768D03*
X93273361Y-83008453D03*
X93839047Y-83574139D03*
X94404732Y-84139824D03*
X94970417Y-84705510D03*
X95536103Y-85271195D03*
D14*
X95536103Y-87321805D03*
X94970417Y-87887490D03*
X94404732Y-88453176D03*
X93839047Y-89018861D03*
X93273361Y-89584547D03*
X92707676Y-90150232D03*
X92141990Y-90715917D03*
X91576305Y-91281603D03*
D15*
X101523800Y-87379200D03*
X101523800Y-82499200D03*
X99996600Y-75336400D03*
X104876600Y-75336400D03*
D16*
X91349600Y-61493400D03*
X91349600Y-62763400D03*
X91349600Y-64033400D03*
X91349600Y-65303400D03*
X86399600Y-65303400D03*
X86399600Y-64033400D03*
X86399600Y-62763400D03*
X86399600Y-61493400D03*
D17*
X107012000Y-60655200D03*
X107012000Y-61925200D03*
X107012000Y-63195200D03*
X107012000Y-64465200D03*
X107012000Y-65735200D03*
X107012000Y-67005200D03*
X107012000Y-68275200D03*
X107012000Y-69545200D03*
X107012000Y-70815200D03*
X97712000Y-70815200D03*
X97712000Y-69545200D03*
X97712000Y-68275200D03*
X97712000Y-67005200D03*
X97712000Y-65735200D03*
X97712000Y-64465200D03*
X97712000Y-63195200D03*
X97712000Y-61925200D03*
X97712000Y-60655200D03*
D10*
X80985500Y-79565500D03*
X80985500Y-84065500D03*
X74485500Y-79565500D03*
X74485500Y-84065500D03*
D18*
X79121600Y-71983600D03*
X76021600Y-71983600D03*
X88849800Y-78181200D03*
X85749800Y-78181200D03*
X87783000Y-93599000D03*
X84683000Y-93599000D03*
D19*
X99034000Y-93599000D03*
X102134000Y-93599000D03*
X94219600Y-57912000D03*
X97319600Y-57912000D03*
X76148600Y-57912000D03*
X79248600Y-57912000D03*
D20*
X85280500Y-68184000D03*
X85280500Y-69484000D03*
D21*
X84085600Y-57912000D03*
X82785600Y-57912000D03*
D22*
X81242500Y-52514500D03*
X83742500Y-52514500D03*
X86242500Y-52514500D03*
X88742500Y-52514500D03*
X91242500Y-52514500D03*
X93742500Y-52514500D03*
X96242500Y-52514500D03*
D23*
X98742500Y-52514500D03*
D24*
X91376500Y-73914000D03*
X88836500Y-73914000D03*
X91376500Y-71374000D03*
X88836500Y-71374000D03*
X91376500Y-68834000D03*
D25*
X88836500Y-68834000D03*
D24*
X81470500Y-91821000D03*
X78930500Y-91821000D03*
X81470500Y-89281000D03*
D25*
X78930500Y-89281000D03*
D26*
X75346600Y-68313300D03*
X79796600Y-68313300D03*
D27*
X85280500Y-72363000D03*
X85280500Y-75338000D03*
D28*
X96674000Y-93599000D03*
X93699000Y-93599000D03*
D29*
X78391600Y-74853800D03*
X76791600Y-74853800D03*
D30*
X98717500Y-90805000D03*
X95592500Y-90805000D03*
X108674300Y-82448400D03*
X105549300Y-82448400D03*
X108674300Y-87071200D03*
X105549300Y-87071200D03*
D31*
X92341300Y-78181200D03*
X95466300Y-78181200D03*
D30*
X108674300Y-79514700D03*
X105549300Y-79514700D03*
X90765100Y-57912000D03*
X87640100Y-57912000D03*
X103899100Y-57912000D03*
X100774100Y-57912000D03*
G36*
X89771244Y-90349335D02*
G01*
X89771887Y-90350449D01*
X89775124Y-90366720D01*
X89777176Y-90366311D01*
X89779070Y-90366954D01*
X89779558Y-90368094D01*
X89781583Y-90390677D01*
X89824078Y-90445364D01*
X89873853Y-90462916D01*
X89875154Y-90464435D01*
X89875150Y-90465192D01*
X89874892Y-90466489D01*
X89891162Y-90469726D01*
X89892666Y-90471045D01*
X89892276Y-90473007D01*
X89891162Y-90473650D01*
X89878188Y-90476230D01*
X89862138Y-90486955D01*
X88731047Y-91618046D01*
X88720322Y-91634096D01*
X88717742Y-91647071D01*
X88716423Y-91648575D01*
X88714461Y-91648185D01*
X88713818Y-91647071D01*
X88710581Y-91630800D01*
X88708529Y-91631209D01*
X88706635Y-91630566D01*
X88706147Y-91629426D01*
X88704122Y-91606843D01*
X88661627Y-91552156D01*
X88611852Y-91534604D01*
X88610551Y-91533085D01*
X88610555Y-91532328D01*
X88610813Y-91531031D01*
X88594543Y-91527794D01*
X88593039Y-91526475D01*
X88593429Y-91524513D01*
X88594543Y-91523870D01*
X88607517Y-91521290D01*
X88623567Y-91510565D01*
X89754658Y-90379474D01*
X89765383Y-90363424D01*
X89767963Y-90350449D01*
X89769282Y-90348945D01*
X89771244Y-90349335D01*
G37*
G36*
X91333394Y-90349336D02*
G01*
X91334037Y-90350450D01*
X91336617Y-90363424D01*
X91347342Y-90379474D01*
X92478433Y-91510565D01*
X92494483Y-91521290D01*
X92507458Y-91523870D01*
X92508962Y-91525189D01*
X92508572Y-91527151D01*
X92507458Y-91527794D01*
X92491187Y-91531031D01*
X92491595Y-91533081D01*
X92490952Y-91534975D01*
X92489811Y-91535463D01*
X92467255Y-91537481D01*
X92412557Y-91579966D01*
X92394988Y-91629760D01*
X92393469Y-91631061D01*
X92392712Y-91631057D01*
X92391419Y-91630800D01*
X92388182Y-91647070D01*
X92386863Y-91648574D01*
X92384901Y-91648184D01*
X92384258Y-91647070D01*
X92381678Y-91634096D01*
X92370953Y-91618046D01*
X91239862Y-90486955D01*
X91223812Y-90476230D01*
X91210837Y-90473650D01*
X91209333Y-90472331D01*
X91209723Y-90470369D01*
X91210837Y-90469726D01*
X91227108Y-90466489D01*
X91226700Y-90464439D01*
X91227343Y-90462545D01*
X91228484Y-90462057D01*
X91251040Y-90460039D01*
X91305738Y-90417554D01*
X91323307Y-90367760D01*
X91324826Y-90366459D01*
X91325583Y-90366463D01*
X91326876Y-90366720D01*
X91330113Y-90350450D01*
X91331432Y-90348946D01*
X91333394Y-90349336D01*
G37*
G36*
X89205558Y-89783650D02*
G01*
X89206201Y-89784764D01*
X89209438Y-89801035D01*
X89211488Y-89800627D01*
X89213382Y-89801270D01*
X89213870Y-89802411D01*
X89215888Y-89824967D01*
X89258373Y-89879665D01*
X89308167Y-89897234D01*
X89309468Y-89898753D01*
X89309464Y-89899510D01*
X89309207Y-89900803D01*
X89325477Y-89904040D01*
X89326981Y-89905359D01*
X89326591Y-89907321D01*
X89325477Y-89907964D01*
X89312503Y-89910544D01*
X89296453Y-89921269D01*
X88165362Y-91052360D01*
X88154637Y-91068410D01*
X88152057Y-91081385D01*
X88150738Y-91082889D01*
X88148776Y-91082499D01*
X88148133Y-91081385D01*
X88144896Y-91065114D01*
X88142846Y-91065522D01*
X88140952Y-91064879D01*
X88140464Y-91063738D01*
X88138446Y-91041182D01*
X88095961Y-90986484D01*
X88046167Y-90968915D01*
X88044866Y-90967396D01*
X88044870Y-90966639D01*
X88045127Y-90965346D01*
X88028857Y-90962109D01*
X88027353Y-90960790D01*
X88027743Y-90958828D01*
X88028857Y-90958185D01*
X88041831Y-90955605D01*
X88057881Y-90944880D01*
X89188972Y-89813789D01*
X89199697Y-89797739D01*
X89202277Y-89784764D01*
X89203596Y-89783260D01*
X89205558Y-89783650D01*
G37*
G36*
X91899080Y-89783651D02*
G01*
X91899723Y-89784765D01*
X91902303Y-89797739D01*
X91913028Y-89813789D01*
X93044119Y-90944880D01*
X93060169Y-90955605D01*
X93073144Y-90958185D01*
X93074648Y-90959504D01*
X93074258Y-90961466D01*
X93073144Y-90962109D01*
X93056873Y-90965346D01*
X93057282Y-90967398D01*
X93056639Y-90969292D01*
X93055499Y-90969780D01*
X93032916Y-90971805D01*
X92978229Y-91014300D01*
X92960677Y-91064075D01*
X92959158Y-91065376D01*
X92958401Y-91065372D01*
X92957104Y-91065114D01*
X92953867Y-91081384D01*
X92952548Y-91082888D01*
X92950586Y-91082498D01*
X92949943Y-91081384D01*
X92947363Y-91068410D01*
X92936638Y-91052360D01*
X91805547Y-89921269D01*
X91789497Y-89910544D01*
X91776522Y-89907964D01*
X91775018Y-89906645D01*
X91775408Y-89904683D01*
X91776522Y-89904040D01*
X91792793Y-89900803D01*
X91792384Y-89898751D01*
X91793027Y-89896857D01*
X91794167Y-89896369D01*
X91816750Y-89894344D01*
X91871437Y-89851849D01*
X91888989Y-89802074D01*
X91890508Y-89800773D01*
X91891265Y-89800777D01*
X91892562Y-89801035D01*
X91895799Y-89784765D01*
X91897118Y-89783261D01*
X91899080Y-89783651D01*
G37*
G36*
X88639873Y-89217965D02*
G01*
X88640516Y-89219079D01*
X88643753Y-89235350D01*
X88645803Y-89234942D01*
X88647697Y-89235585D01*
X88648185Y-89236726D01*
X88650203Y-89259282D01*
X88692688Y-89313980D01*
X88742482Y-89331549D01*
X88743783Y-89333068D01*
X88743779Y-89333825D01*
X88743522Y-89335118D01*
X88759791Y-89338355D01*
X88761295Y-89339674D01*
X88760905Y-89341636D01*
X88759791Y-89342279D01*
X88746817Y-89344859D01*
X88730767Y-89355584D01*
X87599676Y-90486675D01*
X87588951Y-90502725D01*
X87586371Y-90515700D01*
X87585052Y-90517204D01*
X87583090Y-90516814D01*
X87582447Y-90515700D01*
X87579210Y-90499429D01*
X87577160Y-90499837D01*
X87575266Y-90499194D01*
X87574778Y-90498053D01*
X87572760Y-90475497D01*
X87530275Y-90420799D01*
X87480481Y-90403230D01*
X87479180Y-90401711D01*
X87479184Y-90400954D01*
X87479441Y-90399661D01*
X87463172Y-90396424D01*
X87461668Y-90395105D01*
X87462058Y-90393143D01*
X87463172Y-90392500D01*
X87476146Y-90389920D01*
X87492196Y-90379195D01*
X88623287Y-89248104D01*
X88634012Y-89232054D01*
X88636592Y-89219079D01*
X88637911Y-89217575D01*
X88639873Y-89217965D01*
G37*
G36*
X92464765Y-89217966D02*
G01*
X92465408Y-89219080D01*
X92467988Y-89232054D01*
X92478713Y-89248104D01*
X93609804Y-90379195D01*
X93625854Y-90389920D01*
X93638829Y-90392500D01*
X93640333Y-90393819D01*
X93639943Y-90395781D01*
X93638829Y-90396424D01*
X93622558Y-90399661D01*
X93622966Y-90401711D01*
X93622323Y-90403605D01*
X93621182Y-90404093D01*
X93598626Y-90406111D01*
X93543928Y-90448596D01*
X93526359Y-90498390D01*
X93524840Y-90499691D01*
X93524083Y-90499687D01*
X93522790Y-90499430D01*
X93519553Y-90515699D01*
X93518234Y-90517203D01*
X93516272Y-90516813D01*
X93515629Y-90515699D01*
X93513049Y-90502725D01*
X93502324Y-90486675D01*
X92371233Y-89355584D01*
X92355183Y-89344859D01*
X92342208Y-89342279D01*
X92340704Y-89340960D01*
X92341094Y-89338998D01*
X92342208Y-89338355D01*
X92358479Y-89335118D01*
X92358071Y-89333068D01*
X92358714Y-89331174D01*
X92359855Y-89330686D01*
X92382411Y-89328668D01*
X92437109Y-89286183D01*
X92454678Y-89236389D01*
X92456197Y-89235088D01*
X92456954Y-89235092D01*
X92458247Y-89235349D01*
X92461484Y-89219080D01*
X92462803Y-89217576D01*
X92464765Y-89217966D01*
G37*
G36*
X88074187Y-88652279D02*
G01*
X88074830Y-88653393D01*
X88078067Y-88669664D01*
X88080119Y-88669255D01*
X88082013Y-88669898D01*
X88082501Y-88671038D01*
X88084526Y-88693621D01*
X88127021Y-88748308D01*
X88176797Y-88765861D01*
X88178098Y-88767380D01*
X88178094Y-88768137D01*
X88177836Y-88769433D01*
X88194106Y-88772670D01*
X88195610Y-88773989D01*
X88195220Y-88775951D01*
X88194106Y-88776594D01*
X88181132Y-88779174D01*
X88165082Y-88789899D01*
X87033991Y-89920990D01*
X87023266Y-89937040D01*
X87020686Y-89950015D01*
X87019367Y-89951519D01*
X87017405Y-89951129D01*
X87016762Y-89950015D01*
X87013525Y-89933744D01*
X87011473Y-89934153D01*
X87009579Y-89933510D01*
X87009091Y-89932370D01*
X87007066Y-89909787D01*
X86964571Y-89855100D01*
X86914795Y-89837547D01*
X86913494Y-89836028D01*
X86913498Y-89835271D01*
X86913756Y-89833975D01*
X86897486Y-89830738D01*
X86895982Y-89829419D01*
X86896372Y-89827457D01*
X86897486Y-89826814D01*
X86910460Y-89824234D01*
X86926510Y-89813509D01*
X88057601Y-88682418D01*
X88068326Y-88666368D01*
X88070906Y-88653393D01*
X88072225Y-88651889D01*
X88074187Y-88652279D01*
G37*
G36*
X93030451Y-88652280D02*
G01*
X93031094Y-88653394D01*
X93033674Y-88666368D01*
X93044399Y-88682418D01*
X94175490Y-89813509D01*
X94191540Y-89824234D01*
X94204515Y-89826814D01*
X94206019Y-89828133D01*
X94205629Y-89830095D01*
X94204515Y-89830738D01*
X94188244Y-89833975D01*
X94188653Y-89836027D01*
X94188010Y-89837921D01*
X94186870Y-89838409D01*
X94164287Y-89840434D01*
X94109600Y-89882929D01*
X94092047Y-89932705D01*
X94090528Y-89934006D01*
X94089771Y-89934002D01*
X94088475Y-89933744D01*
X94085238Y-89950014D01*
X94083919Y-89951518D01*
X94081957Y-89951128D01*
X94081314Y-89950014D01*
X94078734Y-89937040D01*
X94068009Y-89920990D01*
X92936918Y-88789899D01*
X92920868Y-88779174D01*
X92907893Y-88776594D01*
X92906389Y-88775275D01*
X92906779Y-88773313D01*
X92907893Y-88772670D01*
X92924164Y-88769433D01*
X92923755Y-88767381D01*
X92924398Y-88765487D01*
X92925538Y-88764999D01*
X92948121Y-88762974D01*
X93002808Y-88720479D01*
X93020361Y-88670703D01*
X93021880Y-88669402D01*
X93022637Y-88669406D01*
X93023933Y-88669664D01*
X93027170Y-88653394D01*
X93028489Y-88651890D01*
X93030451Y-88652280D01*
G37*
G36*
X87508502Y-88086594D02*
G01*
X87509145Y-88087708D01*
X87512382Y-88103979D01*
X87514432Y-88103571D01*
X87516326Y-88104214D01*
X87516814Y-88105355D01*
X87518832Y-88127911D01*
X87561317Y-88182609D01*
X87611111Y-88200178D01*
X87612412Y-88201697D01*
X87612408Y-88202454D01*
X87612151Y-88203747D01*
X87628420Y-88206984D01*
X87629924Y-88208303D01*
X87629534Y-88210265D01*
X87628420Y-88210908D01*
X87615446Y-88213488D01*
X87599396Y-88224213D01*
X86468305Y-89355304D01*
X86457580Y-89371354D01*
X86455000Y-89384329D01*
X86453681Y-89385833D01*
X86451719Y-89385443D01*
X86451076Y-89384329D01*
X86447839Y-89368058D01*
X86445789Y-89368466D01*
X86443895Y-89367823D01*
X86443407Y-89366682D01*
X86441389Y-89344126D01*
X86398904Y-89289428D01*
X86349110Y-89271859D01*
X86347809Y-89270340D01*
X86347813Y-89269583D01*
X86348070Y-89268290D01*
X86331801Y-89265053D01*
X86330297Y-89263734D01*
X86330687Y-89261772D01*
X86331801Y-89261129D01*
X86344775Y-89258549D01*
X86360825Y-89247824D01*
X87491916Y-88116733D01*
X87502641Y-88100683D01*
X87505221Y-88087708D01*
X87506540Y-88086204D01*
X87508502Y-88086594D01*
G37*
G36*
X93596136Y-88086595D02*
G01*
X93596779Y-88087709D01*
X93599359Y-88100683D01*
X93610084Y-88116733D01*
X94741175Y-89247824D01*
X94757225Y-89258549D01*
X94770200Y-89261129D01*
X94771704Y-89262448D01*
X94771314Y-89264410D01*
X94770200Y-89265053D01*
X94753929Y-89268290D01*
X94754337Y-89270340D01*
X94753694Y-89272234D01*
X94752553Y-89272722D01*
X94729997Y-89274740D01*
X94675299Y-89317225D01*
X94657730Y-89367019D01*
X94656211Y-89368320D01*
X94655454Y-89368316D01*
X94654161Y-89368059D01*
X94650924Y-89384328D01*
X94649605Y-89385832D01*
X94647643Y-89385442D01*
X94647000Y-89384328D01*
X94644420Y-89371354D01*
X94633695Y-89355304D01*
X93502604Y-88224213D01*
X93486554Y-88213488D01*
X93473579Y-88210908D01*
X93472075Y-88209589D01*
X93472465Y-88207627D01*
X93473579Y-88206984D01*
X93489850Y-88203747D01*
X93489442Y-88201697D01*
X93490085Y-88199803D01*
X93491226Y-88199315D01*
X93513782Y-88197297D01*
X93568480Y-88154812D01*
X93586049Y-88105018D01*
X93587568Y-88103717D01*
X93588325Y-88103721D01*
X93589618Y-88103978D01*
X93592855Y-88087709D01*
X93594174Y-88086205D01*
X93596136Y-88086595D01*
G37*
G36*
X86942817Y-87520908D02*
G01*
X86943460Y-87522022D01*
X86946697Y-87538293D01*
X86948749Y-87537884D01*
X86950643Y-87538527D01*
X86951131Y-87539667D01*
X86953156Y-87562250D01*
X86995651Y-87616937D01*
X87045426Y-87634489D01*
X87046727Y-87636008D01*
X87046723Y-87636765D01*
X87046465Y-87638062D01*
X87062735Y-87641299D01*
X87064239Y-87642618D01*
X87063849Y-87644580D01*
X87062735Y-87645223D01*
X87049761Y-87647803D01*
X87033711Y-87658528D01*
X85902620Y-88789619D01*
X85891895Y-88805669D01*
X85889315Y-88818644D01*
X85887996Y-88820148D01*
X85886034Y-88819758D01*
X85885391Y-88818644D01*
X85882154Y-88802373D01*
X85880102Y-88802782D01*
X85878208Y-88802139D01*
X85877720Y-88800999D01*
X85875695Y-88778416D01*
X85833200Y-88723729D01*
X85783425Y-88706177D01*
X85782124Y-88704658D01*
X85782128Y-88703901D01*
X85782386Y-88702604D01*
X85766116Y-88699367D01*
X85764612Y-88698048D01*
X85765002Y-88696086D01*
X85766116Y-88695443D01*
X85779090Y-88692863D01*
X85795140Y-88682138D01*
X86926231Y-87551047D01*
X86936956Y-87534997D01*
X86939536Y-87522022D01*
X86940855Y-87520518D01*
X86942817Y-87520908D01*
G37*
G36*
X94161821Y-87520909D02*
G01*
X94162464Y-87522023D01*
X94165044Y-87534997D01*
X94175769Y-87551047D01*
X95306860Y-88682138D01*
X95322910Y-88692863D01*
X95335885Y-88695443D01*
X95337389Y-88696762D01*
X95336999Y-88698724D01*
X95335885Y-88699367D01*
X95319614Y-88702604D01*
X95320022Y-88704654D01*
X95319379Y-88706548D01*
X95318238Y-88707036D01*
X95295682Y-88709054D01*
X95240984Y-88751539D01*
X95223415Y-88801333D01*
X95221896Y-88802634D01*
X95221139Y-88802630D01*
X95219846Y-88802373D01*
X95216609Y-88818643D01*
X95215290Y-88820147D01*
X95213328Y-88819757D01*
X95212685Y-88818643D01*
X95210105Y-88805669D01*
X95199380Y-88789619D01*
X94068289Y-87658528D01*
X94052239Y-87647803D01*
X94039264Y-87645223D01*
X94037760Y-87643904D01*
X94038150Y-87641942D01*
X94039264Y-87641299D01*
X94055535Y-87638062D01*
X94055127Y-87636012D01*
X94055770Y-87634118D01*
X94056911Y-87633630D01*
X94079467Y-87631612D01*
X94134165Y-87589127D01*
X94151734Y-87539333D01*
X94153253Y-87538032D01*
X94154010Y-87538036D01*
X94155303Y-87538293D01*
X94158540Y-87522023D01*
X94159859Y-87520519D01*
X94161821Y-87520909D01*
G37*
G36*
X86377131Y-86955223D02*
G01*
X86377774Y-86956337D01*
X86381011Y-86972608D01*
X86383061Y-86972200D01*
X86384955Y-86972843D01*
X86385443Y-86973984D01*
X86387461Y-86996540D01*
X86429946Y-87051238D01*
X86479740Y-87068807D01*
X86481041Y-87070326D01*
X86481037Y-87071083D01*
X86480780Y-87072376D01*
X86497050Y-87075613D01*
X86498554Y-87076932D01*
X86498164Y-87078894D01*
X86497050Y-87079537D01*
X86484076Y-87082117D01*
X86468026Y-87092842D01*
X85336935Y-88223933D01*
X85326210Y-88239983D01*
X85323630Y-88252958D01*
X85322311Y-88254462D01*
X85320349Y-88254072D01*
X85319706Y-88252958D01*
X85316469Y-88236687D01*
X85314419Y-88237095D01*
X85312525Y-88236452D01*
X85312037Y-88235311D01*
X85310019Y-88212755D01*
X85267534Y-88158057D01*
X85217740Y-88140488D01*
X85216439Y-88138969D01*
X85216443Y-88138212D01*
X85216700Y-88136919D01*
X85200430Y-88133682D01*
X85198926Y-88132363D01*
X85199316Y-88130401D01*
X85200430Y-88129758D01*
X85213404Y-88127178D01*
X85229454Y-88116453D01*
X86360545Y-86985362D01*
X86371270Y-86969312D01*
X86373850Y-86956337D01*
X86375169Y-86954833D01*
X86377131Y-86955223D01*
G37*
G36*
X94727507Y-86955224D02*
G01*
X94728150Y-86956338D01*
X94730730Y-86969312D01*
X94741455Y-86985362D01*
X95872546Y-88116453D01*
X95888596Y-88127178D01*
X95901571Y-88129758D01*
X95903075Y-88131077D01*
X95902685Y-88133039D01*
X95901571Y-88133682D01*
X95885300Y-88136919D01*
X95885709Y-88138971D01*
X95885066Y-88140865D01*
X95883926Y-88141353D01*
X95861343Y-88143378D01*
X95806656Y-88185873D01*
X95789104Y-88235648D01*
X95787585Y-88236949D01*
X95786828Y-88236945D01*
X95785531Y-88236687D01*
X95782294Y-88252957D01*
X95780975Y-88254461D01*
X95779013Y-88254071D01*
X95778370Y-88252957D01*
X95775790Y-88239983D01*
X95765065Y-88223933D01*
X94633974Y-87092842D01*
X94617924Y-87082117D01*
X94604949Y-87079537D01*
X94603445Y-87078218D01*
X94603835Y-87076256D01*
X94604949Y-87075613D01*
X94621220Y-87072376D01*
X94620811Y-87070324D01*
X94621454Y-87068430D01*
X94622594Y-87067942D01*
X94645177Y-87065917D01*
X94699864Y-87023422D01*
X94717416Y-86973647D01*
X94718935Y-86972346D01*
X94719692Y-86972350D01*
X94720989Y-86972608D01*
X94724226Y-86956338D01*
X94725545Y-86954834D01*
X94727507Y-86955224D01*
G37*
G36*
X95781651Y-84338928D02*
G01*
X95782294Y-84340042D01*
X95785531Y-84356313D01*
X95787581Y-84355905D01*
X95789475Y-84356548D01*
X95789963Y-84357689D01*
X95791981Y-84380245D01*
X95834466Y-84434943D01*
X95884260Y-84452512D01*
X95885561Y-84454031D01*
X95885557Y-84454788D01*
X95885300Y-84456081D01*
X95901570Y-84459318D01*
X95903074Y-84460637D01*
X95902684Y-84462599D01*
X95901570Y-84463242D01*
X95888596Y-84465822D01*
X95872546Y-84476547D01*
X94741455Y-85607638D01*
X94730730Y-85623688D01*
X94728150Y-85636663D01*
X94726831Y-85638167D01*
X94724869Y-85637777D01*
X94724226Y-85636663D01*
X94720989Y-85620392D01*
X94718939Y-85620800D01*
X94717045Y-85620157D01*
X94716557Y-85619016D01*
X94714539Y-85596460D01*
X94672054Y-85541762D01*
X94622260Y-85524193D01*
X94620959Y-85522674D01*
X94620963Y-85521917D01*
X94621220Y-85520624D01*
X94604950Y-85517387D01*
X94603446Y-85516068D01*
X94603836Y-85514106D01*
X94604950Y-85513463D01*
X94617924Y-85510883D01*
X94633974Y-85500158D01*
X95765065Y-84369067D01*
X95775790Y-84353017D01*
X95778370Y-84340042D01*
X95779689Y-84338538D01*
X95781651Y-84338928D01*
G37*
G36*
X85322987Y-84338929D02*
G01*
X85323630Y-84340043D01*
X85326210Y-84353017D01*
X85336935Y-84369067D01*
X86468026Y-85500158D01*
X86484076Y-85510883D01*
X86497051Y-85513463D01*
X86498555Y-85514782D01*
X86498165Y-85516744D01*
X86497051Y-85517387D01*
X86480780Y-85520624D01*
X86481189Y-85522676D01*
X86480546Y-85524570D01*
X86479406Y-85525058D01*
X86456823Y-85527083D01*
X86402136Y-85569578D01*
X86384584Y-85619353D01*
X86383065Y-85620654D01*
X86382308Y-85620650D01*
X86381011Y-85620392D01*
X86377774Y-85636662D01*
X86376455Y-85638166D01*
X86374493Y-85637776D01*
X86373850Y-85636662D01*
X86371270Y-85623688D01*
X86360545Y-85607638D01*
X85229454Y-84476547D01*
X85213404Y-84465822D01*
X85200429Y-84463242D01*
X85198925Y-84461923D01*
X85199315Y-84459961D01*
X85200429Y-84459318D01*
X85216700Y-84456081D01*
X85216291Y-84454029D01*
X85216934Y-84452135D01*
X85218074Y-84451647D01*
X85240657Y-84449622D01*
X85295344Y-84407127D01*
X85312896Y-84357352D01*
X85314415Y-84356051D01*
X85315172Y-84356055D01*
X85316469Y-84356313D01*
X85319706Y-84340043D01*
X85321025Y-84338539D01*
X85322987Y-84338929D01*
G37*
G36*
X95215966Y-83773242D02*
G01*
X95216609Y-83774356D01*
X95219846Y-83790627D01*
X95221898Y-83790218D01*
X95223792Y-83790861D01*
X95224280Y-83792001D01*
X95226305Y-83814584D01*
X95268800Y-83869271D01*
X95318575Y-83886823D01*
X95319876Y-83888342D01*
X95319872Y-83889099D01*
X95319614Y-83890396D01*
X95335884Y-83893633D01*
X95337388Y-83894952D01*
X95336998Y-83896914D01*
X95335884Y-83897557D01*
X95322910Y-83900137D01*
X95306860Y-83910862D01*
X94175769Y-85041953D01*
X94165044Y-85058003D01*
X94162464Y-85070978D01*
X94161145Y-85072482D01*
X94159183Y-85072092D01*
X94158540Y-85070978D01*
X94155303Y-85054707D01*
X94153251Y-85055116D01*
X94151357Y-85054473D01*
X94150869Y-85053333D01*
X94148844Y-85030750D01*
X94106349Y-84976063D01*
X94056574Y-84958511D01*
X94055273Y-84956992D01*
X94055277Y-84956235D01*
X94055535Y-84954938D01*
X94039265Y-84951701D01*
X94037761Y-84950382D01*
X94038151Y-84948420D01*
X94039265Y-84947777D01*
X94052239Y-84945197D01*
X94068289Y-84934472D01*
X95199380Y-83803381D01*
X95210105Y-83787331D01*
X95212685Y-83774356D01*
X95214004Y-83772852D01*
X95215966Y-83773242D01*
G37*
G36*
X85888672Y-83773243D02*
G01*
X85889315Y-83774357D01*
X85891895Y-83787331D01*
X85902620Y-83803381D01*
X87033711Y-84934472D01*
X87049761Y-84945197D01*
X87062736Y-84947777D01*
X87064240Y-84949096D01*
X87063850Y-84951058D01*
X87062736Y-84951701D01*
X87046465Y-84954938D01*
X87046873Y-84956988D01*
X87046230Y-84958882D01*
X87045089Y-84959370D01*
X87022533Y-84961388D01*
X86967835Y-85003873D01*
X86950266Y-85053667D01*
X86948747Y-85054968D01*
X86947990Y-85054964D01*
X86946697Y-85054707D01*
X86943460Y-85070977D01*
X86942141Y-85072481D01*
X86940179Y-85072091D01*
X86939536Y-85070977D01*
X86936956Y-85058003D01*
X86926231Y-85041953D01*
X85795140Y-83910862D01*
X85779090Y-83900137D01*
X85766115Y-83897557D01*
X85764611Y-83896238D01*
X85765001Y-83894276D01*
X85766115Y-83893633D01*
X85782386Y-83890396D01*
X85781978Y-83888346D01*
X85782621Y-83886452D01*
X85783762Y-83885964D01*
X85806318Y-83883946D01*
X85861016Y-83841461D01*
X85878585Y-83791667D01*
X85880104Y-83790366D01*
X85880861Y-83790370D01*
X85882154Y-83790627D01*
X85885391Y-83774357D01*
X85886710Y-83772853D01*
X85888672Y-83773243D01*
G37*
G36*
X94650281Y-83207557D02*
G01*
X94650924Y-83208671D01*
X94654161Y-83224942D01*
X94656211Y-83224534D01*
X94658105Y-83225177D01*
X94658593Y-83226318D01*
X94660611Y-83248874D01*
X94703096Y-83303572D01*
X94752890Y-83321141D01*
X94754191Y-83322660D01*
X94754187Y-83323417D01*
X94753930Y-83324710D01*
X94770199Y-83327947D01*
X94771703Y-83329266D01*
X94771313Y-83331228D01*
X94770199Y-83331871D01*
X94757225Y-83334451D01*
X94741175Y-83345176D01*
X93610084Y-84476267D01*
X93599359Y-84492317D01*
X93596779Y-84505292D01*
X93595460Y-84506796D01*
X93593498Y-84506406D01*
X93592855Y-84505292D01*
X93589618Y-84489021D01*
X93587568Y-84489429D01*
X93585674Y-84488786D01*
X93585186Y-84487645D01*
X93583168Y-84465089D01*
X93540683Y-84410391D01*
X93490889Y-84392822D01*
X93489588Y-84391303D01*
X93489592Y-84390546D01*
X93489849Y-84389253D01*
X93473580Y-84386016D01*
X93472076Y-84384697D01*
X93472466Y-84382735D01*
X93473580Y-84382092D01*
X93486554Y-84379512D01*
X93502604Y-84368787D01*
X94633695Y-83237696D01*
X94644420Y-83221646D01*
X94647000Y-83208671D01*
X94648319Y-83207167D01*
X94650281Y-83207557D01*
G37*
G36*
X86454357Y-83207558D02*
G01*
X86455000Y-83208672D01*
X86457580Y-83221646D01*
X86468305Y-83237696D01*
X87599396Y-84368787D01*
X87615446Y-84379512D01*
X87628421Y-84382092D01*
X87629925Y-84383411D01*
X87629535Y-84385373D01*
X87628421Y-84386016D01*
X87612150Y-84389253D01*
X87612558Y-84391303D01*
X87611915Y-84393197D01*
X87610774Y-84393685D01*
X87588218Y-84395703D01*
X87533520Y-84438188D01*
X87515951Y-84487982D01*
X87514432Y-84489283D01*
X87513675Y-84489279D01*
X87512382Y-84489022D01*
X87509145Y-84505291D01*
X87507826Y-84506795D01*
X87505864Y-84506405D01*
X87505221Y-84505291D01*
X87502641Y-84492317D01*
X87491916Y-84476267D01*
X86360825Y-83345176D01*
X86344775Y-83334451D01*
X86331800Y-83331871D01*
X86330296Y-83330552D01*
X86330686Y-83328590D01*
X86331800Y-83327947D01*
X86348071Y-83324710D01*
X86347663Y-83322660D01*
X86348306Y-83320766D01*
X86349447Y-83320278D01*
X86372003Y-83318260D01*
X86426701Y-83275775D01*
X86444270Y-83225981D01*
X86445789Y-83224680D01*
X86446546Y-83224684D01*
X86447839Y-83224941D01*
X86451076Y-83208672D01*
X86452395Y-83207168D01*
X86454357Y-83207558D01*
G37*
G36*
X94084595Y-82641871D02*
G01*
X94085238Y-82642985D01*
X94088475Y-82659256D01*
X94090527Y-82658847D01*
X94092421Y-82659490D01*
X94092909Y-82660630D01*
X94094934Y-82683213D01*
X94137429Y-82737900D01*
X94187205Y-82755453D01*
X94188506Y-82756972D01*
X94188502Y-82757729D01*
X94188244Y-82759025D01*
X94204514Y-82762262D01*
X94206018Y-82763581D01*
X94205628Y-82765543D01*
X94204514Y-82766186D01*
X94191540Y-82768766D01*
X94175490Y-82779491D01*
X93044399Y-83910582D01*
X93033674Y-83926632D01*
X93031094Y-83939607D01*
X93029775Y-83941111D01*
X93027813Y-83940721D01*
X93027170Y-83939607D01*
X93023933Y-83923336D01*
X93021881Y-83923745D01*
X93019987Y-83923102D01*
X93019499Y-83921962D01*
X93017474Y-83899379D01*
X92974979Y-83844692D01*
X92925203Y-83827139D01*
X92923902Y-83825620D01*
X92923906Y-83824863D01*
X92924164Y-83823567D01*
X92907894Y-83820330D01*
X92906390Y-83819011D01*
X92906780Y-83817049D01*
X92907894Y-83816406D01*
X92920868Y-83813826D01*
X92936918Y-83803101D01*
X94068009Y-82672010D01*
X94078734Y-82655960D01*
X94081314Y-82642985D01*
X94082633Y-82641481D01*
X94084595Y-82641871D01*
G37*
G36*
X87020043Y-82641872D02*
G01*
X87020686Y-82642986D01*
X87023266Y-82655960D01*
X87033991Y-82672010D01*
X88165082Y-83803101D01*
X88181132Y-83813826D01*
X88194107Y-83816406D01*
X88195611Y-83817725D01*
X88195221Y-83819687D01*
X88194107Y-83820330D01*
X88177836Y-83823567D01*
X88178245Y-83825619D01*
X88177602Y-83827513D01*
X88176462Y-83828001D01*
X88153879Y-83830026D01*
X88099192Y-83872521D01*
X88081639Y-83922297D01*
X88080120Y-83923598D01*
X88079363Y-83923594D01*
X88078067Y-83923336D01*
X88074830Y-83939606D01*
X88073511Y-83941110D01*
X88071549Y-83940720D01*
X88070906Y-83939606D01*
X88068326Y-83926632D01*
X88057601Y-83910582D01*
X86926510Y-82779491D01*
X86910460Y-82768766D01*
X86897485Y-82766186D01*
X86895981Y-82764867D01*
X86896371Y-82762905D01*
X86897485Y-82762262D01*
X86913756Y-82759025D01*
X86913347Y-82756973D01*
X86913990Y-82755079D01*
X86915130Y-82754591D01*
X86937713Y-82752566D01*
X86992400Y-82710071D01*
X87009953Y-82660295D01*
X87011472Y-82658994D01*
X87012229Y-82658998D01*
X87013525Y-82659256D01*
X87016762Y-82642986D01*
X87018081Y-82641482D01*
X87020043Y-82641872D01*
G37*
G36*
X93518910Y-82076186D02*
G01*
X93519553Y-82077300D01*
X93522790Y-82093571D01*
X93524840Y-82093163D01*
X93526734Y-82093806D01*
X93527222Y-82094947D01*
X93529240Y-82117503D01*
X93571725Y-82172201D01*
X93621519Y-82189770D01*
X93622820Y-82191289D01*
X93622816Y-82192046D01*
X93622559Y-82193339D01*
X93638828Y-82196576D01*
X93640332Y-82197895D01*
X93639942Y-82199857D01*
X93638828Y-82200500D01*
X93625854Y-82203080D01*
X93609804Y-82213805D01*
X92478713Y-83344896D01*
X92467988Y-83360946D01*
X92465408Y-83373921D01*
X92464089Y-83375425D01*
X92462127Y-83375035D01*
X92461484Y-83373921D01*
X92458247Y-83357650D01*
X92456197Y-83358058D01*
X92454303Y-83357415D01*
X92453815Y-83356274D01*
X92451797Y-83333718D01*
X92409312Y-83279020D01*
X92359518Y-83261451D01*
X92358217Y-83259932D01*
X92358221Y-83259175D01*
X92358478Y-83257882D01*
X92342209Y-83254645D01*
X92340705Y-83253326D01*
X92341095Y-83251364D01*
X92342209Y-83250721D01*
X92355183Y-83248141D01*
X92371233Y-83237416D01*
X93502324Y-82106325D01*
X93513049Y-82090275D01*
X93515629Y-82077300D01*
X93516948Y-82075796D01*
X93518910Y-82076186D01*
G37*
G36*
X87585728Y-82076187D02*
G01*
X87586371Y-82077301D01*
X87588951Y-82090275D01*
X87599676Y-82106325D01*
X88730767Y-83237416D01*
X88746817Y-83248141D01*
X88759792Y-83250721D01*
X88761296Y-83252040D01*
X88760906Y-83254002D01*
X88759792Y-83254645D01*
X88743521Y-83257882D01*
X88743929Y-83259932D01*
X88743286Y-83261826D01*
X88742145Y-83262314D01*
X88719589Y-83264332D01*
X88664891Y-83306817D01*
X88647322Y-83356611D01*
X88645803Y-83357912D01*
X88645046Y-83357908D01*
X88643753Y-83357651D01*
X88640516Y-83373920D01*
X88639197Y-83375424D01*
X88637235Y-83375034D01*
X88636592Y-83373920D01*
X88634012Y-83360946D01*
X88623287Y-83344896D01*
X87492196Y-82213805D01*
X87476146Y-82203080D01*
X87463171Y-82200500D01*
X87461667Y-82199181D01*
X87462057Y-82197219D01*
X87463171Y-82196576D01*
X87479442Y-82193339D01*
X87479034Y-82191289D01*
X87479677Y-82189395D01*
X87480818Y-82188907D01*
X87503374Y-82186889D01*
X87558072Y-82144404D01*
X87575641Y-82094610D01*
X87577160Y-82093309D01*
X87577917Y-82093313D01*
X87579210Y-82093570D01*
X87582447Y-82077301D01*
X87583766Y-82075797D01*
X87585728Y-82076187D01*
G37*
G36*
X92953224Y-81510501D02*
G01*
X92953867Y-81511615D01*
X92957104Y-81527886D01*
X92959154Y-81527478D01*
X92961048Y-81528121D01*
X92961536Y-81529262D01*
X92963554Y-81551818D01*
X93006039Y-81606516D01*
X93055833Y-81624085D01*
X93057134Y-81625604D01*
X93057130Y-81626361D01*
X93056873Y-81627654D01*
X93073143Y-81630891D01*
X93074647Y-81632210D01*
X93074257Y-81634172D01*
X93073143Y-81634815D01*
X93060169Y-81637395D01*
X93044119Y-81648120D01*
X91913028Y-82779211D01*
X91902303Y-82795261D01*
X91899723Y-82808236D01*
X91898404Y-82809740D01*
X91896442Y-82809350D01*
X91895799Y-82808236D01*
X91892562Y-82791965D01*
X91890512Y-82792373D01*
X91888618Y-82791730D01*
X91888130Y-82790589D01*
X91886112Y-82768033D01*
X91843627Y-82713335D01*
X91793833Y-82695766D01*
X91792532Y-82694247D01*
X91792536Y-82693490D01*
X91792793Y-82692197D01*
X91776523Y-82688960D01*
X91775019Y-82687641D01*
X91775409Y-82685679D01*
X91776523Y-82685036D01*
X91789497Y-82682456D01*
X91805547Y-82671731D01*
X92936638Y-81540640D01*
X92947363Y-81524590D01*
X92949943Y-81511615D01*
X92951262Y-81510111D01*
X92953224Y-81510501D01*
G37*
G36*
X88151414Y-81510502D02*
G01*
X88152057Y-81511616D01*
X88154637Y-81524590D01*
X88165362Y-81540640D01*
X89296453Y-82671731D01*
X89312503Y-82682456D01*
X89325478Y-82685036D01*
X89326982Y-82686355D01*
X89326592Y-82688317D01*
X89325478Y-82688960D01*
X89309207Y-82692197D01*
X89309616Y-82694249D01*
X89308973Y-82696143D01*
X89307833Y-82696631D01*
X89285250Y-82698656D01*
X89230563Y-82741151D01*
X89213011Y-82790926D01*
X89211492Y-82792227D01*
X89210735Y-82792223D01*
X89209438Y-82791965D01*
X89206201Y-82808235D01*
X89204882Y-82809739D01*
X89202920Y-82809349D01*
X89202277Y-82808235D01*
X89199697Y-82795261D01*
X89188972Y-82779211D01*
X88057881Y-81648120D01*
X88041831Y-81637395D01*
X88028856Y-81634815D01*
X88027352Y-81633496D01*
X88027742Y-81631534D01*
X88028856Y-81630891D01*
X88045127Y-81627654D01*
X88044718Y-81625602D01*
X88045361Y-81623708D01*
X88046501Y-81623220D01*
X88069084Y-81621195D01*
X88123771Y-81578700D01*
X88141323Y-81528925D01*
X88142842Y-81527624D01*
X88143599Y-81527628D01*
X88144896Y-81527886D01*
X88148133Y-81511616D01*
X88149452Y-81510112D01*
X88151414Y-81510502D01*
G37*
G36*
X92387539Y-80944815D02*
G01*
X92388182Y-80945929D01*
X92391419Y-80962200D01*
X92393471Y-80961791D01*
X92395365Y-80962434D01*
X92395853Y-80963574D01*
X92397878Y-80986157D01*
X92440373Y-81040844D01*
X92490148Y-81058396D01*
X92491449Y-81059915D01*
X92491445Y-81060672D01*
X92491187Y-81061969D01*
X92507457Y-81065206D01*
X92508961Y-81066525D01*
X92508571Y-81068487D01*
X92507457Y-81069130D01*
X92494483Y-81071710D01*
X92478433Y-81082435D01*
X91347342Y-82213526D01*
X91336617Y-82229576D01*
X91334037Y-82242551D01*
X91332718Y-82244055D01*
X91330756Y-82243665D01*
X91330113Y-82242551D01*
X91326876Y-82226280D01*
X91324824Y-82226689D01*
X91322930Y-82226046D01*
X91322442Y-82224906D01*
X91320417Y-82202323D01*
X91277922Y-82147636D01*
X91228147Y-82130084D01*
X91226846Y-82128565D01*
X91226850Y-82127808D01*
X91227108Y-82126511D01*
X91210838Y-82123274D01*
X91209334Y-82121955D01*
X91209724Y-82119993D01*
X91210838Y-82119350D01*
X91223812Y-82116770D01*
X91239862Y-82106045D01*
X92370953Y-80974954D01*
X92381678Y-80958904D01*
X92384258Y-80945929D01*
X92385577Y-80944425D01*
X92387539Y-80944815D01*
G37*
G36*
X88717099Y-80944816D02*
G01*
X88717742Y-80945930D01*
X88720322Y-80958904D01*
X88731047Y-80974954D01*
X89862138Y-82106045D01*
X89878188Y-82116770D01*
X89891163Y-82119350D01*
X89892667Y-82120669D01*
X89892277Y-82122631D01*
X89891163Y-82123274D01*
X89874892Y-82126511D01*
X89875300Y-82128561D01*
X89874657Y-82130455D01*
X89873516Y-82130943D01*
X89850960Y-82132961D01*
X89796262Y-82175446D01*
X89778693Y-82225240D01*
X89777174Y-82226541D01*
X89776417Y-82226537D01*
X89775124Y-82226280D01*
X89771887Y-82242550D01*
X89770568Y-82244054D01*
X89768606Y-82243664D01*
X89767963Y-82242550D01*
X89765383Y-82229576D01*
X89754658Y-82213526D01*
X88623567Y-81082435D01*
X88607517Y-81071710D01*
X88594542Y-81069130D01*
X88593038Y-81067811D01*
X88593428Y-81065849D01*
X88594542Y-81065206D01*
X88610813Y-81061969D01*
X88610405Y-81059919D01*
X88611048Y-81058025D01*
X88612189Y-81057537D01*
X88634745Y-81055519D01*
X88689443Y-81013034D01*
X88707012Y-80963240D01*
X88708531Y-80961939D01*
X88709288Y-80961943D01*
X88710581Y-80962200D01*
X88713818Y-80945930D01*
X88715137Y-80944426D01*
X88717099Y-80944816D01*
G37*
G36*
X77716859Y-74587083D02*
G01*
X77717600Y-74588637D01*
X77717600Y-75118954D01*
X77716600Y-75120686D01*
X77714600Y-75120686D01*
X77713625Y-75119267D01*
X77713131Y-75116149D01*
X77683336Y-75053295D01*
X77624543Y-75016686D01*
X77555292Y-75017675D01*
X77497556Y-75055954D01*
X77470073Y-75116132D01*
X77469575Y-75119276D01*
X77468317Y-75120830D01*
X77466341Y-75120517D01*
X77465600Y-75118963D01*
X77465600Y-74588646D01*
X77466600Y-74586914D01*
X77468600Y-74586914D01*
X77469575Y-74588333D01*
X77470069Y-74591451D01*
X77499864Y-74654305D01*
X77558657Y-74690914D01*
X77627908Y-74689925D01*
X77685644Y-74651646D01*
X77713127Y-74591468D01*
X77713625Y-74588324D01*
X77714883Y-74586770D01*
X77716859Y-74587083D01*
G37*
G36*
X86047168Y-68730665D02*
G01*
X86047558Y-68732627D01*
X86047199Y-68733267D01*
X86004011Y-68784946D01*
X85995380Y-68853661D01*
X86025344Y-68916291D01*
X86046182Y-68934348D01*
X86046836Y-68936238D01*
X86045526Y-68937749D01*
X86044482Y-68937821D01*
X86030301Y-68935000D01*
X84530699Y-68935000D01*
X84515726Y-68937978D01*
X84513832Y-68937335D01*
X84513442Y-68935373D01*
X84513801Y-68934733D01*
X84556989Y-68883054D01*
X84565620Y-68814339D01*
X84535656Y-68751709D01*
X84514818Y-68733652D01*
X84514164Y-68731762D01*
X84515474Y-68730251D01*
X84516518Y-68730179D01*
X84530699Y-68733000D01*
X86030301Y-68733000D01*
X86045274Y-68730022D01*
X86047168Y-68730665D01*
G37*
G36*
X83334867Y-57145301D02*
G01*
X83386546Y-57188489D01*
X83455261Y-57197120D01*
X83517891Y-57167156D01*
X83535948Y-57146318D01*
X83537838Y-57145664D01*
X83539349Y-57146974D01*
X83539421Y-57148018D01*
X83536600Y-57162199D01*
X83536600Y-58661801D01*
X83539578Y-58676774D01*
X83538935Y-58678668D01*
X83536973Y-58679058D01*
X83536333Y-58678699D01*
X83484654Y-58635511D01*
X83415939Y-58626880D01*
X83353309Y-58656844D01*
X83335252Y-58677682D01*
X83333362Y-58678336D01*
X83331851Y-58677026D01*
X83331779Y-58675982D01*
X83334600Y-58661801D01*
X83334600Y-57162199D01*
X83331622Y-57147226D01*
X83332265Y-57145332D01*
X83334227Y-57144942D01*
X83334867Y-57145301D01*
G37*
M02*
