M48
; DRILL file {KiCad (6.0.9)} date Sun Jan 15 18:08:24 2023
; FORMAT={-:-/ absolute / metric / decimal}
; #@! TF.CreationDate,2023-01-15T18:08:24+00:00
; #@! TF.GenerationSoftware,Kicad,Pcbnew,(6.0.9)
; #@! TF.FileFunction,Plated,1,2,PTH
FMAT,2
METRIC
; #@! TA.AperFunction,Plated,PTH,ViaDrill
T1C0.400
; #@! TA.AperFunction,Plated,PTH,ComponentDrill
T2C0.800
; #@! TA.AperFunction,Plated,PTH,ComponentDrill
T3C0.950
; #@! TA.AperFunction,Plated,PTH,ComponentDrill
T4C1.000
; #@! TA.AperFunction,Plated,PTH,ComponentDrill
T5C1.100
; #@! TA.AperFunction,Plated,PTH,ComponentDrill
T6C2.200
%
G90
G05
T1
X72.72Y-66.345
X72.72Y-68.174
X72.771Y-70.053
X73.838Y-66.345
X73.838Y-68.174
X73.889Y-70.053
X76.581Y-80.772
X76.581Y-82.042
X77.241Y-93.37
X77.953Y-80.772
X78.003Y-82.042
X81.001Y-72.034
X81.864Y-68.275
X82.728Y-70.663
X83.591Y-91.694
X84.2Y-88.393
X84.353Y-64.008
X84.353Y-65.243
X84.439Y-60.398
X84.709Y-82.144
X85.827Y-91.694
X87.198Y-91.389
X88.023Y-92.004
X88.316Y-80.112
X89.535Y-94.132
X89.687Y-87.274
X90.653Y-86.36
X90.87Y-94.147
X90.957Y-83.972
X90.957Y-88.443
X91.973Y-87.63
X92.126Y-93.066
X92.924Y-79.893
X94.463Y-60.503
X94.619Y-62.503
X95.021Y-80.264
X95.326Y-93.167
X97.053Y-90.729
X98.425Y-78.422
X100.305Y-56.032
X100.559Y-54.661
X101.676Y-72.441
X102.032Y-89.357
X102.286Y-64.872
X102.501Y-73.66
X102.946Y-65.837
X103.2Y-71.171
X103.759Y-93.624
X109.144Y-63.246
X109.144Y-64.516
X109.144Y-65.786
T2
X99.997Y-75.336
X101.524Y-82.499
X101.524Y-87.379
X104.877Y-75.336
T3
X81.242Y-52.514
X83.742Y-52.514
X86.242Y-52.514
X88.742Y-52.514
X91.242Y-52.514
X93.742Y-52.514
X96.242Y-52.514
X98.742Y-52.514
T4
X73.228Y-60.452
X73.228Y-75.352
X78.93Y-89.281
X78.93Y-91.821
X81.471Y-89.281
X81.471Y-91.821
X81.978Y-60.452
X81.978Y-75.352
X88.837Y-68.834
X88.837Y-71.374
X88.837Y-73.914
X91.376Y-68.834
X91.376Y-71.374
X91.376Y-73.914
T5
X74.486Y-79.566
X74.486Y-84.066
X80.986Y-79.566
X80.986Y-84.066
T6
X73.5Y-53.5
X73.5Y-91.4
X106.5Y-53.5
X106.5Y-91.4
T0
M30
