G04 #@! TF.GenerationSoftware,KiCad,Pcbnew,(6.0.9)*
G04 #@! TF.CreationDate,2023-01-15T18:07:45+00:00*
G04 #@! TF.ProjectId,CanBus-Radio-VAG,43616e42-7573-42d5-9261-64696f2d5641,1.0*
G04 #@! TF.SameCoordinates,Original*
G04 #@! TF.FileFunction,Legend,Bot*
G04 #@! TF.FilePolarity,Positive*
%FSLAX46Y46*%
G04 Gerber Fmt 4.6, Leading zero omitted, Abs format (unit mm)*
G04 Created by KiCad (PCBNEW (6.0.9)) date 2023-01-15 18:07:45*
%MOMM*%
%LPD*%
G01*
G04 APERTURE LIST*
G04 Aperture macros list*
%AMRoundRect*
0 Rectangle with rounded corners*
0 $1 Rounding radius*
0 $2 $3 $4 $5 $6 $7 $8 $9 X,Y pos of 4 corners*
0 Add a 4 corners polygon primitive as box body*
4,1,4,$2,$3,$4,$5,$6,$7,$8,$9,$2,$3,0*
0 Add four circle primitives for the rounded corners*
1,1,$1+$1,$2,$3*
1,1,$1+$1,$4,$5*
1,1,$1+$1,$6,$7*
1,1,$1+$1,$8,$9*
0 Add four rect primitives between the rounded corners*
20,1,$1+$1,$2,$3,$4,$5,0*
20,1,$1+$1,$4,$5,$6,$7,0*
20,1,$1+$1,$6,$7,$8,$9,0*
20,1,$1+$1,$8,$9,$2,$3,0*%
G04 Aperture macros list end*
%ADD10C,0.150000*%
%ADD11C,0.010000*%
%ADD12C,2.102000*%
%ADD13C,4.502000*%
%ADD14C,1.602000*%
%ADD15O,1.802000X2.052000*%
%ADD16RoundRect,0.301000X0.600000X0.725000X-0.600000X0.725000X-0.600000X-0.725000X0.600000X-0.725000X0*%
%ADD17O,1.802000X1.802000*%
%ADD18RoundRect,0.051000X-0.850000X-0.850000X0.850000X-0.850000X0.850000X0.850000X-0.850000X0.850000X0*%
G04 APERTURE END LIST*
D10*
X103554104Y-63361314D02*
X103592200Y-63399409D01*
X103706485Y-63437504D01*
X103782676Y-63437504D01*
X103896961Y-63399409D01*
X103973152Y-63323219D01*
X104011247Y-63247028D01*
X104049342Y-63094647D01*
X104049342Y-62980361D01*
X104011247Y-62827980D01*
X103973152Y-62751790D01*
X103896961Y-62675600D01*
X103782676Y-62637504D01*
X103706485Y-62637504D01*
X103592200Y-62675600D01*
X103554104Y-62713695D01*
X103249342Y-63208933D02*
X102868390Y-63208933D01*
X103325533Y-63437504D02*
X103058866Y-62637504D01*
X102792200Y-63437504D01*
X102525533Y-63437504D02*
X102525533Y-62637504D01*
X102068390Y-63437504D01*
X102068390Y-62637504D01*
X100811247Y-63018457D02*
X100696961Y-63056552D01*
X100658866Y-63094647D01*
X100620771Y-63170838D01*
X100620771Y-63285123D01*
X100658866Y-63361314D01*
X100696961Y-63399409D01*
X100773152Y-63437504D01*
X101077914Y-63437504D01*
X101077914Y-62637504D01*
X100811247Y-62637504D01*
X100735057Y-62675600D01*
X100696961Y-62713695D01*
X100658866Y-62789885D01*
X100658866Y-62866076D01*
X100696961Y-62942266D01*
X100735057Y-62980361D01*
X100811247Y-63018457D01*
X101077914Y-63018457D01*
X100277914Y-62637504D02*
X100277914Y-63285123D01*
X100239819Y-63361314D01*
X100201723Y-63399409D01*
X100125533Y-63437504D01*
X99973152Y-63437504D01*
X99896961Y-63399409D01*
X99858866Y-63361314D01*
X99820771Y-63285123D01*
X99820771Y-62637504D01*
X99477914Y-63399409D02*
X99363628Y-63437504D01*
X99173152Y-63437504D01*
X99096961Y-63399409D01*
X99058866Y-63361314D01*
X99020771Y-63285123D01*
X99020771Y-63208933D01*
X99058866Y-63132742D01*
X99096961Y-63094647D01*
X99173152Y-63056552D01*
X99325533Y-63018457D01*
X99401723Y-62980361D01*
X99439819Y-62942266D01*
X99477914Y-62866076D01*
X99477914Y-62789885D01*
X99439819Y-62713695D01*
X99401723Y-62675600D01*
X99325533Y-62637504D01*
X99135057Y-62637504D01*
X99020771Y-62675600D01*
X98068390Y-63437504D02*
X98068390Y-62637504D01*
X97687438Y-63437504D02*
X97687438Y-62637504D01*
X97230295Y-63437504D01*
X97230295Y-62637504D01*
X96963628Y-62637504D02*
X96506485Y-62637504D01*
X96735057Y-63437504D02*
X96735057Y-62637504D01*
X96239819Y-63018457D02*
X95973152Y-63018457D01*
X95858866Y-63437504D02*
X96239819Y-63437504D01*
X96239819Y-62637504D01*
X95858866Y-62637504D01*
X95058866Y-63437504D02*
X95325533Y-63056552D01*
X95516009Y-63437504D02*
X95516009Y-62637504D01*
X95211247Y-62637504D01*
X95135057Y-62675600D01*
X95096961Y-62713695D01*
X95058866Y-62789885D01*
X95058866Y-62904171D01*
X95096961Y-62980361D01*
X95135057Y-63018457D01*
X95211247Y-63056552D01*
X95516009Y-63056552D01*
X94449342Y-63018457D02*
X94716009Y-63018457D01*
X94716009Y-63437504D02*
X94716009Y-62637504D01*
X94335057Y-62637504D01*
X94068390Y-63208933D02*
X93687438Y-63208933D01*
X94144580Y-63437504D02*
X93877914Y-62637504D01*
X93611247Y-63437504D01*
X92887438Y-63361314D02*
X92925533Y-63399409D01*
X93039819Y-63437504D01*
X93116009Y-63437504D01*
X93230295Y-63399409D01*
X93306485Y-63323219D01*
X93344580Y-63247028D01*
X93382676Y-63094647D01*
X93382676Y-62980361D01*
X93344580Y-62827980D01*
X93306485Y-62751790D01*
X93230295Y-62675600D01*
X93116009Y-62637504D01*
X93039819Y-62637504D01*
X92925533Y-62675600D01*
X92887438Y-62713695D01*
X92544580Y-63018457D02*
X92277914Y-63018457D01*
X92163628Y-63437504D02*
X92544580Y-63437504D01*
X92544580Y-62637504D01*
X92163628Y-62637504D01*
X90944580Y-63018457D02*
X91211247Y-63018457D01*
X91211247Y-63437504D02*
X91211247Y-62637504D01*
X90830295Y-62637504D01*
X90373152Y-62637504D02*
X90220771Y-62637504D01*
X90144580Y-62675600D01*
X90068390Y-62751790D01*
X90030295Y-62904171D01*
X90030295Y-63170838D01*
X90068390Y-63323219D01*
X90144580Y-63399409D01*
X90220771Y-63437504D01*
X90373152Y-63437504D01*
X90449342Y-63399409D01*
X90525533Y-63323219D01*
X90563628Y-63170838D01*
X90563628Y-62904171D01*
X90525533Y-62751790D01*
X90449342Y-62675600D01*
X90373152Y-62637504D01*
X89230295Y-63437504D02*
X89496961Y-63056552D01*
X89687438Y-63437504D02*
X89687438Y-62637504D01*
X89382676Y-62637504D01*
X89306485Y-62675600D01*
X89268390Y-62713695D01*
X89230295Y-62789885D01*
X89230295Y-62904171D01*
X89268390Y-62980361D01*
X89306485Y-63018457D01*
X89382676Y-63056552D01*
X89687438Y-63056552D01*
X87820771Y-63437504D02*
X88087438Y-63056552D01*
X88277914Y-63437504D02*
X88277914Y-62637504D01*
X87973152Y-62637504D01*
X87896961Y-62675600D01*
X87858866Y-62713695D01*
X87820771Y-62789885D01*
X87820771Y-62904171D01*
X87858866Y-62980361D01*
X87896961Y-63018457D01*
X87973152Y-63056552D01*
X88277914Y-63056552D01*
X87516009Y-63208933D02*
X87135057Y-63208933D01*
X87592200Y-63437504D02*
X87325533Y-62637504D01*
X87058866Y-63437504D01*
X86792200Y-63437504D02*
X86792200Y-62637504D01*
X86601723Y-62637504D01*
X86487438Y-62675600D01*
X86411247Y-62751790D01*
X86373152Y-62827980D01*
X86335057Y-62980361D01*
X86335057Y-63094647D01*
X86373152Y-63247028D01*
X86411247Y-63323219D01*
X86487438Y-63399409D01*
X86601723Y-63437504D01*
X86792200Y-63437504D01*
X85992200Y-63437504D02*
X85992200Y-62637504D01*
X85458866Y-62637504D02*
X85306485Y-62637504D01*
X85230295Y-62675600D01*
X85154104Y-62751790D01*
X85116009Y-62904171D01*
X85116009Y-63170838D01*
X85154104Y-63323219D01*
X85230295Y-63399409D01*
X85306485Y-63437504D01*
X85458866Y-63437504D01*
X85535057Y-63399409D01*
X85611247Y-63323219D01*
X85649342Y-63170838D01*
X85649342Y-62904171D01*
X85611247Y-62751790D01*
X85535057Y-62675600D01*
X85458866Y-62637504D01*
X84201723Y-62599409D02*
X84887438Y-63627980D01*
X83935057Y-63437504D02*
X83935057Y-62637504D01*
X83744580Y-62637504D01*
X83630295Y-62675600D01*
X83554104Y-62751790D01*
X83516009Y-62827980D01*
X83477914Y-62980361D01*
X83477914Y-63094647D01*
X83516009Y-63247028D01*
X83554104Y-63323219D01*
X83630295Y-63399409D01*
X83744580Y-63437504D01*
X83935057Y-63437504D01*
X83173152Y-63399409D02*
X83058866Y-63437504D01*
X82868390Y-63437504D01*
X82792200Y-63399409D01*
X82754104Y-63361314D01*
X82716009Y-63285123D01*
X82716009Y-63208933D01*
X82754104Y-63132742D01*
X82792200Y-63094647D01*
X82868390Y-63056552D01*
X83020771Y-63018457D01*
X83096961Y-62980361D01*
X83135057Y-62942266D01*
X83173152Y-62866076D01*
X83173152Y-62789885D01*
X83135057Y-62713695D01*
X83096961Y-62675600D01*
X83020771Y-62637504D01*
X82830295Y-62637504D01*
X82716009Y-62675600D01*
X82373152Y-63437504D02*
X82373152Y-62637504D01*
X82068390Y-62637504D01*
X81992200Y-62675600D01*
X81954104Y-62713695D01*
X81916009Y-62789885D01*
X81916009Y-62904171D01*
X81954104Y-62980361D01*
X81992200Y-63018457D01*
X82068390Y-63056552D01*
X82373152Y-63056552D01*
X81077914Y-62637504D02*
X80811247Y-63437504D01*
X80544580Y-62637504D01*
X80316009Y-63208933D02*
X79935057Y-63208933D01*
X80392200Y-63437504D02*
X80125533Y-62637504D01*
X79858866Y-63437504D01*
X79173152Y-62675600D02*
X79249342Y-62637504D01*
X79363628Y-62637504D01*
X79477914Y-62675600D01*
X79554104Y-62751790D01*
X79592200Y-62827980D01*
X79630295Y-62980361D01*
X79630295Y-63094647D01*
X79592200Y-63247028D01*
X79554104Y-63323219D01*
X79477914Y-63399409D01*
X79363628Y-63437504D01*
X79287438Y-63437504D01*
X79173152Y-63399409D01*
X79135057Y-63361314D01*
X79135057Y-63094647D01*
X79287438Y-63094647D01*
X78296961Y-62637504D02*
X78030295Y-63437504D01*
X77763628Y-62637504D01*
X77077914Y-63437504D02*
X77535057Y-63437504D01*
X77306485Y-63437504D02*
X77306485Y-62637504D01*
X77382676Y-62751790D01*
X77458866Y-62827980D01*
X77535057Y-62866076D01*
X76735057Y-63361314D02*
X76696961Y-63399409D01*
X76735057Y-63437504D01*
X76773152Y-63399409D01*
X76735057Y-63361314D01*
X76735057Y-63437504D01*
X76201723Y-62637504D02*
X76125533Y-62637504D01*
X76049342Y-62675600D01*
X76011247Y-62713695D01*
X75973152Y-62789885D01*
X75935057Y-62942266D01*
X75935057Y-63132742D01*
X75973152Y-63285123D01*
X76011247Y-63361314D01*
X76049342Y-63399409D01*
X76125533Y-63437504D01*
X76201723Y-63437504D01*
X76277914Y-63399409D01*
X76316009Y-63361314D01*
X76354104Y-63285123D01*
X76392200Y-63132742D01*
X76392200Y-62942266D01*
X76354104Y-62789885D01*
X76316009Y-62713695D01*
X76277914Y-62675600D01*
X76201723Y-62637504D01*
X102849342Y-64496933D02*
X102468390Y-64496933D01*
X102925533Y-64725504D02*
X102658866Y-63925504D01*
X102392200Y-64725504D01*
X101782676Y-64192171D02*
X101782676Y-64725504D01*
X102125533Y-64192171D02*
X102125533Y-64611219D01*
X102087438Y-64687409D01*
X102011247Y-64725504D01*
X101896961Y-64725504D01*
X101820771Y-64687409D01*
X101782676Y-64649314D01*
X101058866Y-64192171D02*
X101058866Y-64839790D01*
X101096961Y-64915980D01*
X101135057Y-64954076D01*
X101211247Y-64992171D01*
X101325533Y-64992171D01*
X101401723Y-64954076D01*
X101058866Y-64687409D02*
X101135057Y-64725504D01*
X101287438Y-64725504D01*
X101363628Y-64687409D01*
X101401723Y-64649314D01*
X101439819Y-64573123D01*
X101439819Y-64344552D01*
X101401723Y-64268361D01*
X101363628Y-64230266D01*
X101287438Y-64192171D01*
X101135057Y-64192171D01*
X101058866Y-64230266D01*
X100335057Y-64192171D02*
X100335057Y-64725504D01*
X100677914Y-64192171D02*
X100677914Y-64611219D01*
X100639819Y-64687409D01*
X100563628Y-64725504D01*
X100449342Y-64725504D01*
X100373152Y-64687409D01*
X100335057Y-64649314D01*
X99992200Y-64687409D02*
X99916009Y-64725504D01*
X99763628Y-64725504D01*
X99687438Y-64687409D01*
X99649342Y-64611219D01*
X99649342Y-64573123D01*
X99687438Y-64496933D01*
X99763628Y-64458838D01*
X99877914Y-64458838D01*
X99954104Y-64420742D01*
X99992200Y-64344552D01*
X99992200Y-64306457D01*
X99954104Y-64230266D01*
X99877914Y-64192171D01*
X99763628Y-64192171D01*
X99687438Y-64230266D01*
X99420771Y-64192171D02*
X99116009Y-64192171D01*
X99306485Y-63925504D02*
X99306485Y-64611219D01*
X99268390Y-64687409D01*
X99192200Y-64725504D01*
X99116009Y-64725504D01*
X98735057Y-64725504D02*
X98811247Y-64687409D01*
X98849342Y-64649314D01*
X98887438Y-64573123D01*
X98887438Y-64344552D01*
X98849342Y-64268361D01*
X98811247Y-64230266D01*
X98735057Y-64192171D01*
X98620771Y-64192171D01*
X98544580Y-64230266D01*
X98506485Y-64268361D01*
X98468390Y-64344552D01*
X98468390Y-64573123D01*
X98506485Y-64649314D01*
X98544580Y-64687409D01*
X98620771Y-64725504D01*
X98735057Y-64725504D01*
X97516009Y-64725504D02*
X97516009Y-63925504D01*
X97516009Y-64306457D02*
X97058866Y-64306457D01*
X97058866Y-64725504D02*
X97058866Y-63925504D01*
X96373152Y-64687409D02*
X96449342Y-64725504D01*
X96601723Y-64725504D01*
X96677914Y-64687409D01*
X96716009Y-64611219D01*
X96716009Y-64306457D01*
X96677914Y-64230266D01*
X96601723Y-64192171D01*
X96449342Y-64192171D01*
X96373152Y-64230266D01*
X96335057Y-64306457D01*
X96335057Y-64382647D01*
X96716009Y-64458838D01*
X95992200Y-64725504D02*
X95992200Y-64192171D01*
X95992200Y-64344552D02*
X95954104Y-64268361D01*
X95916009Y-64230266D01*
X95839819Y-64192171D01*
X95763628Y-64192171D01*
X95496961Y-64192171D02*
X95496961Y-64725504D01*
X95496961Y-64268361D02*
X95458866Y-64230266D01*
X95382676Y-64192171D01*
X95268390Y-64192171D01*
X95192200Y-64230266D01*
X95154104Y-64306457D01*
X95154104Y-64725504D01*
X94430295Y-64725504D02*
X94430295Y-64306457D01*
X94468390Y-64230266D01*
X94544580Y-64192171D01*
X94696961Y-64192171D01*
X94773152Y-64230266D01*
X94430295Y-64687409D02*
X94506485Y-64725504D01*
X94696961Y-64725504D01*
X94773152Y-64687409D01*
X94811247Y-64611219D01*
X94811247Y-64535028D01*
X94773152Y-64458838D01*
X94696961Y-64420742D01*
X94506485Y-64420742D01*
X94430295Y-64382647D01*
X94544580Y-63887409D02*
X94658866Y-64001695D01*
X94049342Y-64192171D02*
X94049342Y-64725504D01*
X94049342Y-64268361D02*
X94011247Y-64230266D01*
X93935057Y-64192171D01*
X93820771Y-64192171D01*
X93744580Y-64230266D01*
X93706485Y-64306457D01*
X93706485Y-64725504D01*
X92982676Y-64725504D02*
X92982676Y-63925504D01*
X92982676Y-64687409D02*
X93058866Y-64725504D01*
X93211247Y-64725504D01*
X93287438Y-64687409D01*
X93325533Y-64649314D01*
X93363628Y-64573123D01*
X93363628Y-64344552D01*
X93325533Y-64268361D01*
X93287438Y-64230266D01*
X93211247Y-64192171D01*
X93058866Y-64192171D01*
X92982676Y-64230266D01*
X92296961Y-64687409D02*
X92373152Y-64725504D01*
X92525533Y-64725504D01*
X92601723Y-64687409D01*
X92639819Y-64611219D01*
X92639819Y-64306457D01*
X92601723Y-64230266D01*
X92525533Y-64192171D01*
X92373152Y-64192171D01*
X92296961Y-64230266D01*
X92258866Y-64306457D01*
X92258866Y-64382647D01*
X92639819Y-64458838D01*
X91992200Y-64192171D02*
X91573152Y-64192171D01*
X91992200Y-64725504D01*
X91573152Y-64725504D01*
X90430295Y-65030266D02*
X90468390Y-64992171D01*
X90544580Y-64877885D01*
X90582676Y-64801695D01*
X90620771Y-64687409D01*
X90658866Y-64496933D01*
X90658866Y-64344552D01*
X90620771Y-64154076D01*
X90582676Y-64039790D01*
X90544580Y-63963600D01*
X90468390Y-63849314D01*
X90430295Y-63811219D01*
X89706485Y-63963600D02*
X89782676Y-63925504D01*
X89896961Y-63925504D01*
X90011247Y-63963600D01*
X90087438Y-64039790D01*
X90125533Y-64115980D01*
X90163628Y-64268361D01*
X90163628Y-64382647D01*
X90125533Y-64535028D01*
X90087438Y-64611219D01*
X90011247Y-64687409D01*
X89896961Y-64725504D01*
X89820771Y-64725504D01*
X89706485Y-64687409D01*
X89668390Y-64649314D01*
X89668390Y-64382647D01*
X89820771Y-64382647D01*
X89325533Y-64725504D02*
X89325533Y-64192171D01*
X89325533Y-63925504D02*
X89363628Y-63963600D01*
X89325533Y-64001695D01*
X89287438Y-63963600D01*
X89325533Y-63925504D01*
X89325533Y-64001695D01*
X89058866Y-64192171D02*
X88754104Y-64192171D01*
X88944580Y-63925504D02*
X88944580Y-64611219D01*
X88906485Y-64687409D01*
X88830295Y-64725504D01*
X88754104Y-64725504D01*
X88487438Y-64725504D02*
X88487438Y-63925504D01*
X88144580Y-64725504D02*
X88144580Y-64306457D01*
X88182676Y-64230266D01*
X88258866Y-64192171D01*
X88373152Y-64192171D01*
X88449342Y-64230266D01*
X88487438Y-64268361D01*
X87420771Y-64192171D02*
X87420771Y-64725504D01*
X87763628Y-64192171D02*
X87763628Y-64611219D01*
X87725533Y-64687409D01*
X87649342Y-64725504D01*
X87535057Y-64725504D01*
X87458866Y-64687409D01*
X87420771Y-64649314D01*
X87039819Y-64725504D02*
X87039819Y-63925504D01*
X87039819Y-64230266D02*
X86963628Y-64192171D01*
X86811247Y-64192171D01*
X86735057Y-64230266D01*
X86696961Y-64268361D01*
X86658866Y-64344552D01*
X86658866Y-64573123D01*
X86696961Y-64649314D01*
X86735057Y-64687409D01*
X86811247Y-64725504D01*
X86963628Y-64725504D01*
X87039819Y-64687409D01*
X86316009Y-64649314D02*
X86277914Y-64687409D01*
X86316009Y-64725504D01*
X86354104Y-64687409D01*
X86316009Y-64649314D01*
X86316009Y-64725504D01*
X86316009Y-64230266D02*
X86277914Y-64268361D01*
X86316009Y-64306457D01*
X86354104Y-64268361D01*
X86316009Y-64230266D01*
X86316009Y-64306457D01*
X84830295Y-64344552D02*
X84868390Y-64306457D01*
X84944580Y-64268361D01*
X85020771Y-64268361D01*
X85096961Y-64306457D01*
X85135057Y-64344552D01*
X85173152Y-64420742D01*
X85173152Y-64496933D01*
X85135057Y-64573123D01*
X85096961Y-64611219D01*
X85020771Y-64649314D01*
X84944580Y-64649314D01*
X84868390Y-64611219D01*
X84830295Y-64573123D01*
X84830295Y-64268361D02*
X84830295Y-64573123D01*
X84792200Y-64611219D01*
X84754104Y-64611219D01*
X84677914Y-64573123D01*
X84639819Y-64496933D01*
X84639819Y-64306457D01*
X84716009Y-64192171D01*
X84830295Y-64115980D01*
X84982676Y-64077885D01*
X85135057Y-64115980D01*
X85249342Y-64192171D01*
X85325533Y-64306457D01*
X85363628Y-64458838D01*
X85325533Y-64611219D01*
X85249342Y-64725504D01*
X85135057Y-64801695D01*
X84982676Y-64839790D01*
X84830295Y-64801695D01*
X84716009Y-64725504D01*
X84335057Y-64496933D02*
X83954104Y-64496933D01*
X84411247Y-64725504D02*
X84144580Y-63925504D01*
X83877914Y-64725504D01*
X83268390Y-64192171D02*
X83268390Y-64725504D01*
X83611247Y-64192171D02*
X83611247Y-64611219D01*
X83573152Y-64687409D01*
X83496961Y-64725504D01*
X83382676Y-64725504D01*
X83306485Y-64687409D01*
X83268390Y-64649314D01*
X82544580Y-64192171D02*
X82544580Y-64839790D01*
X82582676Y-64915980D01*
X82620771Y-64954076D01*
X82696961Y-64992171D01*
X82811247Y-64992171D01*
X82887438Y-64954076D01*
X82544580Y-64687409D02*
X82620771Y-64725504D01*
X82773152Y-64725504D01*
X82849342Y-64687409D01*
X82887438Y-64649314D01*
X82925533Y-64573123D01*
X82925533Y-64344552D01*
X82887438Y-64268361D01*
X82849342Y-64230266D01*
X82773152Y-64192171D01*
X82620771Y-64192171D01*
X82544580Y-64230266D01*
X81820771Y-64192171D02*
X81820771Y-64725504D01*
X82163628Y-64192171D02*
X82163628Y-64611219D01*
X82125533Y-64687409D01*
X82049342Y-64725504D01*
X81935057Y-64725504D01*
X81858866Y-64687409D01*
X81820771Y-64649314D01*
X81477914Y-64687409D02*
X81401723Y-64725504D01*
X81249342Y-64725504D01*
X81173152Y-64687409D01*
X81135057Y-64611219D01*
X81135057Y-64573123D01*
X81173152Y-64496933D01*
X81249342Y-64458838D01*
X81363628Y-64458838D01*
X81439819Y-64420742D01*
X81477914Y-64344552D01*
X81477914Y-64306457D01*
X81439819Y-64230266D01*
X81363628Y-64192171D01*
X81249342Y-64192171D01*
X81173152Y-64230266D01*
X80906485Y-64192171D02*
X80601723Y-64192171D01*
X80792200Y-63925504D02*
X80792200Y-64611219D01*
X80754104Y-64687409D01*
X80677914Y-64725504D01*
X80601723Y-64725504D01*
X80220771Y-64725504D02*
X80296961Y-64687409D01*
X80335057Y-64649314D01*
X80373152Y-64573123D01*
X80373152Y-64344552D01*
X80335057Y-64268361D01*
X80296961Y-64230266D01*
X80220771Y-64192171D01*
X80106485Y-64192171D01*
X80030295Y-64230266D01*
X79992200Y-64268361D01*
X79954104Y-64344552D01*
X79954104Y-64573123D01*
X79992200Y-64649314D01*
X80030295Y-64687409D01*
X80106485Y-64725504D01*
X80220771Y-64725504D01*
X79649342Y-64687409D02*
X79535057Y-64725504D01*
X79344580Y-64725504D01*
X79268390Y-64687409D01*
X79230295Y-64649314D01*
X79192200Y-64573123D01*
X79192200Y-64496933D01*
X79230295Y-64420742D01*
X79268390Y-64382647D01*
X79344580Y-64344552D01*
X79496961Y-64306457D01*
X79573152Y-64268361D01*
X79611247Y-64230266D01*
X79649342Y-64154076D01*
X79649342Y-64077885D01*
X79611247Y-64001695D01*
X79573152Y-63963600D01*
X79496961Y-63925504D01*
X79306485Y-63925504D01*
X79192200Y-63963600D01*
X78811247Y-64725504D02*
X78658866Y-64725504D01*
X78582676Y-64687409D01*
X78544580Y-64649314D01*
X78468390Y-64535028D01*
X78430295Y-64382647D01*
X78430295Y-64077885D01*
X78468390Y-64001695D01*
X78506485Y-63963600D01*
X78582676Y-63925504D01*
X78735057Y-63925504D01*
X78811247Y-63963600D01*
X78849342Y-64001695D01*
X78887438Y-64077885D01*
X78887438Y-64268361D01*
X78849342Y-64344552D01*
X78811247Y-64382647D01*
X78735057Y-64420742D01*
X78582676Y-64420742D01*
X78506485Y-64382647D01*
X78468390Y-64344552D01*
X78430295Y-64268361D01*
X78163628Y-63925504D02*
X77630295Y-63925504D01*
X77973152Y-64725504D01*
X77401723Y-65030266D02*
X77363628Y-64992171D01*
X77287438Y-64877885D01*
X77249342Y-64801695D01*
X77211247Y-64687409D01*
X77173152Y-64496933D01*
X77173152Y-64344552D01*
X77211247Y-64154076D01*
X77249342Y-64039790D01*
X77287438Y-63963600D01*
X77363628Y-63849314D01*
X77401723Y-63811219D01*
X100868390Y-66013504D02*
X100868390Y-65594457D01*
X100906485Y-65518266D01*
X100982676Y-65480171D01*
X101135057Y-65480171D01*
X101211247Y-65518266D01*
X100868390Y-65975409D02*
X100944580Y-66013504D01*
X101135057Y-66013504D01*
X101211247Y-65975409D01*
X101249342Y-65899219D01*
X101249342Y-65823028D01*
X101211247Y-65746838D01*
X101135057Y-65708742D01*
X100944580Y-65708742D01*
X100868390Y-65670647D01*
X100144580Y-65480171D02*
X100144580Y-66013504D01*
X100487438Y-65480171D02*
X100487438Y-65899219D01*
X100449342Y-65975409D01*
X100373152Y-66013504D01*
X100258866Y-66013504D01*
X100182676Y-65975409D01*
X100144580Y-65937314D01*
X99420771Y-65480171D02*
X99420771Y-66127790D01*
X99458866Y-66203980D01*
X99496961Y-66242076D01*
X99573152Y-66280171D01*
X99687438Y-66280171D01*
X99763628Y-66242076D01*
X99420771Y-65975409D02*
X99496961Y-66013504D01*
X99649342Y-66013504D01*
X99725533Y-65975409D01*
X99763628Y-65937314D01*
X99801723Y-65861123D01*
X99801723Y-65632552D01*
X99763628Y-65556361D01*
X99725533Y-65518266D01*
X99649342Y-65480171D01*
X99496961Y-65480171D01*
X99420771Y-65518266D01*
X98696961Y-65480171D02*
X98696961Y-66013504D01*
X99039819Y-65480171D02*
X99039819Y-65899219D01*
X99001723Y-65975409D01*
X98925533Y-66013504D01*
X98811247Y-66013504D01*
X98735057Y-65975409D01*
X98696961Y-65937314D01*
X98354104Y-65975409D02*
X98277914Y-66013504D01*
X98125533Y-66013504D01*
X98049342Y-65975409D01*
X98011247Y-65899219D01*
X98011247Y-65861123D01*
X98049342Y-65784933D01*
X98125533Y-65746838D01*
X98239819Y-65746838D01*
X98316009Y-65708742D01*
X98354104Y-65632552D01*
X98354104Y-65594457D01*
X98316009Y-65518266D01*
X98239819Y-65480171D01*
X98125533Y-65480171D01*
X98049342Y-65518266D01*
X97782676Y-65480171D02*
X97477914Y-65480171D01*
X97668390Y-65213504D02*
X97668390Y-65899219D01*
X97630295Y-65975409D01*
X97554104Y-66013504D01*
X97477914Y-66013504D01*
X97096961Y-66013504D02*
X97173152Y-65975409D01*
X97211247Y-65937314D01*
X97249342Y-65861123D01*
X97249342Y-65632552D01*
X97211247Y-65556361D01*
X97173152Y-65518266D01*
X97096961Y-65480171D01*
X96982676Y-65480171D01*
X96906485Y-65518266D01*
X96868390Y-65556361D01*
X96830295Y-65632552D01*
X96830295Y-65861123D01*
X96868390Y-65937314D01*
X96906485Y-65975409D01*
X96982676Y-66013504D01*
X97096961Y-66013504D01*
X96525533Y-65975409D02*
X96449342Y-66013504D01*
X96296961Y-66013504D01*
X96220771Y-65975409D01*
X96182676Y-65899219D01*
X96182676Y-65861123D01*
X96220771Y-65784933D01*
X96296961Y-65746838D01*
X96411247Y-65746838D01*
X96487438Y-65708742D01*
X96525533Y-65632552D01*
X96525533Y-65594457D01*
X96487438Y-65518266D01*
X96411247Y-65480171D01*
X96296961Y-65480171D01*
X96220771Y-65518266D01*
X95496961Y-66013504D02*
X95496961Y-65594457D01*
X95535057Y-65518266D01*
X95611247Y-65480171D01*
X95763628Y-65480171D01*
X95839819Y-65518266D01*
X95496961Y-65975409D02*
X95573152Y-66013504D01*
X95763628Y-66013504D01*
X95839819Y-65975409D01*
X95877914Y-65899219D01*
X95877914Y-65823028D01*
X95839819Y-65746838D01*
X95763628Y-65708742D01*
X95573152Y-65708742D01*
X95496961Y-65670647D01*
X95116009Y-66013504D02*
X95116009Y-65480171D01*
X95116009Y-65556361D02*
X95077914Y-65518266D01*
X95001723Y-65480171D01*
X94887438Y-65480171D01*
X94811247Y-65518266D01*
X94773152Y-65594457D01*
X94773152Y-66013504D01*
X94773152Y-65594457D02*
X94735057Y-65518266D01*
X94658866Y-65480171D01*
X94544580Y-65480171D01*
X94468390Y-65518266D01*
X94430295Y-65594457D01*
X94430295Y-66013504D01*
X93706485Y-65480171D02*
X93706485Y-66013504D01*
X94049342Y-65480171D02*
X94049342Y-65899219D01*
X94011247Y-65975409D01*
X93935057Y-66013504D01*
X93820771Y-66013504D01*
X93744580Y-65975409D01*
X93706485Y-65937314D01*
X93020771Y-65975409D02*
X93096961Y-66013504D01*
X93249342Y-66013504D01*
X93325533Y-65975409D01*
X93363628Y-65899219D01*
X93363628Y-65594457D01*
X93325533Y-65518266D01*
X93249342Y-65480171D01*
X93096961Y-65480171D01*
X93020771Y-65518266D01*
X92982676Y-65594457D01*
X92982676Y-65670647D01*
X93363628Y-65746838D01*
X92525533Y-66013504D02*
X92601723Y-65975409D01*
X92639819Y-65899219D01*
X92639819Y-65213504D01*
X92220771Y-66013504D02*
X92220771Y-65213504D01*
X91877914Y-66013504D02*
X91877914Y-65594457D01*
X91916009Y-65518266D01*
X91992200Y-65480171D01*
X92106485Y-65480171D01*
X92182676Y-65518266D01*
X92220771Y-65556361D01*
X91154104Y-66013504D02*
X91154104Y-65213504D01*
X91154104Y-65975409D02*
X91230295Y-66013504D01*
X91382676Y-66013504D01*
X91458866Y-65975409D01*
X91496961Y-65937314D01*
X91535057Y-65861123D01*
X91535057Y-65632552D01*
X91496961Y-65556361D01*
X91458866Y-65518266D01*
X91382676Y-65480171D01*
X91230295Y-65480171D01*
X91154104Y-65518266D01*
X90468390Y-65975409D02*
X90544580Y-66013504D01*
X90696961Y-66013504D01*
X90773152Y-65975409D01*
X90811247Y-65899219D01*
X90811247Y-65594457D01*
X90773152Y-65518266D01*
X90696961Y-65480171D01*
X90544580Y-65480171D01*
X90468390Y-65518266D01*
X90430295Y-65594457D01*
X90430295Y-65670647D01*
X90811247Y-65746838D01*
X90163628Y-65480171D02*
X89744580Y-65480171D01*
X90163628Y-66013504D01*
X89744580Y-66013504D01*
X89439819Y-66013504D02*
X89439819Y-65480171D01*
X89439819Y-65556361D02*
X89401723Y-65518266D01*
X89325533Y-65480171D01*
X89211247Y-65480171D01*
X89135057Y-65518266D01*
X89096961Y-65594457D01*
X89096961Y-66013504D01*
X89096961Y-65594457D02*
X89058866Y-65518266D01*
X88982676Y-65480171D01*
X88868390Y-65480171D01*
X88792200Y-65518266D01*
X88754104Y-65594457D01*
X88754104Y-66013504D01*
X88030295Y-66013504D02*
X88030295Y-65594457D01*
X88068390Y-65518266D01*
X88144580Y-65480171D01*
X88296961Y-65480171D01*
X88373152Y-65518266D01*
X88030295Y-65975409D02*
X88106485Y-66013504D01*
X88296961Y-66013504D01*
X88373152Y-65975409D01*
X88411247Y-65899219D01*
X88411247Y-65823028D01*
X88373152Y-65746838D01*
X88296961Y-65708742D01*
X88106485Y-65708742D01*
X88030295Y-65670647D01*
X87649342Y-66013504D02*
X87649342Y-65480171D01*
X87649342Y-65632552D02*
X87611247Y-65556361D01*
X87573152Y-65518266D01*
X87496961Y-65480171D01*
X87420771Y-65480171D01*
X87268390Y-65480171D02*
X86963628Y-65480171D01*
X87154104Y-65213504D02*
X87154104Y-65899219D01*
X87116009Y-65975409D01*
X87039819Y-66013504D01*
X86963628Y-66013504D01*
X86696961Y-66013504D02*
X86696961Y-65480171D01*
X86696961Y-65213504D02*
X86735057Y-65251600D01*
X86696961Y-65289695D01*
X86658866Y-65251600D01*
X86696961Y-65213504D01*
X86696961Y-65289695D01*
X86316009Y-65480171D02*
X86316009Y-66013504D01*
X86316009Y-65556361D02*
X86277914Y-65518266D01*
X86201723Y-65480171D01*
X86087438Y-65480171D01*
X86011247Y-65518266D01*
X85973152Y-65594457D01*
X85973152Y-66013504D01*
X85096961Y-65632552D02*
X85135057Y-65594457D01*
X85211247Y-65556361D01*
X85287438Y-65556361D01*
X85363628Y-65594457D01*
X85401723Y-65632552D01*
X85439819Y-65708742D01*
X85439819Y-65784933D01*
X85401723Y-65861123D01*
X85363628Y-65899219D01*
X85287438Y-65937314D01*
X85211247Y-65937314D01*
X85135057Y-65899219D01*
X85096961Y-65861123D01*
X85096961Y-65556361D02*
X85096961Y-65861123D01*
X85058866Y-65899219D01*
X85020771Y-65899219D01*
X84944580Y-65861123D01*
X84906485Y-65784933D01*
X84906485Y-65594457D01*
X84982676Y-65480171D01*
X85096961Y-65403980D01*
X85249342Y-65365885D01*
X85401723Y-65403980D01*
X85516009Y-65480171D01*
X85592200Y-65594457D01*
X85630295Y-65746838D01*
X85592200Y-65899219D01*
X85516009Y-66013504D01*
X85401723Y-66089695D01*
X85249342Y-66127790D01*
X85096961Y-66089695D01*
X84982676Y-66013504D01*
X84220771Y-65480171D02*
X84220771Y-66127790D01*
X84258866Y-66203980D01*
X84296961Y-66242076D01*
X84373152Y-66280171D01*
X84487438Y-66280171D01*
X84563628Y-66242076D01*
X84220771Y-65975409D02*
X84296961Y-66013504D01*
X84449342Y-66013504D01*
X84525533Y-65975409D01*
X84563628Y-65937314D01*
X84601723Y-65861123D01*
X84601723Y-65632552D01*
X84563628Y-65556361D01*
X84525533Y-65518266D01*
X84449342Y-65480171D01*
X84296961Y-65480171D01*
X84220771Y-65518266D01*
X83839819Y-66013504D02*
X83839819Y-65480171D01*
X83839819Y-65556361D02*
X83801723Y-65518266D01*
X83725533Y-65480171D01*
X83611247Y-65480171D01*
X83535057Y-65518266D01*
X83496961Y-65594457D01*
X83496961Y-66013504D01*
X83496961Y-65594457D02*
X83458866Y-65518266D01*
X83382676Y-65480171D01*
X83268390Y-65480171D01*
X83192200Y-65518266D01*
X83154104Y-65594457D01*
X83154104Y-66013504D01*
X82430295Y-66013504D02*
X82430295Y-65594457D01*
X82468390Y-65518266D01*
X82544580Y-65480171D01*
X82696961Y-65480171D01*
X82773152Y-65518266D01*
X82430295Y-65975409D02*
X82506485Y-66013504D01*
X82696961Y-66013504D01*
X82773152Y-65975409D01*
X82811247Y-65899219D01*
X82811247Y-65823028D01*
X82773152Y-65746838D01*
X82696961Y-65708742D01*
X82506485Y-65708742D01*
X82430295Y-65670647D01*
X82049342Y-66013504D02*
X82049342Y-65480171D01*
X82049342Y-65213504D02*
X82087438Y-65251600D01*
X82049342Y-65289695D01*
X82011247Y-65251600D01*
X82049342Y-65213504D01*
X82049342Y-65289695D01*
X81554104Y-66013504D02*
X81630295Y-65975409D01*
X81668390Y-65899219D01*
X81668390Y-65213504D01*
X81249342Y-65937314D02*
X81211247Y-65975409D01*
X81249342Y-66013504D01*
X81287438Y-65975409D01*
X81249342Y-65937314D01*
X81249342Y-66013504D01*
X80525533Y-65975409D02*
X80601723Y-66013504D01*
X80754104Y-66013504D01*
X80830295Y-65975409D01*
X80868390Y-65937314D01*
X80906485Y-65861123D01*
X80906485Y-65632552D01*
X80868390Y-65556361D01*
X80830295Y-65518266D01*
X80754104Y-65480171D01*
X80601723Y-65480171D01*
X80525533Y-65518266D01*
X80068390Y-66013504D02*
X80144580Y-65975409D01*
X80182676Y-65937314D01*
X80220771Y-65861123D01*
X80220771Y-65632552D01*
X80182676Y-65556361D01*
X80144580Y-65518266D01*
X80068390Y-65480171D01*
X79954104Y-65480171D01*
X79877914Y-65518266D01*
X79839819Y-65556361D01*
X79801723Y-65632552D01*
X79801723Y-65861123D01*
X79839819Y-65937314D01*
X79877914Y-65975409D01*
X79954104Y-66013504D01*
X80068390Y-66013504D01*
X79458866Y-66013504D02*
X79458866Y-65480171D01*
X79458866Y-65556361D02*
X79420771Y-65518266D01*
X79344580Y-65480171D01*
X79230295Y-65480171D01*
X79154104Y-65518266D01*
X79116009Y-65594457D01*
X79116009Y-66013504D01*
X79116009Y-65594457D02*
X79077914Y-65518266D01*
X79001723Y-65480171D01*
X78887438Y-65480171D01*
X78811247Y-65518266D01*
X78773152Y-65594457D01*
X78773152Y-66013504D01*
G36*
X73282792Y-70730338D02*
G01*
X73281981Y-70561955D01*
X73281882Y-70424269D01*
X73282562Y-70314646D01*
X73284088Y-70230453D01*
X73286525Y-70169058D01*
X73289940Y-70127825D01*
X73294399Y-70104121D01*
X73299969Y-70095314D01*
X73300532Y-70095136D01*
X73324876Y-70091065D01*
X73377985Y-70083998D01*
X73455304Y-70074484D01*
X73552281Y-70063071D01*
X73664364Y-70050305D01*
X73786999Y-70036735D01*
X73827062Y-70032374D01*
X73975918Y-70016283D01*
X74095299Y-70003237D01*
X74188556Y-69992413D01*
X74259038Y-69982986D01*
X74310097Y-69974133D01*
X74345084Y-69965028D01*
X74367349Y-69954849D01*
X74380242Y-69942771D01*
X74387115Y-69927969D01*
X74391317Y-69909621D01*
X74396201Y-69886901D01*
X74396902Y-69884135D01*
X74424593Y-69791765D01*
X74465742Y-69676310D01*
X74517797Y-69544253D01*
X74578207Y-69402073D01*
X74644422Y-69256254D01*
X74662176Y-69218076D01*
X74697677Y-69139464D01*
X74726158Y-69073266D01*
X74745067Y-69025518D01*
X74751851Y-69002254D01*
X74750268Y-68997923D01*
X74732477Y-68969830D01*
X74696997Y-68920169D01*
X74646426Y-68852389D01*
X74583358Y-68769938D01*
X74510389Y-68676267D01*
X74430118Y-68574823D01*
X74398292Y-68534800D01*
X74320604Y-68436176D01*
X74251235Y-68346810D01*
X74192774Y-68270125D01*
X74147810Y-68209538D01*
X74118934Y-68168470D01*
X74108733Y-68150340D01*
X74110824Y-68145675D01*
X74131420Y-68119130D01*
X74171352Y-68073572D01*
X74227317Y-68012415D01*
X74296015Y-67939075D01*
X74374144Y-67856967D01*
X74458405Y-67769506D01*
X74545494Y-67680107D01*
X74632112Y-67592187D01*
X74714958Y-67509159D01*
X74790729Y-67434440D01*
X74856126Y-67371445D01*
X74907846Y-67323588D01*
X75034681Y-67210175D01*
X75405674Y-67501685D01*
X75408990Y-67504291D01*
X75508680Y-67582457D01*
X75602214Y-67655504D01*
X75685504Y-67720263D01*
X75754464Y-67773562D01*
X75805004Y-67812233D01*
X75833039Y-67833104D01*
X75889411Y-67873014D01*
X76120905Y-67767109D01*
X76199915Y-67731198D01*
X76332761Y-67672342D01*
X76444944Y-67625189D01*
X76542700Y-67587259D01*
X76632265Y-67556077D01*
X76719875Y-67529164D01*
X76734456Y-67524923D01*
X76795454Y-67505497D01*
X76831859Y-67488859D01*
X76850745Y-67470855D01*
X76859182Y-67447330D01*
X76859598Y-67445072D01*
X76864161Y-67412343D01*
X76871629Y-67351414D01*
X76881456Y-67267027D01*
X76893098Y-67163924D01*
X76906011Y-67046845D01*
X76919651Y-66920534D01*
X76922247Y-66896297D01*
X76935659Y-66773068D01*
X76948173Y-66661213D01*
X76959266Y-66565193D01*
X76968414Y-66489471D01*
X76975092Y-66438508D01*
X76978778Y-66416767D01*
X76978842Y-66416603D01*
X76988518Y-66411018D01*
X77014150Y-66406441D01*
X77058295Y-66402791D01*
X77123512Y-66399986D01*
X77212360Y-66397946D01*
X77327396Y-66396589D01*
X77471180Y-66395834D01*
X77646269Y-66395600D01*
X77682715Y-66395620D01*
X77826544Y-66396084D01*
X77958640Y-66397114D01*
X78075314Y-66398640D01*
X78172879Y-66400591D01*
X78247644Y-66402899D01*
X78295920Y-66405492D01*
X78314020Y-66408300D01*
X78314818Y-66410923D01*
X78319499Y-66439937D01*
X78327002Y-66497029D01*
X78336816Y-66577917D01*
X78348432Y-66678318D01*
X78361339Y-66793951D01*
X78375028Y-66920534D01*
X78378969Y-66957312D01*
X78392797Y-67082718D01*
X78405975Y-67196940D01*
X78417944Y-67295478D01*
X78428146Y-67373829D01*
X78436020Y-67427491D01*
X78441009Y-67451964D01*
X78459383Y-67470524D01*
X78504233Y-67494784D01*
X78577569Y-67525311D01*
X78681567Y-67563111D01*
X78700436Y-67569766D01*
X78807331Y-67609777D01*
X78928386Y-67658083D01*
X79050108Y-67709185D01*
X79159005Y-67757590D01*
X79234730Y-67792419D01*
X79307170Y-67824907D01*
X79358183Y-67845832D01*
X79392946Y-67856737D01*
X79416636Y-67859165D01*
X79434429Y-67854659D01*
X79451501Y-67844760D01*
X79453660Y-67843296D01*
X79481555Y-67822575D01*
X79531447Y-67784112D01*
X79599531Y-67730892D01*
X79682001Y-67665901D01*
X79775053Y-67592126D01*
X79874881Y-67512551D01*
X79896536Y-67495263D01*
X79993048Y-67418694D01*
X80080488Y-67350081D01*
X80155399Y-67292086D01*
X80214321Y-67247367D01*
X80253796Y-67218586D01*
X80270364Y-67208401D01*
X80284941Y-67218588D01*
X80320143Y-67250331D01*
X80372486Y-67300440D01*
X80438809Y-67365665D01*
X80515949Y-67442755D01*
X80600746Y-67528458D01*
X80690039Y-67619524D01*
X80780666Y-67712700D01*
X80869465Y-67804737D01*
X80953277Y-67892383D01*
X81028939Y-67972386D01*
X81093290Y-68041497D01*
X81143169Y-68096462D01*
X81175415Y-68134032D01*
X81186866Y-68150956D01*
X81186865Y-68151023D01*
X81176484Y-68171097D01*
X81147567Y-68213730D01*
X81102875Y-68275201D01*
X81045166Y-68351788D01*
X80977201Y-68439772D01*
X80901739Y-68535431D01*
X80828507Y-68627500D01*
X80755483Y-68719647D01*
X80690611Y-68801851D01*
X80637139Y-68869984D01*
X80598316Y-68919920D01*
X80577391Y-68947529D01*
X80538171Y-69001791D01*
X80665733Y-69277729D01*
X80690512Y-69332454D01*
X80739625Y-69446608D01*
X80786979Y-69563287D01*
X80828184Y-69671518D01*
X80858847Y-69760325D01*
X80871106Y-69798701D01*
X80896066Y-69873347D01*
X80915414Y-69923014D01*
X80931844Y-69953088D01*
X80948053Y-69968956D01*
X80966733Y-69976006D01*
X80983280Y-69978646D01*
X81032024Y-69984944D01*
X81105645Y-69993679D01*
X81198959Y-70004255D01*
X81306783Y-70016076D01*
X81423933Y-70028546D01*
X81500592Y-70036638D01*
X81617348Y-70049159D01*
X81723880Y-70060809D01*
X81814320Y-70070939D01*
X81882804Y-70078896D01*
X81923466Y-70084029D01*
X82008133Y-70095993D01*
X82012568Y-70755115D01*
X82012785Y-70790086D01*
X82013285Y-70934195D01*
X82013127Y-71066795D01*
X82012357Y-71184160D01*
X82011023Y-71282564D01*
X82009171Y-71358281D01*
X82006848Y-71407585D01*
X82004101Y-71426751D01*
X82000715Y-71428145D01*
X81970077Y-71434097D01*
X81911529Y-71442711D01*
X81829319Y-71453449D01*
X81727696Y-71465769D01*
X81610906Y-71479130D01*
X81483199Y-71492994D01*
X81438688Y-71497749D01*
X81312940Y-71511709D01*
X81198757Y-71525144D01*
X81100566Y-71537482D01*
X81022793Y-71548154D01*
X80969865Y-71556588D01*
X80946208Y-71562214D01*
X80945820Y-71562430D01*
X80926451Y-71586520D01*
X80903778Y-71633766D01*
X80882389Y-71694648D01*
X80855397Y-71778494D01*
X80798818Y-71931284D01*
X80724656Y-72110991D01*
X80633306Y-72316630D01*
X80539094Y-72522660D01*
X80579065Y-72579097D01*
X80579428Y-72579607D01*
X80600947Y-72608442D01*
X80640175Y-72659640D01*
X80693939Y-72729114D01*
X80759066Y-72812777D01*
X80832383Y-72906540D01*
X80910717Y-73006318D01*
X81202398Y-73377101D01*
X81088799Y-73504046D01*
X81073429Y-73520998D01*
X81018465Y-73579467D01*
X80949856Y-73650153D01*
X80871010Y-73729760D01*
X80785334Y-73814989D01*
X80696235Y-73902543D01*
X80607120Y-73989123D01*
X80521397Y-74071431D01*
X80442472Y-74146169D01*
X80373753Y-74210040D01*
X80318648Y-74259745D01*
X80280562Y-74291987D01*
X80262904Y-74303467D01*
X80258726Y-74301901D01*
X80231056Y-74284162D01*
X80181791Y-74248744D01*
X80114360Y-74198236D01*
X80032195Y-74135230D01*
X79938723Y-74062315D01*
X79837377Y-73982082D01*
X79798234Y-73950986D01*
X79698928Y-73873104D01*
X79608409Y-73803527D01*
X79530181Y-73744860D01*
X79467749Y-73699705D01*
X79424619Y-73670667D01*
X79404294Y-73660349D01*
X79389812Y-73663327D01*
X79347584Y-73678813D01*
X79288497Y-73704562D01*
X79220554Y-73737228D01*
X79101433Y-73794306D01*
X78964072Y-73855084D01*
X78824725Y-73912359D01*
X78693919Y-73961812D01*
X78582183Y-73999123D01*
X78570677Y-74002646D01*
X78503389Y-74026571D01*
X78463340Y-74048917D01*
X78445015Y-74072642D01*
X78443919Y-74076546D01*
X78437899Y-74110640D01*
X78429084Y-74172609D01*
X78418047Y-74257904D01*
X78405364Y-74361978D01*
X78391609Y-74480282D01*
X78377356Y-74608267D01*
X78372951Y-74648358D01*
X78358892Y-74772023D01*
X78345530Y-74883424D01*
X78333427Y-74978276D01*
X78323143Y-75052296D01*
X78315239Y-75101200D01*
X78310276Y-75120702D01*
X78308675Y-75121382D01*
X78282075Y-75124033D01*
X78226210Y-75126250D01*
X78144808Y-75127985D01*
X78041594Y-75129191D01*
X77920297Y-75129822D01*
X77784640Y-75129830D01*
X77638352Y-75129169D01*
X76979068Y-75124734D01*
X76967460Y-75031600D01*
X76964857Y-75009871D01*
X76957975Y-74949597D01*
X76948585Y-74865260D01*
X76937355Y-74762918D01*
X76924953Y-74648632D01*
X76912045Y-74528462D01*
X76903413Y-74449338D01*
X76890778Y-74339231D01*
X76878924Y-74242281D01*
X76868511Y-74163621D01*
X76860199Y-74108387D01*
X76854647Y-74081712D01*
X76845720Y-74067788D01*
X76820884Y-74048933D01*
X76776894Y-74026999D01*
X76709303Y-73999839D01*
X76613660Y-73965304D01*
X76598993Y-73960111D01*
X76492344Y-73920075D01*
X76371319Y-73871571D01*
X76249711Y-73820251D01*
X76141314Y-73771766D01*
X76116360Y-73760205D01*
X76025308Y-73719097D01*
X75958843Y-73691512D01*
X75912460Y-73675875D01*
X75881652Y-73670611D01*
X75861914Y-73674147D01*
X75859501Y-73675467D01*
X75832838Y-73693929D01*
X75784230Y-73730222D01*
X75717354Y-73781507D01*
X75635886Y-73844947D01*
X75543502Y-73917702D01*
X75443879Y-73996934D01*
X75419780Y-74016167D01*
X75322970Y-74092909D01*
X75235241Y-74161641D01*
X75160051Y-74219714D01*
X75100853Y-74264476D01*
X75061105Y-74293278D01*
X75044261Y-74303467D01*
X75038101Y-74300615D01*
X75009586Y-74278338D01*
X74962465Y-74236693D01*
X74900112Y-74178962D01*
X74825902Y-74108424D01*
X74743208Y-74028359D01*
X74655406Y-73942048D01*
X74565868Y-73852770D01*
X74477970Y-73763807D01*
X74395085Y-73678438D01*
X74320588Y-73599944D01*
X74247443Y-73521020D01*
X74190522Y-73457432D01*
X74152331Y-73411225D01*
X74130242Y-73378962D01*
X74121627Y-73357203D01*
X74123857Y-73342509D01*
X74124083Y-73342113D01*
X74139552Y-73320326D01*
X74173174Y-73276045D01*
X74222031Y-73213010D01*
X74283206Y-73134963D01*
X74353781Y-73045646D01*
X74430840Y-72948800D01*
X74433690Y-72945230D01*
X74510734Y-72848156D01*
X74581248Y-72758295D01*
X74642288Y-72679479D01*
X74690910Y-72615538D01*
X74724168Y-72570306D01*
X74739121Y-72547611D01*
X74742586Y-72537652D01*
X74743183Y-72514948D01*
X74735149Y-72481752D01*
X74716768Y-72433158D01*
X74686324Y-72364261D01*
X74642102Y-72270155D01*
X74636752Y-72258874D01*
X74586744Y-72148413D01*
X74534519Y-72025534D01*
X74485958Y-71904426D01*
X74446940Y-71799278D01*
X74415965Y-71711793D01*
X74391278Y-71646638D01*
X74371866Y-71603554D01*
X74355002Y-71577376D01*
X74337959Y-71562941D01*
X74318010Y-71555082D01*
X74314661Y-71554262D01*
X74279408Y-71548280D01*
X74216193Y-71539436D01*
X74129757Y-71528326D01*
X74024841Y-71515545D01*
X73906186Y-71501687D01*
X73778533Y-71487349D01*
X73287466Y-71433267D01*
X73284097Y-70927567D01*
X74893152Y-70927567D01*
X74921445Y-71218890D01*
X74979907Y-71504368D01*
X75067632Y-71781624D01*
X75183711Y-72048277D01*
X75327238Y-72301951D01*
X75497305Y-72540266D01*
X75693003Y-72760843D01*
X75913426Y-72961304D01*
X76157666Y-73139271D01*
X76322277Y-73238107D01*
X76593515Y-73369738D01*
X76875415Y-73470660D01*
X77165260Y-73540572D01*
X77460330Y-73579173D01*
X77757910Y-73586161D01*
X78055282Y-73561236D01*
X78349727Y-73504094D01*
X78638529Y-73414436D01*
X78642256Y-73413047D01*
X78920041Y-73291640D01*
X79179934Y-73142532D01*
X79420358Y-72967684D01*
X79639741Y-72769058D01*
X79836509Y-72548612D01*
X80009088Y-72308310D01*
X80155903Y-72050110D01*
X80275381Y-71775973D01*
X80365948Y-71487861D01*
X80426030Y-71187734D01*
X80426218Y-71186434D01*
X80438311Y-71065407D01*
X80444179Y-70921963D01*
X80444028Y-70766804D01*
X80438067Y-70610632D01*
X80426502Y-70464150D01*
X80409543Y-70338058D01*
X80366923Y-70138305D01*
X80277601Y-69851464D01*
X80158334Y-69576347D01*
X80010897Y-69315638D01*
X79837065Y-69072022D01*
X79638612Y-68848184D01*
X79417313Y-68646808D01*
X79174944Y-68470580D01*
X79050287Y-68394915D01*
X78781357Y-68260823D01*
X78497437Y-68156362D01*
X78200703Y-68082267D01*
X77893333Y-68039270D01*
X77861359Y-68036492D01*
X77778006Y-68029666D01*
X77712961Y-68025757D01*
X77655814Y-68024766D01*
X77596156Y-68026693D01*
X77523576Y-68031540D01*
X77427666Y-68039308D01*
X77240330Y-68061504D01*
X76949200Y-68122920D01*
X76668195Y-68215073D01*
X76399545Y-68336427D01*
X76145483Y-68485446D01*
X75908240Y-68660595D01*
X75690047Y-68860337D01*
X75493136Y-69083137D01*
X75319739Y-69327459D01*
X75172086Y-69591767D01*
X75171920Y-69592107D01*
X75130434Y-69673443D01*
X75098801Y-69726960D01*
X75074529Y-69756357D01*
X75055124Y-69765334D01*
X75045629Y-69766097D01*
X75031321Y-69776181D01*
X75024727Y-69804279D01*
X75023133Y-69858278D01*
X75018702Y-69920019D01*
X75006365Y-69999243D01*
X74988896Y-70076018D01*
X74930707Y-70336904D01*
X74895937Y-70632779D01*
X74893152Y-70927567D01*
X73284097Y-70927567D01*
X73283036Y-70768178D01*
X73282792Y-70730338D01*
G37*
D11*
X73282792Y-70730338D02*
X73281981Y-70561955D01*
X73281882Y-70424269D01*
X73282562Y-70314646D01*
X73284088Y-70230453D01*
X73286525Y-70169058D01*
X73289940Y-70127825D01*
X73294399Y-70104121D01*
X73299969Y-70095314D01*
X73300532Y-70095136D01*
X73324876Y-70091065D01*
X73377985Y-70083998D01*
X73455304Y-70074484D01*
X73552281Y-70063071D01*
X73664364Y-70050305D01*
X73786999Y-70036735D01*
X73827062Y-70032374D01*
X73975918Y-70016283D01*
X74095299Y-70003237D01*
X74188556Y-69992413D01*
X74259038Y-69982986D01*
X74310097Y-69974133D01*
X74345084Y-69965028D01*
X74367349Y-69954849D01*
X74380242Y-69942771D01*
X74387115Y-69927969D01*
X74391317Y-69909621D01*
X74396201Y-69886901D01*
X74396902Y-69884135D01*
X74424593Y-69791765D01*
X74465742Y-69676310D01*
X74517797Y-69544253D01*
X74578207Y-69402073D01*
X74644422Y-69256254D01*
X74662176Y-69218076D01*
X74697677Y-69139464D01*
X74726158Y-69073266D01*
X74745067Y-69025518D01*
X74751851Y-69002254D01*
X74750268Y-68997923D01*
X74732477Y-68969830D01*
X74696997Y-68920169D01*
X74646426Y-68852389D01*
X74583358Y-68769938D01*
X74510389Y-68676267D01*
X74430118Y-68574823D01*
X74398292Y-68534800D01*
X74320604Y-68436176D01*
X74251235Y-68346810D01*
X74192774Y-68270125D01*
X74147810Y-68209538D01*
X74118934Y-68168470D01*
X74108733Y-68150340D01*
X74110824Y-68145675D01*
X74131420Y-68119130D01*
X74171352Y-68073572D01*
X74227317Y-68012415D01*
X74296015Y-67939075D01*
X74374144Y-67856967D01*
X74458405Y-67769506D01*
X74545494Y-67680107D01*
X74632112Y-67592187D01*
X74714958Y-67509159D01*
X74790729Y-67434440D01*
X74856126Y-67371445D01*
X74907846Y-67323588D01*
X75034681Y-67210175D01*
X75405674Y-67501685D01*
X75408990Y-67504291D01*
X75508680Y-67582457D01*
X75602214Y-67655504D01*
X75685504Y-67720263D01*
X75754464Y-67773562D01*
X75805004Y-67812233D01*
X75833039Y-67833104D01*
X75889411Y-67873014D01*
X76120905Y-67767109D01*
X76199915Y-67731198D01*
X76332761Y-67672342D01*
X76444944Y-67625189D01*
X76542700Y-67587259D01*
X76632265Y-67556077D01*
X76719875Y-67529164D01*
X76734456Y-67524923D01*
X76795454Y-67505497D01*
X76831859Y-67488859D01*
X76850745Y-67470855D01*
X76859182Y-67447330D01*
X76859598Y-67445072D01*
X76864161Y-67412343D01*
X76871629Y-67351414D01*
X76881456Y-67267027D01*
X76893098Y-67163924D01*
X76906011Y-67046845D01*
X76919651Y-66920534D01*
X76922247Y-66896297D01*
X76935659Y-66773068D01*
X76948173Y-66661213D01*
X76959266Y-66565193D01*
X76968414Y-66489471D01*
X76975092Y-66438508D01*
X76978778Y-66416767D01*
X76978842Y-66416603D01*
X76988518Y-66411018D01*
X77014150Y-66406441D01*
X77058295Y-66402791D01*
X77123512Y-66399986D01*
X77212360Y-66397946D01*
X77327396Y-66396589D01*
X77471180Y-66395834D01*
X77646269Y-66395600D01*
X77682715Y-66395620D01*
X77826544Y-66396084D01*
X77958640Y-66397114D01*
X78075314Y-66398640D01*
X78172879Y-66400591D01*
X78247644Y-66402899D01*
X78295920Y-66405492D01*
X78314020Y-66408300D01*
X78314818Y-66410923D01*
X78319499Y-66439937D01*
X78327002Y-66497029D01*
X78336816Y-66577917D01*
X78348432Y-66678318D01*
X78361339Y-66793951D01*
X78375028Y-66920534D01*
X78378969Y-66957312D01*
X78392797Y-67082718D01*
X78405975Y-67196940D01*
X78417944Y-67295478D01*
X78428146Y-67373829D01*
X78436020Y-67427491D01*
X78441009Y-67451964D01*
X78459383Y-67470524D01*
X78504233Y-67494784D01*
X78577569Y-67525311D01*
X78681567Y-67563111D01*
X78700436Y-67569766D01*
X78807331Y-67609777D01*
X78928386Y-67658083D01*
X79050108Y-67709185D01*
X79159005Y-67757590D01*
X79234730Y-67792419D01*
X79307170Y-67824907D01*
X79358183Y-67845832D01*
X79392946Y-67856737D01*
X79416636Y-67859165D01*
X79434429Y-67854659D01*
X79451501Y-67844760D01*
X79453660Y-67843296D01*
X79481555Y-67822575D01*
X79531447Y-67784112D01*
X79599531Y-67730892D01*
X79682001Y-67665901D01*
X79775053Y-67592126D01*
X79874881Y-67512551D01*
X79896536Y-67495263D01*
X79993048Y-67418694D01*
X80080488Y-67350081D01*
X80155399Y-67292086D01*
X80214321Y-67247367D01*
X80253796Y-67218586D01*
X80270364Y-67208401D01*
X80284941Y-67218588D01*
X80320143Y-67250331D01*
X80372486Y-67300440D01*
X80438809Y-67365665D01*
X80515949Y-67442755D01*
X80600746Y-67528458D01*
X80690039Y-67619524D01*
X80780666Y-67712700D01*
X80869465Y-67804737D01*
X80953277Y-67892383D01*
X81028939Y-67972386D01*
X81093290Y-68041497D01*
X81143169Y-68096462D01*
X81175415Y-68134032D01*
X81186866Y-68150956D01*
X81186865Y-68151023D01*
X81176484Y-68171097D01*
X81147567Y-68213730D01*
X81102875Y-68275201D01*
X81045166Y-68351788D01*
X80977201Y-68439772D01*
X80901739Y-68535431D01*
X80828507Y-68627500D01*
X80755483Y-68719647D01*
X80690611Y-68801851D01*
X80637139Y-68869984D01*
X80598316Y-68919920D01*
X80577391Y-68947529D01*
X80538171Y-69001791D01*
X80665733Y-69277729D01*
X80690512Y-69332454D01*
X80739625Y-69446608D01*
X80786979Y-69563287D01*
X80828184Y-69671518D01*
X80858847Y-69760325D01*
X80871106Y-69798701D01*
X80896066Y-69873347D01*
X80915414Y-69923014D01*
X80931844Y-69953088D01*
X80948053Y-69968956D01*
X80966733Y-69976006D01*
X80983280Y-69978646D01*
X81032024Y-69984944D01*
X81105645Y-69993679D01*
X81198959Y-70004255D01*
X81306783Y-70016076D01*
X81423933Y-70028546D01*
X81500592Y-70036638D01*
X81617348Y-70049159D01*
X81723880Y-70060809D01*
X81814320Y-70070939D01*
X81882804Y-70078896D01*
X81923466Y-70084029D01*
X82008133Y-70095993D01*
X82012568Y-70755115D01*
X82012785Y-70790086D01*
X82013285Y-70934195D01*
X82013127Y-71066795D01*
X82012357Y-71184160D01*
X82011023Y-71282564D01*
X82009171Y-71358281D01*
X82006848Y-71407585D01*
X82004101Y-71426751D01*
X82000715Y-71428145D01*
X81970077Y-71434097D01*
X81911529Y-71442711D01*
X81829319Y-71453449D01*
X81727696Y-71465769D01*
X81610906Y-71479130D01*
X81483199Y-71492994D01*
X81438688Y-71497749D01*
X81312940Y-71511709D01*
X81198757Y-71525144D01*
X81100566Y-71537482D01*
X81022793Y-71548154D01*
X80969865Y-71556588D01*
X80946208Y-71562214D01*
X80945820Y-71562430D01*
X80926451Y-71586520D01*
X80903778Y-71633766D01*
X80882389Y-71694648D01*
X80855397Y-71778494D01*
X80798818Y-71931284D01*
X80724656Y-72110991D01*
X80633306Y-72316630D01*
X80539094Y-72522660D01*
X80579065Y-72579097D01*
X80579428Y-72579607D01*
X80600947Y-72608442D01*
X80640175Y-72659640D01*
X80693939Y-72729114D01*
X80759066Y-72812777D01*
X80832383Y-72906540D01*
X80910717Y-73006318D01*
X81202398Y-73377101D01*
X81088799Y-73504046D01*
X81073429Y-73520998D01*
X81018465Y-73579467D01*
X80949856Y-73650153D01*
X80871010Y-73729760D01*
X80785334Y-73814989D01*
X80696235Y-73902543D01*
X80607120Y-73989123D01*
X80521397Y-74071431D01*
X80442472Y-74146169D01*
X80373753Y-74210040D01*
X80318648Y-74259745D01*
X80280562Y-74291987D01*
X80262904Y-74303467D01*
X80258726Y-74301901D01*
X80231056Y-74284162D01*
X80181791Y-74248744D01*
X80114360Y-74198236D01*
X80032195Y-74135230D01*
X79938723Y-74062315D01*
X79837377Y-73982082D01*
X79798234Y-73950986D01*
X79698928Y-73873104D01*
X79608409Y-73803527D01*
X79530181Y-73744860D01*
X79467749Y-73699705D01*
X79424619Y-73670667D01*
X79404294Y-73660349D01*
X79389812Y-73663327D01*
X79347584Y-73678813D01*
X79288497Y-73704562D01*
X79220554Y-73737228D01*
X79101433Y-73794306D01*
X78964072Y-73855084D01*
X78824725Y-73912359D01*
X78693919Y-73961812D01*
X78582183Y-73999123D01*
X78570677Y-74002646D01*
X78503389Y-74026571D01*
X78463340Y-74048917D01*
X78445015Y-74072642D01*
X78443919Y-74076546D01*
X78437899Y-74110640D01*
X78429084Y-74172609D01*
X78418047Y-74257904D01*
X78405364Y-74361978D01*
X78391609Y-74480282D01*
X78377356Y-74608267D01*
X78372951Y-74648358D01*
X78358892Y-74772023D01*
X78345530Y-74883424D01*
X78333427Y-74978276D01*
X78323143Y-75052296D01*
X78315239Y-75101200D01*
X78310276Y-75120702D01*
X78308675Y-75121382D01*
X78282075Y-75124033D01*
X78226210Y-75126250D01*
X78144808Y-75127985D01*
X78041594Y-75129191D01*
X77920297Y-75129822D01*
X77784640Y-75129830D01*
X77638352Y-75129169D01*
X76979068Y-75124734D01*
X76967460Y-75031600D01*
X76964857Y-75009871D01*
X76957975Y-74949597D01*
X76948585Y-74865260D01*
X76937355Y-74762918D01*
X76924953Y-74648632D01*
X76912045Y-74528462D01*
X76903413Y-74449338D01*
X76890778Y-74339231D01*
X76878924Y-74242281D01*
X76868511Y-74163621D01*
X76860199Y-74108387D01*
X76854647Y-74081712D01*
X76845720Y-74067788D01*
X76820884Y-74048933D01*
X76776894Y-74026999D01*
X76709303Y-73999839D01*
X76613660Y-73965304D01*
X76598993Y-73960111D01*
X76492344Y-73920075D01*
X76371319Y-73871571D01*
X76249711Y-73820251D01*
X76141314Y-73771766D01*
X76116360Y-73760205D01*
X76025308Y-73719097D01*
X75958843Y-73691512D01*
X75912460Y-73675875D01*
X75881652Y-73670611D01*
X75861914Y-73674147D01*
X75859501Y-73675467D01*
X75832838Y-73693929D01*
X75784230Y-73730222D01*
X75717354Y-73781507D01*
X75635886Y-73844947D01*
X75543502Y-73917702D01*
X75443879Y-73996934D01*
X75419780Y-74016167D01*
X75322970Y-74092909D01*
X75235241Y-74161641D01*
X75160051Y-74219714D01*
X75100853Y-74264476D01*
X75061105Y-74293278D01*
X75044261Y-74303467D01*
X75038101Y-74300615D01*
X75009586Y-74278338D01*
X74962465Y-74236693D01*
X74900112Y-74178962D01*
X74825902Y-74108424D01*
X74743208Y-74028359D01*
X74655406Y-73942048D01*
X74565868Y-73852770D01*
X74477970Y-73763807D01*
X74395085Y-73678438D01*
X74320588Y-73599944D01*
X74247443Y-73521020D01*
X74190522Y-73457432D01*
X74152331Y-73411225D01*
X74130242Y-73378962D01*
X74121627Y-73357203D01*
X74123857Y-73342509D01*
X74124083Y-73342113D01*
X74139552Y-73320326D01*
X74173174Y-73276045D01*
X74222031Y-73213010D01*
X74283206Y-73134963D01*
X74353781Y-73045646D01*
X74430840Y-72948800D01*
X74433690Y-72945230D01*
X74510734Y-72848156D01*
X74581248Y-72758295D01*
X74642288Y-72679479D01*
X74690910Y-72615538D01*
X74724168Y-72570306D01*
X74739121Y-72547611D01*
X74742586Y-72537652D01*
X74743183Y-72514948D01*
X74735149Y-72481752D01*
X74716768Y-72433158D01*
X74686324Y-72364261D01*
X74642102Y-72270155D01*
X74636752Y-72258874D01*
X74586744Y-72148413D01*
X74534519Y-72025534D01*
X74485958Y-71904426D01*
X74446940Y-71799278D01*
X74415965Y-71711793D01*
X74391278Y-71646638D01*
X74371866Y-71603554D01*
X74355002Y-71577376D01*
X74337959Y-71562941D01*
X74318010Y-71555082D01*
X74314661Y-71554262D01*
X74279408Y-71548280D01*
X74216193Y-71539436D01*
X74129757Y-71528326D01*
X74024841Y-71515545D01*
X73906186Y-71501687D01*
X73778533Y-71487349D01*
X73287466Y-71433267D01*
X73284097Y-70927567D01*
X74893152Y-70927567D01*
X74921445Y-71218890D01*
X74979907Y-71504368D01*
X75067632Y-71781624D01*
X75183711Y-72048277D01*
X75327238Y-72301951D01*
X75497305Y-72540266D01*
X75693003Y-72760843D01*
X75913426Y-72961304D01*
X76157666Y-73139271D01*
X76322277Y-73238107D01*
X76593515Y-73369738D01*
X76875415Y-73470660D01*
X77165260Y-73540572D01*
X77460330Y-73579173D01*
X77757910Y-73586161D01*
X78055282Y-73561236D01*
X78349727Y-73504094D01*
X78638529Y-73414436D01*
X78642256Y-73413047D01*
X78920041Y-73291640D01*
X79179934Y-73142532D01*
X79420358Y-72967684D01*
X79639741Y-72769058D01*
X79836509Y-72548612D01*
X80009088Y-72308310D01*
X80155903Y-72050110D01*
X80275381Y-71775973D01*
X80365948Y-71487861D01*
X80426030Y-71187734D01*
X80426218Y-71186434D01*
X80438311Y-71065407D01*
X80444179Y-70921963D01*
X80444028Y-70766804D01*
X80438067Y-70610632D01*
X80426502Y-70464150D01*
X80409543Y-70338058D01*
X80366923Y-70138305D01*
X80277601Y-69851464D01*
X80158334Y-69576347D01*
X80010897Y-69315638D01*
X79837065Y-69072022D01*
X79638612Y-68848184D01*
X79417313Y-68646808D01*
X79174944Y-68470580D01*
X79050287Y-68394915D01*
X78781357Y-68260823D01*
X78497437Y-68156362D01*
X78200703Y-68082267D01*
X77893333Y-68039270D01*
X77861359Y-68036492D01*
X77778006Y-68029666D01*
X77712961Y-68025757D01*
X77655814Y-68024766D01*
X77596156Y-68026693D01*
X77523576Y-68031540D01*
X77427666Y-68039308D01*
X77240330Y-68061504D01*
X76949200Y-68122920D01*
X76668195Y-68215073D01*
X76399545Y-68336427D01*
X76145483Y-68485446D01*
X75908240Y-68660595D01*
X75690047Y-68860337D01*
X75493136Y-69083137D01*
X75319739Y-69327459D01*
X75172086Y-69591767D01*
X75171920Y-69592107D01*
X75130434Y-69673443D01*
X75098801Y-69726960D01*
X75074529Y-69756357D01*
X75055124Y-69765334D01*
X75045629Y-69766097D01*
X75031321Y-69776181D01*
X75024727Y-69804279D01*
X75023133Y-69858278D01*
X75018702Y-69920019D01*
X75006365Y-69999243D01*
X74988896Y-70076018D01*
X74930707Y-70336904D01*
X74895937Y-70632779D01*
X74893152Y-70927567D01*
X73284097Y-70927567D01*
X73283036Y-70768178D01*
X73282792Y-70730338D01*
G36*
X77829833Y-68571775D02*
G01*
X77923681Y-68583728D01*
X78033715Y-68601916D01*
X78141788Y-68623230D01*
X78232000Y-68644784D01*
X78282800Y-68658633D01*
X78291574Y-70391867D01*
X78185587Y-70391760D01*
X78184785Y-70391759D01*
X78126096Y-70390467D01*
X78091059Y-70384288D01*
X78069585Y-70369509D01*
X78051587Y-70342413D01*
X78017160Y-70297427D01*
X77949692Y-70250281D01*
X77869036Y-70226330D01*
X77783708Y-70227670D01*
X77702223Y-70256399D01*
X77671539Y-70276169D01*
X77608935Y-70340319D01*
X77573002Y-70416982D01*
X77563804Y-70500014D01*
X77581407Y-70583274D01*
X77625875Y-70660616D01*
X77697273Y-70725898D01*
X77749651Y-70751458D01*
X77831239Y-70763472D01*
X77913746Y-70749112D01*
X77988225Y-70710350D01*
X78045733Y-70649154D01*
X78079600Y-70596372D01*
X78291266Y-70595726D01*
X78502933Y-70595080D01*
X78498016Y-69662646D01*
X78493100Y-68730212D01*
X78660254Y-68816073D01*
X78744929Y-68861821D01*
X78974454Y-69011240D01*
X79182008Y-69186156D01*
X79366671Y-69385616D01*
X79527520Y-69608667D01*
X79663636Y-69854356D01*
X79693503Y-69917273D01*
X79721327Y-69977718D01*
X79740250Y-70021006D01*
X79747289Y-70040500D01*
X79738078Y-70043713D01*
X79700227Y-70047476D01*
X79638225Y-70050458D01*
X79557605Y-70052412D01*
X79463900Y-70053093D01*
X79180266Y-70052986D01*
X79152108Y-70003491D01*
X79119836Y-69962737D01*
X79050256Y-69917792D01*
X78957677Y-69891860D01*
X78932607Y-69889764D01*
X78854351Y-69903255D01*
X78781582Y-69942447D01*
X78721088Y-70001285D01*
X78679658Y-70073716D01*
X78664078Y-70153688D01*
X78667977Y-70193983D01*
X78693859Y-70271809D01*
X78737900Y-70342654D01*
X78792928Y-70393182D01*
X78851845Y-70419712D01*
X78938186Y-70431153D01*
X79023535Y-70415655D01*
X79099432Y-70375117D01*
X79157417Y-70311434D01*
X79191495Y-70256400D01*
X79811888Y-70256400D01*
X79830806Y-70336834D01*
X79852229Y-70443196D01*
X79877540Y-70671593D01*
X79878796Y-70909571D01*
X79856186Y-71147778D01*
X79809898Y-71376859D01*
X79772899Y-71517934D01*
X79518916Y-71521177D01*
X79477431Y-71521715D01*
X79390162Y-71522904D01*
X79316557Y-71523984D01*
X79263350Y-71524853D01*
X79237274Y-71525410D01*
X79218058Y-71535015D01*
X79202055Y-71565946D01*
X79201445Y-71568245D01*
X79187051Y-71597800D01*
X79156742Y-71649377D01*
X79113596Y-71718055D01*
X79060694Y-71798913D01*
X79001114Y-71887030D01*
X78807733Y-72168570D01*
X78474257Y-72169219D01*
X78140781Y-72169867D01*
X78111715Y-72120663D01*
X78097217Y-72100094D01*
X78040086Y-72049827D01*
X77968030Y-72014118D01*
X77894717Y-72000534D01*
X77838900Y-72005784D01*
X77756973Y-72035954D01*
X77692340Y-72087850D01*
X77647304Y-72155647D01*
X77624172Y-72233520D01*
X77625246Y-72315644D01*
X77652833Y-72396194D01*
X77709237Y-72469344D01*
X77755870Y-72505475D01*
X77837331Y-72538180D01*
X77922194Y-72539145D01*
X78006017Y-72508637D01*
X78084355Y-72446921D01*
X78156843Y-72371383D01*
X78524621Y-72373119D01*
X78565663Y-72373306D01*
X78672265Y-72373732D01*
X78766604Y-72374021D01*
X78843278Y-72374163D01*
X78896888Y-72374147D01*
X78922033Y-72373961D01*
X78937963Y-72368981D01*
X78951666Y-72343000D01*
X78952214Y-72339976D01*
X78965752Y-72311574D01*
X78995274Y-72261285D01*
X79037873Y-72193750D01*
X79090641Y-72113609D01*
X79150668Y-72025500D01*
X79349670Y-71738067D01*
X79514735Y-71733221D01*
X79560167Y-71732257D01*
X79621795Y-71732376D01*
X79664090Y-71734338D01*
X79679800Y-71737937D01*
X79679786Y-71738184D01*
X79672122Y-71758087D01*
X79653084Y-71799165D01*
X79626637Y-71852850D01*
X79521631Y-72034414D01*
X79372674Y-72235128D01*
X79198804Y-72421495D01*
X79004389Y-72589788D01*
X78793799Y-72736282D01*
X78571402Y-72857249D01*
X78341567Y-72948964D01*
X78298487Y-72962404D01*
X78158843Y-72998913D01*
X78010313Y-73028747D01*
X77861009Y-73050846D01*
X77719046Y-73064153D01*
X77592537Y-73067608D01*
X77489595Y-73060151D01*
X77410733Y-73048325D01*
X77410733Y-71475601D01*
X77511721Y-71475601D01*
X77568057Y-71477007D01*
X77606757Y-71485116D01*
X77638445Y-71505621D01*
X77676821Y-71544218D01*
X77739068Y-71595881D01*
X77821824Y-71630184D01*
X77907709Y-71633963D01*
X77990958Y-71607138D01*
X78065810Y-71549630D01*
X78072904Y-71541790D01*
X78119463Y-71464210D01*
X78137819Y-71376446D01*
X78127434Y-71286969D01*
X78087770Y-71204251D01*
X78079968Y-71193867D01*
X78014948Y-71136171D01*
X77936769Y-71104188D01*
X77852773Y-71097559D01*
X77770303Y-71115925D01*
X77696701Y-71158925D01*
X77639308Y-71226202D01*
X77610669Y-71274685D01*
X77406513Y-71269309D01*
X77202358Y-71263934D01*
X77206240Y-72141941D01*
X77210121Y-73019948D01*
X77136860Y-73007721D01*
X77132350Y-73006924D01*
X77077008Y-72993737D01*
X77001092Y-72971763D01*
X76914480Y-72944141D01*
X76827049Y-72914004D01*
X76748677Y-72884489D01*
X76704688Y-72866932D01*
X76695135Y-72591640D01*
X76685581Y-72316348D01*
X76759207Y-72244792D01*
X76807710Y-72184982D01*
X76842743Y-72101645D01*
X76848490Y-72015974D01*
X76825785Y-71933992D01*
X76775463Y-71861724D01*
X76698357Y-71805192D01*
X76641586Y-71785130D01*
X76556712Y-71781871D01*
X76473122Y-71805013D01*
X76399351Y-71851803D01*
X76343931Y-71919491D01*
X76321146Y-71974945D01*
X76311625Y-72059669D01*
X76327636Y-72142513D01*
X76367094Y-72214820D01*
X76427913Y-72267937D01*
X76450619Y-72283363D01*
X76467914Y-72306619D01*
X76478221Y-72344259D01*
X76485607Y-72406016D01*
X76489829Y-72460438D01*
X76494391Y-72550436D01*
X76496212Y-72633112D01*
X76496222Y-72640205D01*
X76495562Y-72693816D01*
X76490289Y-72725962D01*
X76475762Y-72737071D01*
X76447340Y-72727573D01*
X76400383Y-72697899D01*
X76330250Y-72648477D01*
X76276610Y-72608398D01*
X76157179Y-72507716D01*
X76035559Y-72391826D01*
X75921565Y-72270356D01*
X75825013Y-72152934D01*
X75822224Y-72149215D01*
X75750363Y-72043193D01*
X75675919Y-71916430D01*
X75604902Y-71780409D01*
X75543323Y-71646614D01*
X75497190Y-71526529D01*
X75488608Y-71499836D01*
X75460793Y-71401324D01*
X75435591Y-71295280D01*
X75415029Y-71191618D01*
X75401134Y-71100254D01*
X75395931Y-71031101D01*
X75395666Y-70950667D01*
X75704700Y-70951319D01*
X76013733Y-70951972D01*
X76047600Y-71004754D01*
X76049222Y-71007252D01*
X76110382Y-71071308D01*
X76189410Y-71107928D01*
X76281694Y-71114940D01*
X76299147Y-71112910D01*
X76384526Y-71086097D01*
X76451393Y-71037116D01*
X76498449Y-70971935D01*
X76524396Y-70896526D01*
X76527934Y-70816857D01*
X76507765Y-70738900D01*
X76462589Y-70668624D01*
X76391109Y-70611999D01*
X76335662Y-70589140D01*
X76250614Y-70579544D01*
X76167601Y-70595888D01*
X76095140Y-70636077D01*
X76041745Y-70698013D01*
X76013733Y-70747253D01*
X75377051Y-70747467D01*
X75387671Y-70641634D01*
X75395276Y-70574790D01*
X75421121Y-70409296D01*
X75455174Y-70250715D01*
X75494719Y-70112467D01*
X75540077Y-69977000D01*
X76259505Y-69983046D01*
X76346481Y-69983819D01*
X76493797Y-69985334D01*
X76628501Y-69986974D01*
X76747050Y-69988682D01*
X76845902Y-69990399D01*
X76921514Y-69992068D01*
X76970345Y-69993630D01*
X76988852Y-69995027D01*
X76992312Y-70006861D01*
X76993501Y-70044449D01*
X76990748Y-70097717D01*
X76988079Y-70125441D01*
X76977952Y-70176300D01*
X76957272Y-70214488D01*
X76919190Y-70255069D01*
X76869440Y-70314220D01*
X76831739Y-70397849D01*
X76824803Y-70484231D01*
X76848835Y-70568193D01*
X76904035Y-70644565D01*
X76938341Y-70674085D01*
X77016687Y-70714040D01*
X77098642Y-70725921D01*
X77178499Y-70712161D01*
X77250548Y-70675187D01*
X77309079Y-70617432D01*
X77348385Y-70541324D01*
X77362755Y-70449295D01*
X77361960Y-70429985D01*
X77341676Y-70348504D01*
X77298430Y-70278134D01*
X77238133Y-70229312D01*
X77187337Y-70203044D01*
X77199472Y-69992655D01*
X77211606Y-69782267D01*
X76509200Y-69782267D01*
X76459420Y-69782253D01*
X76265736Y-69781850D01*
X76103173Y-69780826D01*
X75969504Y-69779096D01*
X75862504Y-69776574D01*
X75779949Y-69773173D01*
X75719612Y-69768809D01*
X75679270Y-69763395D01*
X75656696Y-69756845D01*
X75649666Y-69749073D01*
X75656445Y-69734576D01*
X75678523Y-69696887D01*
X75712286Y-69642573D01*
X75753972Y-69577808D01*
X75766843Y-69558587D01*
X75844802Y-69454829D01*
X75940853Y-69342614D01*
X76047748Y-69229353D01*
X76158237Y-69122454D01*
X76265071Y-69029327D01*
X76361001Y-68957381D01*
X76396466Y-68934207D01*
X76553942Y-68841755D01*
X76719834Y-68758931D01*
X76878708Y-68693599D01*
X76914168Y-68681706D01*
X77004075Y-68655699D01*
X77108735Y-68629273D01*
X77216404Y-68605141D01*
X77315340Y-68586015D01*
X77393799Y-68574609D01*
X77396791Y-68574300D01*
X77445264Y-68569344D01*
X77480888Y-68565777D01*
X77484982Y-68565841D01*
X77493064Y-68571095D01*
X77499338Y-68586674D01*
X77504155Y-68616502D01*
X77507866Y-68664502D01*
X77510822Y-68734597D01*
X77513374Y-68830711D01*
X77515874Y-68956767D01*
X77523037Y-69350467D01*
X77458689Y-69409734D01*
X77432730Y-69436104D01*
X77380271Y-69516922D01*
X77359440Y-69602441D01*
X77369959Y-69687938D01*
X77411552Y-69768691D01*
X77483941Y-69839977D01*
X77501376Y-69850756D01*
X77567069Y-69871730D01*
X77644027Y-69877026D01*
X77718502Y-69866620D01*
X77776745Y-69840488D01*
X77842883Y-69774122D01*
X77884043Y-69696128D01*
X77899470Y-69613392D01*
X77888977Y-69532375D01*
X77852376Y-69459542D01*
X77789479Y-69401355D01*
X77783024Y-69397093D01*
X77762345Y-69380072D01*
X77746354Y-69358028D01*
X77734456Y-69326841D01*
X77726056Y-69282390D01*
X77720559Y-69220556D01*
X77717370Y-69137219D01*
X77715893Y-69028259D01*
X77715533Y-68889556D01*
X77715533Y-68560372D01*
X77829833Y-68571775D01*
G37*
X77829833Y-68571775D02*
X77923681Y-68583728D01*
X78033715Y-68601916D01*
X78141788Y-68623230D01*
X78232000Y-68644784D01*
X78282800Y-68658633D01*
X78291574Y-70391867D01*
X78185587Y-70391760D01*
X78184785Y-70391759D01*
X78126096Y-70390467D01*
X78091059Y-70384288D01*
X78069585Y-70369509D01*
X78051587Y-70342413D01*
X78017160Y-70297427D01*
X77949692Y-70250281D01*
X77869036Y-70226330D01*
X77783708Y-70227670D01*
X77702223Y-70256399D01*
X77671539Y-70276169D01*
X77608935Y-70340319D01*
X77573002Y-70416982D01*
X77563804Y-70500014D01*
X77581407Y-70583274D01*
X77625875Y-70660616D01*
X77697273Y-70725898D01*
X77749651Y-70751458D01*
X77831239Y-70763472D01*
X77913746Y-70749112D01*
X77988225Y-70710350D01*
X78045733Y-70649154D01*
X78079600Y-70596372D01*
X78291266Y-70595726D01*
X78502933Y-70595080D01*
X78498016Y-69662646D01*
X78493100Y-68730212D01*
X78660254Y-68816073D01*
X78744929Y-68861821D01*
X78974454Y-69011240D01*
X79182008Y-69186156D01*
X79366671Y-69385616D01*
X79527520Y-69608667D01*
X79663636Y-69854356D01*
X79693503Y-69917273D01*
X79721327Y-69977718D01*
X79740250Y-70021006D01*
X79747289Y-70040500D01*
X79738078Y-70043713D01*
X79700227Y-70047476D01*
X79638225Y-70050458D01*
X79557605Y-70052412D01*
X79463900Y-70053093D01*
X79180266Y-70052986D01*
X79152108Y-70003491D01*
X79119836Y-69962737D01*
X79050256Y-69917792D01*
X78957677Y-69891860D01*
X78932607Y-69889764D01*
X78854351Y-69903255D01*
X78781582Y-69942447D01*
X78721088Y-70001285D01*
X78679658Y-70073716D01*
X78664078Y-70153688D01*
X78667977Y-70193983D01*
X78693859Y-70271809D01*
X78737900Y-70342654D01*
X78792928Y-70393182D01*
X78851845Y-70419712D01*
X78938186Y-70431153D01*
X79023535Y-70415655D01*
X79099432Y-70375117D01*
X79157417Y-70311434D01*
X79191495Y-70256400D01*
X79811888Y-70256400D01*
X79830806Y-70336834D01*
X79852229Y-70443196D01*
X79877540Y-70671593D01*
X79878796Y-70909571D01*
X79856186Y-71147778D01*
X79809898Y-71376859D01*
X79772899Y-71517934D01*
X79518916Y-71521177D01*
X79477431Y-71521715D01*
X79390162Y-71522904D01*
X79316557Y-71523984D01*
X79263350Y-71524853D01*
X79237274Y-71525410D01*
X79218058Y-71535015D01*
X79202055Y-71565946D01*
X79201445Y-71568245D01*
X79187051Y-71597800D01*
X79156742Y-71649377D01*
X79113596Y-71718055D01*
X79060694Y-71798913D01*
X79001114Y-71887030D01*
X78807733Y-72168570D01*
X78474257Y-72169219D01*
X78140781Y-72169867D01*
X78111715Y-72120663D01*
X78097217Y-72100094D01*
X78040086Y-72049827D01*
X77968030Y-72014118D01*
X77894717Y-72000534D01*
X77838900Y-72005784D01*
X77756973Y-72035954D01*
X77692340Y-72087850D01*
X77647304Y-72155647D01*
X77624172Y-72233520D01*
X77625246Y-72315644D01*
X77652833Y-72396194D01*
X77709237Y-72469344D01*
X77755870Y-72505475D01*
X77837331Y-72538180D01*
X77922194Y-72539145D01*
X78006017Y-72508637D01*
X78084355Y-72446921D01*
X78156843Y-72371383D01*
X78524621Y-72373119D01*
X78565663Y-72373306D01*
X78672265Y-72373732D01*
X78766604Y-72374021D01*
X78843278Y-72374163D01*
X78896888Y-72374147D01*
X78922033Y-72373961D01*
X78937963Y-72368981D01*
X78951666Y-72343000D01*
X78952214Y-72339976D01*
X78965752Y-72311574D01*
X78995274Y-72261285D01*
X79037873Y-72193750D01*
X79090641Y-72113609D01*
X79150668Y-72025500D01*
X79349670Y-71738067D01*
X79514735Y-71733221D01*
X79560167Y-71732257D01*
X79621795Y-71732376D01*
X79664090Y-71734338D01*
X79679800Y-71737937D01*
X79679786Y-71738184D01*
X79672122Y-71758087D01*
X79653084Y-71799165D01*
X79626637Y-71852850D01*
X79521631Y-72034414D01*
X79372674Y-72235128D01*
X79198804Y-72421495D01*
X79004389Y-72589788D01*
X78793799Y-72736282D01*
X78571402Y-72857249D01*
X78341567Y-72948964D01*
X78298487Y-72962404D01*
X78158843Y-72998913D01*
X78010313Y-73028747D01*
X77861009Y-73050846D01*
X77719046Y-73064153D01*
X77592537Y-73067608D01*
X77489595Y-73060151D01*
X77410733Y-73048325D01*
X77410733Y-71475601D01*
X77511721Y-71475601D01*
X77568057Y-71477007D01*
X77606757Y-71485116D01*
X77638445Y-71505621D01*
X77676821Y-71544218D01*
X77739068Y-71595881D01*
X77821824Y-71630184D01*
X77907709Y-71633963D01*
X77990958Y-71607138D01*
X78065810Y-71549630D01*
X78072904Y-71541790D01*
X78119463Y-71464210D01*
X78137819Y-71376446D01*
X78127434Y-71286969D01*
X78087770Y-71204251D01*
X78079968Y-71193867D01*
X78014948Y-71136171D01*
X77936769Y-71104188D01*
X77852773Y-71097559D01*
X77770303Y-71115925D01*
X77696701Y-71158925D01*
X77639308Y-71226202D01*
X77610669Y-71274685D01*
X77406513Y-71269309D01*
X77202358Y-71263934D01*
X77206240Y-72141941D01*
X77210121Y-73019948D01*
X77136860Y-73007721D01*
X77132350Y-73006924D01*
X77077008Y-72993737D01*
X77001092Y-72971763D01*
X76914480Y-72944141D01*
X76827049Y-72914004D01*
X76748677Y-72884489D01*
X76704688Y-72866932D01*
X76695135Y-72591640D01*
X76685581Y-72316348D01*
X76759207Y-72244792D01*
X76807710Y-72184982D01*
X76842743Y-72101645D01*
X76848490Y-72015974D01*
X76825785Y-71933992D01*
X76775463Y-71861724D01*
X76698357Y-71805192D01*
X76641586Y-71785130D01*
X76556712Y-71781871D01*
X76473122Y-71805013D01*
X76399351Y-71851803D01*
X76343931Y-71919491D01*
X76321146Y-71974945D01*
X76311625Y-72059669D01*
X76327636Y-72142513D01*
X76367094Y-72214820D01*
X76427913Y-72267937D01*
X76450619Y-72283363D01*
X76467914Y-72306619D01*
X76478221Y-72344259D01*
X76485607Y-72406016D01*
X76489829Y-72460438D01*
X76494391Y-72550436D01*
X76496212Y-72633112D01*
X76496222Y-72640205D01*
X76495562Y-72693816D01*
X76490289Y-72725962D01*
X76475762Y-72737071D01*
X76447340Y-72727573D01*
X76400383Y-72697899D01*
X76330250Y-72648477D01*
X76276610Y-72608398D01*
X76157179Y-72507716D01*
X76035559Y-72391826D01*
X75921565Y-72270356D01*
X75825013Y-72152934D01*
X75822224Y-72149215D01*
X75750363Y-72043193D01*
X75675919Y-71916430D01*
X75604902Y-71780409D01*
X75543323Y-71646614D01*
X75497190Y-71526529D01*
X75488608Y-71499836D01*
X75460793Y-71401324D01*
X75435591Y-71295280D01*
X75415029Y-71191618D01*
X75401134Y-71100254D01*
X75395931Y-71031101D01*
X75395666Y-70950667D01*
X75704700Y-70951319D01*
X76013733Y-70951972D01*
X76047600Y-71004754D01*
X76049222Y-71007252D01*
X76110382Y-71071308D01*
X76189410Y-71107928D01*
X76281694Y-71114940D01*
X76299147Y-71112910D01*
X76384526Y-71086097D01*
X76451393Y-71037116D01*
X76498449Y-70971935D01*
X76524396Y-70896526D01*
X76527934Y-70816857D01*
X76507765Y-70738900D01*
X76462589Y-70668624D01*
X76391109Y-70611999D01*
X76335662Y-70589140D01*
X76250614Y-70579544D01*
X76167601Y-70595888D01*
X76095140Y-70636077D01*
X76041745Y-70698013D01*
X76013733Y-70747253D01*
X75377051Y-70747467D01*
X75387671Y-70641634D01*
X75395276Y-70574790D01*
X75421121Y-70409296D01*
X75455174Y-70250715D01*
X75494719Y-70112467D01*
X75540077Y-69977000D01*
X76259505Y-69983046D01*
X76346481Y-69983819D01*
X76493797Y-69985334D01*
X76628501Y-69986974D01*
X76747050Y-69988682D01*
X76845902Y-69990399D01*
X76921514Y-69992068D01*
X76970345Y-69993630D01*
X76988852Y-69995027D01*
X76992312Y-70006861D01*
X76993501Y-70044449D01*
X76990748Y-70097717D01*
X76988079Y-70125441D01*
X76977952Y-70176300D01*
X76957272Y-70214488D01*
X76919190Y-70255069D01*
X76869440Y-70314220D01*
X76831739Y-70397849D01*
X76824803Y-70484231D01*
X76848835Y-70568193D01*
X76904035Y-70644565D01*
X76938341Y-70674085D01*
X77016687Y-70714040D01*
X77098642Y-70725921D01*
X77178499Y-70712161D01*
X77250548Y-70675187D01*
X77309079Y-70617432D01*
X77348385Y-70541324D01*
X77362755Y-70449295D01*
X77361960Y-70429985D01*
X77341676Y-70348504D01*
X77298430Y-70278134D01*
X77238133Y-70229312D01*
X77187337Y-70203044D01*
X77199472Y-69992655D01*
X77211606Y-69782267D01*
X76509200Y-69782267D01*
X76459420Y-69782253D01*
X76265736Y-69781850D01*
X76103173Y-69780826D01*
X75969504Y-69779096D01*
X75862504Y-69776574D01*
X75779949Y-69773173D01*
X75719612Y-69768809D01*
X75679270Y-69763395D01*
X75656696Y-69756845D01*
X75649666Y-69749073D01*
X75656445Y-69734576D01*
X75678523Y-69696887D01*
X75712286Y-69642573D01*
X75753972Y-69577808D01*
X75766843Y-69558587D01*
X75844802Y-69454829D01*
X75940853Y-69342614D01*
X76047748Y-69229353D01*
X76158237Y-69122454D01*
X76265071Y-69029327D01*
X76361001Y-68957381D01*
X76396466Y-68934207D01*
X76553942Y-68841755D01*
X76719834Y-68758931D01*
X76878708Y-68693599D01*
X76914168Y-68681706D01*
X77004075Y-68655699D01*
X77108735Y-68629273D01*
X77216404Y-68605141D01*
X77315340Y-68586015D01*
X77393799Y-68574609D01*
X77396791Y-68574300D01*
X77445264Y-68569344D01*
X77480888Y-68565777D01*
X77484982Y-68565841D01*
X77493064Y-68571095D01*
X77499338Y-68586674D01*
X77504155Y-68616502D01*
X77507866Y-68664502D01*
X77510822Y-68734597D01*
X77513374Y-68830711D01*
X77515874Y-68956767D01*
X77523037Y-69350467D01*
X77458689Y-69409734D01*
X77432730Y-69436104D01*
X77380271Y-69516922D01*
X77359440Y-69602441D01*
X77369959Y-69687938D01*
X77411552Y-69768691D01*
X77483941Y-69839977D01*
X77501376Y-69850756D01*
X77567069Y-69871730D01*
X77644027Y-69877026D01*
X77718502Y-69866620D01*
X77776745Y-69840488D01*
X77842883Y-69774122D01*
X77884043Y-69696128D01*
X77899470Y-69613392D01*
X77888977Y-69532375D01*
X77852376Y-69459542D01*
X77789479Y-69401355D01*
X77783024Y-69397093D01*
X77762345Y-69380072D01*
X77746354Y-69358028D01*
X77734456Y-69326841D01*
X77726056Y-69282390D01*
X77720559Y-69220556D01*
X77717370Y-69137219D01*
X77715893Y-69028259D01*
X77715533Y-68889556D01*
X77715533Y-68560372D01*
X77829833Y-68571775D01*
G36*
X77648587Y-69558427D02*
G01*
X77683979Y-69577942D01*
X77698600Y-69610143D01*
X77687037Y-69649178D01*
X77655942Y-69674526D01*
X77616693Y-69678315D01*
X77580741Y-69656080D01*
X77578635Y-69653350D01*
X77568628Y-69616336D01*
X77580837Y-69579205D01*
X77610495Y-69557716D01*
X77648587Y-69558427D01*
G37*
X77648587Y-69558427D02*
X77683979Y-69577942D01*
X77698600Y-69610143D01*
X77687037Y-69649178D01*
X77655942Y-69674526D01*
X77616693Y-69678315D01*
X77580741Y-69656080D01*
X77578635Y-69653350D01*
X77568628Y-69616336D01*
X77580837Y-69579205D01*
X77610495Y-69557716D01*
X77648587Y-69558427D01*
G36*
X78955778Y-70109952D02*
G01*
X78983501Y-70134071D01*
X78984417Y-70135842D01*
X78989507Y-70176711D01*
X78968127Y-70209255D01*
X78927236Y-70222534D01*
X78895439Y-70213885D01*
X78873519Y-70182466D01*
X78876223Y-70135482D01*
X78886522Y-70119069D01*
X78918555Y-70105016D01*
X78955778Y-70109952D01*
G37*
X78955778Y-70109952D02*
X78983501Y-70134071D01*
X78984417Y-70135842D01*
X78989507Y-70176711D01*
X78968127Y-70209255D01*
X78927236Y-70222534D01*
X78895439Y-70213885D01*
X78873519Y-70182466D01*
X78876223Y-70135482D01*
X78886522Y-70119069D01*
X78918555Y-70105016D01*
X78955778Y-70109952D01*
G36*
X77139124Y-70416454D02*
G01*
X77152798Y-70444935D01*
X77149394Y-70481593D01*
X77129098Y-70510735D01*
X77098708Y-70523638D01*
X77065019Y-70511578D01*
X77054126Y-70499436D01*
X77040159Y-70462854D01*
X77041647Y-70425772D01*
X77059366Y-70403082D01*
X77064997Y-70400905D01*
X77107517Y-70395017D01*
X77139124Y-70416454D01*
G37*
X77139124Y-70416454D02*
X77152798Y-70444935D01*
X77149394Y-70481593D01*
X77129098Y-70510735D01*
X77098708Y-70523638D01*
X77065019Y-70511578D01*
X77054126Y-70499436D01*
X77040159Y-70462854D01*
X77041647Y-70425772D01*
X77059366Y-70403082D01*
X77064997Y-70400905D01*
X77107517Y-70395017D01*
X77139124Y-70416454D01*
G36*
X77847536Y-70431012D02*
G01*
X77873044Y-70457152D01*
X77883566Y-70494361D01*
X77876736Y-70530390D01*
X77850187Y-70552992D01*
X77839553Y-70555514D01*
X77800041Y-70548696D01*
X77773962Y-70521293D01*
X77767453Y-70483635D01*
X77786653Y-70446054D01*
X77798268Y-70436594D01*
X77825600Y-70425734D01*
X77847536Y-70431012D01*
G37*
X77847536Y-70431012D02*
X77873044Y-70457152D01*
X77883566Y-70494361D01*
X77876736Y-70530390D01*
X77850187Y-70552992D01*
X77839553Y-70555514D01*
X77800041Y-70548696D01*
X77773962Y-70521293D01*
X77767453Y-70483635D01*
X77786653Y-70446054D01*
X77798268Y-70436594D01*
X77825600Y-70425734D01*
X77847536Y-70431012D01*
G36*
X76276648Y-70785254D02*
G01*
X76309391Y-70805920D01*
X76323065Y-70834402D01*
X76319660Y-70871060D01*
X76299365Y-70900202D01*
X76268975Y-70913105D01*
X76235286Y-70901045D01*
X76233205Y-70899203D01*
X76213892Y-70865426D01*
X76208557Y-70823954D01*
X76219755Y-70792623D01*
X76238654Y-70782940D01*
X76276648Y-70785254D01*
G37*
X76276648Y-70785254D02*
X76309391Y-70805920D01*
X76323065Y-70834402D01*
X76319660Y-70871060D01*
X76299365Y-70900202D01*
X76268975Y-70913105D01*
X76235286Y-70901045D01*
X76233205Y-70899203D01*
X76213892Y-70865426D01*
X76208557Y-70823954D01*
X76219755Y-70792623D01*
X76238654Y-70782940D01*
X76276648Y-70785254D01*
G36*
X77897969Y-71302963D02*
G01*
X77925137Y-71327764D01*
X77932448Y-71370906D01*
X77929291Y-71389205D01*
X77913615Y-71411108D01*
X77876400Y-71416334D01*
X77860096Y-71415752D01*
X77831012Y-71405143D01*
X77819758Y-71374949D01*
X77820980Y-71347358D01*
X77843264Y-71312105D01*
X77860493Y-71302798D01*
X77897969Y-71302963D01*
G37*
X77897969Y-71302963D02*
X77925137Y-71327764D01*
X77932448Y-71370906D01*
X77929291Y-71389205D01*
X77913615Y-71411108D01*
X77876400Y-71416334D01*
X77860096Y-71415752D01*
X77831012Y-71405143D01*
X77819758Y-71374949D01*
X77820980Y-71347358D01*
X77843264Y-71312105D01*
X77860493Y-71302798D01*
X77897969Y-71302963D01*
G36*
X76632977Y-72010420D02*
G01*
X76641738Y-72024477D01*
X76641843Y-72057781D01*
X76616322Y-72083412D01*
X76570919Y-72093667D01*
X76564372Y-72093448D01*
X76526318Y-72078768D01*
X76513766Y-72047389D01*
X76530875Y-72008187D01*
X76553338Y-71990604D01*
X76595044Y-71986352D01*
X76632977Y-72010420D01*
G37*
X76632977Y-72010420D02*
X76641738Y-72024477D01*
X76641843Y-72057781D01*
X76616322Y-72083412D01*
X76570919Y-72093667D01*
X76564372Y-72093448D01*
X76526318Y-72078768D01*
X76513766Y-72047389D01*
X76530875Y-72008187D01*
X76553338Y-71990604D01*
X76595044Y-71986352D01*
X76632977Y-72010420D01*
G36*
X77909378Y-72212783D02*
G01*
X77942317Y-72241834D01*
X77951797Y-72264381D01*
X77942317Y-72301100D01*
X77939012Y-72306032D01*
X77905481Y-72332328D01*
X77869329Y-72333170D01*
X77839503Y-72313918D01*
X77824950Y-72279933D01*
X77834616Y-72236573D01*
X77838659Y-72230045D01*
X77870665Y-72208650D01*
X77909378Y-72212783D01*
G37*
X77909378Y-72212783D02*
X77942317Y-72241834D01*
X77951797Y-72264381D01*
X77942317Y-72301100D01*
X77939012Y-72306032D01*
X77905481Y-72332328D01*
X77869329Y-72333170D01*
X77839503Y-72313918D01*
X77824950Y-72279933D01*
X77834616Y-72236573D01*
X77838659Y-72230045D01*
X77870665Y-72208650D01*
X77909378Y-72212783D01*
%LPC*%
D12*
X73228500Y-75352000D03*
X73228500Y-60452000D03*
X81978500Y-75352000D03*
X81978500Y-60452000D03*
D13*
X73500000Y-91400000D03*
X106500000Y-91400000D03*
X73500000Y-53500000D03*
X106500000Y-53500000D03*
D14*
X101523800Y-87379200D03*
X101523800Y-82499200D03*
X99996600Y-75336400D03*
X104876600Y-75336400D03*
D12*
X80985500Y-79565500D03*
X80985500Y-84065500D03*
X74485500Y-79565500D03*
X74485500Y-84065500D03*
D15*
X81242500Y-52514500D03*
X83742500Y-52514500D03*
X86242500Y-52514500D03*
X88742500Y-52514500D03*
X91242500Y-52514500D03*
X93742500Y-52514500D03*
X96242500Y-52514500D03*
D16*
X98742500Y-52514500D03*
D17*
X91376500Y-73914000D03*
X88836500Y-73914000D03*
X91376500Y-71374000D03*
X88836500Y-71374000D03*
X91376500Y-68834000D03*
D18*
X88836500Y-68834000D03*
D17*
X81470500Y-91821000D03*
X78930500Y-91821000D03*
X81470500Y-89281000D03*
D18*
X78930500Y-89281000D03*
M02*
