G04 #@! TF.GenerationSoftware,KiCad,Pcbnew,(6.0.9)*
G04 #@! TF.CreationDate,2023-01-15T18:07:44+00:00*
G04 #@! TF.ProjectId,CanBus-Radio-VAG,43616e42-7573-42d5-9261-64696f2d5641,1.0*
G04 #@! TF.SameCoordinates,Original*
G04 #@! TF.FileFunction,Copper,L1,Top*
G04 #@! TF.FilePolarity,Positive*
%FSLAX46Y46*%
G04 Gerber Fmt 4.6, Leading zero omitted, Abs format (unit mm)*
G04 Created by KiCad (PCBNEW (6.0.9)) date 2023-01-15 18:07:44*
%MOMM*%
%LPD*%
G01*
G04 APERTURE LIST*
G04 Aperture macros list*
%AMRoundRect*
0 Rectangle with rounded corners*
0 $1 Rounding radius*
0 $2 $3 $4 $5 $6 $7 $8 $9 X,Y pos of 4 corners*
0 Add a 4 corners polygon primitive as box body*
4,1,4,$2,$3,$4,$5,$6,$7,$8,$9,$2,$3,0*
0 Add four circle primitives for the rounded corners*
1,1,$1+$1,$2,$3*
1,1,$1+$1,$4,$5*
1,1,$1+$1,$6,$7*
1,1,$1+$1,$8,$9*
0 Add four rect primitives between the rounded corners*
20,1,$1+$1,$2,$3,$4,$5,0*
20,1,$1+$1,$4,$5,$6,$7,0*
20,1,$1+$1,$6,$7,$8,$9,0*
20,1,$1+$1,$8,$9,$2,$3,0*%
%AMRotRect*
0 Rectangle, with rotation*
0 The origin of the aperture is its center*
0 $1 length*
0 $2 width*
0 $3 Rotation angle, in degrees counterclockwise*
0 Add horizontal line*
21,1,$1,$2,0,0,$3*%
G04 Aperture macros list end*
G04 #@! TA.AperFunction,ComponentPad*
%ADD10C,2.000000*%
G04 #@! TD*
G04 #@! TA.AperFunction,ComponentPad*
%ADD11C,4.400000*%
G04 #@! TD*
G04 #@! TA.AperFunction,SMDPad,CuDef*
%ADD12R,3.500000X1.800000*%
G04 #@! TD*
G04 #@! TA.AperFunction,SMDPad,CuDef*
%ADD13RotRect,1.600000X0.550000X225.000000*%
G04 #@! TD*
G04 #@! TA.AperFunction,SMDPad,CuDef*
%ADD14RotRect,1.600000X0.550000X135.000000*%
G04 #@! TD*
G04 #@! TA.AperFunction,ComponentPad*
%ADD15C,1.500000*%
G04 #@! TD*
G04 #@! TA.AperFunction,SMDPad,CuDef*
%ADD16RoundRect,0.150000X-0.825000X-0.150000X0.825000X-0.150000X0.825000X0.150000X-0.825000X0.150000X0*%
G04 #@! TD*
G04 #@! TA.AperFunction,SMDPad,CuDef*
%ADD17RoundRect,0.150000X-0.875000X-0.150000X0.875000X-0.150000X0.875000X0.150000X-0.875000X0.150000X0*%
G04 #@! TD*
G04 #@! TA.AperFunction,SMDPad,CuDef*
%ADD18RoundRect,0.250000X-0.400000X-0.625000X0.400000X-0.625000X0.400000X0.625000X-0.400000X0.625000X0*%
G04 #@! TD*
G04 #@! TA.AperFunction,SMDPad,CuDef*
%ADD19RoundRect,0.250000X0.400000X0.625000X-0.400000X0.625000X-0.400000X-0.625000X0.400000X-0.625000X0*%
G04 #@! TD*
G04 #@! TA.AperFunction,SMDPad,CuDef*
%ADD20R,1.500000X1.000000*%
G04 #@! TD*
G04 #@! TA.AperFunction,SMDPad,CuDef*
%ADD21R,1.000000X1.500000*%
G04 #@! TD*
G04 #@! TA.AperFunction,ComponentPad*
%ADD22O,1.700000X1.950000*%
G04 #@! TD*
G04 #@! TA.AperFunction,ComponentPad*
%ADD23RoundRect,0.250000X0.600000X0.725000X-0.600000X0.725000X-0.600000X-0.725000X0.600000X-0.725000X0*%
G04 #@! TD*
G04 #@! TA.AperFunction,ComponentPad*
%ADD24O,1.700000X1.700000*%
G04 #@! TD*
G04 #@! TA.AperFunction,ComponentPad*
%ADD25R,1.700000X1.700000*%
G04 #@! TD*
G04 #@! TA.AperFunction,SMDPad,CuDef*
%ADD26RoundRect,0.250000X0.400000X1.450000X-0.400000X1.450000X-0.400000X-1.450000X0.400000X-1.450000X0*%
G04 #@! TD*
G04 #@! TA.AperFunction,SMDPad,CuDef*
%ADD27RoundRect,0.250001X0.624999X-0.462499X0.624999X0.462499X-0.624999X0.462499X-0.624999X-0.462499X0*%
G04 #@! TD*
G04 #@! TA.AperFunction,SMDPad,CuDef*
%ADD28RoundRect,0.250001X-0.462499X-0.624999X0.462499X-0.624999X0.462499X0.624999X-0.462499X0.624999X0*%
G04 #@! TD*
G04 #@! TA.AperFunction,SMDPad,CuDef*
%ADD29RoundRect,0.250000X-0.375000X-0.275000X0.375000X-0.275000X0.375000X0.275000X-0.375000X0.275000X0*%
G04 #@! TD*
G04 #@! TA.AperFunction,SMDPad,CuDef*
%ADD30RoundRect,0.250000X-0.412500X-0.650000X0.412500X-0.650000X0.412500X0.650000X-0.412500X0.650000X0*%
G04 #@! TD*
G04 #@! TA.AperFunction,SMDPad,CuDef*
%ADD31RoundRect,0.250000X0.412500X0.650000X-0.412500X0.650000X-0.412500X-0.650000X0.412500X-0.650000X0*%
G04 #@! TD*
G04 #@! TA.AperFunction,ViaPad*
%ADD32C,0.800000*%
G04 #@! TD*
G04 #@! TA.AperFunction,Conductor*
%ADD33C,0.500000*%
G04 #@! TD*
G04 #@! TA.AperFunction,Conductor*
%ADD34C,0.800000*%
G04 #@! TD*
G04 #@! TA.AperFunction,Conductor*
%ADD35C,0.350000*%
G04 #@! TD*
G04 #@! TA.AperFunction,Conductor*
%ADD36C,0.450000*%
G04 #@! TD*
G04 APERTURE END LIST*
D10*
X73228500Y-75352000D03*
X73228500Y-60452000D03*
X81978500Y-75352000D03*
X81978500Y-60452000D03*
D11*
X73500000Y-91400000D03*
X106500000Y-91400000D03*
X73500000Y-53500000D03*
X106500000Y-53500000D03*
D12*
X80071600Y-63868300D03*
X75071600Y-63868300D03*
D13*
X89525695Y-91281603D03*
X88960010Y-90715917D03*
X88394324Y-90150232D03*
X87828639Y-89584547D03*
X87262953Y-89018861D03*
X86697268Y-88453176D03*
X86131583Y-87887490D03*
X85565897Y-87321805D03*
D14*
X85565897Y-85271195D03*
X86131583Y-84705510D03*
X86697268Y-84139824D03*
X87262953Y-83574139D03*
X87828639Y-83008453D03*
X88394324Y-82442768D03*
X88960010Y-81877083D03*
X89525695Y-81311397D03*
D13*
X91576305Y-81311397D03*
X92141990Y-81877083D03*
X92707676Y-82442768D03*
X93273361Y-83008453D03*
X93839047Y-83574139D03*
X94404732Y-84139824D03*
X94970417Y-84705510D03*
X95536103Y-85271195D03*
D14*
X95536103Y-87321805D03*
X94970417Y-87887490D03*
X94404732Y-88453176D03*
X93839047Y-89018861D03*
X93273361Y-89584547D03*
X92707676Y-90150232D03*
X92141990Y-90715917D03*
X91576305Y-91281603D03*
D15*
X101523800Y-87379200D03*
X101523800Y-82499200D03*
X99996600Y-75336400D03*
X104876600Y-75336400D03*
D16*
X91349600Y-61493400D03*
X91349600Y-62763400D03*
X91349600Y-64033400D03*
X91349600Y-65303400D03*
X86399600Y-65303400D03*
X86399600Y-64033400D03*
X86399600Y-62763400D03*
X86399600Y-61493400D03*
D17*
X107012000Y-60655200D03*
X107012000Y-61925200D03*
X107012000Y-63195200D03*
X107012000Y-64465200D03*
X107012000Y-65735200D03*
X107012000Y-67005200D03*
X107012000Y-68275200D03*
X107012000Y-69545200D03*
X107012000Y-70815200D03*
X97712000Y-70815200D03*
X97712000Y-69545200D03*
X97712000Y-68275200D03*
X97712000Y-67005200D03*
X97712000Y-65735200D03*
X97712000Y-64465200D03*
X97712000Y-63195200D03*
X97712000Y-61925200D03*
X97712000Y-60655200D03*
D10*
X80985500Y-79565500D03*
X80985500Y-84065500D03*
X74485500Y-79565500D03*
X74485500Y-84065500D03*
D18*
X79121600Y-71983600D03*
X76021600Y-71983600D03*
X88849800Y-78181200D03*
X85749800Y-78181200D03*
X87783000Y-93599000D03*
X84683000Y-93599000D03*
D19*
X99034000Y-93599000D03*
X102134000Y-93599000D03*
X94219600Y-57912000D03*
X97319600Y-57912000D03*
X76148600Y-57912000D03*
X79248600Y-57912000D03*
D20*
X85280500Y-68184000D03*
X85280500Y-69484000D03*
D21*
X84085600Y-57912000D03*
X82785600Y-57912000D03*
D22*
X81242500Y-52514500D03*
X83742500Y-52514500D03*
X86242500Y-52514500D03*
X88742500Y-52514500D03*
X91242500Y-52514500D03*
X93742500Y-52514500D03*
X96242500Y-52514500D03*
D23*
X98742500Y-52514500D03*
D24*
X91376500Y-73914000D03*
X88836500Y-73914000D03*
X91376500Y-71374000D03*
X88836500Y-71374000D03*
X91376500Y-68834000D03*
D25*
X88836500Y-68834000D03*
D24*
X81470500Y-91821000D03*
X78930500Y-91821000D03*
X81470500Y-89281000D03*
D25*
X78930500Y-89281000D03*
D26*
X75346600Y-68313300D03*
X79796600Y-68313300D03*
D27*
X85280500Y-72363000D03*
X85280500Y-75338000D03*
D28*
X96674000Y-93599000D03*
X93699000Y-93599000D03*
D29*
X78391600Y-74853800D03*
X76791600Y-74853800D03*
D30*
X98717500Y-90805000D03*
X95592500Y-90805000D03*
X108674300Y-82448400D03*
X105549300Y-82448400D03*
X108674300Y-87071200D03*
X105549300Y-87071200D03*
D31*
X92341300Y-78181200D03*
X95466300Y-78181200D03*
D30*
X108674300Y-79514700D03*
X105549300Y-79514700D03*
X90765100Y-57912000D03*
X87640100Y-57912000D03*
X103899100Y-57912000D03*
X100774100Y-57912000D03*
D32*
X73888600Y-70053200D03*
X73837800Y-68173600D03*
X73837800Y-66344800D03*
X102031800Y-89357200D03*
X97053400Y-90728800D03*
X76581000Y-80772000D03*
X77952600Y-80772000D03*
X76581000Y-82042000D03*
X78003400Y-82042000D03*
X72720200Y-66344800D03*
X72720200Y-68173600D03*
X72771000Y-70053200D03*
X95326200Y-93167200D03*
X90652600Y-86360000D03*
X91973400Y-87630000D03*
X90957400Y-88442800D03*
X89687400Y-87274400D03*
X84353400Y-64008000D03*
X84709000Y-82143600D03*
X84200164Y-88392836D03*
X88023210Y-92003777D03*
X87198200Y-91389200D03*
X109143800Y-65786000D03*
X95021400Y-80264000D03*
X102946200Y-65836800D03*
X88315800Y-80111600D03*
X103200200Y-71170800D03*
X109143800Y-64516000D03*
X92923595Y-79893395D03*
X90957400Y-83972400D03*
X77241400Y-93370400D03*
X85826600Y-91694000D03*
X83591400Y-91694000D03*
X102285800Y-64871600D03*
X109143800Y-63246000D03*
X98425000Y-78421610D03*
X92125800Y-93065600D03*
X89535000Y-94132400D03*
X84353400Y-65243190D03*
X94618839Y-62502811D03*
X94462600Y-60502800D03*
X84439010Y-60397830D03*
X81000600Y-72034400D03*
X82727800Y-70662800D03*
X81864200Y-68275200D03*
X101676200Y-72440800D03*
X100304602Y-56032400D03*
X102501200Y-73660000D03*
X100558600Y-54660800D03*
X103759000Y-93624400D03*
X90870415Y-94147015D03*
D33*
X100774100Y-57912000D02*
X100774100Y-57924300D01*
D34*
X103505000Y-60655200D02*
X107012000Y-60655200D01*
X100774100Y-57924300D02*
X103505000Y-60655200D01*
X97319600Y-57912000D02*
X100774100Y-57912000D01*
D33*
X94493814Y-90805000D02*
X93273361Y-89584547D01*
X95592500Y-90805000D02*
X94493814Y-90805000D01*
X82651600Y-89281000D02*
X81470500Y-89281000D01*
X84683000Y-91312400D02*
X82651600Y-89281000D01*
X84683000Y-93599000D02*
X84683000Y-91312400D01*
D34*
X76766200Y-74828400D02*
X76791600Y-74853800D01*
X73752100Y-74828400D02*
X76766200Y-74828400D01*
X73228500Y-75352000D02*
X73752100Y-74828400D01*
D33*
X76791600Y-74853800D02*
X76791600Y-74262200D01*
X76791600Y-74262200D02*
X77393800Y-73660000D01*
X77393800Y-73660000D02*
X81000600Y-73660000D01*
X81000600Y-73660000D02*
X81877798Y-72782802D01*
X81877798Y-72782802D02*
X81877798Y-70254798D01*
X81877798Y-70254798D02*
X83948596Y-68184000D01*
X83948596Y-68184000D02*
X85280500Y-68184000D01*
X76791600Y-75902600D02*
X76791600Y-74853800D01*
X78054200Y-77165200D02*
X76791600Y-75902600D01*
X82727800Y-77165200D02*
X78054200Y-77165200D01*
X83743800Y-78181200D02*
X82727800Y-77165200D01*
X85749800Y-78181200D02*
X83743800Y-78181200D01*
D34*
X88742500Y-54681100D02*
X88742500Y-52514500D01*
X87640100Y-55783500D02*
X88742500Y-54681100D01*
X87640100Y-57912000D02*
X87640100Y-55783500D01*
D35*
X95592500Y-89640944D02*
X94404732Y-88453176D01*
X95592500Y-90805000D02*
X95592500Y-89640944D01*
X91376500Y-67322700D02*
X91376500Y-68834000D01*
X91059000Y-67005200D02*
X91376500Y-67322700D01*
X87828097Y-67005200D02*
X91059000Y-67005200D01*
X86649297Y-68184000D02*
X87828097Y-67005200D01*
X85280500Y-68184000D02*
X86649297Y-68184000D01*
X84378800Y-64033400D02*
X84353400Y-64008000D01*
X86399600Y-64033400D02*
X84378800Y-64033400D01*
D36*
X89579474Y-82496547D02*
X88960010Y-81877083D01*
X89579474Y-83815476D02*
X89579474Y-82496547D01*
X90890364Y-84797401D02*
X90561399Y-84797401D01*
X94404732Y-88311769D02*
X90890364Y-84797401D01*
X94404732Y-88453176D02*
X94404732Y-88311769D01*
X88844287Y-84024101D02*
X89788099Y-84024101D01*
X87828639Y-83008453D02*
X88844287Y-84024101D01*
X89788099Y-84024101D02*
X89579474Y-83815476D01*
X90561399Y-84797401D02*
X89788099Y-84024101D01*
X86961064Y-82143600D02*
X84709000Y-82143600D01*
X87847046Y-81257618D02*
X86961064Y-82143600D01*
X88340545Y-81257618D02*
X87847046Y-81257618D01*
X88960010Y-81877083D02*
X88340545Y-81257618D01*
X84200164Y-82652436D02*
X84709000Y-82143600D01*
X84200164Y-88392836D02*
X84200164Y-82652436D01*
D34*
X90398600Y-56337200D02*
X88742500Y-54681100D01*
X95744800Y-56337200D02*
X90398600Y-56337200D01*
X97319600Y-57912000D02*
X95744800Y-56337200D01*
D36*
X105537000Y-79502400D02*
X105549300Y-79514700D01*
X105537000Y-75996800D02*
X105537000Y-79502400D01*
X104876600Y-75336400D02*
X105537000Y-75996800D01*
X104876600Y-74275740D02*
X98876060Y-68275200D01*
X98876060Y-68275200D02*
X97712000Y-68275200D01*
X104876600Y-75336400D02*
X104876600Y-74275740D01*
D35*
X74485500Y-79565500D02*
X80985500Y-79565500D01*
D33*
X88836500Y-78167900D02*
X88849800Y-78181200D01*
X88836500Y-73914000D02*
X88836500Y-78167900D01*
D35*
X88849800Y-78358400D02*
X88849800Y-78181200D01*
X86487000Y-80721200D02*
X88849800Y-78358400D01*
X82141200Y-80721200D02*
X86487000Y-80721200D01*
X80985500Y-79565500D02*
X82141200Y-80721200D01*
D36*
X87687231Y-89584547D02*
X86746178Y-90525600D01*
X87828639Y-89584547D02*
X87687231Y-89584547D01*
X86746178Y-90525600D02*
X85166200Y-90525600D01*
X85166200Y-90525600D02*
X83032600Y-88392000D01*
X83032600Y-81612600D02*
X80985500Y-79565500D01*
X83032600Y-88392000D02*
X83032600Y-81612600D01*
D33*
X84085600Y-52857600D02*
X83742500Y-52514500D01*
X84085600Y-57912000D02*
X84085600Y-52857600D01*
X84085600Y-57912000D02*
X84085600Y-58203000D01*
X84085600Y-58203000D02*
X85775800Y-59893200D01*
X85775800Y-59893200D02*
X87401400Y-59893200D01*
X90271600Y-62763400D02*
X91349600Y-62763400D01*
X87401400Y-59893200D02*
X90271600Y-62763400D01*
X77190600Y-54711600D02*
X79527400Y-54711600D01*
X76148600Y-55753600D02*
X77190600Y-54711600D01*
X81242500Y-52996500D02*
X81242500Y-52514500D01*
X79527400Y-54711600D02*
X81242500Y-52996500D01*
X76148600Y-57912000D02*
X76148600Y-55753600D01*
X89916000Y-64033400D02*
X91349600Y-64033400D01*
X87198200Y-66751200D02*
X89916000Y-64033400D01*
X83439000Y-66344800D02*
X83845400Y-66751200D01*
X83439000Y-62585600D02*
X83439000Y-66344800D01*
X82829400Y-61976000D02*
X83439000Y-62585600D01*
X78714600Y-61976000D02*
X82829400Y-61976000D01*
X76148600Y-59410000D02*
X78714600Y-61976000D01*
X83845400Y-66751200D02*
X87198200Y-66751200D01*
X76148600Y-57912000D02*
X76148600Y-59410000D01*
D36*
X88960010Y-90715917D02*
X88023210Y-91652717D01*
X88023210Y-91652717D02*
X88023210Y-92003777D01*
X88394324Y-90193076D02*
X87198200Y-91389200D01*
X88394324Y-90150232D02*
X88394324Y-90193076D01*
D33*
X109093000Y-65735200D02*
X109143800Y-65786000D01*
X107012000Y-65735200D02*
X109093000Y-65735200D01*
X93755073Y-80264000D02*
X92141990Y-81877083D01*
X95021400Y-80264000D02*
X93755073Y-80264000D01*
X107012000Y-65735200D02*
X103047800Y-65735200D01*
X103047800Y-65735200D02*
X102946200Y-65836800D01*
X88325898Y-80111600D02*
X88315800Y-80111600D01*
X89525695Y-81311397D02*
X88325898Y-80111600D01*
X107012000Y-67005200D02*
X104825800Y-67005200D01*
X104825800Y-67005200D02*
X103200200Y-68630800D01*
X103200200Y-68630800D02*
X103200200Y-71170800D01*
X109093000Y-64465200D02*
X109143800Y-64516000D01*
X107012000Y-64465200D02*
X109093000Y-64465200D01*
X92923595Y-79964107D02*
X91576305Y-81311397D01*
X92923595Y-79893395D02*
X92923595Y-79964107D01*
D36*
X90956840Y-83971840D02*
X90957400Y-83972400D01*
X90956840Y-81930862D02*
X90956840Y-83971840D01*
X91576305Y-81311397D02*
X90956840Y-81930862D01*
X77241400Y-93370400D02*
X78155802Y-94284802D01*
X87731600Y-93599000D02*
X85826600Y-91694000D01*
X87783000Y-93599000D02*
X87731600Y-93599000D01*
X83591400Y-91694000D02*
X83591400Y-92964000D01*
X82270598Y-94284802D02*
X78155802Y-94284802D01*
X83591400Y-92964000D02*
X82270598Y-94284802D01*
D33*
X102692200Y-64465200D02*
X102285800Y-64871600D01*
X107012000Y-64465200D02*
X102692200Y-64465200D01*
X109093000Y-63195200D02*
X109143800Y-63246000D01*
X107012000Y-63195200D02*
X109093000Y-63195200D01*
X95566610Y-81280000D02*
X98425000Y-78421610D01*
X93870444Y-81280000D02*
X95566610Y-81280000D01*
X92707676Y-82442768D02*
X93870444Y-81280000D01*
D35*
X89525695Y-94123095D02*
X89535000Y-94132400D01*
X89525695Y-91281603D02*
X89525695Y-94123095D01*
X92989400Y-92202000D02*
X92125800Y-93065600D01*
X101473000Y-92202000D02*
X92989400Y-92202000D01*
X105130600Y-88544400D02*
X101473000Y-92202000D01*
X107162600Y-88036400D02*
X106654600Y-88544400D01*
X107162600Y-77825600D02*
X107162600Y-88036400D01*
X109093000Y-75895200D02*
X107162600Y-77825600D01*
X109093000Y-68630800D02*
X109093000Y-75895200D01*
X106654600Y-88544400D02*
X105130600Y-88544400D01*
X108737400Y-68275200D02*
X109093000Y-68630800D01*
X107012000Y-68275200D02*
X108737400Y-68275200D01*
D33*
X86399600Y-65303400D02*
X84413610Y-65303400D01*
X84413610Y-65303400D02*
X84353400Y-65243190D01*
X95196450Y-61925200D02*
X94618839Y-62502811D01*
X97712000Y-61925200D02*
X95196450Y-61925200D01*
X97559600Y-60502800D02*
X97712000Y-60655200D01*
X94462600Y-60502800D02*
X97559600Y-60502800D01*
X86399600Y-61493400D02*
X85534580Y-61493400D01*
X85534580Y-61493400D02*
X84439010Y-60397830D01*
D36*
X97151800Y-78181200D02*
X99996600Y-75336400D01*
X95466300Y-78181200D02*
X97151800Y-78181200D01*
X98737000Y-69545200D02*
X97712000Y-69545200D01*
X99996600Y-70804800D02*
X98737000Y-69545200D01*
X99996600Y-75336400D02*
X99996600Y-70804800D01*
X105241300Y-87379200D02*
X105549300Y-87071200D01*
X101523800Y-87379200D02*
X105241300Y-87379200D01*
X94970417Y-87887490D02*
X95972537Y-88889610D01*
X95972537Y-88889610D02*
X100013390Y-88889610D01*
X100013390Y-88889610D02*
X101523800Y-87379200D01*
X105498500Y-82499200D02*
X105549300Y-82448400D01*
X101523800Y-82499200D02*
X105498500Y-82499200D01*
X101523800Y-85293200D02*
X101523800Y-82499200D01*
X98577400Y-88239600D02*
X101523800Y-85293200D01*
X96453898Y-88239600D02*
X98577400Y-88239600D01*
X95536103Y-87321805D02*
X96453898Y-88239600D01*
D34*
X75626600Y-68313300D02*
X80071600Y-63868300D01*
X75346600Y-68313300D02*
X75626600Y-68313300D01*
X73228500Y-62025200D02*
X75071600Y-63868300D01*
X73228500Y-60452000D02*
X73228500Y-62025200D01*
D33*
X96674000Y-93599000D02*
X99034000Y-93599000D01*
D36*
X80949800Y-71983600D02*
X81000600Y-72034400D01*
X79121600Y-71983600D02*
X80949800Y-71983600D01*
X85280500Y-71650500D02*
X84292800Y-70662800D01*
X84292800Y-70662800D02*
X82727800Y-70662800D01*
X85280500Y-72363000D02*
X85280500Y-71650500D01*
D34*
X81826100Y-68313300D02*
X81864200Y-68275200D01*
X79796600Y-68313300D02*
X81826100Y-68313300D01*
D36*
X93273361Y-83008453D02*
X94189014Y-82092800D01*
X101676200Y-76391412D02*
X101676200Y-72440800D01*
X95974812Y-82092800D02*
X101676200Y-76391412D01*
X94189014Y-82092800D02*
X95974812Y-82092800D01*
X91242500Y-52514500D02*
X94208001Y-55480001D01*
X94208001Y-55480001D02*
X99752203Y-55480001D01*
X99752203Y-55480001D02*
X100304602Y-56032400D01*
X93839047Y-83574139D02*
X94609186Y-82804000D01*
X102501200Y-76485664D02*
X102501200Y-73660000D01*
X96182864Y-82804000D02*
X102501200Y-76485664D01*
X94609186Y-82804000D02*
X96182864Y-82804000D01*
X100558600Y-54660800D02*
X94818200Y-54660800D01*
X93742500Y-53585100D02*
X93742500Y-52514500D01*
X94818200Y-54660800D02*
X93742500Y-53585100D01*
D33*
X79248600Y-57912000D02*
X82785600Y-57912000D01*
D36*
X87147400Y-71018400D02*
X85613000Y-69484000D01*
X87147400Y-79197200D02*
X87147400Y-71018400D01*
X86436200Y-79908400D02*
X87147400Y-79197200D01*
X85613000Y-69484000D02*
X85280500Y-69484000D01*
X83540600Y-79908400D02*
X86436200Y-79908400D01*
X71297800Y-76250800D02*
X72923400Y-77876400D01*
X81508600Y-77876400D02*
X83540600Y-79908400D01*
X71297800Y-73609200D02*
X71297800Y-76250800D01*
X72923400Y-77876400D02*
X81508600Y-77876400D01*
X72923400Y-71983600D02*
X71297800Y-73609200D01*
X76021600Y-71983600D02*
X72923400Y-71983600D01*
D33*
X94219600Y-57912000D02*
X94219600Y-58278600D01*
D35*
X94219600Y-58278600D02*
X95427800Y-59486800D01*
X95427800Y-59486800D02*
X100457000Y-59486800D01*
X102895400Y-61925200D02*
X107012000Y-61925200D01*
X100457000Y-59486800D02*
X102895400Y-61925200D01*
X102134000Y-93599000D02*
X102134000Y-93472600D01*
X103733600Y-93599000D02*
X103759000Y-93624400D01*
X102134000Y-93599000D02*
X103733600Y-93599000D01*
X90870415Y-91987493D02*
X90870415Y-94147015D01*
X91576305Y-91281603D02*
X90870415Y-91987493D01*
G04 #@! TA.AperFunction,Conductor*
G36*
X108870421Y-82214402D02*
G01*
X108916914Y-82268058D01*
X108928300Y-82320400D01*
X108928300Y-83838284D01*
X108932775Y-83853523D01*
X108934165Y-83854728D01*
X108941848Y-83856399D01*
X109133895Y-83856399D01*
X109140414Y-83856062D01*
X109236006Y-83846143D01*
X109249400Y-83843251D01*
X109403584Y-83791812D01*
X109416762Y-83785638D01*
X109534721Y-83712643D01*
X109603173Y-83693805D01*
X109670942Y-83714966D01*
X109716514Y-83769407D01*
X109727024Y-83819789D01*
X109726995Y-85699676D01*
X109706992Y-85767796D01*
X109653336Y-85814288D01*
X109583061Y-85824391D01*
X109534879Y-85806934D01*
X109415557Y-85733384D01*
X109402376Y-85727237D01*
X109248090Y-85676062D01*
X109234714Y-85673195D01*
X109140362Y-85663528D01*
X109133945Y-85663200D01*
X108946415Y-85663200D01*
X108931176Y-85667675D01*
X108929971Y-85669065D01*
X108928300Y-85676748D01*
X108928300Y-88461084D01*
X108932775Y-88476323D01*
X108934165Y-88477528D01*
X108941848Y-88479199D01*
X109133895Y-88479199D01*
X109140414Y-88478862D01*
X109236006Y-88468943D01*
X109249400Y-88466051D01*
X109403584Y-88414612D01*
X109416758Y-88408441D01*
X109534648Y-88335487D01*
X109603100Y-88316649D01*
X109670870Y-88337810D01*
X109716441Y-88392250D01*
X109726952Y-88442633D01*
X109726902Y-91652882D01*
X109724678Y-91673467D01*
X109724612Y-91676968D01*
X109721961Y-91689094D01*
X109724152Y-91701312D01*
X109723918Y-91713715D01*
X109723843Y-91713714D01*
X109724432Y-91724719D01*
X109704711Y-92003605D01*
X109703121Y-92016538D01*
X109649664Y-92320551D01*
X109646747Y-92333251D01*
X109562177Y-92630121D01*
X109557964Y-92642451D01*
X109443186Y-92928999D01*
X109437722Y-92940828D01*
X109293965Y-93213990D01*
X109287313Y-93225185D01*
X109121021Y-93474673D01*
X109116107Y-93482046D01*
X109108329Y-93492499D01*
X108911524Y-93730291D01*
X108902708Y-93739887D01*
X108715476Y-93923620D01*
X108682383Y-93956094D01*
X108672623Y-93964727D01*
X108431164Y-94157009D01*
X108420565Y-94164588D01*
X108160519Y-94330919D01*
X108149199Y-94337361D01*
X108077859Y-94373203D01*
X107873374Y-94475939D01*
X107861444Y-94481179D01*
X107707193Y-94539613D01*
X107572779Y-94590532D01*
X107560384Y-94594508D01*
X107261958Y-94673467D01*
X107249213Y-94676142D01*
X106944230Y-94723856D01*
X106931278Y-94725200D01*
X106652071Y-94739657D01*
X106641079Y-94738861D01*
X106641079Y-94738935D01*
X106628672Y-94738935D01*
X106616500Y-94736514D01*
X106603606Y-94739079D01*
X106579030Y-94741499D01*
X103028604Y-94741435D01*
X102960483Y-94721432D01*
X102913991Y-94667775D01*
X102903889Y-94597501D01*
X102927780Y-94539870D01*
X102928040Y-94539524D01*
X102973498Y-94478869D01*
X102975689Y-94475946D01*
X102975691Y-94475943D01*
X102981071Y-94468764D01*
X103031798Y-94333448D01*
X103038500Y-94271756D01*
X103038500Y-94154500D01*
X103058502Y-94086379D01*
X103112158Y-94039886D01*
X103164500Y-94028500D01*
X103181814Y-94028500D01*
X103249935Y-94048502D01*
X103266613Y-94061306D01*
X103360807Y-94147015D01*
X103377076Y-94161819D01*
X103516293Y-94237408D01*
X103669522Y-94277607D01*
X103753477Y-94278926D01*
X103820319Y-94279976D01*
X103820322Y-94279976D01*
X103827916Y-94280095D01*
X103982332Y-94244729D01*
X104052742Y-94209317D01*
X104117072Y-94176963D01*
X104117075Y-94176961D01*
X104123855Y-94173551D01*
X104129626Y-94168622D01*
X104129629Y-94168620D01*
X104238536Y-94075604D01*
X104238536Y-94075603D01*
X104244314Y-94070669D01*
X104336755Y-93942024D01*
X104395842Y-93795041D01*
X104409245Y-93700861D01*
X104417581Y-93642291D01*
X104417581Y-93642288D01*
X104418162Y-93638207D01*
X104418307Y-93624400D01*
X104401610Y-93486423D01*
X104778703Y-93486423D01*
X104786227Y-93496854D01*
X104925483Y-93609020D01*
X104931657Y-93613408D01*
X105202271Y-93782178D01*
X105208931Y-93785794D01*
X105497852Y-93920827D01*
X105504905Y-93923620D01*
X105807970Y-94022970D01*
X105815282Y-94024888D01*
X106128092Y-94087109D01*
X106135590Y-94088137D01*
X106453610Y-94112328D01*
X106461173Y-94112446D01*
X106779785Y-94098257D01*
X106787326Y-94097465D01*
X107101924Y-94045101D01*
X107109302Y-94043411D01*
X107415355Y-93953625D01*
X107422450Y-93951071D01*
X107715496Y-93825169D01*
X107722263Y-93821765D01*
X107998042Y-93661580D01*
X108004349Y-93657390D01*
X108214305Y-93498889D01*
X108222761Y-93487496D01*
X108216045Y-93475256D01*
X106512810Y-91772020D01*
X106498869Y-91764408D01*
X106497034Y-91764539D01*
X106490420Y-91768790D01*
X104785818Y-93473393D01*
X104778703Y-93486423D01*
X104401610Y-93486423D01*
X104399276Y-93467133D01*
X104343280Y-93318946D01*
X104338979Y-93312688D01*
X104335459Y-93305955D01*
X104338397Y-93304419D01*
X104321115Y-93250828D01*
X104339315Y-93182203D01*
X104386172Y-93137201D01*
X104425055Y-93115734D01*
X106139659Y-91401131D01*
X106864408Y-91401131D01*
X106864539Y-91402966D01*
X106868790Y-91409580D01*
X108573285Y-93114074D01*
X108586408Y-93121240D01*
X108596709Y-93113851D01*
X108700751Y-92986055D01*
X108705164Y-92979914D01*
X108875349Y-92710187D01*
X108879005Y-92703536D01*
X109015544Y-92415335D01*
X109018375Y-92408295D01*
X109119306Y-92105767D01*
X109121270Y-92098433D01*
X109185122Y-91785989D01*
X109186194Y-91778465D01*
X109212173Y-91459051D01*
X109212378Y-91454576D01*
X109212927Y-91402221D01*
X109212817Y-91397789D01*
X109193529Y-91077853D01*
X109192621Y-91070351D01*
X109135319Y-90756593D01*
X109133518Y-90749260D01*
X109038935Y-90444655D01*
X109036263Y-90437583D01*
X108905781Y-90146570D01*
X108902264Y-90139843D01*
X108737771Y-89866621D01*
X108733481Y-89860377D01*
X108597991Y-89686647D01*
X108586199Y-89678178D01*
X108574486Y-89684725D01*
X106872020Y-91387190D01*
X106864408Y-91401131D01*
X106139659Y-91401131D01*
X106500000Y-91040790D01*
X108214561Y-89326228D01*
X108221571Y-89313390D01*
X108213776Y-89302700D01*
X108051298Y-89174613D01*
X108045075Y-89170288D01*
X107772702Y-89004357D01*
X107766025Y-89000822D01*
X107475686Y-88868813D01*
X107468616Y-88866099D01*
X107265024Y-88801711D01*
X107206106Y-88762099D01*
X107177956Y-88696922D01*
X107189513Y-88626872D01*
X107213923Y-88592481D01*
X107442986Y-88363418D01*
X107454075Y-88353563D01*
X107471831Y-88339565D01*
X107479228Y-88333734D01*
X107510988Y-88287780D01*
X107513278Y-88284577D01*
X107524978Y-88268736D01*
X107528228Y-88264336D01*
X107584789Y-88221424D01*
X107655571Y-88215904D01*
X107718598Y-88250021D01*
X107783629Y-88314939D01*
X107795040Y-88323951D01*
X107933043Y-88409016D01*
X107946224Y-88415163D01*
X108100510Y-88466338D01*
X108113886Y-88469205D01*
X108208238Y-88478872D01*
X108214654Y-88479200D01*
X108402185Y-88479200D01*
X108417424Y-88474725D01*
X108418629Y-88473335D01*
X108420300Y-88465652D01*
X108420300Y-85681316D01*
X108415825Y-85666077D01*
X108414435Y-85664872D01*
X108406752Y-85663201D01*
X108214705Y-85663201D01*
X108208186Y-85663538D01*
X108112594Y-85673457D01*
X108099200Y-85676349D01*
X107945016Y-85727788D01*
X107931838Y-85733961D01*
X107787765Y-85823117D01*
X107786649Y-85821314D01*
X107730562Y-85844020D01*
X107660797Y-85830854D01*
X107609225Y-85782059D01*
X107592100Y-85718638D01*
X107592100Y-83800943D01*
X107612102Y-83732822D01*
X107665758Y-83686329D01*
X107736032Y-83676225D01*
X107788039Y-83698559D01*
X107788809Y-83697310D01*
X107933043Y-83786216D01*
X107946224Y-83792363D01*
X108100510Y-83843538D01*
X108113886Y-83846405D01*
X108208238Y-83856072D01*
X108214654Y-83856400D01*
X108402185Y-83856400D01*
X108417424Y-83851925D01*
X108418629Y-83850535D01*
X108420300Y-83842852D01*
X108420300Y-82320400D01*
X108440302Y-82252279D01*
X108493958Y-82205786D01*
X108546300Y-82194400D01*
X108802300Y-82194400D01*
X108870421Y-82214402D01*
G37*
G04 #@! TD.AperFunction*
G04 #@! TA.AperFunction,Conductor*
G36*
X95687392Y-92651502D02*
G01*
X95733885Y-92705158D01*
X95743989Y-92775432D01*
X95737253Y-92801728D01*
X95716475Y-92857155D01*
X95713702Y-92864553D01*
X95707000Y-92926245D01*
X95707001Y-94271754D01*
X95707370Y-94275148D01*
X95707370Y-94275154D01*
X95711987Y-94317656D01*
X95713702Y-94333447D01*
X95764429Y-94468764D01*
X95769809Y-94475943D01*
X95769811Y-94475946D01*
X95772002Y-94478869D01*
X95817461Y-94539524D01*
X95817621Y-94539738D01*
X95842469Y-94606244D01*
X95827416Y-94675627D01*
X95777242Y-94725857D01*
X95716793Y-94741303D01*
X94958784Y-94741289D01*
X94890663Y-94721286D01*
X94844171Y-94667629D01*
X94834069Y-94597355D01*
X94847591Y-94560030D01*
X94846223Y-94559392D01*
X94855462Y-94539577D01*
X94906639Y-94385284D01*
X94909505Y-94371919D01*
X94919172Y-94277561D01*
X94919500Y-94271145D01*
X94919500Y-93871115D01*
X94915025Y-93855876D01*
X94913635Y-93854671D01*
X94905952Y-93853000D01*
X93571000Y-93853000D01*
X93502879Y-93832998D01*
X93456386Y-93779342D01*
X93445000Y-93727000D01*
X93445000Y-93471000D01*
X93465002Y-93402879D01*
X93518658Y-93356386D01*
X93571000Y-93345000D01*
X94901385Y-93345000D01*
X94916624Y-93340525D01*
X94917829Y-93339135D01*
X94919500Y-93331452D01*
X94919500Y-92926904D01*
X94919163Y-92920389D01*
X94909244Y-92824797D01*
X94906350Y-92811398D01*
X94901672Y-92797376D01*
X94899088Y-92726427D01*
X94935272Y-92665343D01*
X94998736Y-92633518D01*
X95021196Y-92631500D01*
X95619271Y-92631500D01*
X95687392Y-92651502D01*
G37*
G04 #@! TD.AperFunction*
G04 #@! TA.AperFunction,Conductor*
G36*
X106662376Y-50231877D02*
G01*
X106662968Y-50231888D01*
X106675094Y-50234539D01*
X106687312Y-50232348D01*
X106699716Y-50232582D01*
X106699715Y-50232657D01*
X106710719Y-50232068D01*
X106989605Y-50251789D01*
X107002538Y-50253379D01*
X107306551Y-50306836D01*
X107319251Y-50309753D01*
X107616121Y-50394323D01*
X107628451Y-50398536D01*
X107914999Y-50513314D01*
X107926828Y-50518778D01*
X108199990Y-50662535D01*
X108211185Y-50669187D01*
X108388383Y-50787295D01*
X108468046Y-50840393D01*
X108478499Y-50848171D01*
X108716291Y-51044976D01*
X108725887Y-51053792D01*
X108942094Y-51274117D01*
X108950726Y-51283876D01*
X108956279Y-51290849D01*
X109143009Y-51525336D01*
X109150588Y-51535935D01*
X109316919Y-51795981D01*
X109323361Y-51807301D01*
X109362128Y-51884463D01*
X109461939Y-52083126D01*
X109467179Y-52095056D01*
X109497060Y-52173933D01*
X109557643Y-52333857D01*
X109576530Y-52383715D01*
X109580508Y-52396116D01*
X109659466Y-52694538D01*
X109662142Y-52707287D01*
X109709419Y-53009470D01*
X109709856Y-53012266D01*
X109711200Y-53025222D01*
X109724295Y-53278116D01*
X109725657Y-53304427D01*
X109724861Y-53315421D01*
X109724935Y-53315421D01*
X109724935Y-53327828D01*
X109722514Y-53340000D01*
X109725079Y-53352894D01*
X109727499Y-53377470D01*
X109727420Y-58416500D01*
X109727355Y-62608772D01*
X109707352Y-62676892D01*
X109653696Y-62723384D01*
X109583421Y-62733487D01*
X109529447Y-62712236D01*
X109525746Y-62709664D01*
X109520075Y-62704611D01*
X109513363Y-62701057D01*
X109513360Y-62701055D01*
X109386788Y-62634039D01*
X109386789Y-62634039D01*
X109380074Y-62630484D01*
X109226433Y-62591892D01*
X109218834Y-62591852D01*
X109218833Y-62591852D01*
X109152981Y-62591507D01*
X109068021Y-62591062D01*
X109060641Y-62592834D01*
X109060639Y-62592834D01*
X108921363Y-62626271D01*
X108921360Y-62626272D01*
X108913984Y-62628043D01*
X108882638Y-62644222D01*
X108819779Y-62676666D01*
X108761989Y-62690700D01*
X108112493Y-62690700D01*
X108055291Y-62676967D01*
X108046459Y-62672467D01*
X107994844Y-62623720D01*
X107977777Y-62554805D01*
X108000677Y-62487603D01*
X108046458Y-62447933D01*
X108055215Y-62443471D01*
X108127723Y-62406526D01*
X108218326Y-62315923D01*
X108276498Y-62201755D01*
X108291500Y-62107034D01*
X108291500Y-61743366D01*
X108276498Y-61648645D01*
X108218326Y-61534477D01*
X108127723Y-61443874D01*
X108046458Y-61402467D01*
X107994843Y-61353718D01*
X107977777Y-61284803D01*
X108000678Y-61217602D01*
X108046458Y-61177933D01*
X108052313Y-61174950D01*
X108127723Y-61136526D01*
X108218326Y-61045923D01*
X108276498Y-60931755D01*
X108291500Y-60837034D01*
X108291500Y-60473366D01*
X108276498Y-60378645D01*
X108218326Y-60264477D01*
X108127723Y-60173874D01*
X108013555Y-60115702D01*
X107918834Y-60100700D01*
X107394298Y-60100700D01*
X107333597Y-60085115D01*
X107302574Y-60068060D01*
X107254853Y-60041825D01*
X107094683Y-60000700D01*
X103828293Y-60000700D01*
X103760172Y-59980698D01*
X103739198Y-59963795D01*
X103307050Y-59531647D01*
X103273024Y-59469335D01*
X103278089Y-59398520D01*
X103320636Y-59341684D01*
X103387156Y-59316873D01*
X103408988Y-59317208D01*
X103433040Y-59319672D01*
X103439454Y-59320000D01*
X103626985Y-59320000D01*
X103642224Y-59315525D01*
X103643429Y-59314135D01*
X103645100Y-59306452D01*
X103645100Y-59301884D01*
X104153100Y-59301884D01*
X104157575Y-59317123D01*
X104158965Y-59318328D01*
X104166648Y-59319999D01*
X104358695Y-59319999D01*
X104365214Y-59319662D01*
X104460806Y-59309743D01*
X104474200Y-59306851D01*
X104628384Y-59255412D01*
X104641562Y-59249239D01*
X104779407Y-59163937D01*
X104790808Y-59154901D01*
X104905339Y-59040171D01*
X104914351Y-59028760D01*
X104999416Y-58890757D01*
X105005563Y-58877576D01*
X105056738Y-58723290D01*
X105059605Y-58709914D01*
X105069272Y-58615562D01*
X105069600Y-58609146D01*
X105069600Y-58184115D01*
X105065125Y-58168876D01*
X105063735Y-58167671D01*
X105056052Y-58166000D01*
X104171215Y-58166000D01*
X104155976Y-58170475D01*
X104154771Y-58171865D01*
X104153100Y-58179548D01*
X104153100Y-59301884D01*
X103645100Y-59301884D01*
X103645100Y-58184115D01*
X103640625Y-58168876D01*
X103639235Y-58167671D01*
X103631552Y-58166000D01*
X102746716Y-58166000D01*
X102731477Y-58170475D01*
X102730272Y-58171865D01*
X102728601Y-58179548D01*
X102728601Y-58609095D01*
X102728938Y-58615614D01*
X102731416Y-58639493D01*
X102718551Y-58709314D01*
X102669980Y-58761096D01*
X102601124Y-58778398D01*
X102533844Y-58755727D01*
X102516994Y-58741591D01*
X101728005Y-57952602D01*
X101693979Y-57890290D01*
X101691100Y-57863507D01*
X101691100Y-57639885D01*
X102728600Y-57639885D01*
X102733075Y-57655124D01*
X102734465Y-57656329D01*
X102742148Y-57658000D01*
X103626985Y-57658000D01*
X103642224Y-57653525D01*
X103643429Y-57652135D01*
X103645100Y-57644452D01*
X103645100Y-57639885D01*
X104153100Y-57639885D01*
X104157575Y-57655124D01*
X104158965Y-57656329D01*
X104166648Y-57658000D01*
X105051484Y-57658000D01*
X105066723Y-57653525D01*
X105067928Y-57652135D01*
X105069599Y-57644452D01*
X105069599Y-57214905D01*
X105069262Y-57208386D01*
X105059343Y-57112794D01*
X105056451Y-57099400D01*
X105005012Y-56945216D01*
X104998839Y-56932038D01*
X104913537Y-56794193D01*
X104904501Y-56782792D01*
X104789771Y-56668261D01*
X104778360Y-56659249D01*
X104640357Y-56574184D01*
X104627176Y-56568037D01*
X104472890Y-56516862D01*
X104459514Y-56513995D01*
X104365162Y-56504328D01*
X104358745Y-56504000D01*
X104171215Y-56504000D01*
X104155976Y-56508475D01*
X104154771Y-56509865D01*
X104153100Y-56517548D01*
X104153100Y-57639885D01*
X103645100Y-57639885D01*
X103645100Y-56522116D01*
X103640625Y-56506877D01*
X103639235Y-56505672D01*
X103631552Y-56504001D01*
X103439505Y-56504001D01*
X103432986Y-56504338D01*
X103337394Y-56514257D01*
X103324000Y-56517149D01*
X103169816Y-56568588D01*
X103156638Y-56574761D01*
X103018793Y-56660063D01*
X103007392Y-56669099D01*
X102892861Y-56783829D01*
X102883849Y-56795240D01*
X102798784Y-56933243D01*
X102792637Y-56946424D01*
X102741462Y-57100710D01*
X102738595Y-57114086D01*
X102728928Y-57208438D01*
X102728600Y-57214855D01*
X102728600Y-57639885D01*
X101691100Y-57639885D01*
X101691100Y-57214244D01*
X101685417Y-57161931D01*
X101685251Y-57160403D01*
X101685251Y-57160402D01*
X101684398Y-57152552D01*
X101633671Y-57017236D01*
X101628291Y-57010057D01*
X101628289Y-57010054D01*
X101552385Y-56908776D01*
X101547004Y-56901596D01*
X101504245Y-56869550D01*
X101438546Y-56820311D01*
X101438543Y-56820309D01*
X101431364Y-56814929D01*
X101341646Y-56781296D01*
X101303443Y-56766974D01*
X101303441Y-56766974D01*
X101296048Y-56764202D01*
X101288198Y-56763349D01*
X101288197Y-56763349D01*
X101237753Y-56757869D01*
X101237752Y-56757869D01*
X101234356Y-56757500D01*
X100804985Y-56757500D01*
X100736864Y-56737498D01*
X100690371Y-56683842D01*
X100680267Y-56613568D01*
X100709761Y-56548988D01*
X100723155Y-56535689D01*
X100784134Y-56483608D01*
X100784137Y-56483605D01*
X100789916Y-56478669D01*
X100882357Y-56350024D01*
X100941444Y-56203041D01*
X100955142Y-56106793D01*
X100963183Y-56050291D01*
X100963183Y-56050288D01*
X100963764Y-56046207D01*
X100963909Y-56032400D01*
X100944878Y-55875133D01*
X100888882Y-55726946D01*
X100841200Y-55657568D01*
X100803457Y-55602651D01*
X100803456Y-55602649D01*
X100799155Y-55596392D01*
X100793484Y-55591340D01*
X100793482Y-55591337D01*
X100787967Y-55586423D01*
X104778703Y-55586423D01*
X104786227Y-55596854D01*
X104925483Y-55709020D01*
X104931657Y-55713408D01*
X105202271Y-55882178D01*
X105208931Y-55885794D01*
X105497852Y-56020827D01*
X105504905Y-56023620D01*
X105807970Y-56122970D01*
X105815282Y-56124888D01*
X106128092Y-56187109D01*
X106135590Y-56188137D01*
X106453610Y-56212328D01*
X106461173Y-56212446D01*
X106779785Y-56198257D01*
X106787326Y-56197465D01*
X107101924Y-56145101D01*
X107109302Y-56143411D01*
X107415355Y-56053625D01*
X107422450Y-56051071D01*
X107715496Y-55925169D01*
X107722263Y-55921765D01*
X107998042Y-55761580D01*
X108004349Y-55757390D01*
X108214305Y-55598889D01*
X108222761Y-55587496D01*
X108216045Y-55575256D01*
X106512810Y-53872020D01*
X106498869Y-53864408D01*
X106497034Y-53864539D01*
X106490420Y-53868790D01*
X104785818Y-55573393D01*
X104778703Y-55586423D01*
X100787967Y-55586423D01*
X100696418Y-55504857D01*
X100658862Y-55444607D01*
X100659841Y-55373617D01*
X100699045Y-55314426D01*
X100752107Y-55287960D01*
X100774527Y-55282825D01*
X100781932Y-55281129D01*
X100898711Y-55222396D01*
X100916672Y-55213363D01*
X100916675Y-55213361D01*
X100923455Y-55209951D01*
X100929226Y-55205022D01*
X100929229Y-55205020D01*
X101038136Y-55112004D01*
X101038136Y-55112003D01*
X101043914Y-55107069D01*
X101136355Y-54978424D01*
X101195442Y-54831441D01*
X101217762Y-54674607D01*
X101217907Y-54660800D01*
X101198876Y-54503533D01*
X101142880Y-54355346D01*
X101123449Y-54327073D01*
X101057455Y-54231051D01*
X101057454Y-54231049D01*
X101053153Y-54224792D01*
X101047196Y-54219484D01*
X100969487Y-54150249D01*
X100934875Y-54119411D01*
X100927489Y-54115500D01*
X100801588Y-54048839D01*
X100801589Y-54048839D01*
X100794874Y-54045284D01*
X100641233Y-54006692D01*
X100633634Y-54006652D01*
X100633633Y-54006652D01*
X100567781Y-54006307D01*
X100482821Y-54005862D01*
X100475441Y-54007634D01*
X100475439Y-54007634D01*
X100336163Y-54041071D01*
X100336160Y-54041072D01*
X100328784Y-54042843D01*
X100322039Y-54046324D01*
X100322040Y-54046324D01*
X100203239Y-54107642D01*
X100188014Y-54115500D01*
X100182292Y-54120492D01*
X100182290Y-54120493D01*
X100148180Y-54150249D01*
X100083697Y-54179957D01*
X100065351Y-54181300D01*
X96697692Y-54181300D01*
X96629571Y-54161298D01*
X96583078Y-54107642D01*
X96572974Y-54037368D01*
X96602468Y-53972788D01*
X96651411Y-53938108D01*
X96843529Y-53862237D01*
X96853061Y-53857506D01*
X97040962Y-53743484D01*
X97049552Y-53737220D01*
X97215552Y-53593173D01*
X97222972Y-53585542D01*
X97362326Y-53415589D01*
X97368348Y-53406826D01*
X97415561Y-53323883D01*
X97466644Y-53274576D01*
X97536274Y-53260714D01*
X97602345Y-53286697D01*
X97643880Y-53344276D01*
X97644378Y-53345968D01*
X97644702Y-53348948D01*
X97695429Y-53484264D01*
X97700809Y-53491443D01*
X97700811Y-53491446D01*
X97766787Y-53579477D01*
X97782096Y-53599904D01*
X97789276Y-53605285D01*
X97890554Y-53681189D01*
X97890557Y-53681191D01*
X97897736Y-53686571D01*
X97981953Y-53718142D01*
X98025657Y-53734526D01*
X98025659Y-53734526D01*
X98033052Y-53737298D01*
X98040902Y-53738151D01*
X98040903Y-53738151D01*
X98041649Y-53738232D01*
X98094744Y-53744000D01*
X99390256Y-53744000D01*
X99443351Y-53738232D01*
X99444097Y-53738151D01*
X99444098Y-53738151D01*
X99451948Y-53737298D01*
X99459341Y-53734526D01*
X99459343Y-53734526D01*
X99503047Y-53718142D01*
X99587264Y-53686571D01*
X99594443Y-53681191D01*
X99594446Y-53681189D01*
X99695724Y-53605285D01*
X99702904Y-53599904D01*
X99718213Y-53579477D01*
X99784189Y-53491446D01*
X99784191Y-53491443D01*
X99789571Y-53484264D01*
X99792900Y-53475383D01*
X103787388Y-53475383D01*
X103803245Y-53793914D01*
X103804076Y-53801443D01*
X103858085Y-54115759D01*
X103859818Y-54123146D01*
X103951196Y-54428695D01*
X103953799Y-54435808D01*
X104081227Y-54728173D01*
X104084669Y-54734929D01*
X104246296Y-55009865D01*
X104250519Y-55016150D01*
X104401463Y-55213934D01*
X104412989Y-55222396D01*
X104425054Y-55215735D01*
X106127980Y-53512810D01*
X106134357Y-53501131D01*
X106864408Y-53501131D01*
X106864539Y-53502966D01*
X106868790Y-53509580D01*
X108573285Y-55214074D01*
X108586408Y-55221240D01*
X108596709Y-55213851D01*
X108700751Y-55086055D01*
X108705164Y-55079914D01*
X108875349Y-54810187D01*
X108879005Y-54803536D01*
X109015544Y-54515335D01*
X109018375Y-54508295D01*
X109119306Y-54205767D01*
X109121270Y-54198433D01*
X109185122Y-53885989D01*
X109186194Y-53878465D01*
X109212173Y-53559051D01*
X109212378Y-53554576D01*
X109212927Y-53502221D01*
X109212817Y-53497789D01*
X109193529Y-53177853D01*
X109192621Y-53170351D01*
X109135319Y-52856593D01*
X109133518Y-52849260D01*
X109038935Y-52544655D01*
X109036263Y-52537583D01*
X108905781Y-52246570D01*
X108902264Y-52239843D01*
X108737771Y-51966621D01*
X108733481Y-51960377D01*
X108597991Y-51786647D01*
X108586199Y-51778178D01*
X108574486Y-51784725D01*
X106872020Y-53487190D01*
X106864408Y-53501131D01*
X106134357Y-53501131D01*
X106135592Y-53498869D01*
X106135461Y-53497034D01*
X106131210Y-53490420D01*
X104426445Y-51785656D01*
X104413510Y-51778592D01*
X104402949Y-51786252D01*
X104282766Y-51937072D01*
X104278410Y-51943270D01*
X104111059Y-52214764D01*
X104107479Y-52221440D01*
X103973956Y-52511074D01*
X103971206Y-52518125D01*
X103873444Y-52821708D01*
X103871561Y-52829041D01*
X103810979Y-53142170D01*
X103809992Y-53149670D01*
X103787467Y-53467802D01*
X103787388Y-53475383D01*
X99792900Y-53475383D01*
X99840298Y-53348948D01*
X99842231Y-53331160D01*
X99846631Y-53290653D01*
X99846631Y-53290652D01*
X99847000Y-53287256D01*
X99847000Y-51741744D01*
X99840298Y-51680052D01*
X99830434Y-51653738D01*
X99792721Y-51553140D01*
X99789571Y-51544736D01*
X99784191Y-51537557D01*
X99784189Y-51537554D01*
X99708285Y-51436276D01*
X99702904Y-51429096D01*
X99681992Y-51413423D01*
X104777917Y-51413423D01*
X104784520Y-51425309D01*
X106487190Y-53127980D01*
X106501131Y-53135592D01*
X106502966Y-53135461D01*
X106509580Y-53131210D01*
X108214559Y-51426230D01*
X108221571Y-51413389D01*
X108213777Y-51402701D01*
X108051298Y-51274613D01*
X108045075Y-51270288D01*
X107772702Y-51104357D01*
X107766025Y-51100822D01*
X107475686Y-50968813D01*
X107468616Y-50966099D01*
X107164537Y-50869932D01*
X107157186Y-50868085D01*
X106843746Y-50809142D01*
X106836237Y-50808194D01*
X106517989Y-50787335D01*
X106510424Y-50787295D01*
X106191964Y-50804821D01*
X106184450Y-50805690D01*
X105870405Y-50861348D01*
X105863044Y-50863115D01*
X105557980Y-50956092D01*
X105550860Y-50958740D01*
X105259182Y-51087690D01*
X105252445Y-51091167D01*
X104978355Y-51254233D01*
X104972091Y-51258490D01*
X104786385Y-51401762D01*
X104777917Y-51413423D01*
X99681992Y-51413423D01*
X99635678Y-51378713D01*
X99594446Y-51347811D01*
X99594443Y-51347809D01*
X99587264Y-51342429D01*
X99483977Y-51303709D01*
X99459343Y-51294474D01*
X99459341Y-51294474D01*
X99451948Y-51291702D01*
X99444098Y-51290849D01*
X99444097Y-51290849D01*
X99393653Y-51285369D01*
X99393652Y-51285369D01*
X99390256Y-51285000D01*
X98094744Y-51285000D01*
X98091348Y-51285369D01*
X98091347Y-51285369D01*
X98040903Y-51290849D01*
X98040902Y-51290849D01*
X98033052Y-51291702D01*
X98025659Y-51294474D01*
X98025657Y-51294474D01*
X98001023Y-51303709D01*
X97897736Y-51342429D01*
X97890557Y-51347809D01*
X97890554Y-51347811D01*
X97849322Y-51378713D01*
X97782096Y-51429096D01*
X97776715Y-51436276D01*
X97700811Y-51537554D01*
X97700809Y-51537557D01*
X97695429Y-51544736D01*
X97644702Y-51680052D01*
X97642180Y-51679107D01*
X97613415Y-51729474D01*
X97550464Y-51762303D01*
X97479758Y-51755886D01*
X97421518Y-51709060D01*
X97307650Y-51539925D01*
X97300981Y-51531630D01*
X97149272Y-51372600D01*
X97141314Y-51365559D01*
X96964975Y-51234359D01*
X96955938Y-51228755D01*
X96760016Y-51129143D01*
X96750165Y-51125143D01*
X96540260Y-51059966D01*
X96529876Y-51057683D01*
X96514457Y-51055639D01*
X96500293Y-51057835D01*
X96496500Y-51071022D01*
X96496500Y-52642500D01*
X96476498Y-52710621D01*
X96422842Y-52757114D01*
X96370500Y-52768500D01*
X96114500Y-52768500D01*
X96046379Y-52748498D01*
X95999886Y-52694842D01*
X95988500Y-52642500D01*
X95988500Y-51073308D01*
X95984527Y-51059777D01*
X95973920Y-51058252D01*
X95856079Y-51082977D01*
X95845883Y-51086037D01*
X95641471Y-51166763D01*
X95631939Y-51171494D01*
X95444038Y-51285516D01*
X95435448Y-51291780D01*
X95269448Y-51435827D01*
X95262028Y-51443458D01*
X95122674Y-51613411D01*
X95116650Y-51622178D01*
X95007924Y-51813182D01*
X95003459Y-51822845D01*
X94973534Y-51905288D01*
X94931490Y-51962496D01*
X94865191Y-51987892D01*
X94795686Y-51973412D01*
X94743079Y-51919990D01*
X94724780Y-51884460D01*
X94676176Y-51790090D01*
X94606855Y-51701840D01*
X94549692Y-51629068D01*
X94549688Y-51629064D01*
X94545986Y-51624351D01*
X94533379Y-51613411D01*
X94391335Y-51490150D01*
X94391330Y-51490146D01*
X94386804Y-51486219D01*
X94204374Y-51380681D01*
X94005278Y-51311543D01*
X93999345Y-51310683D01*
X93999342Y-51310682D01*
X93802640Y-51282162D01*
X93802637Y-51282162D01*
X93796700Y-51281301D01*
X93586167Y-51291045D01*
X93580343Y-51292449D01*
X93580340Y-51292449D01*
X93387107Y-51339018D01*
X93387105Y-51339019D01*
X93381274Y-51340424D01*
X93375816Y-51342906D01*
X93375812Y-51342907D01*
X93310507Y-51372600D01*
X93189416Y-51427657D01*
X93167141Y-51443458D01*
X93031148Y-51539925D01*
X93017514Y-51549596D01*
X92871772Y-51701840D01*
X92868521Y-51706875D01*
X92799880Y-51813182D01*
X92757448Y-51878897D01*
X92678666Y-52074378D01*
X92638271Y-52281229D01*
X92638000Y-52286770D01*
X92638000Y-52692159D01*
X92652993Y-52849306D01*
X92654683Y-52855066D01*
X92654683Y-52855067D01*
X92679152Y-52938473D01*
X92679136Y-53009470D01*
X92640738Y-53069187D01*
X92576150Y-53098665D01*
X92505879Y-53088544D01*
X92469153Y-53063038D01*
X92362645Y-52956530D01*
X92328619Y-52894218D01*
X92328076Y-52843285D01*
X92345861Y-52752217D01*
X92345861Y-52752214D01*
X92346729Y-52747771D01*
X92347000Y-52742230D01*
X92347000Y-52336841D01*
X92332007Y-52179694D01*
X92305388Y-52088957D01*
X92274368Y-51983222D01*
X92272677Y-51977458D01*
X92221915Y-51878897D01*
X92178922Y-51795421D01*
X92178920Y-51795418D01*
X92176176Y-51790090D01*
X92106855Y-51701840D01*
X92049692Y-51629068D01*
X92049688Y-51629064D01*
X92045986Y-51624351D01*
X92033379Y-51613411D01*
X91891335Y-51490150D01*
X91891330Y-51490146D01*
X91886804Y-51486219D01*
X91704374Y-51380681D01*
X91505278Y-51311543D01*
X91499345Y-51310683D01*
X91499342Y-51310682D01*
X91302640Y-51282162D01*
X91302637Y-51282162D01*
X91296700Y-51281301D01*
X91086167Y-51291045D01*
X91080343Y-51292449D01*
X91080340Y-51292449D01*
X90887107Y-51339018D01*
X90887105Y-51339019D01*
X90881274Y-51340424D01*
X90875816Y-51342906D01*
X90875812Y-51342907D01*
X90810507Y-51372600D01*
X90689416Y-51427657D01*
X90667141Y-51443458D01*
X90531148Y-51539925D01*
X90517514Y-51549596D01*
X90371772Y-51701840D01*
X90368521Y-51706875D01*
X90299880Y-51813182D01*
X90257448Y-51878897D01*
X90178666Y-52074378D01*
X90138271Y-52281229D01*
X90138000Y-52286770D01*
X90138000Y-52692159D01*
X90152993Y-52849306D01*
X90212323Y-53051542D01*
X90215073Y-53056881D01*
X90301276Y-53224254D01*
X90308824Y-53238910D01*
X90336840Y-53274576D01*
X90435308Y-53399932D01*
X90435312Y-53399936D01*
X90439014Y-53404649D01*
X90443544Y-53408580D01*
X90443545Y-53408581D01*
X90593665Y-53538850D01*
X90593670Y-53538854D01*
X90598196Y-53542781D01*
X90780626Y-53648319D01*
X90979722Y-53717457D01*
X90985655Y-53718317D01*
X90985658Y-53718318D01*
X91182360Y-53746838D01*
X91182363Y-53746838D01*
X91188300Y-53747699D01*
X91398833Y-53737955D01*
X91404657Y-53736551D01*
X91404660Y-53736551D01*
X91597900Y-53689980D01*
X91597899Y-53689980D01*
X91603726Y-53688576D01*
X91609187Y-53686093D01*
X91616853Y-53682608D01*
X91687144Y-53672622D01*
X91751675Y-53702222D01*
X91758099Y-53708214D01*
X93517490Y-55467605D01*
X93551516Y-55529917D01*
X93546451Y-55600732D01*
X93503904Y-55657568D01*
X93437384Y-55682379D01*
X93428395Y-55682700D01*
X90721893Y-55682700D01*
X90653772Y-55662698D01*
X90632798Y-55645795D01*
X89433905Y-54446902D01*
X89399879Y-54384590D01*
X89397000Y-54357807D01*
X89397000Y-53594507D01*
X89417002Y-53526386D01*
X89450099Y-53491738D01*
X89462598Y-53482872D01*
X89462603Y-53482868D01*
X89467486Y-53479404D01*
X89613228Y-53327160D01*
X89670210Y-53238910D01*
X89724300Y-53155140D01*
X89724301Y-53155137D01*
X89727552Y-53150103D01*
X89806334Y-52954622D01*
X89842681Y-52768500D01*
X89845861Y-52752217D01*
X89845861Y-52752214D01*
X89846729Y-52747771D01*
X89847000Y-52742230D01*
X89847000Y-52336841D01*
X89832007Y-52179694D01*
X89805388Y-52088957D01*
X89774368Y-51983222D01*
X89772677Y-51977458D01*
X89721915Y-51878897D01*
X89678922Y-51795421D01*
X89678920Y-51795418D01*
X89676176Y-51790090D01*
X89606855Y-51701840D01*
X89549692Y-51629068D01*
X89549688Y-51629064D01*
X89545986Y-51624351D01*
X89533379Y-51613411D01*
X89391335Y-51490150D01*
X89391330Y-51490146D01*
X89386804Y-51486219D01*
X89204374Y-51380681D01*
X89005278Y-51311543D01*
X88999345Y-51310683D01*
X88999342Y-51310682D01*
X88802640Y-51282162D01*
X88802637Y-51282162D01*
X88796700Y-51281301D01*
X88586167Y-51291045D01*
X88580343Y-51292449D01*
X88580340Y-51292449D01*
X88387107Y-51339018D01*
X88387105Y-51339019D01*
X88381274Y-51340424D01*
X88375816Y-51342906D01*
X88375812Y-51342907D01*
X88310507Y-51372600D01*
X88189416Y-51427657D01*
X88167141Y-51443458D01*
X88031148Y-51539925D01*
X88017514Y-51549596D01*
X87871772Y-51701840D01*
X87868521Y-51706875D01*
X87799880Y-51813182D01*
X87757448Y-51878897D01*
X87755205Y-51884463D01*
X87747220Y-51904274D01*
X87703204Y-51959979D01*
X87636058Y-51983044D01*
X87567102Y-51966146D01*
X87515473Y-51908924D01*
X87435563Y-51731530D01*
X87430394Y-51722244D01*
X87307650Y-51539925D01*
X87300981Y-51531630D01*
X87149272Y-51372600D01*
X87141314Y-51365559D01*
X86964975Y-51234359D01*
X86955938Y-51228755D01*
X86760016Y-51129143D01*
X86750165Y-51125143D01*
X86540260Y-51059966D01*
X86529876Y-51057683D01*
X86514457Y-51055639D01*
X86500293Y-51057835D01*
X86496500Y-51071022D01*
X86496500Y-53955692D01*
X86500473Y-53969223D01*
X86511080Y-53970748D01*
X86628921Y-53946023D01*
X86639117Y-53942963D01*
X86843529Y-53862237D01*
X86853061Y-53857506D01*
X87040962Y-53743484D01*
X87049552Y-53737220D01*
X87215552Y-53593173D01*
X87222972Y-53585542D01*
X87362326Y-53415589D01*
X87368350Y-53406822D01*
X87477076Y-53215818D01*
X87481541Y-53206155D01*
X87511466Y-53123712D01*
X87553510Y-53066504D01*
X87619809Y-53041108D01*
X87689314Y-53055588D01*
X87741921Y-53109010D01*
X87808824Y-53238910D01*
X87836840Y-53274576D01*
X87935308Y-53399932D01*
X87935312Y-53399936D01*
X87939014Y-53404649D01*
X87943544Y-53408580D01*
X87943545Y-53408581D01*
X88044581Y-53496256D01*
X88082922Y-53556009D01*
X88088000Y-53591421D01*
X88088000Y-54357807D01*
X88067998Y-54425928D01*
X88051095Y-54446902D01*
X87234952Y-55263045D01*
X87226248Y-55270965D01*
X87219590Y-55275191D01*
X87214165Y-55280968D01*
X87171373Y-55326537D01*
X87168618Y-55329379D01*
X87148181Y-55349816D01*
X87145502Y-55353270D01*
X87137794Y-55362295D01*
X87106390Y-55395737D01*
X87099441Y-55408378D01*
X87096151Y-55414362D01*
X87085298Y-55430884D01*
X87072267Y-55447684D01*
X87060979Y-55473770D01*
X87054048Y-55489786D01*
X87048826Y-55500446D01*
X87026725Y-55540647D01*
X87021437Y-55561242D01*
X87015040Y-55579928D01*
X87006592Y-55599449D01*
X87005352Y-55607279D01*
X87005351Y-55607282D01*
X86999415Y-55644766D01*
X86997010Y-55656379D01*
X86985600Y-55700817D01*
X86985600Y-55722074D01*
X86984049Y-55741784D01*
X86980724Y-55762778D01*
X86981470Y-55770670D01*
X86985041Y-55808448D01*
X86985600Y-55820305D01*
X86985600Y-56749830D01*
X86965598Y-56817951D01*
X86935165Y-56850656D01*
X86909955Y-56869550D01*
X86867196Y-56901596D01*
X86861815Y-56908776D01*
X86785911Y-57010054D01*
X86785909Y-57010057D01*
X86780529Y-57017236D01*
X86729802Y-57152552D01*
X86728949Y-57160402D01*
X86728949Y-57160403D01*
X86728783Y-57161931D01*
X86723100Y-57214244D01*
X86723100Y-58609756D01*
X86723469Y-58613152D01*
X86723469Y-58613153D01*
X86728923Y-58663353D01*
X86729802Y-58671448D01*
X86780529Y-58806764D01*
X86785909Y-58813943D01*
X86785911Y-58813946D01*
X86843282Y-58890496D01*
X86867196Y-58922404D01*
X86874376Y-58927785D01*
X86975654Y-59003689D01*
X86975657Y-59003691D01*
X86982836Y-59009071D01*
X87070286Y-59041854D01*
X87110757Y-59057026D01*
X87110759Y-59057026D01*
X87118152Y-59059798D01*
X87126002Y-59060651D01*
X87126003Y-59060651D01*
X87133837Y-59061502D01*
X87179844Y-59066500D01*
X88100356Y-59066500D01*
X88146363Y-59061502D01*
X88154197Y-59060651D01*
X88154198Y-59060651D01*
X88162048Y-59059798D01*
X88169441Y-59057026D01*
X88169443Y-59057026D01*
X88209914Y-59041854D01*
X88297364Y-59009071D01*
X88304543Y-59003691D01*
X88304546Y-59003689D01*
X88405824Y-58927785D01*
X88413004Y-58922404D01*
X88436918Y-58890496D01*
X88494289Y-58813946D01*
X88494291Y-58813943D01*
X88499671Y-58806764D01*
X88550398Y-58671448D01*
X88551278Y-58663353D01*
X88556731Y-58613153D01*
X88556731Y-58613152D01*
X88557100Y-58609756D01*
X88557100Y-58609095D01*
X89594601Y-58609095D01*
X89594938Y-58615614D01*
X89604857Y-58711206D01*
X89607749Y-58724600D01*
X89659188Y-58878784D01*
X89665361Y-58891962D01*
X89750663Y-59029807D01*
X89759699Y-59041208D01*
X89874429Y-59155739D01*
X89885840Y-59164751D01*
X90023843Y-59249816D01*
X90037024Y-59255963D01*
X90191310Y-59307138D01*
X90204686Y-59310005D01*
X90299038Y-59319672D01*
X90305454Y-59320000D01*
X90492985Y-59320000D01*
X90508224Y-59315525D01*
X90509429Y-59314135D01*
X90511100Y-59306452D01*
X90511100Y-59301884D01*
X91019100Y-59301884D01*
X91023575Y-59317123D01*
X91024965Y-59318328D01*
X91032648Y-59319999D01*
X91224695Y-59319999D01*
X91231214Y-59319662D01*
X91326806Y-59309743D01*
X91340200Y-59306851D01*
X91494384Y-59255412D01*
X91507562Y-59249239D01*
X91645407Y-59163937D01*
X91656808Y-59154901D01*
X91771339Y-59040171D01*
X91780351Y-59028760D01*
X91865416Y-58890757D01*
X91871563Y-58877576D01*
X91922738Y-58723290D01*
X91925605Y-58709914D01*
X91935272Y-58615562D01*
X91935600Y-58609146D01*
X91935600Y-58184115D01*
X91931125Y-58168876D01*
X91929735Y-58167671D01*
X91922052Y-58166000D01*
X91037215Y-58166000D01*
X91021976Y-58170475D01*
X91020771Y-58171865D01*
X91019100Y-58179548D01*
X91019100Y-59301884D01*
X90511100Y-59301884D01*
X90511100Y-58184115D01*
X90506625Y-58168876D01*
X90505235Y-58167671D01*
X90497552Y-58166000D01*
X89612716Y-58166000D01*
X89597477Y-58170475D01*
X89596272Y-58171865D01*
X89594601Y-58179548D01*
X89594601Y-58609095D01*
X88557100Y-58609095D01*
X88557100Y-57214244D01*
X88551417Y-57161931D01*
X88551251Y-57160403D01*
X88551251Y-57160402D01*
X88550398Y-57152552D01*
X88499671Y-57017236D01*
X88494291Y-57010057D01*
X88494289Y-57010054D01*
X88418385Y-56908776D01*
X88413004Y-56901596D01*
X88370245Y-56869550D01*
X88345035Y-56850656D01*
X88302520Y-56793797D01*
X88294600Y-56749830D01*
X88294600Y-56106793D01*
X88314602Y-56038672D01*
X88331505Y-56017698D01*
X88653405Y-55695798D01*
X88715717Y-55661772D01*
X88786532Y-55666837D01*
X88831595Y-55695798D01*
X89750559Y-56614762D01*
X89784585Y-56677074D01*
X89779520Y-56747889D01*
X89760345Y-56781950D01*
X89749850Y-56795239D01*
X89664784Y-56933243D01*
X89658637Y-56946424D01*
X89607462Y-57100710D01*
X89604595Y-57114086D01*
X89594928Y-57208438D01*
X89594600Y-57214855D01*
X89594600Y-57639885D01*
X89599075Y-57655124D01*
X89600465Y-57656329D01*
X89608148Y-57658000D01*
X91917484Y-57658000D01*
X91932723Y-57653525D01*
X91933928Y-57652135D01*
X91935599Y-57644452D01*
X91935599Y-57214905D01*
X91935262Y-57208386D01*
X91927202Y-57130703D01*
X91940067Y-57060882D01*
X91988638Y-57009100D01*
X92052529Y-56991700D01*
X93209677Y-56991700D01*
X93277798Y-57011702D01*
X93324291Y-57065358D01*
X93334395Y-57135632D01*
X93327661Y-57161922D01*
X93321802Y-57177552D01*
X93320949Y-57185402D01*
X93320949Y-57185403D01*
X93317744Y-57214905D01*
X93315100Y-57239244D01*
X93315100Y-58584756D01*
X93321802Y-58646448D01*
X93372529Y-58781764D01*
X93377909Y-58788943D01*
X93377911Y-58788946D01*
X93391265Y-58806764D01*
X93459196Y-58897404D01*
X93466376Y-58902785D01*
X93567654Y-58978689D01*
X93567657Y-58978691D01*
X93574836Y-58984071D01*
X93649927Y-59012221D01*
X93702757Y-59032026D01*
X93702759Y-59032026D01*
X93710152Y-59034798D01*
X93718002Y-59035651D01*
X93718003Y-59035651D01*
X93768447Y-59041131D01*
X93771844Y-59041500D01*
X94322906Y-59041500D01*
X94391027Y-59061502D01*
X94412001Y-59078405D01*
X95100788Y-59767192D01*
X95110643Y-59778282D01*
X95123268Y-59794297D01*
X95149731Y-59860177D01*
X95136376Y-59929906D01*
X95087443Y-59981346D01*
X95024316Y-59998300D01*
X94928267Y-59998300D01*
X94860146Y-59978298D01*
X94844743Y-59966602D01*
X94844554Y-59966470D01*
X94838875Y-59961411D01*
X94698874Y-59887284D01*
X94545233Y-59848692D01*
X94537634Y-59848652D01*
X94537633Y-59848652D01*
X94471781Y-59848307D01*
X94386821Y-59847862D01*
X94379441Y-59849634D01*
X94379439Y-59849634D01*
X94240163Y-59883071D01*
X94240160Y-59883072D01*
X94232784Y-59884843D01*
X94092014Y-59957500D01*
X93972639Y-60061638D01*
X93881550Y-60191244D01*
X93855731Y-60257466D01*
X93831662Y-60319201D01*
X93824006Y-60338837D01*
X93823014Y-60346370D01*
X93823014Y-60346371D01*
X93805643Y-60478320D01*
X93803329Y-60495896D01*
X93820713Y-60653353D01*
X93823323Y-60660484D01*
X93823323Y-60660486D01*
X93858328Y-60756141D01*
X93875153Y-60802119D01*
X93963508Y-60933605D01*
X93969127Y-60938718D01*
X93969128Y-60938719D01*
X93985814Y-60953902D01*
X94080676Y-61040219D01*
X94219893Y-61115808D01*
X94373122Y-61156007D01*
X94457077Y-61157326D01*
X94523919Y-61158376D01*
X94523922Y-61158376D01*
X94531516Y-61158495D01*
X94685932Y-61123129D01*
X94775849Y-61077906D01*
X94820672Y-61055363D01*
X94820675Y-61055361D01*
X94827455Y-61051951D01*
X94844389Y-61037488D01*
X94909179Y-61008458D01*
X94926219Y-61007300D01*
X96415331Y-61007300D01*
X96483452Y-61027302D01*
X96504456Y-61047141D01*
X96505674Y-61045923D01*
X96596277Y-61136526D01*
X96671687Y-61174950D01*
X96677542Y-61177933D01*
X96729157Y-61226682D01*
X96746223Y-61295597D01*
X96723322Y-61362798D01*
X96677541Y-61402467D01*
X96668709Y-61406967D01*
X96611507Y-61420700D01*
X95267074Y-61420700D01*
X95255069Y-61419359D01*
X95255029Y-61419855D01*
X95246082Y-61419135D01*
X95237326Y-61417154D01*
X95193788Y-61419855D01*
X95184068Y-61420458D01*
X95176266Y-61420700D01*
X95160224Y-61420700D01*
X95155793Y-61421335D01*
X95155788Y-61421335D01*
X95151763Y-61421912D01*
X95149993Y-61422165D01*
X95139936Y-61423196D01*
X95117474Y-61424589D01*
X95102050Y-61425546D01*
X95102048Y-61425546D01*
X95093091Y-61426102D01*
X95084651Y-61429149D01*
X95081361Y-61429830D01*
X95065512Y-61433782D01*
X95062282Y-61434727D01*
X95053398Y-61435999D01*
X95019309Y-61451498D01*
X95010672Y-61455425D01*
X95001310Y-61459236D01*
X94965608Y-61472125D01*
X94965607Y-61472126D01*
X94957166Y-61475173D01*
X94949917Y-61480469D01*
X94946936Y-61482054D01*
X94932858Y-61490280D01*
X94930019Y-61492096D01*
X94921845Y-61495812D01*
X94915041Y-61501675D01*
X94886298Y-61526442D01*
X94878380Y-61532730D01*
X94867506Y-61540673D01*
X94856644Y-61551535D01*
X94849798Y-61557893D01*
X94812368Y-61590144D01*
X94807484Y-61597679D01*
X94801751Y-61604251D01*
X94792524Y-61615655D01*
X94590883Y-61817296D01*
X94531202Y-61850720D01*
X94498527Y-61858564D01*
X94396402Y-61883082D01*
X94396399Y-61883083D01*
X94389023Y-61884854D01*
X94248253Y-61957511D01*
X94128878Y-62061649D01*
X94037789Y-62191255D01*
X94013634Y-62253210D01*
X93986324Y-62323257D01*
X93980245Y-62338848D01*
X93979253Y-62346381D01*
X93979253Y-62346382D01*
X93961069Y-62484507D01*
X93959568Y-62495907D01*
X93966071Y-62554805D01*
X93975943Y-62644222D01*
X93976952Y-62653364D01*
X93979562Y-62660495D01*
X93979562Y-62660497D01*
X94022534Y-62777923D01*
X94031392Y-62802130D01*
X94119747Y-62933616D01*
X94125366Y-62938729D01*
X94125367Y-62938730D01*
X94211825Y-63017400D01*
X94236915Y-63040230D01*
X94376132Y-63115819D01*
X94529361Y-63156018D01*
X94613316Y-63157337D01*
X94680158Y-63158387D01*
X94680161Y-63158387D01*
X94687755Y-63158506D01*
X94842171Y-63123140D01*
X94929316Y-63079311D01*
X94976911Y-63055374D01*
X94976914Y-63055372D01*
X94983694Y-63051962D01*
X94989465Y-63047033D01*
X94989468Y-63047031D01*
X95098375Y-62954015D01*
X95098375Y-62954014D01*
X95104153Y-62949080D01*
X95196594Y-62820435D01*
X95255681Y-62673452D01*
X95265357Y-62605458D01*
X95294757Y-62540836D01*
X95301005Y-62534116D01*
X95368516Y-62466605D01*
X95430828Y-62432579D01*
X95457611Y-62429700D01*
X96611507Y-62429700D01*
X96668709Y-62443433D01*
X96677541Y-62447933D01*
X96729156Y-62496680D01*
X96746223Y-62565595D01*
X96723323Y-62632797D01*
X96677542Y-62672467D01*
X96596277Y-62713874D01*
X96505674Y-62804477D01*
X96447502Y-62918645D01*
X96432500Y-63013366D01*
X96432500Y-63377034D01*
X96447502Y-63471755D01*
X96505674Y-63585923D01*
X96596277Y-63676526D01*
X96670708Y-63714451D01*
X96677542Y-63717933D01*
X96729157Y-63766682D01*
X96746223Y-63835597D01*
X96723322Y-63902798D01*
X96677542Y-63942467D01*
X96596277Y-63983874D01*
X96505674Y-64074477D01*
X96447502Y-64188645D01*
X96432500Y-64283366D01*
X96432500Y-64647034D01*
X96447502Y-64741755D01*
X96505674Y-64855923D01*
X96596277Y-64946526D01*
X96671687Y-64984950D01*
X96677542Y-64987933D01*
X96729157Y-65036682D01*
X96746223Y-65105597D01*
X96723322Y-65172798D01*
X96677542Y-65212467D01*
X96596277Y-65253874D01*
X96505674Y-65344477D01*
X96447502Y-65458645D01*
X96432500Y-65553366D01*
X96432500Y-65917034D01*
X96447502Y-66011755D01*
X96505674Y-66125923D01*
X96596277Y-66216526D01*
X96671687Y-66254950D01*
X96677542Y-66257933D01*
X96729157Y-66306682D01*
X96746223Y-66375597D01*
X96723322Y-66442798D01*
X96677542Y-66482467D01*
X96596277Y-66523874D01*
X96505674Y-66614477D01*
X96447502Y-66728645D01*
X96432500Y-66823366D01*
X96432500Y-67187034D01*
X96447502Y-67281755D01*
X96505674Y-67395923D01*
X96596277Y-67486526D01*
X96671687Y-67524950D01*
X96677542Y-67527933D01*
X96729157Y-67576682D01*
X96746223Y-67645597D01*
X96723322Y-67712798D01*
X96677542Y-67752467D01*
X96596277Y-67793874D01*
X96505674Y-67884477D01*
X96447502Y-67998645D01*
X96432500Y-68093366D01*
X96432500Y-68457034D01*
X96447502Y-68551755D01*
X96505674Y-68665923D01*
X96596277Y-68756526D01*
X96653691Y-68785780D01*
X96677542Y-68797933D01*
X96729157Y-68846682D01*
X96746223Y-68915597D01*
X96723322Y-68982798D01*
X96677542Y-69022467D01*
X96596277Y-69063874D01*
X96505674Y-69154477D01*
X96447502Y-69268645D01*
X96432500Y-69363366D01*
X96432500Y-69727034D01*
X96447502Y-69821755D01*
X96477252Y-69880143D01*
X96495950Y-69916838D01*
X96505674Y-69935923D01*
X96508442Y-69938691D01*
X96531180Y-70002417D01*
X96515101Y-70071569D01*
X96469525Y-70118067D01*
X96437323Y-70137111D01*
X96424896Y-70146751D01*
X96318551Y-70253096D01*
X96308911Y-70265522D01*
X96232352Y-70394979D01*
X96226107Y-70409410D01*
X96187061Y-70543805D01*
X96187101Y-70557906D01*
X96194370Y-70561200D01*
X97840000Y-70561200D01*
X97908121Y-70581202D01*
X97954614Y-70634858D01*
X97966000Y-70687200D01*
X97966000Y-71605084D01*
X97970475Y-71620323D01*
X97971865Y-71621528D01*
X97979548Y-71623199D01*
X98650984Y-71623199D01*
X98655920Y-71623005D01*
X98684336Y-71620770D01*
X98696931Y-71618470D01*
X98842790Y-71576093D01*
X98857221Y-71569848D01*
X98986678Y-71493289D01*
X98999104Y-71483649D01*
X99105449Y-71377304D01*
X99115089Y-71364878D01*
X99191648Y-71235421D01*
X99197893Y-71220990D01*
X99240269Y-71075135D01*
X99242570Y-71062533D01*
X99244806Y-71034120D01*
X99244952Y-71030411D01*
X99267615Y-70963129D01*
X99323056Y-70918780D01*
X99393672Y-70911444D01*
X99459950Y-70946266D01*
X99480195Y-70966511D01*
X99514221Y-71028823D01*
X99517100Y-71055606D01*
X99517100Y-74377233D01*
X99497098Y-74445354D01*
X99453999Y-74484760D01*
X99454531Y-74485573D01*
X99449533Y-74488844D01*
X99449479Y-74488893D01*
X99449373Y-74488948D01*
X99449365Y-74488953D01*
X99443912Y-74491804D01*
X99439114Y-74495662D01*
X99439112Y-74495663D01*
X99295434Y-74611183D01*
X99290388Y-74615240D01*
X99163763Y-74766145D01*
X99158326Y-74776035D01*
X99075549Y-74926608D01*
X99068862Y-74938771D01*
X99066998Y-74944646D01*
X99066997Y-74944649D01*
X99039024Y-75032831D01*
X99009297Y-75126542D01*
X98987338Y-75322307D01*
X98987854Y-75328451D01*
X99001353Y-75489204D01*
X99003822Y-75518609D01*
X99005519Y-75524528D01*
X99005520Y-75524532D01*
X99012881Y-75550203D01*
X99012430Y-75621198D01*
X98980857Y-75674028D01*
X96990090Y-77664795D01*
X96927778Y-77698821D01*
X96900995Y-77701700D01*
X96509300Y-77701700D01*
X96441179Y-77681698D01*
X96394686Y-77628042D01*
X96383300Y-77575700D01*
X96383300Y-77483444D01*
X96376598Y-77421752D01*
X96325871Y-77286436D01*
X96320491Y-77279257D01*
X96320489Y-77279254D01*
X96244585Y-77177976D01*
X96239204Y-77170796D01*
X96185054Y-77130213D01*
X96130746Y-77089511D01*
X96130743Y-77089509D01*
X96123564Y-77084129D01*
X96004712Y-77039574D01*
X95995643Y-77036174D01*
X95995641Y-77036174D01*
X95988248Y-77033402D01*
X95980398Y-77032549D01*
X95980397Y-77032549D01*
X95929953Y-77027069D01*
X95929952Y-77027069D01*
X95926556Y-77026700D01*
X95006044Y-77026700D01*
X95002648Y-77027069D01*
X95002647Y-77027069D01*
X94952203Y-77032549D01*
X94952202Y-77032549D01*
X94944352Y-77033402D01*
X94936959Y-77036174D01*
X94936957Y-77036174D01*
X94927888Y-77039574D01*
X94809036Y-77084129D01*
X94801857Y-77089509D01*
X94801854Y-77089511D01*
X94747546Y-77130213D01*
X94693396Y-77170796D01*
X94688015Y-77177976D01*
X94612111Y-77279254D01*
X94612109Y-77279257D01*
X94606729Y-77286436D01*
X94556002Y-77421752D01*
X94549300Y-77483444D01*
X94549300Y-78878956D01*
X94556002Y-78940648D01*
X94558774Y-78948041D01*
X94558774Y-78948043D01*
X94570422Y-78979114D01*
X94606729Y-79075964D01*
X94612109Y-79083143D01*
X94612111Y-79083146D01*
X94669682Y-79159962D01*
X94693396Y-79191604D01*
X94700576Y-79196985D01*
X94801854Y-79272889D01*
X94801857Y-79272891D01*
X94809036Y-79278271D01*
X94898754Y-79311904D01*
X94936957Y-79326226D01*
X94936959Y-79326226D01*
X94944352Y-79328998D01*
X94952202Y-79329851D01*
X94952203Y-79329851D01*
X95002647Y-79335331D01*
X95006044Y-79335700D01*
X95926556Y-79335700D01*
X95929953Y-79335331D01*
X95980397Y-79329851D01*
X95980398Y-79329851D01*
X95988248Y-79328998D01*
X95995641Y-79326226D01*
X95995643Y-79326226D01*
X96033846Y-79311904D01*
X96123564Y-79278271D01*
X96130743Y-79272891D01*
X96130746Y-79272889D01*
X96232024Y-79196985D01*
X96239204Y-79191604D01*
X96262918Y-79159962D01*
X96320489Y-79083146D01*
X96320491Y-79083143D01*
X96325871Y-79075964D01*
X96362178Y-78979114D01*
X96373826Y-78948043D01*
X96373826Y-78948041D01*
X96376598Y-78940648D01*
X96383300Y-78878956D01*
X96383300Y-78786700D01*
X96403302Y-78718579D01*
X96456958Y-78672086D01*
X96509300Y-78660700D01*
X97083980Y-78660700D01*
X97095200Y-78661954D01*
X97095247Y-78661369D01*
X97104193Y-78662089D01*
X97112949Y-78664070D01*
X97160256Y-78661135D01*
X97229482Y-78676880D01*
X97279208Y-78727554D01*
X97293645Y-78797067D01*
X97268207Y-78863350D01*
X97257151Y-78875988D01*
X95884126Y-80249013D01*
X95821814Y-80283039D01*
X95750999Y-80277974D01*
X95694163Y-80235427D01*
X95669944Y-80175055D01*
X95666869Y-80149647D01*
X95661676Y-80106733D01*
X95605680Y-79958546D01*
X95590172Y-79935981D01*
X95520255Y-79834251D01*
X95520254Y-79834249D01*
X95515953Y-79827992D01*
X95397675Y-79722611D01*
X95390289Y-79718700D01*
X95345606Y-79695042D01*
X95257674Y-79648484D01*
X95104033Y-79609892D01*
X95096434Y-79609852D01*
X95096433Y-79609852D01*
X95030581Y-79609507D01*
X94945621Y-79609062D01*
X94938241Y-79610834D01*
X94938239Y-79610834D01*
X94798963Y-79644271D01*
X94798960Y-79644272D01*
X94791584Y-79646043D01*
X94720772Y-79682592D01*
X94692094Y-79697394D01*
X94650814Y-79718700D01*
X94645092Y-79723692D01*
X94645090Y-79723693D01*
X94639636Y-79728451D01*
X94575153Y-79758157D01*
X94556809Y-79759500D01*
X93825698Y-79759500D01*
X93813693Y-79758159D01*
X93813653Y-79758655D01*
X93804706Y-79757935D01*
X93795950Y-79755954D01*
X93752412Y-79758655D01*
X93742692Y-79759258D01*
X93734890Y-79759500D01*
X93718847Y-79759500D01*
X93714417Y-79760135D01*
X93714410Y-79760135D01*
X93708609Y-79760966D01*
X93698556Y-79761996D01*
X93691123Y-79762457D01*
X93669310Y-79763811D01*
X93600083Y-79748067D01*
X93550356Y-79697394D01*
X93543641Y-79682592D01*
X93532096Y-79652039D01*
X93507875Y-79587941D01*
X93429728Y-79474236D01*
X93422450Y-79463646D01*
X93422449Y-79463644D01*
X93418148Y-79457387D01*
X93412478Y-79452335D01*
X93412476Y-79452333D01*
X93393823Y-79435714D01*
X93356267Y-79375464D01*
X93357247Y-79304474D01*
X93370382Y-79275523D01*
X93441614Y-79159962D01*
X93447763Y-79146776D01*
X93498938Y-78992490D01*
X93501805Y-78979114D01*
X93511472Y-78884762D01*
X93511800Y-78878346D01*
X93511800Y-78453315D01*
X93507325Y-78438076D01*
X93505935Y-78436871D01*
X93498252Y-78435200D01*
X91188916Y-78435200D01*
X91173677Y-78439675D01*
X91172472Y-78441065D01*
X91170801Y-78448748D01*
X91170801Y-78878295D01*
X91171138Y-78884814D01*
X91181057Y-78980406D01*
X91183949Y-78993800D01*
X91235388Y-79147984D01*
X91241561Y-79161162D01*
X91326863Y-79299007D01*
X91335899Y-79310408D01*
X91450629Y-79424939D01*
X91462040Y-79433951D01*
X91600043Y-79519016D01*
X91613224Y-79525163D01*
X91767510Y-79576338D01*
X91780886Y-79579205D01*
X91875238Y-79588872D01*
X91881654Y-79589200D01*
X92159788Y-79589200D01*
X92227909Y-79609202D01*
X92274402Y-79662858D01*
X92284710Y-79731645D01*
X92274902Y-79806146D01*
X92266356Y-79871054D01*
X92237633Y-79935981D01*
X92230529Y-79943702D01*
X91886192Y-80288039D01*
X91852236Y-80310727D01*
X91848235Y-80311523D01*
X91837921Y-80318415D01*
X91837920Y-80318415D01*
X91790448Y-80350134D01*
X91790444Y-80350137D01*
X91785302Y-80353573D01*
X90917657Y-81221220D01*
X90640097Y-81498780D01*
X90577784Y-81532805D01*
X90506969Y-81527741D01*
X90461906Y-81498781D01*
X89321073Y-80357950D01*
X89316698Y-80353575D01*
X89277128Y-80327134D01*
X89264083Y-80318417D01*
X89264081Y-80318416D01*
X89253765Y-80311523D01*
X89249762Y-80310727D01*
X89215809Y-80288040D01*
X88997025Y-80069256D01*
X88962999Y-80006944D01*
X88961036Y-79995319D01*
X88956076Y-79954333D01*
X88900080Y-79806146D01*
X88878536Y-79774799D01*
X88814655Y-79681851D01*
X88814654Y-79681849D01*
X88810353Y-79675592D01*
X88783918Y-79652039D01*
X88738690Y-79611743D01*
X88692075Y-79570211D01*
X88650228Y-79548054D01*
X88599384Y-79498501D01*
X88583403Y-79429327D01*
X88607357Y-79362493D01*
X88663641Y-79319220D01*
X88709187Y-79310700D01*
X89297556Y-79310700D01*
X89300953Y-79310331D01*
X89351397Y-79304851D01*
X89351398Y-79304851D01*
X89359248Y-79303998D01*
X89366641Y-79301226D01*
X89366643Y-79301226D01*
X89419473Y-79281421D01*
X89494564Y-79253271D01*
X89501743Y-79247891D01*
X89501746Y-79247889D01*
X89603024Y-79171985D01*
X89610204Y-79166604D01*
X89641083Y-79125402D01*
X89691489Y-79058146D01*
X89691491Y-79058143D01*
X89696871Y-79050964D01*
X89747598Y-78915648D01*
X89753280Y-78863350D01*
X89753931Y-78857353D01*
X89753931Y-78857352D01*
X89754300Y-78853956D01*
X89754300Y-77909085D01*
X91170800Y-77909085D01*
X91175275Y-77924324D01*
X91176665Y-77925529D01*
X91184348Y-77927200D01*
X92069185Y-77927200D01*
X92084424Y-77922725D01*
X92085629Y-77921335D01*
X92087300Y-77913652D01*
X92087300Y-77909085D01*
X92595300Y-77909085D01*
X92599775Y-77924324D01*
X92601165Y-77925529D01*
X92608848Y-77927200D01*
X93493684Y-77927200D01*
X93508923Y-77922725D01*
X93510128Y-77921335D01*
X93511799Y-77913652D01*
X93511799Y-77484105D01*
X93511462Y-77477586D01*
X93501543Y-77381994D01*
X93498651Y-77368600D01*
X93447212Y-77214416D01*
X93441039Y-77201238D01*
X93355737Y-77063393D01*
X93346701Y-77051992D01*
X93231971Y-76937461D01*
X93220560Y-76928449D01*
X93082557Y-76843384D01*
X93069376Y-76837237D01*
X92915090Y-76786062D01*
X92901714Y-76783195D01*
X92807362Y-76773528D01*
X92800945Y-76773200D01*
X92613415Y-76773200D01*
X92598176Y-76777675D01*
X92596971Y-76779065D01*
X92595300Y-76786748D01*
X92595300Y-77909085D01*
X92087300Y-77909085D01*
X92087300Y-76791316D01*
X92082825Y-76776077D01*
X92081435Y-76774872D01*
X92073752Y-76773201D01*
X91881705Y-76773201D01*
X91875186Y-76773538D01*
X91779594Y-76783457D01*
X91766200Y-76786349D01*
X91612016Y-76837788D01*
X91598838Y-76843961D01*
X91460993Y-76929263D01*
X91449592Y-76938299D01*
X91335061Y-77053029D01*
X91326049Y-77064440D01*
X91240984Y-77202443D01*
X91234837Y-77215624D01*
X91183662Y-77369910D01*
X91180795Y-77383286D01*
X91171128Y-77477638D01*
X91170800Y-77484055D01*
X91170800Y-77909085D01*
X89754300Y-77909085D01*
X89754300Y-77508444D01*
X89751656Y-77484105D01*
X89748451Y-77454603D01*
X89748451Y-77454602D01*
X89747598Y-77446752D01*
X89696871Y-77311436D01*
X89691491Y-77304257D01*
X89691489Y-77304254D01*
X89615585Y-77202976D01*
X89610204Y-77195796D01*
X89584732Y-77176706D01*
X89501746Y-77114511D01*
X89501743Y-77114509D01*
X89494564Y-77109129D01*
X89449371Y-77092187D01*
X89422771Y-77082215D01*
X89366006Y-77039574D01*
X89341306Y-76973012D01*
X89341000Y-76964233D01*
X89341000Y-74971314D01*
X89361002Y-74903193D01*
X89405431Y-74861382D01*
X89464776Y-74828147D01*
X89472241Y-74821939D01*
X89597399Y-74717845D01*
X89620845Y-74698345D01*
X89677963Y-74629669D01*
X89746953Y-74546718D01*
X89746955Y-74546715D01*
X89750647Y-74542276D01*
X89837423Y-74387326D01*
X89847010Y-74370208D01*
X89847011Y-74370206D01*
X89849834Y-74365165D01*
X89852220Y-74358135D01*
X89852670Y-74357496D01*
X89854041Y-74354416D01*
X89854646Y-74354685D01*
X89893053Y-74300059D01*
X89958805Y-74273278D01*
X90028598Y-74286295D01*
X90080273Y-74334980D01*
X90088277Y-74351229D01*
X90158270Y-74523603D01*
X90162913Y-74532794D01*
X90274194Y-74714388D01*
X90280277Y-74722699D01*
X90419713Y-74883667D01*
X90427080Y-74890883D01*
X90590934Y-75026916D01*
X90599381Y-75032831D01*
X90783256Y-75140279D01*
X90792542Y-75144729D01*
X90991501Y-75220703D01*
X91001399Y-75223579D01*
X91104750Y-75244606D01*
X91118799Y-75243410D01*
X91122500Y-75233065D01*
X91122500Y-75232517D01*
X91630500Y-75232517D01*
X91634564Y-75246359D01*
X91647978Y-75248393D01*
X91654684Y-75247534D01*
X91664762Y-75245392D01*
X91868755Y-75184191D01*
X91878342Y-75180433D01*
X92069595Y-75086739D01*
X92078445Y-75081464D01*
X92251828Y-74957792D01*
X92259700Y-74951139D01*
X92410552Y-74800812D01*
X92417230Y-74792965D01*
X92541503Y-74620020D01*
X92546813Y-74611183D01*
X92641170Y-74420267D01*
X92644969Y-74410672D01*
X92706877Y-74206910D01*
X92709055Y-74196837D01*
X92710486Y-74185962D01*
X92708275Y-74171778D01*
X92695117Y-74168000D01*
X91648615Y-74168000D01*
X91633376Y-74172475D01*
X91632171Y-74173865D01*
X91630500Y-74181548D01*
X91630500Y-75232517D01*
X91122500Y-75232517D01*
X91122500Y-73786000D01*
X91142502Y-73717879D01*
X91196158Y-73671386D01*
X91248500Y-73660000D01*
X92694844Y-73660000D01*
X92708375Y-73656027D01*
X92709680Y-73646947D01*
X92667714Y-73479875D01*
X92664394Y-73470124D01*
X92579472Y-73274814D01*
X92574605Y-73265739D01*
X92458926Y-73086926D01*
X92452636Y-73078757D01*
X92309306Y-72921240D01*
X92301773Y-72914215D01*
X92134639Y-72782222D01*
X92126052Y-72776517D01*
X91939617Y-72673599D01*
X91930205Y-72669369D01*
X91815891Y-72628888D01*
X91758355Y-72587294D01*
X91732439Y-72521196D01*
X91746373Y-72451580D01*
X91795732Y-72400549D01*
X91817443Y-72390804D01*
X91827665Y-72387334D01*
X92004776Y-72288147D01*
X92009317Y-72284371D01*
X92156413Y-72162031D01*
X92160845Y-72158345D01*
X92217963Y-72089669D01*
X92286953Y-72006718D01*
X92286955Y-72006715D01*
X92290647Y-72002276D01*
X92374388Y-71852746D01*
X92387010Y-71830208D01*
X92387011Y-71830206D01*
X92389834Y-71825165D01*
X92391690Y-71819698D01*
X92391692Y-71819693D01*
X92453228Y-71638414D01*
X92453229Y-71638409D01*
X92455084Y-71632945D01*
X92455912Y-71627236D01*
X92455913Y-71627231D01*
X92475648Y-71491117D01*
X92484212Y-71432053D01*
X92485732Y-71374000D01*
X92473581Y-71241757D01*
X92467687Y-71177613D01*
X92467686Y-71177610D01*
X92467158Y-71171859D01*
X92464463Y-71162302D01*
X92441553Y-71081071D01*
X96185456Y-71081071D01*
X96226107Y-71220990D01*
X96232352Y-71235421D01*
X96308911Y-71364878D01*
X96318551Y-71377304D01*
X96424896Y-71483649D01*
X96437322Y-71493289D01*
X96566779Y-71569848D01*
X96581210Y-71576093D01*
X96727065Y-71618469D01*
X96739667Y-71620770D01*
X96768084Y-71623007D01*
X96773014Y-71623200D01*
X97439885Y-71623200D01*
X97455124Y-71618725D01*
X97456329Y-71617335D01*
X97458000Y-71609652D01*
X97458000Y-71087315D01*
X97453525Y-71072076D01*
X97452135Y-71070871D01*
X97444452Y-71069200D01*
X96200122Y-71069200D01*
X96186591Y-71073173D01*
X96185456Y-71081071D01*
X92441553Y-71081071D01*
X92413625Y-70982046D01*
X92413624Y-70982044D01*
X92412057Y-70976487D01*
X92407138Y-70966511D01*
X92324831Y-70799609D01*
X92322276Y-70794428D01*
X92318466Y-70789325D01*
X92266678Y-70719974D01*
X92200820Y-70631779D01*
X92051758Y-70493987D01*
X92046875Y-70490906D01*
X92046871Y-70490903D01*
X91884964Y-70388748D01*
X91880081Y-70385667D01*
X91691539Y-70310446D01*
X91685879Y-70309320D01*
X91685875Y-70309319D01*
X91498113Y-70271971D01*
X91498110Y-70271971D01*
X91492446Y-70270844D01*
X91486671Y-70270768D01*
X91486667Y-70270768D01*
X91385293Y-70269441D01*
X91289471Y-70268187D01*
X91283774Y-70269166D01*
X91283773Y-70269166D01*
X91095107Y-70301585D01*
X91089410Y-70302564D01*
X90898963Y-70372824D01*
X90724510Y-70476612D01*
X90720170Y-70480418D01*
X90720166Y-70480421D01*
X90576233Y-70606648D01*
X90571892Y-70610455D01*
X90446220Y-70769869D01*
X90443531Y-70774980D01*
X90443529Y-70774983D01*
X90430672Y-70799420D01*
X90351703Y-70949515D01*
X90318761Y-71055606D01*
X90298071Y-71122240D01*
X90291507Y-71143378D01*
X90267648Y-71344964D01*
X90280924Y-71547522D01*
X90282345Y-71553118D01*
X90282346Y-71553123D01*
X90304008Y-71638414D01*
X90330892Y-71744269D01*
X90333309Y-71749512D01*
X90395736Y-71884927D01*
X90415877Y-71928616D01*
X90533033Y-72094389D01*
X90678438Y-72236035D01*
X90847220Y-72348812D01*
X90852523Y-72351090D01*
X90852526Y-72351092D01*
X90949454Y-72392735D01*
X91004147Y-72438003D01*
X91025684Y-72505654D01*
X91007227Y-72574210D01*
X90954636Y-72621904D01*
X90938861Y-72628268D01*
X90853368Y-72656212D01*
X90843859Y-72660209D01*
X90654963Y-72758542D01*
X90646238Y-72764036D01*
X90475933Y-72891905D01*
X90468226Y-72898748D01*
X90321090Y-73052717D01*
X90314604Y-73060727D01*
X90194598Y-73236649D01*
X90189500Y-73245623D01*
X90099838Y-73438783D01*
X90096277Y-73448464D01*
X90091791Y-73464640D01*
X90054313Y-73524939D01*
X89990184Y-73555403D01*
X89919766Y-73546360D01*
X89865415Y-73500682D01*
X89857367Y-73486698D01*
X89784831Y-73339609D01*
X89782276Y-73334428D01*
X89660820Y-73171779D01*
X89511758Y-73033987D01*
X89506875Y-73030906D01*
X89506871Y-73030903D01*
X89344964Y-72928748D01*
X89340081Y-72925667D01*
X89151539Y-72850446D01*
X89145879Y-72849320D01*
X89145875Y-72849319D01*
X88958113Y-72811971D01*
X88958110Y-72811971D01*
X88952446Y-72810844D01*
X88946671Y-72810768D01*
X88946667Y-72810768D01*
X88845293Y-72809441D01*
X88749471Y-72808187D01*
X88743774Y-72809166D01*
X88743773Y-72809166D01*
X88555107Y-72841585D01*
X88549410Y-72842564D01*
X88358963Y-72912824D01*
X88184510Y-73016612D01*
X88180170Y-73020418D01*
X88180166Y-73020421D01*
X88054141Y-73130943D01*
X88031892Y-73150455D01*
X88028317Y-73154990D01*
X88028316Y-73154991D01*
X88023656Y-73160902D01*
X87906220Y-73309869D01*
X87903531Y-73314980D01*
X87903529Y-73314983D01*
X87864408Y-73389340D01*
X87814989Y-73440312D01*
X87745856Y-73456475D01*
X87678960Y-73432696D01*
X87635539Y-73376525D01*
X87626900Y-73330672D01*
X87626900Y-71962818D01*
X87646902Y-71894697D01*
X87700558Y-71848204D01*
X87770832Y-71838100D01*
X87835412Y-71867594D01*
X87867325Y-71910065D01*
X87875877Y-71928616D01*
X87993033Y-72094389D01*
X88138438Y-72236035D01*
X88307220Y-72348812D01*
X88312523Y-72351090D01*
X88312526Y-72351092D01*
X88487730Y-72426365D01*
X88493728Y-72428942D01*
X88546133Y-72440800D01*
X88686079Y-72472467D01*
X88686084Y-72472468D01*
X88691716Y-72473742D01*
X88697487Y-72473969D01*
X88697489Y-72473969D01*
X88757256Y-72476317D01*
X88894553Y-72481712D01*
X88994999Y-72467148D01*
X89089731Y-72453413D01*
X89089736Y-72453412D01*
X89095445Y-72452584D01*
X89100909Y-72450729D01*
X89100914Y-72450728D01*
X89282193Y-72389192D01*
X89282198Y-72389190D01*
X89287665Y-72387334D01*
X89464776Y-72288147D01*
X89469317Y-72284371D01*
X89616413Y-72162031D01*
X89620845Y-72158345D01*
X89677963Y-72089669D01*
X89746953Y-72006718D01*
X89746955Y-72006715D01*
X89750647Y-72002276D01*
X89834388Y-71852746D01*
X89847010Y-71830208D01*
X89847011Y-71830206D01*
X89849834Y-71825165D01*
X89851690Y-71819698D01*
X89851692Y-71819693D01*
X89913228Y-71638414D01*
X89913229Y-71638409D01*
X89915084Y-71632945D01*
X89915912Y-71627236D01*
X89915913Y-71627231D01*
X89935648Y-71491117D01*
X89944212Y-71432053D01*
X89945732Y-71374000D01*
X89933581Y-71241757D01*
X89927687Y-71177613D01*
X89927686Y-71177610D01*
X89927158Y-71171859D01*
X89924463Y-71162302D01*
X89873625Y-70982046D01*
X89873624Y-70982044D01*
X89872057Y-70976487D01*
X89867138Y-70966511D01*
X89784831Y-70799609D01*
X89782276Y-70794428D01*
X89778466Y-70789325D01*
X89726678Y-70719974D01*
X89660820Y-70631779D01*
X89511758Y-70493987D01*
X89506875Y-70490906D01*
X89506871Y-70490903D01*
X89344964Y-70388748D01*
X89340081Y-70385667D01*
X89151539Y-70310446D01*
X89145879Y-70309320D01*
X89145875Y-70309319D01*
X88958113Y-70271971D01*
X88958110Y-70271971D01*
X88952446Y-70270844D01*
X88946671Y-70270768D01*
X88946667Y-70270768D01*
X88845293Y-70269441D01*
X88749471Y-70268187D01*
X88743774Y-70269166D01*
X88743773Y-70269166D01*
X88555107Y-70301585D01*
X88549410Y-70302564D01*
X88358963Y-70372824D01*
X88184510Y-70476612D01*
X88180170Y-70480418D01*
X88180166Y-70480421D01*
X88036233Y-70606648D01*
X88031892Y-70610455D01*
X87906220Y-70769869D01*
X87903531Y-70774980D01*
X87903529Y-70774983D01*
X87840353Y-70895060D01*
X87790933Y-70946033D01*
X87721801Y-70962195D01*
X87654905Y-70938416D01*
X87612524Y-70883591D01*
X87612359Y-70882436D01*
X87593996Y-70842050D01*
X87590190Y-70832698D01*
X87578177Y-70799420D01*
X87578175Y-70799416D01*
X87575127Y-70790973D01*
X87569828Y-70783720D01*
X87567037Y-70778471D01*
X87562435Y-70770595D01*
X87559227Y-70765579D01*
X87555510Y-70757403D01*
X87526558Y-70723802D01*
X87520270Y-70715883D01*
X87516076Y-70710141D01*
X87512873Y-70705757D01*
X87502711Y-70695595D01*
X87496353Y-70688748D01*
X87471714Y-70660153D01*
X87465853Y-70653351D01*
X87458318Y-70648467D01*
X87451556Y-70642568D01*
X87451616Y-70642500D01*
X87441138Y-70634022D01*
X86890417Y-70083301D01*
X86321904Y-69514789D01*
X86287879Y-69452477D01*
X86284999Y-69425694D01*
X86284999Y-68958934D01*
X86270234Y-68884699D01*
X86266203Y-68878667D01*
X86258996Y-68811627D01*
X86265024Y-68791098D01*
X86270234Y-68783301D01*
X86283836Y-68714919D01*
X86316743Y-68652009D01*
X86378438Y-68616877D01*
X86407415Y-68613500D01*
X86616328Y-68613500D01*
X86631138Y-68614373D01*
X86662940Y-68618137D01*
X86672204Y-68616445D01*
X86672205Y-68616445D01*
X86717880Y-68608103D01*
X86721786Y-68607453D01*
X86767702Y-68600550D01*
X86777014Y-68599150D01*
X86783221Y-68596169D01*
X86789991Y-68594933D01*
X86798347Y-68590593D01*
X86798354Y-68590590D01*
X86839570Y-68569179D01*
X86843047Y-68567441D01*
X86893438Y-68543243D01*
X86898493Y-68538571D01*
X86904602Y-68535397D01*
X86909418Y-68531283D01*
X86944842Y-68495859D01*
X86948409Y-68492429D01*
X86981358Y-68461972D01*
X86981359Y-68461971D01*
X86988278Y-68455575D01*
X86991837Y-68449449D01*
X86996861Y-68443840D01*
X87516906Y-67923795D01*
X87579217Y-67889770D01*
X87650032Y-67894835D01*
X87706868Y-67937382D01*
X87731679Y-68003902D01*
X87732000Y-68012891D01*
X87732001Y-68857922D01*
X87732001Y-69709066D01*
X87746766Y-69783301D01*
X87753661Y-69793620D01*
X87753662Y-69793622D01*
X87794016Y-69854015D01*
X87803016Y-69867484D01*
X87887199Y-69923734D01*
X87961433Y-69938500D01*
X88836358Y-69938500D01*
X89711566Y-69938499D01*
X89747318Y-69931388D01*
X89773626Y-69926156D01*
X89773628Y-69926155D01*
X89785801Y-69923734D01*
X89796121Y-69916839D01*
X89796122Y-69916838D01*
X89859668Y-69874377D01*
X89869984Y-69867484D01*
X89926234Y-69783301D01*
X89941000Y-69709067D01*
X89940999Y-67958934D01*
X89932255Y-67914969D01*
X89928656Y-67896874D01*
X89928655Y-67896872D01*
X89926234Y-67884699D01*
X89913106Y-67865051D01*
X89876877Y-67810832D01*
X89869984Y-67800516D01*
X89785801Y-67744266D01*
X89711567Y-67729500D01*
X89531531Y-67729500D01*
X88015391Y-67729501D01*
X87947270Y-67709499D01*
X87900777Y-67655843D01*
X87890673Y-67585569D01*
X87920167Y-67520989D01*
X87926296Y-67514406D01*
X87969097Y-67471605D01*
X88031409Y-67437579D01*
X88058192Y-67434700D01*
X90821000Y-67434700D01*
X90889121Y-67454702D01*
X90935614Y-67508358D01*
X90947000Y-67560700D01*
X90947000Y-67732594D01*
X90926998Y-67800715D01*
X90885423Y-67840879D01*
X90729478Y-67933656D01*
X90729475Y-67933658D01*
X90724510Y-67936612D01*
X90720170Y-67940418D01*
X90720166Y-67940421D01*
X90598881Y-68046786D01*
X90571892Y-68070455D01*
X90446220Y-68229869D01*
X90443531Y-68234980D01*
X90443529Y-68234983D01*
X90415106Y-68289007D01*
X90351703Y-68409515D01*
X90291507Y-68603378D01*
X90267648Y-68804964D01*
X90280924Y-69007522D01*
X90282345Y-69013118D01*
X90282346Y-69013123D01*
X90328587Y-69195193D01*
X90330892Y-69204269D01*
X90333309Y-69209512D01*
X90370510Y-69290208D01*
X90415877Y-69388616D01*
X90419210Y-69393332D01*
X90505047Y-69514789D01*
X90533033Y-69554389D01*
X90678438Y-69696035D01*
X90847220Y-69808812D01*
X90852523Y-69811090D01*
X90852526Y-69811092D01*
X90981844Y-69866651D01*
X91033728Y-69888942D01*
X91106744Y-69905464D01*
X91226079Y-69932467D01*
X91226084Y-69932468D01*
X91231716Y-69933742D01*
X91237487Y-69933969D01*
X91237489Y-69933969D01*
X91297256Y-69936317D01*
X91434553Y-69941712D01*
X91541848Y-69926155D01*
X91629731Y-69913413D01*
X91629736Y-69913412D01*
X91635445Y-69912584D01*
X91640909Y-69910729D01*
X91640914Y-69910728D01*
X91822193Y-69849192D01*
X91822198Y-69849190D01*
X91827665Y-69847334D01*
X92004776Y-69748147D01*
X92030162Y-69727034D01*
X92156413Y-69622031D01*
X92160845Y-69618345D01*
X92290647Y-69462276D01*
X92389834Y-69285165D01*
X92391690Y-69279698D01*
X92391692Y-69279693D01*
X92453228Y-69098414D01*
X92453229Y-69098409D01*
X92455084Y-69092945D01*
X92455912Y-69087236D01*
X92455913Y-69087231D01*
X92473973Y-68962669D01*
X92484212Y-68892053D01*
X92485732Y-68834000D01*
X92471971Y-68684238D01*
X92467687Y-68637613D01*
X92467686Y-68637610D01*
X92467158Y-68631859D01*
X92462235Y-68614403D01*
X92413625Y-68442046D01*
X92413624Y-68442044D01*
X92412057Y-68436487D01*
X92408850Y-68429982D01*
X92324831Y-68259609D01*
X92322276Y-68254428D01*
X92200820Y-68091779D01*
X92075203Y-67975659D01*
X92056003Y-67957911D01*
X92051758Y-67953987D01*
X92046875Y-67950906D01*
X92046871Y-67950903D01*
X91884968Y-67848750D01*
X91884964Y-67848748D01*
X91880081Y-67845667D01*
X91874780Y-67843552D01*
X91823182Y-67794819D01*
X91806000Y-67731301D01*
X91806000Y-67355669D01*
X91806873Y-67340859D01*
X91809530Y-67318409D01*
X91810637Y-67309057D01*
X91808527Y-67297501D01*
X91801624Y-67259707D01*
X91800603Y-67254114D01*
X91799953Y-67250211D01*
X91798686Y-67241780D01*
X91791650Y-67194983D01*
X91788669Y-67188776D01*
X91787433Y-67182006D01*
X91783093Y-67173650D01*
X91783090Y-67173643D01*
X91761679Y-67132427D01*
X91759941Y-67128950D01*
X91735743Y-67078559D01*
X91731071Y-67073504D01*
X91727897Y-67067395D01*
X91723784Y-67062579D01*
X91688347Y-67027142D01*
X91684917Y-67023575D01*
X91654468Y-66990635D01*
X91648075Y-66983719D01*
X91641953Y-66980163D01*
X91636348Y-66975143D01*
X91386014Y-66724809D01*
X91376159Y-66713720D01*
X91362165Y-66695969D01*
X91356334Y-66688572D01*
X91348587Y-66683217D01*
X91348585Y-66683216D01*
X91319157Y-66662878D01*
X91310405Y-66656829D01*
X91307193Y-66654534D01*
X91269824Y-66626932D01*
X91269823Y-66626931D01*
X91262246Y-66621335D01*
X91255749Y-66619053D01*
X91250088Y-66615141D01*
X91241114Y-66612303D01*
X91241112Y-66612302D01*
X91196860Y-66598308D01*
X91193103Y-66597054D01*
X91149280Y-66581664D01*
X91149272Y-66581662D01*
X91140389Y-66578543D01*
X91133510Y-66578273D01*
X91126947Y-66576197D01*
X91120633Y-66575700D01*
X91070515Y-66575700D01*
X91065568Y-66575603D01*
X91011337Y-66573472D01*
X91004494Y-66575287D01*
X90996981Y-66575700D01*
X88391361Y-66575700D01*
X88323240Y-66555698D01*
X88276747Y-66502042D01*
X88266643Y-66431768D01*
X88296137Y-66367188D01*
X88302266Y-66360605D01*
X90088065Y-64574805D01*
X90150377Y-64540780D01*
X90177160Y-64537900D01*
X90299107Y-64537900D01*
X90356309Y-64551633D01*
X90365141Y-64556133D01*
X90416756Y-64604880D01*
X90433823Y-64673795D01*
X90410923Y-64740997D01*
X90365142Y-64780667D01*
X90283877Y-64822074D01*
X90193274Y-64912677D01*
X90135102Y-65026845D01*
X90120100Y-65121566D01*
X90120100Y-65485234D01*
X90135102Y-65579955D01*
X90193274Y-65694123D01*
X90283877Y-65784726D01*
X90398045Y-65842898D01*
X90492766Y-65857900D01*
X92206434Y-65857900D01*
X92301155Y-65842898D01*
X92415323Y-65784726D01*
X92505926Y-65694123D01*
X92564098Y-65579955D01*
X92579100Y-65485234D01*
X92579100Y-65121566D01*
X92564098Y-65026845D01*
X92505926Y-64912677D01*
X92415323Y-64822074D01*
X92334058Y-64780667D01*
X92282443Y-64731918D01*
X92265377Y-64663003D01*
X92288278Y-64595802D01*
X92334058Y-64556133D01*
X92339913Y-64553150D01*
X92415323Y-64514726D01*
X92505926Y-64424123D01*
X92564098Y-64309955D01*
X92579100Y-64215234D01*
X92579100Y-63851566D01*
X92564098Y-63756845D01*
X92505926Y-63642677D01*
X92415323Y-63552074D01*
X92334058Y-63510667D01*
X92282443Y-63461918D01*
X92265377Y-63393003D01*
X92288278Y-63325802D01*
X92334058Y-63286133D01*
X92352573Y-63276699D01*
X92415323Y-63244726D01*
X92505926Y-63154123D01*
X92564098Y-63039955D01*
X92579100Y-62945234D01*
X92579100Y-62581566D01*
X92564098Y-62486845D01*
X92531417Y-62422706D01*
X92510429Y-62381514D01*
X92510428Y-62381513D01*
X92505926Y-62372677D01*
X92503158Y-62369909D01*
X92480420Y-62306183D01*
X92496499Y-62237031D01*
X92542075Y-62190533D01*
X92574277Y-62171489D01*
X92586704Y-62161849D01*
X92693049Y-62055504D01*
X92702689Y-62043078D01*
X92779248Y-61913621D01*
X92785493Y-61899190D01*
X92824539Y-61764795D01*
X92824499Y-61750694D01*
X92817230Y-61747400D01*
X91221600Y-61747400D01*
X91153479Y-61727398D01*
X91106986Y-61673742D01*
X91095600Y-61621400D01*
X91095600Y-61221285D01*
X91603600Y-61221285D01*
X91608075Y-61236524D01*
X91609465Y-61237729D01*
X91617148Y-61239400D01*
X92811478Y-61239400D01*
X92825009Y-61235427D01*
X92826144Y-61227529D01*
X92785493Y-61087610D01*
X92779248Y-61073179D01*
X92702689Y-60943722D01*
X92693049Y-60931296D01*
X92586704Y-60824951D01*
X92574278Y-60815311D01*
X92444821Y-60738752D01*
X92430390Y-60732507D01*
X92284535Y-60690131D01*
X92271933Y-60687830D01*
X92243516Y-60685593D01*
X92238586Y-60685400D01*
X91621715Y-60685400D01*
X91606476Y-60689875D01*
X91605271Y-60691265D01*
X91603600Y-60698948D01*
X91603600Y-61221285D01*
X91095600Y-61221285D01*
X91095600Y-60703516D01*
X91091125Y-60688277D01*
X91089735Y-60687072D01*
X91082052Y-60685401D01*
X90460617Y-60685401D01*
X90455680Y-60685595D01*
X90427264Y-60687830D01*
X90414669Y-60690130D01*
X90268810Y-60732507D01*
X90254379Y-60738752D01*
X90124922Y-60815311D01*
X90112496Y-60824951D01*
X90006151Y-60931296D01*
X89996511Y-60943722D01*
X89919952Y-61073179D01*
X89913707Y-61087610D01*
X89871331Y-61233465D01*
X89869030Y-61246067D01*
X89866793Y-61274484D01*
X89866600Y-61279414D01*
X89866600Y-61340739D01*
X89846598Y-61408860D01*
X89792942Y-61455353D01*
X89722668Y-61465457D01*
X89658088Y-61435963D01*
X89651505Y-61429834D01*
X87808077Y-59586406D01*
X87800535Y-59576966D01*
X87800155Y-59577289D01*
X87794337Y-59570453D01*
X87789547Y-59562861D01*
X87749540Y-59527528D01*
X87743854Y-59522183D01*
X87732520Y-59510849D01*
X87724245Y-59504647D01*
X87716400Y-59498260D01*
X87687957Y-59473140D01*
X87681230Y-59467199D01*
X87673108Y-59463386D01*
X87670307Y-59461546D01*
X87656312Y-59453137D01*
X87653349Y-59451515D01*
X87646164Y-59446130D01*
X87637754Y-59442977D01*
X87637752Y-59442976D01*
X87602218Y-59429654D01*
X87592902Y-59425729D01*
X87585773Y-59422382D01*
X87550418Y-59405783D01*
X87541544Y-59404401D01*
X87538317Y-59403415D01*
X87522534Y-59399275D01*
X87519256Y-59398554D01*
X87510848Y-59395402D01*
X87497091Y-59394380D01*
X87464043Y-59391924D01*
X87453996Y-59390770D01*
X87445514Y-59389449D01*
X87445511Y-59389449D01*
X87440703Y-59388700D01*
X87425338Y-59388700D01*
X87416001Y-59388354D01*
X87399919Y-59387159D01*
X87366733Y-59384693D01*
X87357958Y-59386566D01*
X87349262Y-59387159D01*
X87334662Y-59388700D01*
X86036961Y-59388700D01*
X85968840Y-59368698D01*
X85947866Y-59351795D01*
X84877005Y-58280934D01*
X84842979Y-58218622D01*
X84840100Y-58191839D01*
X84840099Y-57143123D01*
X84840099Y-57136934D01*
X84825334Y-57062699D01*
X84817277Y-57050640D01*
X84775977Y-56988832D01*
X84769084Y-56978516D01*
X84684901Y-56922266D01*
X84672727Y-56919845D01*
X84667881Y-56917837D01*
X84612601Y-56873288D01*
X84590100Y-56801428D01*
X84590100Y-53399281D01*
X84610102Y-53331160D01*
X84612162Y-53328273D01*
X84613228Y-53327160D01*
X84727552Y-53150103D01*
X84733453Y-53135461D01*
X84737780Y-53124726D01*
X84781796Y-53069021D01*
X84848942Y-53045956D01*
X84917898Y-53062854D01*
X84969527Y-53120076D01*
X85049437Y-53297470D01*
X85054606Y-53306756D01*
X85177350Y-53489075D01*
X85184019Y-53497370D01*
X85335728Y-53656400D01*
X85343686Y-53663441D01*
X85520025Y-53794641D01*
X85529062Y-53800245D01*
X85724984Y-53899857D01*
X85734835Y-53903857D01*
X85944740Y-53969034D01*
X85955124Y-53971317D01*
X85970543Y-53973361D01*
X85984707Y-53971165D01*
X85988500Y-53957978D01*
X85988500Y-51073308D01*
X85984527Y-51059777D01*
X85973920Y-51058252D01*
X85856079Y-51082977D01*
X85845883Y-51086037D01*
X85641471Y-51166763D01*
X85631939Y-51171494D01*
X85444038Y-51285516D01*
X85435448Y-51291780D01*
X85269448Y-51435827D01*
X85262028Y-51443458D01*
X85122674Y-51613411D01*
X85116650Y-51622178D01*
X85007924Y-51813182D01*
X85003459Y-51822845D01*
X84973534Y-51905288D01*
X84931490Y-51962496D01*
X84865191Y-51987892D01*
X84795686Y-51973412D01*
X84743079Y-51919990D01*
X84724780Y-51884460D01*
X84676176Y-51790090D01*
X84606855Y-51701840D01*
X84549692Y-51629068D01*
X84549688Y-51629064D01*
X84545986Y-51624351D01*
X84533379Y-51613411D01*
X84391335Y-51490150D01*
X84391330Y-51490146D01*
X84386804Y-51486219D01*
X84204374Y-51380681D01*
X84005278Y-51311543D01*
X83999345Y-51310683D01*
X83999342Y-51310682D01*
X83802640Y-51282162D01*
X83802637Y-51282162D01*
X83796700Y-51281301D01*
X83586167Y-51291045D01*
X83580343Y-51292449D01*
X83580340Y-51292449D01*
X83387107Y-51339018D01*
X83387105Y-51339019D01*
X83381274Y-51340424D01*
X83375816Y-51342906D01*
X83375812Y-51342907D01*
X83310507Y-51372600D01*
X83189416Y-51427657D01*
X83167141Y-51443458D01*
X83031148Y-51539925D01*
X83017514Y-51549596D01*
X82871772Y-51701840D01*
X82868521Y-51706875D01*
X82799880Y-51813182D01*
X82757448Y-51878897D01*
X82678666Y-52074378D01*
X82638271Y-52281229D01*
X82638000Y-52286770D01*
X82638000Y-52692159D01*
X82652993Y-52849306D01*
X82712323Y-53051542D01*
X82715073Y-53056881D01*
X82801276Y-53224254D01*
X82808824Y-53238910D01*
X82836840Y-53274576D01*
X82935308Y-53399932D01*
X82935312Y-53399936D01*
X82939014Y-53404649D01*
X82943544Y-53408580D01*
X82943545Y-53408581D01*
X83093665Y-53538850D01*
X83093670Y-53538854D01*
X83098196Y-53542781D01*
X83280626Y-53648319D01*
X83479722Y-53717457D01*
X83485101Y-53718237D01*
X83546384Y-53753706D01*
X83578848Y-53816845D01*
X83581100Y-53840558D01*
X83581100Y-56801429D01*
X83561098Y-56869550D01*
X83503317Y-56917838D01*
X83498472Y-56919845D01*
X83486299Y-56922266D01*
X83480267Y-56926297D01*
X83413227Y-56933504D01*
X83392698Y-56927476D01*
X83384901Y-56922266D01*
X83310667Y-56907500D01*
X82785685Y-56907500D01*
X82260534Y-56907501D01*
X82224782Y-56914612D01*
X82198474Y-56919844D01*
X82198472Y-56919845D01*
X82186299Y-56922266D01*
X82175979Y-56929161D01*
X82175978Y-56929162D01*
X82115585Y-56969516D01*
X82102116Y-56978516D01*
X82045866Y-57062699D01*
X82031100Y-57136933D01*
X82031100Y-57281500D01*
X82011098Y-57349621D01*
X81957442Y-57396114D01*
X81905100Y-57407500D01*
X80279100Y-57407500D01*
X80210979Y-57387498D01*
X80164486Y-57333842D01*
X80153100Y-57281500D01*
X80153100Y-57239244D01*
X80150456Y-57214905D01*
X80147251Y-57185403D01*
X80147251Y-57185402D01*
X80146398Y-57177552D01*
X80095671Y-57042236D01*
X80090291Y-57035057D01*
X80090289Y-57035054D01*
X80014385Y-56933776D01*
X80009004Y-56926596D01*
X79985135Y-56908707D01*
X79900546Y-56845311D01*
X79900543Y-56845309D01*
X79893364Y-56839929D01*
X79771362Y-56794193D01*
X79765443Y-56791974D01*
X79765441Y-56791974D01*
X79758048Y-56789202D01*
X79750198Y-56788349D01*
X79750197Y-56788349D01*
X79699753Y-56782869D01*
X79699752Y-56782869D01*
X79696356Y-56782500D01*
X78800844Y-56782500D01*
X78797448Y-56782869D01*
X78797447Y-56782869D01*
X78747003Y-56788349D01*
X78747002Y-56788349D01*
X78739152Y-56789202D01*
X78731759Y-56791974D01*
X78731757Y-56791974D01*
X78725838Y-56794193D01*
X78603836Y-56839929D01*
X78596657Y-56845309D01*
X78596654Y-56845311D01*
X78512065Y-56908707D01*
X78488196Y-56926596D01*
X78482815Y-56933776D01*
X78406911Y-57035054D01*
X78406909Y-57035057D01*
X78401529Y-57042236D01*
X78350802Y-57177552D01*
X78349949Y-57185402D01*
X78349949Y-57185403D01*
X78346744Y-57214905D01*
X78344100Y-57239244D01*
X78344100Y-58584756D01*
X78350802Y-58646448D01*
X78401529Y-58781764D01*
X78406909Y-58788943D01*
X78406911Y-58788946D01*
X78420265Y-58806764D01*
X78488196Y-58897404D01*
X78495376Y-58902785D01*
X78596654Y-58978689D01*
X78596657Y-58978691D01*
X78603836Y-58984071D01*
X78678927Y-59012221D01*
X78731757Y-59032026D01*
X78731759Y-59032026D01*
X78739152Y-59034798D01*
X78747002Y-59035651D01*
X78747003Y-59035651D01*
X78797447Y-59041131D01*
X78800844Y-59041500D01*
X79696356Y-59041500D01*
X79699753Y-59041131D01*
X79750197Y-59035651D01*
X79750198Y-59035651D01*
X79758048Y-59034798D01*
X79765441Y-59032026D01*
X79765443Y-59032026D01*
X79818273Y-59012221D01*
X79893364Y-58984071D01*
X79900543Y-58978691D01*
X79900546Y-58978689D01*
X80001824Y-58902785D01*
X80009004Y-58897404D01*
X80076935Y-58806764D01*
X80090289Y-58788946D01*
X80090291Y-58788943D01*
X80095671Y-58781764D01*
X80146398Y-58646448D01*
X80153100Y-58584756D01*
X80153100Y-58542500D01*
X80173102Y-58474379D01*
X80226758Y-58427886D01*
X80279100Y-58416500D01*
X81905101Y-58416500D01*
X81973222Y-58436502D01*
X82019715Y-58490158D01*
X82031101Y-58542500D01*
X82031101Y-58687066D01*
X82045866Y-58761301D01*
X82051497Y-58769728D01*
X82058917Y-58838750D01*
X82027137Y-58902236D01*
X81966079Y-58938463D01*
X81944804Y-58941989D01*
X81746802Y-58957572D01*
X81737054Y-58959115D01*
X81515873Y-59012217D01*
X81506488Y-59015266D01*
X81296337Y-59102313D01*
X81287542Y-59106795D01*
X81120055Y-59209432D01*
X81110593Y-59219890D01*
X81114376Y-59228666D01*
X81965688Y-60079978D01*
X81979632Y-60087592D01*
X81981465Y-60087461D01*
X81988080Y-60083210D01*
X82839580Y-59231710D01*
X82846340Y-59219330D01*
X82840614Y-59211681D01*
X82739849Y-59149931D01*
X82692218Y-59097283D01*
X82680612Y-59027242D01*
X82708716Y-58962044D01*
X82767606Y-58922391D01*
X82805682Y-58916499D01*
X83310666Y-58916499D01*
X83384901Y-58901734D01*
X83390933Y-58897703D01*
X83457973Y-58890496D01*
X83478502Y-58896524D01*
X83486299Y-58901734D01*
X83560533Y-58916500D01*
X83616184Y-58916500D01*
X84033438Y-58916499D01*
X84101559Y-58936501D01*
X84122533Y-58953404D01*
X84721718Y-59552589D01*
X84755744Y-59614901D01*
X84750679Y-59685716D01*
X84708132Y-59742552D01*
X84641612Y-59767363D01*
X84601927Y-59763888D01*
X84529012Y-59745573D01*
X84521643Y-59743722D01*
X84514044Y-59743682D01*
X84514043Y-59743682D01*
X84448191Y-59743337D01*
X84363231Y-59742892D01*
X84355851Y-59744664D01*
X84355849Y-59744664D01*
X84216573Y-59778101D01*
X84216570Y-59778102D01*
X84209194Y-59779873D01*
X84068424Y-59852530D01*
X83949049Y-59956668D01*
X83857960Y-60086274D01*
X83850340Y-60105819D01*
X83804443Y-60223539D01*
X83800416Y-60233867D01*
X83799424Y-60241400D01*
X83799424Y-60241401D01*
X83780785Y-60382983D01*
X83779739Y-60390926D01*
X83797123Y-60548383D01*
X83799733Y-60555514D01*
X83799733Y-60555516D01*
X83848153Y-60687830D01*
X83851563Y-60697149D01*
X83855799Y-60703452D01*
X83855799Y-60703453D01*
X83930965Y-60815311D01*
X83939918Y-60828635D01*
X83945537Y-60833748D01*
X83945538Y-60833749D01*
X84048350Y-60927300D01*
X84057086Y-60935249D01*
X84196303Y-61010838D01*
X84322106Y-61043842D01*
X84349532Y-61051037D01*
X84349073Y-61052788D01*
X84405072Y-61077906D01*
X84412300Y-61084591D01*
X85127903Y-61800194D01*
X85135445Y-61809634D01*
X85135825Y-61809311D01*
X85141643Y-61816147D01*
X85146433Y-61823739D01*
X85153161Y-61829681D01*
X85186439Y-61859071D01*
X85192126Y-61864417D01*
X85203460Y-61875751D01*
X85204182Y-61876292D01*
X85242058Y-61935275D01*
X85242031Y-62006272D01*
X85203624Y-62065984D01*
X85185286Y-62079182D01*
X85174926Y-62085309D01*
X85162496Y-62094951D01*
X85056151Y-62201296D01*
X85046511Y-62213722D01*
X84969952Y-62343179D01*
X84963707Y-62357610D01*
X84924661Y-62492005D01*
X84924701Y-62506106D01*
X84931970Y-62509400D01*
X87861478Y-62509400D01*
X87875009Y-62505427D01*
X87876144Y-62497529D01*
X87835493Y-62357610D01*
X87829248Y-62343179D01*
X87752689Y-62213722D01*
X87743049Y-62201296D01*
X87636704Y-62094951D01*
X87624277Y-62085311D01*
X87592075Y-62066267D01*
X87543622Y-62014374D01*
X87530917Y-61944523D01*
X87553018Y-61887031D01*
X87555926Y-61884123D01*
X87561806Y-61872584D01*
X87609597Y-61778788D01*
X87614098Y-61769955D01*
X87629100Y-61675234D01*
X87629100Y-61311566D01*
X87614098Y-61216845D01*
X87562346Y-61115277D01*
X87549242Y-61045501D01*
X87567295Y-61001021D01*
X87518915Y-61019066D01*
X87452723Y-61005654D01*
X87443630Y-61001021D01*
X87351155Y-60953902D01*
X87256434Y-60938900D01*
X85745741Y-60938900D01*
X85677620Y-60918898D01*
X85656646Y-60901995D01*
X85121625Y-60366974D01*
X85087599Y-60304662D01*
X85085636Y-60293039D01*
X85079286Y-60240563D01*
X85078191Y-60237665D01*
X85081283Y-60168657D01*
X85122301Y-60110708D01*
X85188137Y-60084135D01*
X85257888Y-60097374D01*
X85289564Y-60120435D01*
X85369123Y-60199994D01*
X85376665Y-60209434D01*
X85377045Y-60209111D01*
X85382863Y-60215947D01*
X85387653Y-60223539D01*
X85394381Y-60229481D01*
X85427659Y-60258871D01*
X85433346Y-60264217D01*
X85444680Y-60275551D01*
X85448266Y-60278238D01*
X85448271Y-60278243D01*
X85452959Y-60281757D01*
X85460797Y-60288138D01*
X85479458Y-60304618D01*
X85495970Y-60319201D01*
X85504095Y-60323016D01*
X85506916Y-60324869D01*
X85520912Y-60333277D01*
X85523850Y-60334886D01*
X85531036Y-60340271D01*
X85539441Y-60343422D01*
X85539443Y-60343423D01*
X85574978Y-60356744D01*
X85584292Y-60360668D01*
X85626782Y-60380617D01*
X85635653Y-60381998D01*
X85638875Y-60382983D01*
X85654658Y-60387123D01*
X85657942Y-60387845D01*
X85666352Y-60390998D01*
X85713157Y-60394476D01*
X85723197Y-60395629D01*
X85729466Y-60396605D01*
X85731686Y-60396951D01*
X85731687Y-60396951D01*
X85736497Y-60397700D01*
X85751866Y-60397700D01*
X85761204Y-60398047D01*
X85801516Y-60401043D01*
X85801517Y-60401043D01*
X85810467Y-60401708D01*
X85819242Y-60399835D01*
X85827926Y-60399243D01*
X85842542Y-60397700D01*
X87140239Y-60397700D01*
X87208360Y-60417702D01*
X87229334Y-60434605D01*
X87599021Y-60804292D01*
X87633047Y-60866604D01*
X87627982Y-60937419D01*
X87619089Y-60949299D01*
X87633969Y-60938809D01*
X87704901Y-60935768D01*
X87763708Y-60968979D01*
X89864923Y-63070194D01*
X89872465Y-63079634D01*
X89872845Y-63079311D01*
X89878663Y-63086147D01*
X89883453Y-63093739D01*
X89890181Y-63099681D01*
X89923459Y-63129071D01*
X89929146Y-63134417D01*
X89940480Y-63145751D01*
X89944066Y-63148438D01*
X89944071Y-63148443D01*
X89948759Y-63151957D01*
X89956597Y-63158338D01*
X89959763Y-63161134D01*
X89991770Y-63189401D01*
X89999895Y-63193216D01*
X90002716Y-63195069D01*
X90016712Y-63203477D01*
X90019650Y-63205086D01*
X90026836Y-63210471D01*
X90035241Y-63213622D01*
X90035243Y-63213623D01*
X90070778Y-63226944D01*
X90080092Y-63230868D01*
X90094676Y-63237715D01*
X90109609Y-63244726D01*
X90122582Y-63250817D01*
X90131453Y-63252198D01*
X90134675Y-63253183D01*
X90150458Y-63257323D01*
X90153742Y-63258045D01*
X90162152Y-63261198D01*
X90208957Y-63264676D01*
X90218997Y-63265829D01*
X90225266Y-63266805D01*
X90227486Y-63267151D01*
X90227487Y-63267151D01*
X90232297Y-63267900D01*
X90247666Y-63267900D01*
X90257004Y-63268247D01*
X90306267Y-63271908D01*
X90306168Y-63273242D01*
X90362400Y-63284736D01*
X90365151Y-63286138D01*
X90416763Y-63334891D01*
X90433823Y-63403807D01*
X90410916Y-63471007D01*
X90365141Y-63510667D01*
X90356309Y-63515167D01*
X90299107Y-63528900D01*
X89986630Y-63528900D01*
X89974622Y-63527558D01*
X89974582Y-63528054D01*
X89965631Y-63527334D01*
X89956877Y-63525353D01*
X89926430Y-63527242D01*
X89903607Y-63528658D01*
X89895805Y-63528900D01*
X89879774Y-63528900D01*
X89869541Y-63530365D01*
X89859489Y-63531395D01*
X89830085Y-63533220D01*
X89821601Y-63533746D01*
X89821600Y-63533746D01*
X89812642Y-63534302D01*
X89804199Y-63537350D01*
X89800920Y-63538029D01*
X89785055Y-63541984D01*
X89781831Y-63542927D01*
X89772948Y-63544199D01*
X89764779Y-63547913D01*
X89764773Y-63547915D01*
X89730221Y-63563625D01*
X89720853Y-63567439D01*
X89676716Y-63583372D01*
X89669466Y-63588669D01*
X89666499Y-63590246D01*
X89652386Y-63598493D01*
X89649563Y-63600298D01*
X89641395Y-63604012D01*
X89634598Y-63609869D01*
X89634596Y-63609870D01*
X89605847Y-63634643D01*
X89597936Y-63640925D01*
X89587056Y-63648873D01*
X89576194Y-63659735D01*
X89569348Y-63666093D01*
X89531918Y-63698344D01*
X89527034Y-63705879D01*
X89521301Y-63712451D01*
X89512074Y-63723855D01*
X87844195Y-65391734D01*
X87781883Y-65425760D01*
X87711068Y-65420695D01*
X87654232Y-65378148D01*
X87629421Y-65311628D01*
X87629100Y-65302639D01*
X87629100Y-65121566D01*
X87614098Y-65026845D01*
X87555926Y-64912677D01*
X87465323Y-64822074D01*
X87384058Y-64780667D01*
X87332443Y-64731918D01*
X87315377Y-64663003D01*
X87338278Y-64595802D01*
X87384058Y-64556133D01*
X87389913Y-64553150D01*
X87465323Y-64514726D01*
X87555926Y-64424123D01*
X87614098Y-64309955D01*
X87629100Y-64215234D01*
X87629100Y-63851566D01*
X87614098Y-63756845D01*
X87555926Y-63642677D01*
X87553158Y-63639909D01*
X87530420Y-63576183D01*
X87546499Y-63507031D01*
X87592075Y-63460533D01*
X87624277Y-63441489D01*
X87636704Y-63431849D01*
X87743049Y-63325504D01*
X87752689Y-63313078D01*
X87829248Y-63183621D01*
X87835493Y-63169190D01*
X87874539Y-63034795D01*
X87874499Y-63020694D01*
X87867230Y-63017400D01*
X84937722Y-63017400D01*
X84924191Y-63021373D01*
X84923056Y-63029271D01*
X84963707Y-63169190D01*
X84969952Y-63183621D01*
X85046511Y-63313078D01*
X85056151Y-63325504D01*
X85119452Y-63388805D01*
X85153478Y-63451117D01*
X85148413Y-63521932D01*
X85105866Y-63578768D01*
X85039346Y-63603579D01*
X85030357Y-63603900D01*
X84931755Y-63603900D01*
X84863634Y-63583898D01*
X84847936Y-63571977D01*
X84825597Y-63552074D01*
X84729675Y-63466611D01*
X84722289Y-63462700D01*
X84596388Y-63396039D01*
X84596389Y-63396039D01*
X84589674Y-63392484D01*
X84436033Y-63353892D01*
X84428434Y-63353852D01*
X84428433Y-63353852D01*
X84362581Y-63353507D01*
X84277621Y-63353062D01*
X84270241Y-63354834D01*
X84270239Y-63354834D01*
X84224934Y-63365711D01*
X84123584Y-63390043D01*
X84116835Y-63393526D01*
X84113421Y-63394796D01*
X84042601Y-63399794D01*
X83980321Y-63365711D01*
X83946354Y-63303366D01*
X83943500Y-63276699D01*
X83943500Y-62656230D01*
X83944842Y-62644222D01*
X83944346Y-62644182D01*
X83945066Y-62635231D01*
X83947047Y-62626477D01*
X83943742Y-62573207D01*
X83943500Y-62565405D01*
X83943500Y-62549374D01*
X83942035Y-62539141D01*
X83941004Y-62529081D01*
X83939810Y-62509826D01*
X83938098Y-62482242D01*
X83935050Y-62473798D01*
X83934371Y-62470520D01*
X83930416Y-62454655D01*
X83929473Y-62451431D01*
X83928201Y-62442548D01*
X83924487Y-62434379D01*
X83924485Y-62434373D01*
X83908775Y-62399821D01*
X83904961Y-62390452D01*
X83896706Y-62367585D01*
X83889028Y-62346316D01*
X83883731Y-62339066D01*
X83882154Y-62336099D01*
X83873907Y-62321986D01*
X83872102Y-62319163D01*
X83868388Y-62310995D01*
X83853766Y-62294025D01*
X83844088Y-62282794D01*
X83837753Y-62275442D01*
X83831475Y-62267536D01*
X83823527Y-62256656D01*
X83812665Y-62245794D01*
X83806307Y-62238947D01*
X83787116Y-62216675D01*
X83774056Y-62201518D01*
X83766521Y-62196634D01*
X83759949Y-62190901D01*
X83748545Y-62181674D01*
X83236077Y-61669206D01*
X83228535Y-61659766D01*
X83228155Y-61660089D01*
X83222337Y-61653253D01*
X83217547Y-61645661D01*
X83177540Y-61610328D01*
X83171854Y-61604983D01*
X83160520Y-61593649D01*
X83156939Y-61590966D01*
X83154870Y-61589171D01*
X83116509Y-61529430D01*
X83116536Y-61458434D01*
X83141608Y-61412147D01*
X83199057Y-61344883D01*
X83204857Y-61336899D01*
X83323705Y-61142958D01*
X83328187Y-61134163D01*
X83415234Y-60924012D01*
X83418283Y-60914627D01*
X83471385Y-60693446D01*
X83472928Y-60683699D01*
X83490775Y-60456930D01*
X83490775Y-60447070D01*
X83472928Y-60220301D01*
X83471385Y-60210554D01*
X83418283Y-59989373D01*
X83415234Y-59979988D01*
X83328187Y-59769837D01*
X83323705Y-59761042D01*
X83221068Y-59593555D01*
X83210610Y-59584093D01*
X83201834Y-59587876D01*
X82067595Y-60722115D01*
X82005283Y-60756141D01*
X81934468Y-60751076D01*
X81889405Y-60722115D01*
X80758210Y-59590920D01*
X80745830Y-59584160D01*
X80738180Y-59589887D01*
X80633295Y-59761042D01*
X80628813Y-59769837D01*
X80541766Y-59979988D01*
X80538717Y-59989373D01*
X80485615Y-60210554D01*
X80484072Y-60220301D01*
X80466225Y-60447070D01*
X80466225Y-60456930D01*
X80484072Y-60683699D01*
X80485615Y-60693446D01*
X80538717Y-60914627D01*
X80541766Y-60924012D01*
X80628813Y-61134163D01*
X80633295Y-61142958D01*
X80717070Y-61279665D01*
X80735609Y-61348198D01*
X80714153Y-61415875D01*
X80659514Y-61461208D01*
X80609638Y-61471500D01*
X78975761Y-61471500D01*
X78907640Y-61451498D01*
X78886666Y-61434595D01*
X76690005Y-59237934D01*
X76655979Y-59175622D01*
X76653100Y-59148839D01*
X76653100Y-59123981D01*
X76673102Y-59055860D01*
X76726758Y-59009367D01*
X76734871Y-59005999D01*
X76752471Y-58999401D01*
X76793364Y-58984071D01*
X76800543Y-58978691D01*
X76800546Y-58978689D01*
X76901824Y-58902785D01*
X76909004Y-58897404D01*
X76976935Y-58806764D01*
X76990289Y-58788946D01*
X76990291Y-58788943D01*
X76995671Y-58781764D01*
X77046398Y-58646448D01*
X77053100Y-58584756D01*
X77053100Y-57239244D01*
X77050456Y-57214905D01*
X77047251Y-57185403D01*
X77047251Y-57185402D01*
X77046398Y-57177552D01*
X76995671Y-57042236D01*
X76990291Y-57035057D01*
X76990289Y-57035054D01*
X76914385Y-56933776D01*
X76909004Y-56926596D01*
X76885135Y-56908707D01*
X76800546Y-56845311D01*
X76800543Y-56845309D01*
X76793364Y-56839929D01*
X76752471Y-56824599D01*
X76734871Y-56818001D01*
X76678106Y-56775360D01*
X76653406Y-56708798D01*
X76653100Y-56700019D01*
X76653100Y-56014762D01*
X76673102Y-55946641D01*
X76690004Y-55925667D01*
X77362665Y-55253005D01*
X77424978Y-55218980D01*
X77451761Y-55216100D01*
X79456776Y-55216100D01*
X79468781Y-55217441D01*
X79468821Y-55216945D01*
X79477768Y-55217665D01*
X79486524Y-55219646D01*
X79539782Y-55216342D01*
X79547584Y-55216100D01*
X79563626Y-55216100D01*
X79568057Y-55215465D01*
X79568062Y-55215465D01*
X79572087Y-55214888D01*
X79573857Y-55214635D01*
X79583914Y-55213604D01*
X79606376Y-55212211D01*
X79621800Y-55211254D01*
X79621802Y-55211254D01*
X79630759Y-55210698D01*
X79639199Y-55207651D01*
X79642489Y-55206970D01*
X79658338Y-55203018D01*
X79661568Y-55202073D01*
X79670452Y-55200801D01*
X79713163Y-55181382D01*
X79722528Y-55177570D01*
X79758237Y-55164678D01*
X79758240Y-55164676D01*
X79766684Y-55161628D01*
X79773933Y-55156332D01*
X79776890Y-55154760D01*
X79791014Y-55146507D01*
X79793837Y-55144702D01*
X79802005Y-55140988D01*
X79808802Y-55135131D01*
X79808804Y-55135130D01*
X79837553Y-55110357D01*
X79845464Y-55104075D01*
X79856344Y-55096127D01*
X79867206Y-55085265D01*
X79874053Y-55078907D01*
X79904682Y-55052515D01*
X79911482Y-55046656D01*
X79916366Y-55039121D01*
X79922099Y-55032549D01*
X79931326Y-55021145D01*
X81171058Y-53781413D01*
X81233370Y-53747387D01*
X81254324Y-53744643D01*
X81398833Y-53737955D01*
X81529128Y-53706554D01*
X81597893Y-53689982D01*
X81597895Y-53689981D01*
X81603726Y-53688576D01*
X81609184Y-53686094D01*
X81609188Y-53686093D01*
X81786914Y-53605285D01*
X81795584Y-53601343D01*
X81936857Y-53501131D01*
X81962600Y-53482870D01*
X81962601Y-53482869D01*
X81967486Y-53479404D01*
X82113228Y-53327160D01*
X82170210Y-53238910D01*
X82224300Y-53155140D01*
X82224301Y-53155137D01*
X82227552Y-53150103D01*
X82306334Y-52954622D01*
X82342681Y-52768500D01*
X82345861Y-52752217D01*
X82345861Y-52752214D01*
X82346729Y-52747771D01*
X82347000Y-52742230D01*
X82347000Y-52336841D01*
X82332007Y-52179694D01*
X82305388Y-52088957D01*
X82274368Y-51983222D01*
X82272677Y-51977458D01*
X82221915Y-51878897D01*
X82178922Y-51795421D01*
X82178920Y-51795418D01*
X82176176Y-51790090D01*
X82106855Y-51701840D01*
X82049692Y-51629068D01*
X82049688Y-51629064D01*
X82045986Y-51624351D01*
X82033379Y-51613411D01*
X81891335Y-51490150D01*
X81891330Y-51490146D01*
X81886804Y-51486219D01*
X81704374Y-51380681D01*
X81505278Y-51311543D01*
X81499345Y-51310683D01*
X81499342Y-51310682D01*
X81302640Y-51282162D01*
X81302637Y-51282162D01*
X81296700Y-51281301D01*
X81086167Y-51291045D01*
X81080343Y-51292449D01*
X81080340Y-51292449D01*
X80887107Y-51339018D01*
X80887105Y-51339019D01*
X80881274Y-51340424D01*
X80875816Y-51342906D01*
X80875812Y-51342907D01*
X80810507Y-51372600D01*
X80689416Y-51427657D01*
X80667141Y-51443458D01*
X80531148Y-51539925D01*
X80517514Y-51549596D01*
X80371772Y-51701840D01*
X80368521Y-51706875D01*
X80299880Y-51813182D01*
X80257448Y-51878897D01*
X80178666Y-52074378D01*
X80138271Y-52281229D01*
X80138000Y-52286770D01*
X80138000Y-52692159D01*
X80152993Y-52849306D01*
X80212323Y-53051542D01*
X80215073Y-53056881D01*
X80259167Y-53142496D01*
X80272576Y-53212215D01*
X80246163Y-53278116D01*
X80236246Y-53289283D01*
X79355334Y-54170195D01*
X79293022Y-54204221D01*
X79266239Y-54207100D01*
X77261230Y-54207100D01*
X77249222Y-54205758D01*
X77249182Y-54206254D01*
X77240231Y-54205534D01*
X77231477Y-54203553D01*
X77201030Y-54205442D01*
X77178207Y-54206858D01*
X77170405Y-54207100D01*
X77154374Y-54207100D01*
X77144141Y-54208565D01*
X77134089Y-54209595D01*
X77104685Y-54211420D01*
X77096201Y-54211946D01*
X77096200Y-54211946D01*
X77087242Y-54212502D01*
X77078799Y-54215550D01*
X77075520Y-54216229D01*
X77059655Y-54220184D01*
X77056431Y-54221127D01*
X77047548Y-54222399D01*
X77039379Y-54226113D01*
X77039373Y-54226115D01*
X77004821Y-54241825D01*
X76995453Y-54245639D01*
X76951316Y-54261572D01*
X76944066Y-54266869D01*
X76941099Y-54268446D01*
X76926986Y-54276693D01*
X76924163Y-54278498D01*
X76915995Y-54282212D01*
X76909198Y-54288069D01*
X76909196Y-54288070D01*
X76880447Y-54312843D01*
X76872536Y-54319125D01*
X76861656Y-54327073D01*
X76850794Y-54337935D01*
X76843948Y-54344293D01*
X76806518Y-54376544D01*
X76801634Y-54384079D01*
X76795901Y-54390651D01*
X76786674Y-54402055D01*
X75841806Y-55346923D01*
X75832366Y-55354465D01*
X75832689Y-55354845D01*
X75825853Y-55360663D01*
X75818261Y-55365453D01*
X75812319Y-55372181D01*
X75782929Y-55405459D01*
X75777583Y-55411146D01*
X75766249Y-55422480D01*
X75763564Y-55426063D01*
X75763562Y-55426065D01*
X75760047Y-55430755D01*
X75753662Y-55438598D01*
X75722599Y-55473770D01*
X75718786Y-55481892D01*
X75716946Y-55484693D01*
X75708537Y-55498688D01*
X75706915Y-55501651D01*
X75701530Y-55508836D01*
X75698377Y-55517246D01*
X75698376Y-55517248D01*
X75685054Y-55552782D01*
X75681130Y-55562095D01*
X75661183Y-55604582D01*
X75659801Y-55613456D01*
X75658815Y-55616683D01*
X75654675Y-55632466D01*
X75653954Y-55635744D01*
X75650802Y-55644152D01*
X75649805Y-55657568D01*
X75647324Y-55690957D01*
X75646170Y-55701004D01*
X75644100Y-55714297D01*
X75644100Y-55729662D01*
X75643754Y-55738999D01*
X75640093Y-55788267D01*
X75641966Y-55797042D01*
X75642559Y-55805738D01*
X75644100Y-55820338D01*
X75644100Y-56700019D01*
X75624098Y-56768140D01*
X75570442Y-56814633D01*
X75562329Y-56818001D01*
X75544729Y-56824599D01*
X75503836Y-56839929D01*
X75496657Y-56845309D01*
X75496654Y-56845311D01*
X75412065Y-56908707D01*
X75388196Y-56926596D01*
X75382815Y-56933776D01*
X75306911Y-57035054D01*
X75306909Y-57035057D01*
X75301529Y-57042236D01*
X75250802Y-57177552D01*
X75249949Y-57185402D01*
X75249949Y-57185403D01*
X75246744Y-57214905D01*
X75244100Y-57239244D01*
X75244100Y-58584756D01*
X75250802Y-58646448D01*
X75301529Y-58781764D01*
X75306909Y-58788943D01*
X75306911Y-58788946D01*
X75320265Y-58806764D01*
X75388196Y-58897404D01*
X75395376Y-58902785D01*
X75496654Y-58978689D01*
X75496657Y-58978691D01*
X75503836Y-58984071D01*
X75544729Y-58999401D01*
X75562329Y-59005999D01*
X75619094Y-59048640D01*
X75643794Y-59115202D01*
X75644100Y-59123981D01*
X75644100Y-59339376D01*
X75642759Y-59351381D01*
X75643255Y-59351421D01*
X75642535Y-59360368D01*
X75640554Y-59369124D01*
X75642632Y-59402620D01*
X75643858Y-59422382D01*
X75644100Y-59430184D01*
X75644100Y-59446226D01*
X75644735Y-59450657D01*
X75644735Y-59450662D01*
X75645565Y-59456453D01*
X75646596Y-59466514D01*
X75649502Y-59513359D01*
X75652549Y-59521799D01*
X75653230Y-59525089D01*
X75657182Y-59540938D01*
X75658127Y-59544168D01*
X75659399Y-59553052D01*
X75663114Y-59561223D01*
X75678818Y-59595763D01*
X75682630Y-59605128D01*
X75695522Y-59640837D01*
X75695524Y-59640840D01*
X75698572Y-59649284D01*
X75703868Y-59656533D01*
X75705440Y-59659490D01*
X75713693Y-59673614D01*
X75715498Y-59676437D01*
X75719212Y-59684605D01*
X75725069Y-59691402D01*
X75725070Y-59691404D01*
X75749843Y-59720153D01*
X75756125Y-59728064D01*
X75764073Y-59738944D01*
X75774935Y-59749806D01*
X75781293Y-59756652D01*
X75813544Y-59794082D01*
X75821079Y-59798966D01*
X75827651Y-59804699D01*
X75839055Y-59813926D01*
X78307923Y-62282794D01*
X78315465Y-62292234D01*
X78315845Y-62291911D01*
X78321663Y-62298747D01*
X78326453Y-62306339D01*
X78333181Y-62312281D01*
X78366459Y-62341671D01*
X78372146Y-62347017D01*
X78383480Y-62358351D01*
X78387063Y-62361036D01*
X78387065Y-62361038D01*
X78391755Y-62364553D01*
X78399598Y-62370938D01*
X78434770Y-62402001D01*
X78442892Y-62405814D01*
X78445693Y-62407654D01*
X78459688Y-62416063D01*
X78462651Y-62417685D01*
X78469836Y-62423070D01*
X78478246Y-62426223D01*
X78478248Y-62426224D01*
X78513782Y-62439546D01*
X78523095Y-62443470D01*
X78565582Y-62463417D01*
X78574455Y-62464798D01*
X78582657Y-62467306D01*
X78641954Y-62506351D01*
X78670728Y-62571255D01*
X78659844Y-62641413D01*
X78612759Y-62694549D01*
X78545819Y-62713801D01*
X78296534Y-62713801D01*
X78260917Y-62720885D01*
X78234474Y-62726144D01*
X78234472Y-62726145D01*
X78222299Y-62728566D01*
X78211979Y-62735461D01*
X78211978Y-62735462D01*
X78178750Y-62757665D01*
X78138116Y-62784816D01*
X78081866Y-62868999D01*
X78067100Y-62943233D01*
X78067101Y-64793366D01*
X78079484Y-64855624D01*
X78073155Y-64926336D01*
X78045000Y-64969297D01*
X76383009Y-66631288D01*
X76320697Y-66665314D01*
X76249882Y-66660249D01*
X76193088Y-66617758D01*
X76131197Y-66535177D01*
X76107004Y-66502896D01*
X76041383Y-66453716D01*
X75998546Y-66421611D01*
X75998543Y-66421609D01*
X75991364Y-66416229D01*
X75897443Y-66381020D01*
X75863443Y-66368274D01*
X75863441Y-66368274D01*
X75856048Y-66365502D01*
X75848198Y-66364649D01*
X75848197Y-66364649D01*
X75797753Y-66359169D01*
X75797752Y-66359169D01*
X75794356Y-66358800D01*
X74898844Y-66358800D01*
X74895448Y-66359169D01*
X74895447Y-66359169D01*
X74845003Y-66364649D01*
X74845002Y-66364649D01*
X74837152Y-66365502D01*
X74829759Y-66368274D01*
X74829757Y-66368274D01*
X74795757Y-66381020D01*
X74701836Y-66416229D01*
X74694657Y-66421609D01*
X74694654Y-66421611D01*
X74651817Y-66453716D01*
X74586196Y-66502896D01*
X74573591Y-66519715D01*
X74504911Y-66611354D01*
X74504909Y-66611357D01*
X74499529Y-66618536D01*
X74478833Y-66673744D01*
X74454183Y-66739499D01*
X74448802Y-66753852D01*
X74442100Y-66815544D01*
X74442100Y-69811056D01*
X74448802Y-69872748D01*
X74499529Y-70008064D01*
X74504909Y-70015243D01*
X74504911Y-70015246D01*
X74547123Y-70071569D01*
X74586196Y-70123704D01*
X74593376Y-70129085D01*
X74694654Y-70204989D01*
X74694657Y-70204991D01*
X74701836Y-70210371D01*
X74781398Y-70240197D01*
X74829757Y-70258326D01*
X74829759Y-70258326D01*
X74837152Y-70261098D01*
X74845002Y-70261951D01*
X74845003Y-70261951D01*
X74895447Y-70267431D01*
X74898844Y-70267800D01*
X75794356Y-70267800D01*
X75797753Y-70267431D01*
X75848197Y-70261951D01*
X75848198Y-70261951D01*
X75856048Y-70261098D01*
X75863441Y-70258326D01*
X75863443Y-70258326D01*
X75911802Y-70240197D01*
X75991364Y-70210371D01*
X75998543Y-70204991D01*
X75998546Y-70204989D01*
X76099824Y-70129085D01*
X76107004Y-70123704D01*
X76146077Y-70071569D01*
X76188289Y-70015246D01*
X76188291Y-70015243D01*
X76193671Y-70008064D01*
X76244398Y-69872748D01*
X76251100Y-69811056D01*
X78892100Y-69811056D01*
X78898802Y-69872748D01*
X78949529Y-70008064D01*
X78954909Y-70015243D01*
X78954911Y-70015246D01*
X78997123Y-70071569D01*
X79036196Y-70123704D01*
X79043376Y-70129085D01*
X79144654Y-70204989D01*
X79144657Y-70204991D01*
X79151836Y-70210371D01*
X79231398Y-70240197D01*
X79279757Y-70258326D01*
X79279759Y-70258326D01*
X79287152Y-70261098D01*
X79295002Y-70261951D01*
X79295003Y-70261951D01*
X79345447Y-70267431D01*
X79348844Y-70267800D01*
X80244356Y-70267800D01*
X80247753Y-70267431D01*
X80298197Y-70261951D01*
X80298198Y-70261951D01*
X80306048Y-70261098D01*
X80313441Y-70258326D01*
X80313443Y-70258326D01*
X80361802Y-70240197D01*
X80441364Y-70210371D01*
X80448543Y-70204991D01*
X80448546Y-70204989D01*
X80549824Y-70129085D01*
X80557004Y-70123704D01*
X80596077Y-70071569D01*
X80638289Y-70015246D01*
X80638291Y-70015243D01*
X80643671Y-70008064D01*
X80694398Y-69872748D01*
X80701100Y-69811056D01*
X80701100Y-69093800D01*
X80721102Y-69025679D01*
X80774758Y-68979186D01*
X80827100Y-68967800D01*
X81744579Y-68967800D01*
X81756320Y-68968353D01*
X81764017Y-68970074D01*
X81771943Y-68969825D01*
X81771944Y-68969825D01*
X81834407Y-68967862D01*
X81838365Y-68967800D01*
X81867278Y-68967800D01*
X81871197Y-68967305D01*
X81871199Y-68967305D01*
X81871625Y-68967251D01*
X81883439Y-68966322D01*
X81921381Y-68965129D01*
X81921382Y-68965129D01*
X81929300Y-68964880D01*
X81949715Y-68958949D01*
X81969073Y-68954940D01*
X81972767Y-68954473D01*
X81982295Y-68953270D01*
X81982297Y-68953270D01*
X81990161Y-68952276D01*
X81997534Y-68949357D01*
X82032812Y-68935390D01*
X82044041Y-68931545D01*
X82048861Y-68930145D01*
X82088099Y-68918745D01*
X82106398Y-68907923D01*
X82124145Y-68899228D01*
X82143914Y-68891401D01*
X82181027Y-68864437D01*
X82190946Y-68857922D01*
X82223610Y-68838604D01*
X82230436Y-68834567D01*
X82233641Y-68831362D01*
X82298320Y-68805966D01*
X82353905Y-68817063D01*
X82341212Y-68783033D01*
X82356303Y-68713659D01*
X82364562Y-68700528D01*
X82387915Y-68668028D01*
X82390647Y-68664370D01*
X82400235Y-68652009D01*
X82432033Y-68611015D01*
X82435181Y-68603741D01*
X82436232Y-68601963D01*
X82438042Y-68598270D01*
X82441955Y-68592824D01*
X82444787Y-68585780D01*
X82444791Y-68585772D01*
X82468146Y-68527674D01*
X82469416Y-68524629D01*
X82494559Y-68466527D01*
X82494559Y-68466526D01*
X82497708Y-68459250D01*
X82498948Y-68451419D01*
X82499336Y-68450085D01*
X82501042Y-68445841D01*
X82509465Y-68386659D01*
X82511619Y-68371524D01*
X82511913Y-68369568D01*
X82522337Y-68303753D01*
X82522337Y-68303750D01*
X82523577Y-68295921D01*
X82523098Y-68290859D01*
X82523362Y-68289007D01*
X82523507Y-68275200D01*
X82515078Y-68205546D01*
X82514724Y-68202266D01*
X82508761Y-68139178D01*
X82508760Y-68139175D01*
X82508015Y-68131290D01*
X82505331Y-68123835D01*
X82505024Y-68122462D01*
X82504476Y-68117933D01*
X82485097Y-68066648D01*
X82477932Y-68047688D01*
X82477246Y-68045828D01*
X82455024Y-67984104D01*
X82451999Y-67975701D01*
X82449141Y-67971496D01*
X82448480Y-67969746D01*
X82441049Y-67958933D01*
X82401360Y-67901186D01*
X82400988Y-67900641D01*
X82363507Y-67845489D01*
X82363506Y-67845488D01*
X82359050Y-67838931D01*
X82353106Y-67833691D01*
X82353102Y-67833686D01*
X82303013Y-67789527D01*
X82302519Y-67789090D01*
X82298202Y-67785243D01*
X82260465Y-67751621D01*
X82243681Y-67736667D01*
X82243679Y-67736666D01*
X82240475Y-67733811D01*
X82238823Y-67732936D01*
X82235008Y-67729573D01*
X82212372Y-67718039D01*
X82168509Y-67695690D01*
X82166753Y-67694777D01*
X82107192Y-67663241D01*
X82100474Y-67659684D01*
X82096052Y-67658574D01*
X82094726Y-67658096D01*
X82087667Y-67654499D01*
X82018126Y-67638955D01*
X82014924Y-67638195D01*
X81954204Y-67622943D01*
X81954200Y-67622943D01*
X81946833Y-67621092D01*
X81940131Y-67621057D01*
X81936070Y-67620348D01*
X81934018Y-67620154D01*
X81926284Y-67618425D01*
X81918361Y-67618674D01*
X81918360Y-67618674D01*
X81897184Y-67619340D01*
X81858777Y-67620547D01*
X81854177Y-67620607D01*
X81788421Y-67620262D01*
X81781034Y-67622035D01*
X81774942Y-67622740D01*
X81771152Y-67623018D01*
X81768924Y-67623371D01*
X81761000Y-67623620D01*
X81699903Y-67641370D01*
X81694186Y-67642886D01*
X81642397Y-67655319D01*
X81612984Y-67658800D01*
X80827100Y-67658800D01*
X80758979Y-67638798D01*
X80712486Y-67585142D01*
X80701100Y-67532800D01*
X80701100Y-66815544D01*
X80694398Y-66753852D01*
X80689018Y-66739499D01*
X80664367Y-66673744D01*
X80643671Y-66618536D01*
X80638291Y-66611357D01*
X80638289Y-66611354D01*
X80569609Y-66519715D01*
X80557004Y-66502896D01*
X80491383Y-66453716D01*
X80448546Y-66421611D01*
X80448543Y-66421609D01*
X80441364Y-66416229D01*
X80347443Y-66381020D01*
X80313443Y-66368274D01*
X80313441Y-66368274D01*
X80306048Y-66365502D01*
X80298198Y-66364649D01*
X80298197Y-66364649D01*
X80247753Y-66359169D01*
X80247752Y-66359169D01*
X80244356Y-66358800D01*
X79348844Y-66358800D01*
X79345448Y-66359169D01*
X79345447Y-66359169D01*
X79295003Y-66364649D01*
X79295002Y-66364649D01*
X79287152Y-66365502D01*
X79279759Y-66368274D01*
X79279757Y-66368274D01*
X79245757Y-66381020D01*
X79151836Y-66416229D01*
X79144657Y-66421609D01*
X79144654Y-66421611D01*
X79101817Y-66453716D01*
X79036196Y-66502896D01*
X79023591Y-66519715D01*
X78954911Y-66611354D01*
X78954909Y-66611357D01*
X78949529Y-66618536D01*
X78928833Y-66673744D01*
X78904183Y-66739499D01*
X78898802Y-66753852D01*
X78892100Y-66815544D01*
X78892100Y-69811056D01*
X76251100Y-69811056D01*
X76251100Y-68666593D01*
X76271102Y-68598472D01*
X76288005Y-68577498D01*
X79805798Y-65059705D01*
X79868110Y-65025679D01*
X79894893Y-65022800D01*
X81634218Y-65022799D01*
X81846666Y-65022799D01*
X81887874Y-65014603D01*
X81908726Y-65010456D01*
X81908728Y-65010455D01*
X81920901Y-65008034D01*
X81931221Y-65001139D01*
X81931222Y-65001138D01*
X81994768Y-64958677D01*
X82005084Y-64951784D01*
X82061334Y-64867601D01*
X82076100Y-64793367D01*
X82076099Y-62943234D01*
X82061334Y-62868999D01*
X82035018Y-62829614D01*
X82011977Y-62795132D01*
X82005084Y-62784816D01*
X81920901Y-62728566D01*
X81908729Y-62726145D01*
X81900917Y-62722909D01*
X81845636Y-62678360D01*
X81823215Y-62610997D01*
X81840773Y-62542206D01*
X81892736Y-62493827D01*
X81949135Y-62480500D01*
X82568238Y-62480500D01*
X82636359Y-62500502D01*
X82657333Y-62517404D01*
X82897595Y-62757665D01*
X82931620Y-62819978D01*
X82934500Y-62846761D01*
X82934500Y-66274176D01*
X82933159Y-66286181D01*
X82933655Y-66286221D01*
X82932935Y-66295168D01*
X82930954Y-66303924D01*
X82932318Y-66325916D01*
X82934258Y-66357182D01*
X82934500Y-66364984D01*
X82934500Y-66381026D01*
X82935135Y-66385457D01*
X82935135Y-66385462D01*
X82935965Y-66391253D01*
X82936996Y-66401314D01*
X82939902Y-66448159D01*
X82942949Y-66456599D01*
X82943630Y-66459889D01*
X82947582Y-66475738D01*
X82948527Y-66478968D01*
X82949799Y-66487852D01*
X82953514Y-66496023D01*
X82969218Y-66530563D01*
X82973030Y-66539928D01*
X82985922Y-66575637D01*
X82985924Y-66575640D01*
X82988972Y-66584084D01*
X82994268Y-66591333D01*
X82995840Y-66594290D01*
X83004093Y-66608414D01*
X83005898Y-66611237D01*
X83009612Y-66619405D01*
X83015469Y-66626202D01*
X83015470Y-66626204D01*
X83040243Y-66654953D01*
X83046525Y-66662864D01*
X83054473Y-66673744D01*
X83065335Y-66684606D01*
X83071693Y-66691452D01*
X83103944Y-66728882D01*
X83111479Y-66733766D01*
X83118051Y-66739499D01*
X83129455Y-66748726D01*
X83438723Y-67057994D01*
X83446265Y-67067434D01*
X83446645Y-67067111D01*
X83452463Y-67073947D01*
X83457253Y-67081539D01*
X83463981Y-67087481D01*
X83497259Y-67116871D01*
X83502946Y-67122217D01*
X83514280Y-67133551D01*
X83517866Y-67136238D01*
X83517871Y-67136243D01*
X83522559Y-67139757D01*
X83530397Y-67146138D01*
X83565570Y-67177201D01*
X83573693Y-67181015D01*
X83576504Y-67182861D01*
X83590503Y-67191272D01*
X83593452Y-67192886D01*
X83600635Y-67198270D01*
X83616707Y-67204295D01*
X83644574Y-67214742D01*
X83653894Y-67218669D01*
X83696382Y-67238617D01*
X83705253Y-67239998D01*
X83708475Y-67240983D01*
X83724246Y-67245120D01*
X83727540Y-67245844D01*
X83735952Y-67248998D01*
X83744910Y-67249664D01*
X83744911Y-67249664D01*
X83782750Y-67252476D01*
X83792774Y-67253626D01*
X83806097Y-67255700D01*
X83821462Y-67255700D01*
X83830799Y-67256046D01*
X83880066Y-67259707D01*
X83888841Y-67257834D01*
X83897537Y-67257241D01*
X83912137Y-67255700D01*
X84298043Y-67255700D01*
X84366164Y-67275702D01*
X84412657Y-67329358D01*
X84422761Y-67399632D01*
X84393267Y-67464212D01*
X84368044Y-67486465D01*
X84357334Y-67493621D01*
X84357332Y-67493623D01*
X84347016Y-67500516D01*
X84290766Y-67584699D01*
X84288345Y-67596873D01*
X84286337Y-67601719D01*
X84241788Y-67656999D01*
X84169928Y-67679500D01*
X84019226Y-67679500D01*
X84007218Y-67678158D01*
X84007178Y-67678654D01*
X83998227Y-67677934D01*
X83989473Y-67675953D01*
X83959026Y-67677842D01*
X83936203Y-67679258D01*
X83928401Y-67679500D01*
X83912370Y-67679500D01*
X83902137Y-67680965D01*
X83892085Y-67681995D01*
X83862681Y-67683820D01*
X83854197Y-67684346D01*
X83854196Y-67684346D01*
X83845238Y-67684902D01*
X83836795Y-67687950D01*
X83833516Y-67688629D01*
X83817651Y-67692584D01*
X83814427Y-67693527D01*
X83805544Y-67694799D01*
X83797375Y-67698513D01*
X83797369Y-67698515D01*
X83762817Y-67714225D01*
X83753449Y-67718039D01*
X83709312Y-67733972D01*
X83702062Y-67739269D01*
X83699095Y-67740846D01*
X83684982Y-67749093D01*
X83682159Y-67750898D01*
X83673991Y-67754612D01*
X83667194Y-67760469D01*
X83667192Y-67760470D01*
X83638443Y-67785243D01*
X83630532Y-67791525D01*
X83619652Y-67799473D01*
X83608790Y-67810335D01*
X83601944Y-67816693D01*
X83564514Y-67848944D01*
X83559630Y-67856479D01*
X83553897Y-67863051D01*
X83544670Y-67874455D01*
X82555986Y-68863139D01*
X82493674Y-68897165D01*
X82424420Y-68892212D01*
X82435278Y-68938303D01*
X82411612Y-69005240D01*
X82398558Y-69020567D01*
X81571004Y-69848121D01*
X81561564Y-69855663D01*
X81561887Y-69856043D01*
X81555051Y-69861861D01*
X81547459Y-69866651D01*
X81541517Y-69873379D01*
X81512127Y-69906657D01*
X81506781Y-69912344D01*
X81495447Y-69923678D01*
X81492762Y-69927261D01*
X81492760Y-69927263D01*
X81489245Y-69931953D01*
X81482860Y-69939796D01*
X81451797Y-69974968D01*
X81447984Y-69983090D01*
X81446144Y-69985891D01*
X81437735Y-69999886D01*
X81436113Y-70002849D01*
X81430728Y-70010034D01*
X81427575Y-70018444D01*
X81427574Y-70018446D01*
X81414252Y-70053980D01*
X81410328Y-70063293D01*
X81390381Y-70105780D01*
X81388999Y-70114654D01*
X81388013Y-70117881D01*
X81383873Y-70133664D01*
X81383152Y-70136942D01*
X81380000Y-70145350D01*
X81379335Y-70154301D01*
X81376522Y-70192155D01*
X81375368Y-70202202D01*
X81373298Y-70215495D01*
X81373298Y-70230860D01*
X81372952Y-70240197D01*
X81369291Y-70289465D01*
X81371164Y-70298240D01*
X81371757Y-70306936D01*
X81373298Y-70321536D01*
X81373298Y-71291588D01*
X81353296Y-71359709D01*
X81299640Y-71406202D01*
X81229366Y-71416306D01*
X81216602Y-71413792D01*
X81090602Y-71382143D01*
X81083233Y-71380292D01*
X81075634Y-71380252D01*
X81075633Y-71380252D01*
X81009781Y-71379907D01*
X80924821Y-71379462D01*
X80917441Y-71381234D01*
X80917439Y-71381234D01*
X80778163Y-71414671D01*
X80778160Y-71414672D01*
X80770784Y-71416443D01*
X80630014Y-71489100D01*
X80628580Y-71486321D01*
X80570803Y-71504100D01*
X80152100Y-71504100D01*
X80083979Y-71484098D01*
X80037486Y-71430442D01*
X80026100Y-71378100D01*
X80026100Y-71310844D01*
X80022170Y-71274666D01*
X80020251Y-71257003D01*
X80020251Y-71257002D01*
X80019398Y-71249152D01*
X79968671Y-71113836D01*
X79963291Y-71106657D01*
X79963289Y-71106654D01*
X79887385Y-71005376D01*
X79882004Y-70998196D01*
X79833968Y-70962195D01*
X79773546Y-70916911D01*
X79773543Y-70916909D01*
X79766364Y-70911529D01*
X79662117Y-70872449D01*
X79638443Y-70863574D01*
X79638441Y-70863574D01*
X79631048Y-70860802D01*
X79623198Y-70859949D01*
X79623197Y-70859949D01*
X79572753Y-70854469D01*
X79572752Y-70854469D01*
X79569356Y-70854100D01*
X78673844Y-70854100D01*
X78670448Y-70854469D01*
X78670447Y-70854469D01*
X78620003Y-70859949D01*
X78620002Y-70859949D01*
X78612152Y-70860802D01*
X78604759Y-70863574D01*
X78604757Y-70863574D01*
X78581083Y-70872449D01*
X78476836Y-70911529D01*
X78469657Y-70916909D01*
X78469654Y-70916911D01*
X78409232Y-70962195D01*
X78361196Y-70998196D01*
X78355815Y-71005376D01*
X78279911Y-71106654D01*
X78279909Y-71106657D01*
X78274529Y-71113836D01*
X78223802Y-71249152D01*
X78222949Y-71257002D01*
X78222949Y-71257003D01*
X78221030Y-71274666D01*
X78217100Y-71310844D01*
X78217100Y-72656356D01*
X78217469Y-72659752D01*
X78217469Y-72659753D01*
X78220286Y-72685679D01*
X78223802Y-72718048D01*
X78226574Y-72725441D01*
X78226574Y-72725443D01*
X78232076Y-72740119D01*
X78274529Y-72853364D01*
X78349904Y-72953936D01*
X78374750Y-73020442D01*
X78359697Y-73089824D01*
X78309522Y-73140054D01*
X78249076Y-73155500D01*
X77464424Y-73155500D01*
X77452419Y-73154159D01*
X77452379Y-73154655D01*
X77443432Y-73153935D01*
X77434676Y-73151954D01*
X77391138Y-73154655D01*
X77381418Y-73155258D01*
X77373616Y-73155500D01*
X77357574Y-73155500D01*
X77353143Y-73156135D01*
X77353138Y-73156135D01*
X77349113Y-73156712D01*
X77347343Y-73156965D01*
X77337286Y-73157996D01*
X77314824Y-73159389D01*
X77299400Y-73160346D01*
X77299398Y-73160346D01*
X77290441Y-73160902D01*
X77282001Y-73163949D01*
X77278711Y-73164630D01*
X77262854Y-73168584D01*
X77259629Y-73169527D01*
X77250748Y-73170799D01*
X77242583Y-73174512D01*
X77242581Y-73174512D01*
X77208018Y-73190227D01*
X77198675Y-73194031D01*
X77154515Y-73209973D01*
X77147264Y-73215270D01*
X77144280Y-73216857D01*
X77130230Y-73225067D01*
X77127373Y-73226894D01*
X77119195Y-73230612D01*
X77112392Y-73236474D01*
X77083647Y-73261243D01*
X77075736Y-73267525D01*
X77064856Y-73275473D01*
X77053994Y-73286335D01*
X77047148Y-73292693D01*
X77009718Y-73324944D01*
X77004834Y-73332479D01*
X76999101Y-73339051D01*
X76989874Y-73350455D01*
X76484806Y-73855523D01*
X76475366Y-73863065D01*
X76475689Y-73863445D01*
X76468853Y-73869263D01*
X76461261Y-73874053D01*
X76428904Y-73910691D01*
X76425929Y-73914059D01*
X76420583Y-73919746D01*
X76409249Y-73931080D01*
X76406564Y-73934663D01*
X76406562Y-73934665D01*
X76403047Y-73939355D01*
X76396662Y-73947198D01*
X76365599Y-73982370D01*
X76361786Y-73990492D01*
X76359946Y-73993293D01*
X76351537Y-74007288D01*
X76349915Y-74010251D01*
X76344530Y-74017436D01*
X76341378Y-74025844D01*
X76337068Y-74033716D01*
X76334761Y-74032453D01*
X76300379Y-74078218D01*
X76269272Y-74095202D01*
X76239751Y-74106269D01*
X76171836Y-74131729D01*
X76164657Y-74137109D01*
X76164654Y-74137111D01*
X76149157Y-74148726D01*
X76082651Y-74173574D01*
X76073592Y-74173900D01*
X73833621Y-74173900D01*
X73821880Y-74173347D01*
X73814183Y-74171626D01*
X73806257Y-74171875D01*
X73806256Y-74171875D01*
X73743793Y-74173838D01*
X73739835Y-74173900D01*
X73710922Y-74173900D01*
X73706990Y-74174397D01*
X73704773Y-74174536D01*
X73659380Y-74167994D01*
X73659203Y-74168653D01*
X73447174Y-74111839D01*
X73228500Y-74092708D01*
X73009826Y-74111839D01*
X72797797Y-74168653D01*
X72737356Y-74196837D01*
X72603841Y-74259095D01*
X72603836Y-74259098D01*
X72598854Y-74261421D01*
X72594347Y-74264577D01*
X72594345Y-74264578D01*
X72423554Y-74384167D01*
X72423551Y-74384169D01*
X72419043Y-74387326D01*
X72263826Y-74542543D01*
X72260669Y-74547051D01*
X72260667Y-74547054D01*
X72154732Y-74698345D01*
X72137921Y-74722354D01*
X72135598Y-74727336D01*
X72135595Y-74727341D01*
X72111392Y-74779245D01*
X72045153Y-74921297D01*
X72033746Y-74963870D01*
X72025007Y-74996482D01*
X71988055Y-75057104D01*
X71924194Y-75088126D01*
X71853700Y-75079697D01*
X71798953Y-75034494D01*
X71777300Y-74963870D01*
X71777300Y-73860005D01*
X71797302Y-73791884D01*
X71814205Y-73770910D01*
X73085110Y-72500005D01*
X73147422Y-72465979D01*
X73174205Y-72463100D01*
X74991100Y-72463100D01*
X75059221Y-72483102D01*
X75105714Y-72536758D01*
X75117100Y-72589100D01*
X75117100Y-72656356D01*
X75117469Y-72659752D01*
X75117469Y-72659753D01*
X75120286Y-72685679D01*
X75123802Y-72718048D01*
X75126574Y-72725441D01*
X75126574Y-72725443D01*
X75132076Y-72740119D01*
X75174529Y-72853364D01*
X75179908Y-72860541D01*
X75179911Y-72860546D01*
X75245887Y-72948577D01*
X75261196Y-72969004D01*
X75268376Y-72974385D01*
X75369654Y-73050289D01*
X75369657Y-73050291D01*
X75376836Y-73055671D01*
X75434922Y-73077446D01*
X75504757Y-73103626D01*
X75504759Y-73103626D01*
X75512152Y-73106398D01*
X75520002Y-73107251D01*
X75520003Y-73107251D01*
X75548355Y-73110331D01*
X75573844Y-73113100D01*
X76469356Y-73113100D01*
X76494845Y-73110331D01*
X76523197Y-73107251D01*
X76523198Y-73107251D01*
X76531048Y-73106398D01*
X76538441Y-73103626D01*
X76538443Y-73103626D01*
X76608278Y-73077446D01*
X76666364Y-73055671D01*
X76673543Y-73050291D01*
X76673546Y-73050289D01*
X76774824Y-72974385D01*
X76782004Y-72969004D01*
X76797313Y-72948577D01*
X76863289Y-72860546D01*
X76863292Y-72860541D01*
X76868671Y-72853364D01*
X76911124Y-72740119D01*
X76916626Y-72725443D01*
X76916626Y-72725441D01*
X76919398Y-72718048D01*
X76922915Y-72685679D01*
X76925731Y-72659753D01*
X76925731Y-72659752D01*
X76926100Y-72656356D01*
X76926100Y-71310844D01*
X76922170Y-71274666D01*
X76920251Y-71257003D01*
X76920251Y-71257002D01*
X76919398Y-71249152D01*
X76868671Y-71113836D01*
X76863291Y-71106657D01*
X76863289Y-71106654D01*
X76787385Y-71005376D01*
X76782004Y-70998196D01*
X76733968Y-70962195D01*
X76673546Y-70916911D01*
X76673543Y-70916909D01*
X76666364Y-70911529D01*
X76562117Y-70872449D01*
X76538443Y-70863574D01*
X76538441Y-70863574D01*
X76531048Y-70860802D01*
X76523198Y-70859949D01*
X76523197Y-70859949D01*
X76472753Y-70854469D01*
X76472752Y-70854469D01*
X76469356Y-70854100D01*
X75573844Y-70854100D01*
X75570448Y-70854469D01*
X75570447Y-70854469D01*
X75520003Y-70859949D01*
X75520002Y-70859949D01*
X75512152Y-70860802D01*
X75504759Y-70863574D01*
X75504757Y-70863574D01*
X75481083Y-70872449D01*
X75376836Y-70911529D01*
X75369657Y-70916909D01*
X75369654Y-70916911D01*
X75309232Y-70962195D01*
X75261196Y-70998196D01*
X75255815Y-71005376D01*
X75179911Y-71106654D01*
X75179909Y-71106657D01*
X75174529Y-71113836D01*
X75123802Y-71249152D01*
X75122949Y-71257002D01*
X75122949Y-71257003D01*
X75121030Y-71274666D01*
X75117100Y-71310844D01*
X75117100Y-71378100D01*
X75097098Y-71446221D01*
X75043442Y-71492714D01*
X74991100Y-71504100D01*
X72991226Y-71504100D01*
X72980001Y-71502846D01*
X72979954Y-71503430D01*
X72971008Y-71502710D01*
X72962252Y-71500729D01*
X72918716Y-71503430D01*
X72911817Y-71503858D01*
X72904015Y-71504100D01*
X72888969Y-71504100D01*
X72884539Y-71504735D01*
X72884532Y-71504735D01*
X72879492Y-71505457D01*
X72869437Y-71506487D01*
X72834126Y-71508678D01*
X72825164Y-71509234D01*
X72816720Y-71512282D01*
X72810869Y-71513494D01*
X72802056Y-71515692D01*
X72796324Y-71517368D01*
X72787436Y-71518641D01*
X72747067Y-71536996D01*
X72737700Y-71540809D01*
X72695974Y-71555872D01*
X72688727Y-71561166D01*
X72683510Y-71563940D01*
X72675570Y-71568579D01*
X72670571Y-71571776D01*
X72662403Y-71575490D01*
X72655604Y-71581349D01*
X72655600Y-71581351D01*
X72628800Y-71604443D01*
X72620888Y-71610726D01*
X72610758Y-71618127D01*
X72600602Y-71628283D01*
X72593756Y-71634640D01*
X72558351Y-71665147D01*
X72553472Y-71672674D01*
X72547566Y-71679444D01*
X72547499Y-71679385D01*
X72539019Y-71689866D01*
X71006704Y-73222181D01*
X70997879Y-73229232D01*
X70998259Y-73229679D01*
X70991423Y-73235497D01*
X70983831Y-73240287D01*
X70977888Y-73247016D01*
X70950371Y-73278173D01*
X70945025Y-73283860D01*
X70934396Y-73294489D01*
X70931707Y-73298077D01*
X70928652Y-73302152D01*
X70922276Y-73309983D01*
X70904379Y-73330248D01*
X70892909Y-73343236D01*
X70889093Y-73351364D01*
X70885823Y-73356342D01*
X70881122Y-73364165D01*
X70878265Y-73369384D01*
X70872883Y-73376565D01*
X70869733Y-73384968D01*
X70857314Y-73418096D01*
X70853393Y-73427401D01*
X70834536Y-73467566D01*
X70833155Y-73476433D01*
X70831420Y-73482109D01*
X70829092Y-73490986D01*
X70827820Y-73496772D01*
X70824670Y-73505175D01*
X70824005Y-73514125D01*
X70821383Y-73549400D01*
X70820232Y-73559437D01*
X70818300Y-73571843D01*
X70818300Y-73586210D01*
X70817954Y-73595548D01*
X70814491Y-73642148D01*
X70816364Y-73650924D01*
X70816975Y-73659881D01*
X70816885Y-73659887D01*
X70818300Y-73673291D01*
X70818300Y-76182980D01*
X70817046Y-76194200D01*
X70817631Y-76194247D01*
X70816911Y-76203192D01*
X70814930Y-76211949D01*
X70815486Y-76220909D01*
X70818058Y-76262373D01*
X70818300Y-76270174D01*
X70818300Y-76285231D01*
X70818934Y-76289657D01*
X70819658Y-76294708D01*
X70820689Y-76304775D01*
X70823434Y-76349036D01*
X70826484Y-76357485D01*
X70827696Y-76363335D01*
X70829894Y-76372152D01*
X70831569Y-76377879D01*
X70832841Y-76386764D01*
X70851204Y-76427150D01*
X70855010Y-76436502D01*
X70867023Y-76469780D01*
X70867025Y-76469784D01*
X70870073Y-76478227D01*
X70875372Y-76485480D01*
X70878163Y-76490729D01*
X70882768Y-76498611D01*
X70885974Y-76503625D01*
X70889690Y-76511797D01*
X70895549Y-76518597D01*
X70895550Y-76518598D01*
X70918638Y-76545392D01*
X70924931Y-76553317D01*
X70928471Y-76558163D01*
X70932327Y-76563442D01*
X70942483Y-76573598D01*
X70948840Y-76580444D01*
X70979347Y-76615849D01*
X70986874Y-76620728D01*
X70993644Y-76626634D01*
X70993585Y-76626701D01*
X71004066Y-76635181D01*
X72536381Y-78167496D01*
X72543432Y-78176321D01*
X72543879Y-78175941D01*
X72549697Y-78182777D01*
X72554487Y-78190369D01*
X72561216Y-78196312D01*
X72592373Y-78223829D01*
X72598060Y-78229175D01*
X72608689Y-78239804D01*
X72612267Y-78242486D01*
X72612270Y-78242488D01*
X72616343Y-78245540D01*
X72624187Y-78251926D01*
X72657436Y-78281291D01*
X72665559Y-78285105D01*
X72670531Y-78288371D01*
X72678354Y-78293071D01*
X72683583Y-78295934D01*
X72690766Y-78301317D01*
X72699171Y-78304468D01*
X72699173Y-78304469D01*
X72732286Y-78316882D01*
X72741591Y-78320802D01*
X72781766Y-78339664D01*
X72790638Y-78341045D01*
X72796342Y-78342789D01*
X72805137Y-78345096D01*
X72810970Y-78346379D01*
X72819376Y-78349530D01*
X72828326Y-78350195D01*
X72828330Y-78350196D01*
X72860800Y-78352609D01*
X72863604Y-78352817D01*
X72873641Y-78353969D01*
X72877862Y-78354626D01*
X72881237Y-78355152D01*
X72881239Y-78355152D01*
X72886043Y-78355900D01*
X72900411Y-78355900D01*
X72909749Y-78356246D01*
X72956349Y-78359709D01*
X72965125Y-78357836D01*
X72974082Y-78357225D01*
X72974088Y-78357315D01*
X72987492Y-78355900D01*
X73626212Y-78355900D01*
X73694333Y-78375902D01*
X73740826Y-78429558D01*
X73750930Y-78499832D01*
X73721436Y-78564412D01*
X73698484Y-78585112D01*
X73680557Y-78597665D01*
X73676043Y-78600826D01*
X73520826Y-78756043D01*
X73517669Y-78760551D01*
X73517667Y-78760554D01*
X73409069Y-78915648D01*
X73394921Y-78935854D01*
X73392598Y-78940836D01*
X73392595Y-78940841D01*
X73365669Y-78998585D01*
X73302153Y-79134797D01*
X73245339Y-79346826D01*
X73226208Y-79565500D01*
X73245339Y-79784174D01*
X73302153Y-79996203D01*
X73335516Y-80067751D01*
X73392595Y-80190159D01*
X73392598Y-80190164D01*
X73394921Y-80195146D01*
X73398077Y-80199653D01*
X73398078Y-80199655D01*
X73508918Y-80357950D01*
X73520826Y-80374957D01*
X73676043Y-80530174D01*
X73680551Y-80533331D01*
X73680554Y-80533333D01*
X73797074Y-80614921D01*
X73855854Y-80656079D01*
X73860836Y-80658402D01*
X73860841Y-80658405D01*
X73939424Y-80695048D01*
X74054797Y-80748847D01*
X74266826Y-80805661D01*
X74485500Y-80824792D01*
X74704174Y-80805661D01*
X74916203Y-80748847D01*
X75031576Y-80695048D01*
X75110159Y-80658405D01*
X75110164Y-80658402D01*
X75115146Y-80656079D01*
X75173926Y-80614921D01*
X75290446Y-80533333D01*
X75290449Y-80533331D01*
X75294957Y-80530174D01*
X75450174Y-80374957D01*
X75462083Y-80357950D01*
X75572922Y-80199655D01*
X75572923Y-80199653D01*
X75576079Y-80195146D01*
X75578403Y-80190161D01*
X75578407Y-80190155D01*
X75635484Y-80067751D01*
X75682401Y-80014465D01*
X75749679Y-79995000D01*
X79721321Y-79995000D01*
X79789442Y-80015002D01*
X79835516Y-80067751D01*
X79892593Y-80190155D01*
X79892597Y-80190161D01*
X79894921Y-80195146D01*
X79898077Y-80199653D01*
X79898078Y-80199655D01*
X80008918Y-80357950D01*
X80020826Y-80374957D01*
X80176043Y-80530174D01*
X80180551Y-80533331D01*
X80180554Y-80533333D01*
X80297074Y-80614921D01*
X80355854Y-80656079D01*
X80360836Y-80658402D01*
X80360841Y-80658405D01*
X80439424Y-80695048D01*
X80554797Y-80748847D01*
X80766826Y-80805661D01*
X80985500Y-80824792D01*
X81204174Y-80805661D01*
X81209486Y-80804238D01*
X81209495Y-80804236D01*
X81404715Y-80751926D01*
X81475692Y-80753615D01*
X81526422Y-80784537D01*
X82516195Y-81774310D01*
X82550221Y-81836622D01*
X82553100Y-81863405D01*
X82553100Y-83290696D01*
X82533098Y-83358817D01*
X82479442Y-83405310D01*
X82409168Y-83415414D01*
X82344588Y-83385920D01*
X82319668Y-83356531D01*
X82228068Y-83207055D01*
X82217610Y-83197593D01*
X82208834Y-83201376D01*
X81357522Y-84052688D01*
X81349908Y-84066632D01*
X81350039Y-84068465D01*
X81354290Y-84075080D01*
X82205790Y-84926580D01*
X82218170Y-84933340D01*
X82225820Y-84927613D01*
X82319668Y-84774469D01*
X82372315Y-84726837D01*
X82442357Y-84715231D01*
X82507554Y-84743334D01*
X82547208Y-84802225D01*
X82553100Y-84840304D01*
X82553100Y-88324180D01*
X82551846Y-88335400D01*
X82552431Y-88335447D01*
X82551711Y-88344392D01*
X82549730Y-88353149D01*
X82551620Y-88383612D01*
X82552858Y-88403573D01*
X82553100Y-88411374D01*
X82553100Y-88426431D01*
X82553734Y-88430857D01*
X82554458Y-88435908D01*
X82555489Y-88445977D01*
X82557550Y-88479200D01*
X82558234Y-88490236D01*
X82559839Y-88494681D01*
X82554241Y-88563308D01*
X82511129Y-88619716D01*
X82444364Y-88643861D01*
X82375144Y-88628078D01*
X82335673Y-88593488D01*
X82334921Y-88592481D01*
X82294820Y-88538779D01*
X82161792Y-88415809D01*
X82150003Y-88404911D01*
X82145758Y-88400987D01*
X82140875Y-88397906D01*
X82140871Y-88397903D01*
X81978964Y-88295748D01*
X81974081Y-88292667D01*
X81785539Y-88217446D01*
X81779879Y-88216320D01*
X81779875Y-88216319D01*
X81592113Y-88178971D01*
X81592110Y-88178971D01*
X81586446Y-88177844D01*
X81580671Y-88177768D01*
X81580667Y-88177768D01*
X81479293Y-88176441D01*
X81383471Y-88175187D01*
X81377774Y-88176166D01*
X81377773Y-88176166D01*
X81249771Y-88198161D01*
X81183410Y-88209564D01*
X80992963Y-88279824D01*
X80818510Y-88383612D01*
X80814170Y-88387418D01*
X80814166Y-88387421D01*
X80702448Y-88485396D01*
X80665892Y-88517455D01*
X80540220Y-88676869D01*
X80537531Y-88681980D01*
X80537529Y-88681983D01*
X80525056Y-88705690D01*
X80445703Y-88856515D01*
X80400895Y-89000822D01*
X80390928Y-89032921D01*
X80385507Y-89050378D01*
X80361648Y-89251964D01*
X80374924Y-89454522D01*
X80376345Y-89460118D01*
X80376346Y-89460123D01*
X80423471Y-89645674D01*
X80424892Y-89651269D01*
X80427309Y-89656512D01*
X80487875Y-89787890D01*
X80509877Y-89835616D01*
X80513210Y-89840332D01*
X80600703Y-89964132D01*
X80627033Y-90001389D01*
X80631175Y-90005424D01*
X80680427Y-90053403D01*
X80772438Y-90143035D01*
X80941220Y-90255812D01*
X80946523Y-90258090D01*
X80946526Y-90258092D01*
X81043454Y-90299735D01*
X81098147Y-90345003D01*
X81119684Y-90412654D01*
X81101227Y-90481210D01*
X81048636Y-90528904D01*
X81032861Y-90535268D01*
X80947368Y-90563212D01*
X80937859Y-90567209D01*
X80748963Y-90665542D01*
X80740238Y-90671036D01*
X80569933Y-90798905D01*
X80562226Y-90805748D01*
X80415090Y-90959717D01*
X80408604Y-90967727D01*
X80288598Y-91143649D01*
X80283500Y-91152623D01*
X80193838Y-91345783D01*
X80190277Y-91355464D01*
X80185791Y-91371640D01*
X80148313Y-91431939D01*
X80084184Y-91462403D01*
X80013766Y-91453360D01*
X79959415Y-91407682D01*
X79951367Y-91393698D01*
X79878831Y-91246609D01*
X79876276Y-91241428D01*
X79864054Y-91225060D01*
X79809953Y-91152611D01*
X79754820Y-91078779D01*
X79605758Y-90940987D01*
X79600875Y-90937906D01*
X79600871Y-90937903D01*
X79438964Y-90835748D01*
X79434081Y-90832667D01*
X79245539Y-90757446D01*
X79239879Y-90756320D01*
X79239875Y-90756319D01*
X79052113Y-90718971D01*
X79052110Y-90718971D01*
X79046446Y-90717844D01*
X79040671Y-90717768D01*
X79040667Y-90717768D01*
X78939293Y-90716441D01*
X78843471Y-90715187D01*
X78837774Y-90716166D01*
X78837773Y-90716166D01*
X78649107Y-90748585D01*
X78643410Y-90749564D01*
X78452963Y-90819824D01*
X78278510Y-90923612D01*
X78274170Y-90927418D01*
X78274166Y-90927421D01*
X78151525Y-91034975D01*
X78125892Y-91057455D01*
X78000220Y-91216869D01*
X77997531Y-91221980D01*
X77997529Y-91221983D01*
X77975834Y-91263219D01*
X77905703Y-91396515D01*
X77845507Y-91590378D01*
X77821648Y-91791964D01*
X77834924Y-91994522D01*
X77836345Y-92000118D01*
X77836346Y-92000123D01*
X77876365Y-92157695D01*
X77884892Y-92191269D01*
X77887309Y-92196512D01*
X77923456Y-92274920D01*
X77969877Y-92375616D01*
X77992280Y-92407316D01*
X78075655Y-92525289D01*
X78087033Y-92541389D01*
X78232438Y-92683035D01*
X78401220Y-92795812D01*
X78406523Y-92798090D01*
X78406526Y-92798092D01*
X78579491Y-92872403D01*
X78587728Y-92875942D01*
X78660744Y-92892464D01*
X78780079Y-92919467D01*
X78780084Y-92919468D01*
X78785716Y-92920742D01*
X78791487Y-92920969D01*
X78791489Y-92920969D01*
X78851256Y-92923317D01*
X78988553Y-92928712D01*
X79088999Y-92914148D01*
X79183731Y-92900413D01*
X79183736Y-92900412D01*
X79189445Y-92899584D01*
X79194909Y-92897729D01*
X79194914Y-92897728D01*
X79376193Y-92836192D01*
X79376198Y-92836190D01*
X79381665Y-92834334D01*
X79398154Y-92825100D01*
X79526836Y-92753034D01*
X79558776Y-92735147D01*
X79563858Y-92730921D01*
X79691888Y-92624438D01*
X79714845Y-92605345D01*
X79781427Y-92525289D01*
X79840953Y-92453718D01*
X79840955Y-92453715D01*
X79844647Y-92449276D01*
X79914308Y-92324887D01*
X79941010Y-92277208D01*
X79941011Y-92277206D01*
X79943834Y-92272165D01*
X79946220Y-92265135D01*
X79946670Y-92264496D01*
X79948041Y-92261416D01*
X79948646Y-92261685D01*
X79987053Y-92207059D01*
X80052805Y-92180278D01*
X80122598Y-92193295D01*
X80174273Y-92241980D01*
X80182277Y-92258229D01*
X80252270Y-92430603D01*
X80256913Y-92439794D01*
X80368194Y-92621388D01*
X80374277Y-92629699D01*
X80513713Y-92790667D01*
X80521080Y-92797883D01*
X80684934Y-92933916D01*
X80693381Y-92939831D01*
X80877256Y-93047279D01*
X80886542Y-93051729D01*
X81085501Y-93127703D01*
X81095399Y-93130579D01*
X81198750Y-93151606D01*
X81212799Y-93150410D01*
X81216500Y-93140065D01*
X81216500Y-91693000D01*
X81236502Y-91624879D01*
X81290158Y-91578386D01*
X81342500Y-91567000D01*
X81598500Y-91567000D01*
X81666621Y-91587002D01*
X81713114Y-91640658D01*
X81724500Y-91693000D01*
X81724500Y-93139517D01*
X81728564Y-93153359D01*
X81741978Y-93155393D01*
X81748684Y-93154534D01*
X81758762Y-93152392D01*
X81962755Y-93091191D01*
X81972342Y-93087433D01*
X82163595Y-92993739D01*
X82172445Y-92988464D01*
X82345828Y-92864792D01*
X82353700Y-92858139D01*
X82504552Y-92707812D01*
X82511230Y-92699965D01*
X82635503Y-92527020D01*
X82640813Y-92518183D01*
X82735170Y-92327267D01*
X82738969Y-92317672D01*
X82800876Y-92113915D01*
X82803055Y-92103834D01*
X82804609Y-92092032D01*
X82833331Y-92027105D01*
X82892597Y-91988013D01*
X82963588Y-91987168D01*
X83023767Y-92024838D01*
X83034113Y-92038202D01*
X83090482Y-92122088D01*
X83111900Y-92192364D01*
X83111900Y-92713195D01*
X83091898Y-92781316D01*
X83074995Y-92802290D01*
X82108888Y-93768397D01*
X82046576Y-93802423D01*
X82019793Y-93805302D01*
X78406607Y-93805302D01*
X78338486Y-93785300D01*
X78317512Y-93768397D01*
X77928883Y-93379768D01*
X77894857Y-93317456D01*
X77892891Y-93305810D01*
X77891590Y-93295058D01*
X77881676Y-93213133D01*
X77825680Y-93064946D01*
X77795368Y-93020842D01*
X77740255Y-92940651D01*
X77740254Y-92940649D01*
X77735953Y-92934392D01*
X77728648Y-92927883D01*
X77671781Y-92877217D01*
X77617675Y-92829011D01*
X77610289Y-92825100D01*
X77484388Y-92758439D01*
X77484389Y-92758439D01*
X77477674Y-92754884D01*
X77324033Y-92716292D01*
X77316434Y-92716252D01*
X77316433Y-92716252D01*
X77250581Y-92715907D01*
X77165621Y-92715462D01*
X77158241Y-92717234D01*
X77158239Y-92717234D01*
X77018963Y-92750671D01*
X77018960Y-92750672D01*
X77011584Y-92752443D01*
X76870814Y-92825100D01*
X76751439Y-92929238D01*
X76660350Y-93058844D01*
X76645925Y-93095842D01*
X76625006Y-93149498D01*
X76602806Y-93206437D01*
X76601814Y-93213970D01*
X76601814Y-93213971D01*
X76583688Y-93351655D01*
X76582129Y-93363496D01*
X76583926Y-93379768D01*
X76596803Y-93496405D01*
X76599513Y-93520953D01*
X76602123Y-93528084D01*
X76602123Y-93528086D01*
X76650975Y-93661580D01*
X76653953Y-93669719D01*
X76658189Y-93676022D01*
X76658189Y-93676023D01*
X76733109Y-93787515D01*
X76742308Y-93801205D01*
X76747927Y-93806318D01*
X76747928Y-93806319D01*
X76828883Y-93879982D01*
X76859476Y-93907819D01*
X76998693Y-93983408D01*
X77151922Y-94023607D01*
X77163977Y-94023796D01*
X77166495Y-94023836D01*
X77234293Y-94044906D01*
X77253610Y-94060725D01*
X77718768Y-94525883D01*
X77752794Y-94588195D01*
X77747729Y-94659010D01*
X77705182Y-94715846D01*
X77638662Y-94740657D01*
X77629671Y-94740978D01*
X73383618Y-94740902D01*
X73363027Y-94738678D01*
X73359533Y-94738612D01*
X73347406Y-94735961D01*
X73335188Y-94738152D01*
X73322784Y-94737918D01*
X73322785Y-94737843D01*
X73311781Y-94738432D01*
X73032895Y-94718711D01*
X73019962Y-94717121D01*
X72715949Y-94663664D01*
X72703249Y-94660747D01*
X72406379Y-94576177D01*
X72394049Y-94571964D01*
X72107501Y-94457186D01*
X72095672Y-94451722D01*
X71822510Y-94307965D01*
X71811315Y-94301313D01*
X71554453Y-94130106D01*
X71544001Y-94122329D01*
X71306209Y-93925524D01*
X71296613Y-93916708D01*
X71080406Y-93696383D01*
X71071773Y-93686623D01*
X70912347Y-93486423D01*
X71778703Y-93486423D01*
X71786227Y-93496854D01*
X71925483Y-93609020D01*
X71931657Y-93613408D01*
X72202271Y-93782178D01*
X72208931Y-93785794D01*
X72497852Y-93920827D01*
X72504905Y-93923620D01*
X72807970Y-94022970D01*
X72815282Y-94024888D01*
X73128092Y-94087109D01*
X73135590Y-94088137D01*
X73453610Y-94112328D01*
X73461173Y-94112446D01*
X73779785Y-94098257D01*
X73787326Y-94097465D01*
X74101924Y-94045101D01*
X74109302Y-94043411D01*
X74415355Y-93953625D01*
X74422450Y-93951071D01*
X74715496Y-93825169D01*
X74722263Y-93821765D01*
X74998042Y-93661580D01*
X75004349Y-93657390D01*
X75214305Y-93498889D01*
X75222761Y-93487496D01*
X75216045Y-93475256D01*
X73512810Y-91772020D01*
X73498869Y-91764408D01*
X73497034Y-91764539D01*
X73490420Y-91768790D01*
X71785818Y-93473393D01*
X71778703Y-93486423D01*
X70912347Y-93486423D01*
X70879491Y-93445164D01*
X70871912Y-93434565D01*
X70705581Y-93174519D01*
X70699136Y-93163193D01*
X70695218Y-93155393D01*
X70620383Y-93006443D01*
X70560561Y-92887374D01*
X70555321Y-92875444D01*
X70480904Y-92679002D01*
X70445968Y-92586779D01*
X70441990Y-92574378D01*
X70437287Y-92556600D01*
X70363033Y-92275958D01*
X70360357Y-92263209D01*
X70360119Y-92261685D01*
X70312644Y-91958230D01*
X70311299Y-91945273D01*
X70296843Y-91666071D01*
X70297639Y-91655079D01*
X70297565Y-91655079D01*
X70297565Y-91642672D01*
X70299986Y-91630500D01*
X70297421Y-91617606D01*
X70295001Y-91593028D01*
X70295002Y-91571843D01*
X70295005Y-91375383D01*
X70787388Y-91375383D01*
X70803245Y-91693914D01*
X70804076Y-91701443D01*
X70858085Y-92015759D01*
X70859818Y-92023146D01*
X70951196Y-92328695D01*
X70953799Y-92335808D01*
X71081227Y-92628173D01*
X71084669Y-92634929D01*
X71246296Y-92909865D01*
X71250519Y-92916150D01*
X71401463Y-93113934D01*
X71412989Y-93122396D01*
X71425054Y-93115735D01*
X73127980Y-91412810D01*
X73134357Y-91401131D01*
X73864408Y-91401131D01*
X73864539Y-91402966D01*
X73868790Y-91409580D01*
X75573285Y-93114074D01*
X75586408Y-93121240D01*
X75596709Y-93113851D01*
X75700751Y-92986055D01*
X75705164Y-92979914D01*
X75875349Y-92710187D01*
X75879005Y-92703536D01*
X76015544Y-92415335D01*
X76018375Y-92408295D01*
X76119306Y-92105767D01*
X76121270Y-92098433D01*
X76185122Y-91785989D01*
X76186194Y-91778465D01*
X76212173Y-91459051D01*
X76212378Y-91454576D01*
X76212927Y-91402221D01*
X76212817Y-91397789D01*
X76193529Y-91077853D01*
X76192621Y-91070351D01*
X76135319Y-90756593D01*
X76133518Y-90749260D01*
X76038935Y-90444655D01*
X76036263Y-90437583D01*
X75905781Y-90146570D01*
X75902264Y-90139843D01*
X75737771Y-89866621D01*
X75733481Y-89860377D01*
X75597991Y-89686647D01*
X75586199Y-89678178D01*
X75574486Y-89684725D01*
X73872020Y-91387190D01*
X73864408Y-91401131D01*
X73134357Y-91401131D01*
X73135592Y-91398869D01*
X73135461Y-91397034D01*
X73131210Y-91390420D01*
X71426445Y-89685656D01*
X71413510Y-89678592D01*
X71402949Y-89686252D01*
X71282766Y-89837072D01*
X71278410Y-89843270D01*
X71111059Y-90114764D01*
X71107479Y-90121440D01*
X70973956Y-90411074D01*
X70971206Y-90418125D01*
X70873444Y-90721708D01*
X70871561Y-90729041D01*
X70810979Y-91042170D01*
X70809992Y-91049670D01*
X70787467Y-91367802D01*
X70787388Y-91375383D01*
X70295005Y-91375383D01*
X70295037Y-89313423D01*
X71777917Y-89313423D01*
X71784520Y-89325309D01*
X73487190Y-91027980D01*
X73501131Y-91035592D01*
X73502966Y-91035461D01*
X73509580Y-91031210D01*
X75214559Y-89326230D01*
X75221571Y-89313389D01*
X75213777Y-89302701D01*
X75051298Y-89174613D01*
X75045075Y-89170288D01*
X74772702Y-89004357D01*
X74766025Y-89000822D01*
X74475686Y-88868813D01*
X74468616Y-88866099D01*
X74164537Y-88769932D01*
X74157186Y-88768085D01*
X73843746Y-88709142D01*
X73836237Y-88708194D01*
X73517989Y-88687335D01*
X73510424Y-88687295D01*
X73191964Y-88704821D01*
X73184450Y-88705690D01*
X72870405Y-88761348D01*
X72863044Y-88763115D01*
X72557980Y-88856092D01*
X72550860Y-88858740D01*
X72259182Y-88987690D01*
X72252445Y-88991167D01*
X71978355Y-89154233D01*
X71972091Y-89158490D01*
X71786385Y-89301762D01*
X71777917Y-89313423D01*
X70295037Y-89313423D01*
X70295051Y-88405933D01*
X77826000Y-88405933D01*
X77826001Y-90156066D01*
X77840766Y-90230301D01*
X77847661Y-90240620D01*
X77847662Y-90240622D01*
X77881665Y-90291510D01*
X77897016Y-90314484D01*
X77981199Y-90370734D01*
X78055433Y-90385500D01*
X78930358Y-90385500D01*
X79805566Y-90385499D01*
X79841318Y-90378388D01*
X79867626Y-90373156D01*
X79867628Y-90373155D01*
X79879801Y-90370734D01*
X79890121Y-90363839D01*
X79890122Y-90363838D01*
X79953668Y-90321377D01*
X79963984Y-90314484D01*
X80020234Y-90230301D01*
X80035000Y-90156067D01*
X80034999Y-88405934D01*
X80026434Y-88362869D01*
X80022656Y-88343874D01*
X80022655Y-88343872D01*
X80020234Y-88331699D01*
X80010727Y-88317470D01*
X79970877Y-88257832D01*
X79963984Y-88247516D01*
X79879801Y-88191266D01*
X79805567Y-88176500D01*
X78930642Y-88176500D01*
X78055434Y-88176501D01*
X78019682Y-88183612D01*
X77993374Y-88188844D01*
X77993372Y-88188845D01*
X77981199Y-88191266D01*
X77970879Y-88198161D01*
X77970878Y-88198162D01*
X77926767Y-88227637D01*
X77897016Y-88247516D01*
X77840766Y-88331699D01*
X77826000Y-88405933D01*
X70295051Y-88405933D01*
X70295100Y-85298170D01*
X73617660Y-85298170D01*
X73623387Y-85305820D01*
X73794542Y-85410705D01*
X73803337Y-85415187D01*
X74013488Y-85502234D01*
X74022873Y-85505283D01*
X74244054Y-85558385D01*
X74253801Y-85559928D01*
X74480570Y-85577775D01*
X74490430Y-85577775D01*
X74717199Y-85559928D01*
X74726946Y-85558385D01*
X74948127Y-85505283D01*
X74957512Y-85502234D01*
X75167663Y-85415187D01*
X75176458Y-85410705D01*
X75343945Y-85308068D01*
X75352900Y-85298170D01*
X80117660Y-85298170D01*
X80123387Y-85305820D01*
X80294542Y-85410705D01*
X80303337Y-85415187D01*
X80513488Y-85502234D01*
X80522873Y-85505283D01*
X80744054Y-85558385D01*
X80753801Y-85559928D01*
X80980570Y-85577775D01*
X80990430Y-85577775D01*
X81217199Y-85559928D01*
X81226946Y-85558385D01*
X81448127Y-85505283D01*
X81457512Y-85502234D01*
X81667663Y-85415187D01*
X81676458Y-85410705D01*
X81843945Y-85308068D01*
X81853407Y-85297610D01*
X81849624Y-85288834D01*
X80998312Y-84437522D01*
X80984368Y-84429908D01*
X80982535Y-84430039D01*
X80975920Y-84434290D01*
X80124420Y-85285790D01*
X80117660Y-85298170D01*
X75352900Y-85298170D01*
X75353407Y-85297610D01*
X75349624Y-85288834D01*
X74498312Y-84437522D01*
X74484368Y-84429908D01*
X74482535Y-84430039D01*
X74475920Y-84434290D01*
X73624420Y-85285790D01*
X73617660Y-85298170D01*
X70295100Y-85298170D01*
X70295119Y-84070430D01*
X72973225Y-84070430D01*
X72991072Y-84297199D01*
X72992615Y-84306946D01*
X73045717Y-84528127D01*
X73048766Y-84537512D01*
X73135813Y-84747663D01*
X73140295Y-84756458D01*
X73242932Y-84923945D01*
X73253390Y-84933407D01*
X73262166Y-84929624D01*
X74113478Y-84078312D01*
X74119856Y-84066632D01*
X74849908Y-84066632D01*
X74850039Y-84068465D01*
X74854290Y-84075080D01*
X75705790Y-84926580D01*
X75718170Y-84933340D01*
X75725820Y-84927613D01*
X75830705Y-84756458D01*
X75835187Y-84747663D01*
X75922234Y-84537512D01*
X75925283Y-84528127D01*
X75978385Y-84306946D01*
X75979928Y-84297199D01*
X75997775Y-84070430D01*
X79473225Y-84070430D01*
X79491072Y-84297199D01*
X79492615Y-84306946D01*
X79545717Y-84528127D01*
X79548766Y-84537512D01*
X79635813Y-84747663D01*
X79640295Y-84756458D01*
X79742932Y-84923945D01*
X79753390Y-84933407D01*
X79762166Y-84929624D01*
X80613478Y-84078312D01*
X80621092Y-84064368D01*
X80620961Y-84062535D01*
X80616710Y-84055920D01*
X79765210Y-83204420D01*
X79752830Y-83197660D01*
X79745180Y-83203387D01*
X79640295Y-83374542D01*
X79635813Y-83383337D01*
X79548766Y-83593488D01*
X79545717Y-83602873D01*
X79492615Y-83824054D01*
X79491072Y-83833801D01*
X79473225Y-84060570D01*
X79473225Y-84070430D01*
X75997775Y-84070430D01*
X75997775Y-84060570D01*
X75979928Y-83833801D01*
X75978385Y-83824054D01*
X75925283Y-83602873D01*
X75922234Y-83593488D01*
X75835187Y-83383337D01*
X75830705Y-83374542D01*
X75728068Y-83207055D01*
X75717610Y-83197593D01*
X75708834Y-83201376D01*
X74857522Y-84052688D01*
X74849908Y-84066632D01*
X74119856Y-84066632D01*
X74121092Y-84064368D01*
X74120961Y-84062535D01*
X74116710Y-84055920D01*
X73265210Y-83204420D01*
X73252830Y-83197660D01*
X73245180Y-83203387D01*
X73140295Y-83374542D01*
X73135813Y-83383337D01*
X73048766Y-83593488D01*
X73045717Y-83602873D01*
X72992615Y-83824054D01*
X72991072Y-83833801D01*
X72973225Y-84060570D01*
X72973225Y-84070430D01*
X70295119Y-84070430D01*
X70295138Y-82833390D01*
X73617593Y-82833390D01*
X73621376Y-82842166D01*
X74472688Y-83693478D01*
X74486632Y-83701092D01*
X74488465Y-83700961D01*
X74495080Y-83696710D01*
X75346580Y-82845210D01*
X75353034Y-82833390D01*
X80117593Y-82833390D01*
X80121376Y-82842166D01*
X80972688Y-83693478D01*
X80986632Y-83701092D01*
X80988465Y-83700961D01*
X80995080Y-83696710D01*
X81846580Y-82845210D01*
X81853340Y-82832830D01*
X81847613Y-82825180D01*
X81676458Y-82720295D01*
X81667663Y-82715813D01*
X81457512Y-82628766D01*
X81448127Y-82625717D01*
X81226946Y-82572615D01*
X81217199Y-82571072D01*
X80990430Y-82553225D01*
X80980570Y-82553225D01*
X80753801Y-82571072D01*
X80744054Y-82572615D01*
X80522873Y-82625717D01*
X80513488Y-82628766D01*
X80303337Y-82715813D01*
X80294542Y-82720295D01*
X80127055Y-82822932D01*
X80117593Y-82833390D01*
X75353034Y-82833390D01*
X75353340Y-82832830D01*
X75347613Y-82825180D01*
X75176458Y-82720295D01*
X75167663Y-82715813D01*
X74957512Y-82628766D01*
X74948127Y-82625717D01*
X74726946Y-82572615D01*
X74717199Y-82571072D01*
X74490430Y-82553225D01*
X74480570Y-82553225D01*
X74253801Y-82571072D01*
X74244054Y-82572615D01*
X74022873Y-82625717D01*
X74013488Y-82628766D01*
X73803337Y-82715813D01*
X73794542Y-82720295D01*
X73627055Y-82822932D01*
X73617593Y-82833390D01*
X70295138Y-82833390D01*
X70295292Y-72939164D01*
X70295488Y-60452000D01*
X71969208Y-60452000D01*
X71988339Y-60670674D01*
X72045153Y-60882703D01*
X72080452Y-60958403D01*
X72135595Y-61076659D01*
X72135598Y-61076664D01*
X72137921Y-61081646D01*
X72141077Y-61086153D01*
X72141078Y-61086155D01*
X72253338Y-61246478D01*
X72263826Y-61261457D01*
X72419043Y-61416674D01*
X72423551Y-61419831D01*
X72423554Y-61419833D01*
X72520271Y-61487555D01*
X72564599Y-61543012D01*
X72574000Y-61590768D01*
X72574000Y-61943679D01*
X72573447Y-61955420D01*
X72571726Y-61963117D01*
X72571975Y-61971043D01*
X72571975Y-61971044D01*
X72573938Y-62033507D01*
X72574000Y-62037465D01*
X72574000Y-62066378D01*
X72574495Y-62070297D01*
X72574495Y-62070299D01*
X72574549Y-62070725D01*
X72575478Y-62082539D01*
X72576248Y-62107034D01*
X72576920Y-62128400D01*
X72579131Y-62136010D01*
X72582851Y-62148815D01*
X72586860Y-62168173D01*
X72589524Y-62189261D01*
X72592443Y-62196633D01*
X72592443Y-62196634D01*
X72606410Y-62231912D01*
X72610255Y-62243141D01*
X72623055Y-62287199D01*
X72627092Y-62294025D01*
X72633877Y-62305498D01*
X72642572Y-62323245D01*
X72650399Y-62343014D01*
X72673422Y-62374702D01*
X72677361Y-62380124D01*
X72683878Y-62390046D01*
X72703193Y-62422706D01*
X72703196Y-62422710D01*
X72707233Y-62429536D01*
X72722262Y-62444565D01*
X72735102Y-62459598D01*
X72747598Y-62476797D01*
X72782962Y-62506052D01*
X72791728Y-62514031D01*
X73044999Y-62767302D01*
X73079025Y-62829614D01*
X73079483Y-62880978D01*
X73079444Y-62881174D01*
X73067100Y-62943233D01*
X73067101Y-64793366D01*
X73081866Y-64867601D01*
X73088761Y-64877920D01*
X73088762Y-64877922D01*
X73107834Y-64906464D01*
X73138116Y-64951784D01*
X73222299Y-65008034D01*
X73296533Y-65022800D01*
X75071313Y-65022800D01*
X76846666Y-65022799D01*
X76887874Y-65014603D01*
X76908726Y-65010456D01*
X76908728Y-65010455D01*
X76920901Y-65008034D01*
X76931221Y-65001139D01*
X76931222Y-65001138D01*
X76994768Y-64958677D01*
X77005084Y-64951784D01*
X77061334Y-64867601D01*
X77076100Y-64793367D01*
X77076099Y-62943234D01*
X77061334Y-62868999D01*
X77035018Y-62829614D01*
X77011977Y-62795132D01*
X77005084Y-62784816D01*
X76920901Y-62728566D01*
X76846667Y-62713800D01*
X76634280Y-62713800D01*
X74894894Y-62713801D01*
X74826773Y-62693799D01*
X74805799Y-62676896D01*
X73919905Y-61791002D01*
X73885879Y-61728690D01*
X73883000Y-61701907D01*
X73883000Y-61590768D01*
X73903002Y-61522647D01*
X73936729Y-61487555D01*
X74033446Y-61419833D01*
X74033449Y-61419831D01*
X74037957Y-61416674D01*
X74193174Y-61261457D01*
X74203663Y-61246478D01*
X74315922Y-61086155D01*
X74315923Y-61086153D01*
X74319079Y-61081646D01*
X74321402Y-61076664D01*
X74321405Y-61076659D01*
X74376548Y-60958403D01*
X74411847Y-60882703D01*
X74468661Y-60670674D01*
X74487792Y-60452000D01*
X74468661Y-60233326D01*
X74411847Y-60021297D01*
X74361561Y-59913457D01*
X74321405Y-59827341D01*
X74321402Y-59827336D01*
X74319079Y-59822354D01*
X74305827Y-59803428D01*
X74196333Y-59647054D01*
X74196331Y-59647051D01*
X74193174Y-59642543D01*
X74037957Y-59487326D01*
X74033449Y-59484169D01*
X74033446Y-59484167D01*
X73862655Y-59364578D01*
X73862653Y-59364577D01*
X73858146Y-59361421D01*
X73853164Y-59359098D01*
X73853159Y-59359095D01*
X73740264Y-59306452D01*
X73659203Y-59268653D01*
X73447174Y-59211839D01*
X73228500Y-59192708D01*
X73009826Y-59211839D01*
X72797797Y-59268653D01*
X72716736Y-59306452D01*
X72603841Y-59359095D01*
X72603836Y-59359098D01*
X72598854Y-59361421D01*
X72594347Y-59364577D01*
X72594345Y-59364578D01*
X72423554Y-59484167D01*
X72423551Y-59484169D01*
X72419043Y-59487326D01*
X72263826Y-59642543D01*
X72260669Y-59647051D01*
X72260667Y-59647054D01*
X72151173Y-59803428D01*
X72137921Y-59822354D01*
X72135598Y-59827336D01*
X72135595Y-59827341D01*
X72095439Y-59913457D01*
X72045153Y-60021297D01*
X71988339Y-60233326D01*
X71969208Y-60452000D01*
X70295488Y-60452000D01*
X70295564Y-55586423D01*
X71778703Y-55586423D01*
X71786227Y-55596854D01*
X71925483Y-55709020D01*
X71931657Y-55713408D01*
X72202271Y-55882178D01*
X72208931Y-55885794D01*
X72497852Y-56020827D01*
X72504905Y-56023620D01*
X72807970Y-56122970D01*
X72815282Y-56124888D01*
X73128092Y-56187109D01*
X73135590Y-56188137D01*
X73453610Y-56212328D01*
X73461173Y-56212446D01*
X73779785Y-56198257D01*
X73787326Y-56197465D01*
X74101924Y-56145101D01*
X74109302Y-56143411D01*
X74415355Y-56053625D01*
X74422450Y-56051071D01*
X74715496Y-55925169D01*
X74722263Y-55921765D01*
X74998042Y-55761580D01*
X75004349Y-55757390D01*
X75214305Y-55598889D01*
X75222761Y-55587496D01*
X75216045Y-55575256D01*
X73512810Y-53872020D01*
X73498869Y-53864408D01*
X73497034Y-53864539D01*
X73490420Y-53868790D01*
X71785818Y-55573393D01*
X71778703Y-55586423D01*
X70295564Y-55586423D01*
X70295597Y-53475383D01*
X70787388Y-53475383D01*
X70803245Y-53793914D01*
X70804076Y-53801443D01*
X70858085Y-54115759D01*
X70859818Y-54123146D01*
X70951196Y-54428695D01*
X70953799Y-54435808D01*
X71081227Y-54728173D01*
X71084669Y-54734929D01*
X71246296Y-55009865D01*
X71250519Y-55016150D01*
X71401463Y-55213934D01*
X71412989Y-55222396D01*
X71425054Y-55215735D01*
X73127980Y-53512810D01*
X73134357Y-53501131D01*
X73864408Y-53501131D01*
X73864539Y-53502966D01*
X73868790Y-53509580D01*
X75573285Y-55214074D01*
X75586408Y-55221240D01*
X75596709Y-55213851D01*
X75700751Y-55086055D01*
X75705164Y-55079914D01*
X75875349Y-54810187D01*
X75879005Y-54803536D01*
X76015544Y-54515335D01*
X76018375Y-54508295D01*
X76119306Y-54205767D01*
X76121270Y-54198433D01*
X76185122Y-53885989D01*
X76186194Y-53878465D01*
X76212173Y-53559051D01*
X76212378Y-53554576D01*
X76212927Y-53502221D01*
X76212817Y-53497789D01*
X76193529Y-53177853D01*
X76192621Y-53170351D01*
X76135319Y-52856593D01*
X76133518Y-52849260D01*
X76038935Y-52544655D01*
X76036263Y-52537583D01*
X75905781Y-52246570D01*
X75902264Y-52239843D01*
X75737771Y-51966621D01*
X75733481Y-51960377D01*
X75597991Y-51786647D01*
X75586199Y-51778178D01*
X75574486Y-51784725D01*
X73872020Y-53487190D01*
X73864408Y-53501131D01*
X73134357Y-53501131D01*
X73135592Y-53498869D01*
X73135461Y-53497034D01*
X73131210Y-53490420D01*
X71426445Y-51785656D01*
X71413510Y-51778592D01*
X71402949Y-51786252D01*
X71282766Y-51937072D01*
X71278410Y-51943270D01*
X71111059Y-52214764D01*
X71107479Y-52221440D01*
X70973956Y-52511074D01*
X70971206Y-52518125D01*
X70873444Y-52821708D01*
X70871561Y-52829041D01*
X70810979Y-53142170D01*
X70809992Y-53149670D01*
X70787467Y-53467802D01*
X70787388Y-53475383D01*
X70295597Y-53475383D01*
X70295598Y-53381118D01*
X70297822Y-53360533D01*
X70297888Y-53357032D01*
X70300539Y-53344906D01*
X70298348Y-53332688D01*
X70298582Y-53320285D01*
X70298657Y-53320286D01*
X70298068Y-53309281D01*
X70317789Y-53030395D01*
X70319379Y-53017462D01*
X70372836Y-52713449D01*
X70375753Y-52700749D01*
X70460323Y-52403879D01*
X70464536Y-52391549D01*
X70579314Y-52105001D01*
X70584778Y-52093172D01*
X70728535Y-51820010D01*
X70735187Y-51808815D01*
X70906394Y-51551953D01*
X70914171Y-51541501D01*
X71020173Y-51413423D01*
X71777917Y-51413423D01*
X71784520Y-51425309D01*
X73487190Y-53127980D01*
X73501131Y-53135592D01*
X73502966Y-53135461D01*
X73509580Y-53131210D01*
X75214559Y-51426230D01*
X75221571Y-51413389D01*
X75213777Y-51402701D01*
X75051298Y-51274613D01*
X75045075Y-51270288D01*
X74772702Y-51104357D01*
X74766025Y-51100822D01*
X74475686Y-50968813D01*
X74468616Y-50966099D01*
X74164537Y-50869932D01*
X74157186Y-50868085D01*
X73843746Y-50809142D01*
X73836237Y-50808194D01*
X73517989Y-50787335D01*
X73510424Y-50787295D01*
X73191964Y-50804821D01*
X73184450Y-50805690D01*
X72870405Y-50861348D01*
X72863044Y-50863115D01*
X72557980Y-50956092D01*
X72550860Y-50958740D01*
X72259182Y-51087690D01*
X72252445Y-51091167D01*
X71978355Y-51254233D01*
X71972091Y-51258490D01*
X71786385Y-51401762D01*
X71777917Y-51413423D01*
X71020173Y-51413423D01*
X71110976Y-51303709D01*
X71119792Y-51294113D01*
X71340117Y-51077906D01*
X71349877Y-51069273D01*
X71591336Y-50876991D01*
X71601935Y-50869412D01*
X71861981Y-50703081D01*
X71873301Y-50696639D01*
X72010406Y-50627756D01*
X72149126Y-50558061D01*
X72161056Y-50552821D01*
X72325522Y-50490517D01*
X72449721Y-50443468D01*
X72462116Y-50439492D01*
X72760542Y-50360533D01*
X72773287Y-50357858D01*
X73078270Y-50310144D01*
X73091222Y-50308800D01*
X73370429Y-50294343D01*
X73381421Y-50295139D01*
X73381421Y-50295065D01*
X73393828Y-50295065D01*
X73406000Y-50297486D01*
X73418172Y-50295065D01*
X73418173Y-50295065D01*
X73419259Y-50294849D01*
X73443595Y-50292429D01*
X96292210Y-50248825D01*
X106636293Y-50229084D01*
X106662376Y-50231877D01*
G37*
G04 #@! TD.AperFunction*
G04 #@! TA.AperFunction,Conductor*
G36*
X87306985Y-83275063D02*
G01*
X87352048Y-83304024D01*
X88354641Y-84306617D01*
X88368585Y-84314232D01*
X88389649Y-84312725D01*
X88459023Y-84327816D01*
X88482045Y-84343962D01*
X88513259Y-84371529D01*
X88518947Y-84376876D01*
X88529576Y-84387505D01*
X88533164Y-84390194D01*
X88537239Y-84393249D01*
X88545070Y-84399625D01*
X88558804Y-84411754D01*
X88578323Y-84428992D01*
X88586451Y-84432808D01*
X88591429Y-84436078D01*
X88599252Y-84440779D01*
X88604471Y-84443636D01*
X88611652Y-84449018D01*
X88653187Y-84464589D01*
X88662488Y-84468508D01*
X88702653Y-84487365D01*
X88711520Y-84488746D01*
X88717196Y-84490481D01*
X88726073Y-84492809D01*
X88731859Y-84494081D01*
X88740262Y-84497231D01*
X88763211Y-84498937D01*
X88784487Y-84500518D01*
X88794524Y-84501669D01*
X88806930Y-84503601D01*
X88821297Y-84503601D01*
X88830635Y-84503947D01*
X88877235Y-84507410D01*
X88886011Y-84505537D01*
X88894968Y-84504926D01*
X88894974Y-84505016D01*
X88908378Y-84503601D01*
X89537294Y-84503601D01*
X89605415Y-84523603D01*
X89626389Y-84540506D01*
X90174378Y-85088495D01*
X90181429Y-85097319D01*
X90181876Y-85096939D01*
X90187695Y-85103777D01*
X90192486Y-85111370D01*
X90217871Y-85133789D01*
X90230363Y-85144822D01*
X90236050Y-85150168D01*
X90246687Y-85160805D01*
X90250283Y-85163500D01*
X90254349Y-85166548D01*
X90262191Y-85172932D01*
X90265770Y-85176093D01*
X90295435Y-85202292D01*
X90303562Y-85206107D01*
X90308533Y-85209373D01*
X90316337Y-85214062D01*
X90321579Y-85216932D01*
X90328764Y-85222317D01*
X90337170Y-85225468D01*
X90337173Y-85225470D01*
X90370298Y-85237889D01*
X90379613Y-85241814D01*
X90419765Y-85260665D01*
X90428633Y-85262046D01*
X90434305Y-85263780D01*
X90443161Y-85266103D01*
X90448968Y-85267380D01*
X90457374Y-85270531D01*
X90489483Y-85272917D01*
X90501599Y-85273818D01*
X90511636Y-85274969D01*
X90524042Y-85276901D01*
X90538409Y-85276901D01*
X90547747Y-85277247D01*
X90594347Y-85280710D01*
X90603122Y-85278837D01*
X90612082Y-85278226D01*
X90612088Y-85278315D01*
X90625491Y-85276901D01*
X90639559Y-85276901D01*
X90707680Y-85296903D01*
X90728654Y-85313806D01*
X93122387Y-87707539D01*
X93156413Y-87769851D01*
X93151348Y-87840666D01*
X93122389Y-87885728D01*
X93106568Y-87901550D01*
X93098955Y-87915492D01*
X93099086Y-87917327D01*
X93103337Y-87923941D01*
X94109162Y-88929766D01*
X94143188Y-88992078D01*
X94138123Y-89062893D01*
X94109162Y-89107956D01*
X93916474Y-89300644D01*
X93854162Y-89334670D01*
X93783347Y-89329605D01*
X93738284Y-89300644D01*
X93509355Y-89071715D01*
X93493193Y-89042117D01*
X93491896Y-89042951D01*
X93470257Y-89009281D01*
X92747359Y-88286383D01*
X92733415Y-88278769D01*
X92731582Y-88278900D01*
X92724967Y-88283151D01*
X92688114Y-88320004D01*
X92683552Y-88325088D01*
X92651491Y-88364961D01*
X92643270Y-88378312D01*
X92590030Y-88495411D01*
X92585040Y-88512474D01*
X92566956Y-88638742D01*
X92566956Y-88656519D01*
X92575953Y-88719341D01*
X92565811Y-88789610D01*
X92540321Y-88826299D01*
X92515114Y-88851506D01*
X92452802Y-88885532D01*
X92408156Y-88887138D01*
X92345334Y-88878141D01*
X92327557Y-88878141D01*
X92201289Y-88896225D01*
X92184226Y-88901215D01*
X92067129Y-88954454D01*
X92053775Y-88962677D01*
X92013894Y-88994743D01*
X92008831Y-88999286D01*
X91975196Y-89032921D01*
X91967584Y-89046863D01*
X91967715Y-89048698D01*
X91971966Y-89055312D01*
X92694864Y-89778210D01*
X92730371Y-89797599D01*
X92759079Y-89819091D01*
X93037368Y-90097380D01*
X93053529Y-90126976D01*
X93054827Y-90126142D01*
X93076466Y-90159812D01*
X93799364Y-90882710D01*
X93820814Y-90894423D01*
X93874154Y-90906027D01*
X93902862Y-90927519D01*
X94087137Y-91111794D01*
X94094679Y-91121234D01*
X94095059Y-91120911D01*
X94100877Y-91127747D01*
X94105667Y-91135339D01*
X94112395Y-91141281D01*
X94145673Y-91170671D01*
X94151360Y-91176017D01*
X94162694Y-91187351D01*
X94166277Y-91190036D01*
X94166279Y-91190038D01*
X94170969Y-91193553D01*
X94178812Y-91199938D01*
X94213984Y-91231001D01*
X94222106Y-91234814D01*
X94224907Y-91236654D01*
X94238902Y-91245063D01*
X94241865Y-91246685D01*
X94249050Y-91252070D01*
X94257460Y-91255223D01*
X94257462Y-91255224D01*
X94292996Y-91268546D01*
X94302309Y-91272470D01*
X94344796Y-91292417D01*
X94353670Y-91293799D01*
X94356897Y-91294785D01*
X94372660Y-91298920D01*
X94375954Y-91299644D01*
X94384366Y-91302798D01*
X94393324Y-91303464D01*
X94393325Y-91303464D01*
X94431164Y-91306276D01*
X94441188Y-91307426D01*
X94454511Y-91309500D01*
X94469876Y-91309500D01*
X94479213Y-91309846D01*
X94528480Y-91313507D01*
X94537258Y-91311633D01*
X94540928Y-91311383D01*
X94610252Y-91326704D01*
X94660287Y-91377073D01*
X94675500Y-91437091D01*
X94675500Y-91502756D01*
X94682202Y-91564448D01*
X94684974Y-91571841D01*
X94684974Y-91571843D01*
X94696381Y-91602271D01*
X94701564Y-91673078D01*
X94667643Y-91735447D01*
X94605387Y-91769576D01*
X94578399Y-91772500D01*
X93022369Y-91772500D01*
X93007559Y-91771627D01*
X92990610Y-91769621D01*
X92975757Y-91767863D01*
X92966493Y-91769555D01*
X92966492Y-91769555D01*
X92920817Y-91777897D01*
X92916909Y-91778547D01*
X92887792Y-91782924D01*
X92817455Y-91773271D01*
X92763503Y-91727123D01*
X92743065Y-91659131D01*
X92762630Y-91590884D01*
X92779967Y-91569229D01*
X92900238Y-91448958D01*
X92962550Y-91414932D01*
X93007196Y-91413326D01*
X93070018Y-91422323D01*
X93087795Y-91422323D01*
X93214063Y-91404239D01*
X93231126Y-91399249D01*
X93348223Y-91346010D01*
X93361577Y-91337787D01*
X93401458Y-91305721D01*
X93406521Y-91301178D01*
X93440156Y-91267543D01*
X93447768Y-91253601D01*
X93447637Y-91251766D01*
X93443386Y-91245152D01*
X91615988Y-89417754D01*
X91602044Y-89410140D01*
X91600211Y-89410271D01*
X91593596Y-89414522D01*
X91556743Y-89451375D01*
X91552181Y-89456459D01*
X91520120Y-89496332D01*
X91511899Y-89509683D01*
X91458659Y-89626782D01*
X91453669Y-89643845D01*
X91435585Y-89770113D01*
X91435585Y-89787890D01*
X91444582Y-89850710D01*
X91434440Y-89920978D01*
X91408951Y-89957668D01*
X91184168Y-90182452D01*
X91142116Y-90245385D01*
X91138559Y-90243008D01*
X91108742Y-90280004D01*
X91105722Y-90281653D01*
X91105773Y-90281729D01*
X91047986Y-90320340D01*
X91047982Y-90320343D01*
X91042840Y-90323779D01*
X90727560Y-90639061D01*
X90640097Y-90726524D01*
X90577785Y-90760549D01*
X90506969Y-90755485D01*
X90461906Y-90726525D01*
X90063535Y-90328156D01*
X90059160Y-90323781D01*
X89996227Y-90281729D01*
X89998605Y-90278171D01*
X89961619Y-90248370D01*
X89959961Y-90245334D01*
X89959884Y-90245385D01*
X89921273Y-90187598D01*
X89921270Y-90187594D01*
X89917834Y-90182452D01*
X89493475Y-89758095D01*
X89430542Y-89716043D01*
X89432919Y-89712486D01*
X89395923Y-89682669D01*
X89394274Y-89679649D01*
X89394198Y-89679700D01*
X89355587Y-89621913D01*
X89355584Y-89621909D01*
X89352148Y-89616767D01*
X89245064Y-89509683D01*
X89037142Y-89301762D01*
X88927789Y-89192410D01*
X88864856Y-89150358D01*
X88867234Y-89146800D01*
X88830248Y-89116999D01*
X88828590Y-89113964D01*
X88828513Y-89114015D01*
X88789902Y-89056228D01*
X88789899Y-89056224D01*
X88786463Y-89051082D01*
X88362104Y-88626725D01*
X88299171Y-88584673D01*
X88301546Y-88581119D01*
X88264530Y-88551267D01*
X88262900Y-88548281D01*
X88262827Y-88548329D01*
X88224216Y-88490542D01*
X88224213Y-88490538D01*
X88220777Y-88485396D01*
X88113693Y-88378312D01*
X87907746Y-88172366D01*
X87796418Y-88061039D01*
X87733485Y-88018987D01*
X87735863Y-88015429D01*
X87698877Y-87985628D01*
X87697219Y-87982593D01*
X87697142Y-87982644D01*
X87658531Y-87924857D01*
X87658528Y-87924853D01*
X87655092Y-87919711D01*
X87548402Y-87813021D01*
X87235108Y-87499729D01*
X87230733Y-87495354D01*
X87167800Y-87453302D01*
X87170178Y-87449744D01*
X87133192Y-87419943D01*
X87131534Y-87416907D01*
X87131457Y-87416958D01*
X87092846Y-87359171D01*
X87092843Y-87359167D01*
X87089407Y-87354025D01*
X86665048Y-86929668D01*
X86602115Y-86887616D01*
X86604492Y-86884059D01*
X86567496Y-86854242D01*
X86565847Y-86851222D01*
X86565771Y-86851273D01*
X86527160Y-86793486D01*
X86527157Y-86793482D01*
X86523721Y-86788340D01*
X86120976Y-86385597D01*
X86086951Y-86323285D01*
X86092015Y-86252469D01*
X86120975Y-86207406D01*
X86519344Y-85809035D01*
X86523719Y-85804660D01*
X86565771Y-85741727D01*
X86569329Y-85744105D01*
X86599130Y-85707119D01*
X86602166Y-85705461D01*
X86602115Y-85705384D01*
X86659902Y-85666773D01*
X86659907Y-85666769D01*
X86665048Y-85663334D01*
X87089405Y-85238975D01*
X87131457Y-85176042D01*
X87135014Y-85178419D01*
X87164831Y-85141423D01*
X87167851Y-85139774D01*
X87167800Y-85139698D01*
X87225587Y-85101087D01*
X87225592Y-85101083D01*
X87230733Y-85097648D01*
X87329116Y-84999265D01*
X87455515Y-84872865D01*
X87517827Y-84838840D01*
X87562474Y-84837233D01*
X87625295Y-84846230D01*
X87643072Y-84846230D01*
X87769340Y-84828146D01*
X87786403Y-84823156D01*
X87903500Y-84769917D01*
X87916854Y-84761694D01*
X87956735Y-84729628D01*
X87961798Y-84725085D01*
X87995433Y-84691450D01*
X88003045Y-84677508D01*
X88002914Y-84675673D01*
X87998663Y-84669059D01*
X86992838Y-83663234D01*
X86958812Y-83600922D01*
X86963877Y-83530107D01*
X86992838Y-83485044D01*
X87173858Y-83304024D01*
X87236170Y-83269998D01*
X87306985Y-83275063D01*
G37*
G04 #@! TD.AperFunction*
G04 #@! TA.AperFunction,Conductor*
G36*
X104630311Y-87878702D02*
G01*
X104676804Y-87932358D01*
X104680170Y-87940466D01*
X104689729Y-87965964D01*
X104695109Y-87973143D01*
X104695111Y-87973146D01*
X104729467Y-88018987D01*
X104776396Y-88081604D01*
X104783576Y-88086985D01*
X104789926Y-88093335D01*
X104787763Y-88095498D01*
X104821134Y-88140134D01*
X104826155Y-88210953D01*
X104801387Y-88262872D01*
X104798535Y-88266432D01*
X104791619Y-88272825D01*
X104788063Y-88278948D01*
X104783043Y-88284552D01*
X101332000Y-91735595D01*
X101269688Y-91769621D01*
X101242905Y-91772500D01*
X99997524Y-91772500D01*
X99929403Y-91752498D01*
X99882910Y-91698842D01*
X99872806Y-91628568D01*
X99874324Y-91620086D01*
X99878005Y-91602918D01*
X99887672Y-91508562D01*
X99888000Y-91502146D01*
X99888000Y-91077115D01*
X99883525Y-91061876D01*
X99882135Y-91060671D01*
X99874452Y-91059000D01*
X97565116Y-91059000D01*
X97549877Y-91063475D01*
X97548672Y-91064865D01*
X97547001Y-91072548D01*
X97547001Y-91502095D01*
X97547338Y-91508614D01*
X97557256Y-91604204D01*
X97560647Y-91619907D01*
X97555473Y-91690714D01*
X97512838Y-91747485D01*
X97446280Y-91772193D01*
X97437485Y-91772500D01*
X96606601Y-91772500D01*
X96538480Y-91752498D01*
X96491987Y-91698842D01*
X96481883Y-91628568D01*
X96488619Y-91602271D01*
X96500026Y-91571843D01*
X96500026Y-91571841D01*
X96502798Y-91564448D01*
X96509500Y-91502756D01*
X96509500Y-90107244D01*
X96502798Y-90045552D01*
X96452071Y-89910236D01*
X96446691Y-89903057D01*
X96446689Y-89903054D01*
X96370785Y-89801776D01*
X96365404Y-89794596D01*
X96260591Y-89716043D01*
X96256946Y-89713311D01*
X96256943Y-89713309D01*
X96249764Y-89707929D01*
X96164779Y-89676070D01*
X96121846Y-89659975D01*
X96121843Y-89659974D01*
X96114448Y-89657202D01*
X96108397Y-89656545D01*
X96047449Y-89621725D01*
X96013643Y-89553093D01*
X96012754Y-89547180D01*
X96007742Y-89513840D01*
X96017395Y-89443505D01*
X96063542Y-89389552D01*
X96132342Y-89369110D01*
X97714628Y-89369110D01*
X97782749Y-89389112D01*
X97829242Y-89442768D01*
X97839346Y-89513042D01*
X97809852Y-89577622D01*
X97803801Y-89584128D01*
X97711261Y-89676829D01*
X97702249Y-89688240D01*
X97617184Y-89826243D01*
X97611037Y-89839424D01*
X97559862Y-89993710D01*
X97556995Y-90007086D01*
X97547328Y-90101438D01*
X97547000Y-90107855D01*
X97547000Y-90532885D01*
X97551475Y-90548124D01*
X97552865Y-90549329D01*
X97560548Y-90551000D01*
X99869884Y-90551000D01*
X99885123Y-90546525D01*
X99886328Y-90545135D01*
X99887999Y-90537452D01*
X99887999Y-90107905D01*
X99887662Y-90101386D01*
X99877743Y-90005794D01*
X99874851Y-89992400D01*
X99823412Y-89838216D01*
X99817239Y-89825038D01*
X99731937Y-89687193D01*
X99722901Y-89675792D01*
X99631233Y-89584283D01*
X99597154Y-89522000D01*
X99602157Y-89451180D01*
X99644654Y-89394307D01*
X99711153Y-89369439D01*
X99720251Y-89369110D01*
X99945570Y-89369110D01*
X99956790Y-89370364D01*
X99956837Y-89369779D01*
X99965782Y-89370499D01*
X99974539Y-89372480D01*
X100024963Y-89369352D01*
X100032764Y-89369110D01*
X100047821Y-89369110D01*
X100057308Y-89367751D01*
X100067365Y-89366721D01*
X100111626Y-89363976D01*
X100120075Y-89360926D01*
X100125925Y-89359714D01*
X100134742Y-89357516D01*
X100140469Y-89355841D01*
X100149354Y-89354569D01*
X100189740Y-89336206D01*
X100199092Y-89332400D01*
X100232370Y-89320387D01*
X100232374Y-89320385D01*
X100240817Y-89317337D01*
X100248070Y-89312038D01*
X100253319Y-89309247D01*
X100261201Y-89304642D01*
X100266215Y-89301436D01*
X100274387Y-89297720D01*
X100307983Y-89268771D01*
X100315901Y-89262484D01*
X100318866Y-89260318D01*
X100322097Y-89257958D01*
X100322101Y-89257955D01*
X100326032Y-89255083D01*
X100336188Y-89244927D01*
X100343035Y-89238569D01*
X100371642Y-89213920D01*
X100371643Y-89213919D01*
X100378439Y-89208063D01*
X100383318Y-89200536D01*
X100389224Y-89193766D01*
X100389291Y-89193825D01*
X100397770Y-89183345D01*
X101184222Y-88396894D01*
X101246534Y-88362869D01*
X101300376Y-88362930D01*
X101301196Y-88363110D01*
X101307055Y-88365014D01*
X101502662Y-88388339D01*
X101508797Y-88387867D01*
X101508799Y-88387867D01*
X101568601Y-88383265D01*
X101699074Y-88373226D01*
X101888809Y-88320250D01*
X101895938Y-88316649D01*
X102059141Y-88234210D01*
X102059143Y-88234209D01*
X102064642Y-88231431D01*
X102219874Y-88110150D01*
X102223900Y-88105486D01*
X102223903Y-88105483D01*
X102327359Y-87985628D01*
X102348593Y-87961028D01*
X102360272Y-87940470D01*
X102370500Y-87922464D01*
X102421539Y-87873113D01*
X102480057Y-87858700D01*
X104562190Y-87858700D01*
X104630311Y-87878702D01*
G37*
G04 #@! TD.AperFunction*
G04 #@! TA.AperFunction,Conductor*
G36*
X109672103Y-76024347D02*
G01*
X109717130Y-76079238D01*
X109727144Y-76128468D01*
X109727120Y-77664795D01*
X109727114Y-78109898D01*
X109727113Y-78143249D01*
X109707110Y-78211369D01*
X109653454Y-78257861D01*
X109583179Y-78267964D01*
X109534997Y-78250507D01*
X109415557Y-78176884D01*
X109402376Y-78170737D01*
X109248090Y-78119562D01*
X109234714Y-78116695D01*
X109140362Y-78107028D01*
X109133945Y-78106700D01*
X108946415Y-78106700D01*
X108931176Y-78111175D01*
X108929971Y-78112565D01*
X108928300Y-78120248D01*
X108928300Y-79642700D01*
X108908298Y-79710821D01*
X108854642Y-79757314D01*
X108802300Y-79768700D01*
X108546300Y-79768700D01*
X108478179Y-79748698D01*
X108431686Y-79695042D01*
X108420300Y-79642700D01*
X108420300Y-78124816D01*
X108415825Y-78109577D01*
X108414435Y-78108372D01*
X108406752Y-78106701D01*
X108214705Y-78106701D01*
X108208186Y-78107038D01*
X108112594Y-78116957D01*
X108099200Y-78119849D01*
X107945016Y-78171288D01*
X107931838Y-78177461D01*
X107787765Y-78266617D01*
X107786649Y-78264814D01*
X107730562Y-78287520D01*
X107660797Y-78274354D01*
X107609225Y-78225559D01*
X107592100Y-78162138D01*
X107592100Y-78055694D01*
X107612102Y-77987573D01*
X107629005Y-77966599D01*
X108486476Y-77109129D01*
X109373391Y-76222214D01*
X109384480Y-76212359D01*
X109402231Y-76198365D01*
X109409628Y-76192534D01*
X109415524Y-76184004D01*
X109441364Y-76146615D01*
X109443666Y-76143393D01*
X109471268Y-76106024D01*
X109471269Y-76106023D01*
X109476865Y-76098446D01*
X109479147Y-76091949D01*
X109483059Y-76086288D01*
X109485898Y-76077310D01*
X109487986Y-76073047D01*
X109535911Y-76020667D01*
X109604547Y-76002512D01*
X109672103Y-76024347D01*
G37*
G04 #@! TD.AperFunction*
G04 #@! TA.AperFunction,Conductor*
G36*
X85705315Y-70258501D02*
G01*
X85726285Y-70275400D01*
X86630997Y-71180113D01*
X86665021Y-71242423D01*
X86667900Y-71269206D01*
X86667900Y-74261679D01*
X86647898Y-74329800D01*
X86594242Y-74376293D01*
X86523968Y-74386397D01*
X86459388Y-74356903D01*
X86452882Y-74350852D01*
X86383671Y-74281761D01*
X86372259Y-74272749D01*
X86234255Y-74187682D01*
X86221077Y-74181538D01*
X86066784Y-74130361D01*
X86053419Y-74127495D01*
X85959061Y-74117828D01*
X85952644Y-74117500D01*
X85552615Y-74117500D01*
X85537376Y-74121975D01*
X85536171Y-74123365D01*
X85534500Y-74131048D01*
X85534500Y-76540385D01*
X85538975Y-76555624D01*
X85540365Y-76556829D01*
X85548048Y-76558500D01*
X85952596Y-76558500D01*
X85959111Y-76558163D01*
X86054703Y-76548244D01*
X86068102Y-76545350D01*
X86222283Y-76493912D01*
X86235462Y-76487738D01*
X86373307Y-76402437D01*
X86384708Y-76393401D01*
X86452727Y-76325263D01*
X86515009Y-76291184D01*
X86585829Y-76296187D01*
X86642702Y-76338684D01*
X86667571Y-76405182D01*
X86667900Y-76414281D01*
X86667900Y-77062092D01*
X86647898Y-77130213D01*
X86594242Y-77176706D01*
X86523968Y-77186810D01*
X86466335Y-77162918D01*
X86422696Y-77130213D01*
X86394564Y-77109129D01*
X86272562Y-77063393D01*
X86266643Y-77061174D01*
X86266641Y-77061174D01*
X86259248Y-77058402D01*
X86251398Y-77057549D01*
X86251397Y-77057549D01*
X86200953Y-77052069D01*
X86200952Y-77052069D01*
X86197556Y-77051700D01*
X85302044Y-77051700D01*
X85298648Y-77052069D01*
X85298647Y-77052069D01*
X85248203Y-77057549D01*
X85248202Y-77057549D01*
X85240352Y-77058402D01*
X85232959Y-77061174D01*
X85232957Y-77061174D01*
X85227038Y-77063393D01*
X85105036Y-77109129D01*
X85097857Y-77114509D01*
X85097854Y-77114511D01*
X85014868Y-77176706D01*
X84989396Y-77195796D01*
X84984015Y-77202976D01*
X84908111Y-77304254D01*
X84908109Y-77304257D01*
X84902729Y-77311436D01*
X84852002Y-77446752D01*
X84851149Y-77454602D01*
X84851149Y-77454603D01*
X84847944Y-77484105D01*
X84845300Y-77508444D01*
X84845300Y-77550700D01*
X84825298Y-77618821D01*
X84771642Y-77665314D01*
X84719300Y-77676700D01*
X84004961Y-77676700D01*
X83936840Y-77656698D01*
X83915866Y-77639795D01*
X83134477Y-76858406D01*
X83126935Y-76848966D01*
X83126555Y-76849289D01*
X83120737Y-76842453D01*
X83115947Y-76834861D01*
X83075940Y-76799528D01*
X83070254Y-76794183D01*
X83058920Y-76782849D01*
X83053871Y-76779065D01*
X83050645Y-76776647D01*
X83042800Y-76770260D01*
X83014357Y-76745140D01*
X83007630Y-76739199D01*
X82999508Y-76735386D01*
X82996707Y-76733546D01*
X82982712Y-76725137D01*
X82979749Y-76723515D01*
X82972564Y-76718130D01*
X82950585Y-76709890D01*
X82930808Y-76702476D01*
X82874043Y-76659835D01*
X82849343Y-76593273D01*
X82849443Y-76591154D01*
X82842624Y-76575334D01*
X81991312Y-75724022D01*
X81977368Y-75716408D01*
X81975535Y-75716539D01*
X81968920Y-75720790D01*
X81117418Y-76572292D01*
X81104970Y-76595088D01*
X81054767Y-76645289D01*
X80994384Y-76660700D01*
X78315361Y-76660700D01*
X78247240Y-76640698D01*
X78226266Y-76623795D01*
X77664525Y-76062054D01*
X77630499Y-75999742D01*
X77635564Y-75928927D01*
X77678111Y-75872091D01*
X77744631Y-75847280D01*
X77793287Y-75853366D01*
X77855307Y-75873937D01*
X77868686Y-75876805D01*
X77963038Y-75886472D01*
X77969454Y-75886800D01*
X78119485Y-75886800D01*
X78134724Y-75882325D01*
X78135929Y-75880935D01*
X78137600Y-75873252D01*
X78137600Y-75868684D01*
X78645600Y-75868684D01*
X78650075Y-75883923D01*
X78651465Y-75885128D01*
X78659148Y-75886799D01*
X78813695Y-75886799D01*
X78820214Y-75886462D01*
X78915806Y-75876543D01*
X78929200Y-75873651D01*
X79083384Y-75822212D01*
X79096562Y-75816039D01*
X79234407Y-75730737D01*
X79245808Y-75721701D01*
X79360339Y-75606971D01*
X79369351Y-75595560D01*
X79454416Y-75457557D01*
X79460563Y-75444376D01*
X79511738Y-75290090D01*
X79514605Y-75276714D01*
X79524272Y-75182362D01*
X79524600Y-75175946D01*
X79524600Y-75125915D01*
X79520125Y-75110676D01*
X79518735Y-75109471D01*
X79511052Y-75107800D01*
X78663715Y-75107800D01*
X78648476Y-75112275D01*
X78647271Y-75113665D01*
X78645600Y-75121348D01*
X78645600Y-75868684D01*
X78137600Y-75868684D01*
X78137600Y-74725800D01*
X78157602Y-74657679D01*
X78211258Y-74611186D01*
X78263600Y-74599800D01*
X79506484Y-74599800D01*
X79521723Y-74595325D01*
X79522928Y-74593935D01*
X79524599Y-74586252D01*
X79524599Y-74531705D01*
X79524262Y-74525186D01*
X79514343Y-74429594D01*
X79511451Y-74416200D01*
X79482818Y-74330376D01*
X79480234Y-74259427D01*
X79516417Y-74198343D01*
X79579882Y-74166518D01*
X79602342Y-74164500D01*
X80736255Y-74164500D01*
X80804376Y-74184502D01*
X80850869Y-74238158D01*
X80860973Y-74308432D01*
X80832066Y-74372331D01*
X80757943Y-74459117D01*
X80752143Y-74467101D01*
X80633295Y-74661042D01*
X80628813Y-74669837D01*
X80541766Y-74879988D01*
X80538717Y-74889373D01*
X80485615Y-75110554D01*
X80484072Y-75120301D01*
X80466225Y-75347070D01*
X80466225Y-75356930D01*
X80484072Y-75583699D01*
X80485615Y-75593446D01*
X80538717Y-75814627D01*
X80541766Y-75824012D01*
X80628813Y-76034163D01*
X80633295Y-76042958D01*
X80735932Y-76210445D01*
X80746390Y-76219907D01*
X80755166Y-76216124D01*
X81618158Y-75353132D01*
X82342908Y-75353132D01*
X82343039Y-75354965D01*
X82347290Y-75361580D01*
X83198790Y-76213080D01*
X83211170Y-76219840D01*
X83218820Y-76214113D01*
X83323705Y-76042958D01*
X83328187Y-76034163D01*
X83405465Y-75847596D01*
X83897500Y-75847596D01*
X83897837Y-75854111D01*
X83907756Y-75949703D01*
X83910650Y-75963102D01*
X83962088Y-76117283D01*
X83968262Y-76130462D01*
X84053563Y-76268307D01*
X84062599Y-76279708D01*
X84177330Y-76394239D01*
X84188741Y-76403251D01*
X84326745Y-76488318D01*
X84339923Y-76494462D01*
X84494216Y-76545639D01*
X84507581Y-76548505D01*
X84601939Y-76558172D01*
X84608355Y-76558500D01*
X85008385Y-76558500D01*
X85023624Y-76554025D01*
X85024829Y-76552635D01*
X85026500Y-76544952D01*
X85026500Y-75610115D01*
X85022025Y-75594876D01*
X85020635Y-75593671D01*
X85012952Y-75592000D01*
X83915615Y-75592000D01*
X83900376Y-75596475D01*
X83899171Y-75597865D01*
X83897500Y-75605548D01*
X83897500Y-75847596D01*
X83405465Y-75847596D01*
X83415234Y-75824012D01*
X83418283Y-75814627D01*
X83471385Y-75593446D01*
X83472928Y-75583699D01*
X83490775Y-75356930D01*
X83490775Y-75347070D01*
X83472928Y-75120301D01*
X83471385Y-75110554D01*
X83460661Y-75065885D01*
X83897500Y-75065885D01*
X83901975Y-75081124D01*
X83903365Y-75082329D01*
X83911048Y-75084000D01*
X85008385Y-75084000D01*
X85023624Y-75079525D01*
X85024829Y-75078135D01*
X85026500Y-75070452D01*
X85026500Y-74135615D01*
X85022025Y-74120376D01*
X85020635Y-74119171D01*
X85012952Y-74117500D01*
X84608404Y-74117500D01*
X84601889Y-74117837D01*
X84506297Y-74127756D01*
X84492898Y-74130650D01*
X84338717Y-74182088D01*
X84325538Y-74188262D01*
X84187693Y-74273563D01*
X84176292Y-74282599D01*
X84061761Y-74397330D01*
X84052749Y-74408741D01*
X83967682Y-74546745D01*
X83961538Y-74559923D01*
X83910361Y-74714216D01*
X83907495Y-74727581D01*
X83897828Y-74821939D01*
X83897500Y-74828356D01*
X83897500Y-75065885D01*
X83460661Y-75065885D01*
X83418283Y-74889373D01*
X83415234Y-74879988D01*
X83328187Y-74669837D01*
X83323705Y-74661042D01*
X83221068Y-74493555D01*
X83210610Y-74484093D01*
X83201834Y-74487876D01*
X82350522Y-75339188D01*
X82342908Y-75353132D01*
X81618158Y-75353132D01*
X82839580Y-74131710D01*
X82846340Y-74119330D01*
X82840613Y-74111680D01*
X82669458Y-74006795D01*
X82660663Y-74002313D01*
X82450512Y-73915266D01*
X82441127Y-73912217D01*
X82219946Y-73859115D01*
X82210199Y-73857572D01*
X81983430Y-73839725D01*
X81973570Y-73839725D01*
X81837310Y-73850449D01*
X81767830Y-73835853D01*
X81717270Y-73786011D01*
X81701684Y-73716746D01*
X81726019Y-73650050D01*
X81738329Y-73635742D01*
X82184592Y-73189479D01*
X82194032Y-73181937D01*
X82193709Y-73181557D01*
X82200545Y-73175739D01*
X82208137Y-73170949D01*
X82243470Y-73130942D01*
X82248815Y-73125256D01*
X82260149Y-73113922D01*
X82262836Y-73110336D01*
X82262841Y-73110331D01*
X82266355Y-73105643D01*
X82272736Y-73097805D01*
X82297858Y-73069359D01*
X82303799Y-73062632D01*
X82307613Y-73054509D01*
X82309459Y-73051698D01*
X82317870Y-73037699D01*
X82319484Y-73034750D01*
X82324868Y-73027567D01*
X82341340Y-72983628D01*
X82345267Y-72974308D01*
X82361400Y-72939946D01*
X82361400Y-72939945D01*
X82365215Y-72931820D01*
X82366596Y-72922949D01*
X82367581Y-72919727D01*
X82371718Y-72903956D01*
X82372442Y-72900662D01*
X82375596Y-72892250D01*
X82379074Y-72845452D01*
X82380224Y-72835428D01*
X82382298Y-72822105D01*
X82382298Y-72806740D01*
X82382644Y-72797403D01*
X82385532Y-72758542D01*
X82386305Y-72748136D01*
X82384432Y-72739361D01*
X82383839Y-72730665D01*
X82382298Y-72716065D01*
X82382298Y-71412160D01*
X82402300Y-71344039D01*
X82455956Y-71297546D01*
X82526230Y-71287442D01*
X82540272Y-71290284D01*
X82638322Y-71316007D01*
X82722277Y-71317326D01*
X82789119Y-71318376D01*
X82789122Y-71318376D01*
X82796716Y-71318495D01*
X82951132Y-71283129D01*
X83092655Y-71211951D01*
X83138860Y-71172488D01*
X83203648Y-71143458D01*
X83220689Y-71142300D01*
X84041995Y-71142300D01*
X84110116Y-71162302D01*
X84131090Y-71179205D01*
X84305343Y-71353458D01*
X84339369Y-71415770D01*
X84334304Y-71486585D01*
X84305343Y-71531648D01*
X84302276Y-71534715D01*
X84295096Y-71540096D01*
X84289715Y-71547276D01*
X84213811Y-71648554D01*
X84213809Y-71648557D01*
X84208429Y-71655736D01*
X84205279Y-71664139D01*
X84177338Y-71738674D01*
X84157702Y-71791053D01*
X84151000Y-71852745D01*
X84151001Y-72873254D01*
X84151370Y-72876648D01*
X84151370Y-72876654D01*
X84156462Y-72923527D01*
X84157702Y-72934947D01*
X84208429Y-73070264D01*
X84213809Y-73077443D01*
X84213811Y-73077446D01*
X84273946Y-73157683D01*
X84295096Y-73185904D01*
X84302276Y-73191285D01*
X84403554Y-73267189D01*
X84403557Y-73267191D01*
X84410736Y-73272571D01*
X84419139Y-73275721D01*
X84538658Y-73320526D01*
X84538659Y-73320526D01*
X84546053Y-73323298D01*
X84553903Y-73324151D01*
X84553904Y-73324151D01*
X84561204Y-73324944D01*
X84607745Y-73330000D01*
X85280401Y-73330000D01*
X85953254Y-73329999D01*
X85956648Y-73329630D01*
X85956654Y-73329630D01*
X86007089Y-73324152D01*
X86007093Y-73324151D01*
X86014947Y-73323298D01*
X86150264Y-73272571D01*
X86157443Y-73267191D01*
X86157446Y-73267189D01*
X86258724Y-73191285D01*
X86265904Y-73185904D01*
X86287054Y-73157683D01*
X86347189Y-73077446D01*
X86347191Y-73077443D01*
X86352571Y-73070264D01*
X86376349Y-73006835D01*
X86400526Y-72942342D01*
X86400526Y-72942341D01*
X86403298Y-72934947D01*
X86404952Y-72919727D01*
X86409631Y-72876652D01*
X86409631Y-72876651D01*
X86410000Y-72873255D01*
X86409999Y-71852746D01*
X86409506Y-71848204D01*
X86404152Y-71798911D01*
X86404151Y-71798907D01*
X86403298Y-71791053D01*
X86352571Y-71655736D01*
X86347191Y-71648557D01*
X86347189Y-71648554D01*
X86271285Y-71547276D01*
X86265904Y-71540096D01*
X86223983Y-71508678D01*
X86157446Y-71458811D01*
X86157443Y-71458809D01*
X86150264Y-71453429D01*
X86088945Y-71430442D01*
X86022342Y-71405474D01*
X86022341Y-71405474D01*
X86014947Y-71402702D01*
X86007097Y-71401849D01*
X86007096Y-71401849D01*
X85956652Y-71396369D01*
X85956651Y-71396369D01*
X85953255Y-71396000D01*
X85752442Y-71396000D01*
X85684321Y-71375998D01*
X85650701Y-71344329D01*
X85648846Y-71341790D01*
X85648844Y-71341788D01*
X85645973Y-71337858D01*
X85635817Y-71327702D01*
X85629459Y-71320855D01*
X85604810Y-71292248D01*
X85604809Y-71292247D01*
X85598953Y-71285451D01*
X85591426Y-71280572D01*
X85584656Y-71274666D01*
X85584715Y-71274599D01*
X85574234Y-71266119D01*
X84761710Y-70453595D01*
X84727684Y-70391283D01*
X84732749Y-70320468D01*
X84775296Y-70263632D01*
X84841816Y-70238821D01*
X84850805Y-70238500D01*
X85528254Y-70238499D01*
X85637194Y-70238499D01*
X85705315Y-70258501D01*
G37*
G04 #@! TD.AperFunction*
M02*
