G04 #@! TF.GenerationSoftware,KiCad,Pcbnew,(6.0.9)*
G04 #@! TF.CreationDate,2023-01-15T18:07:44+00:00*
G04 #@! TF.ProjectId,CanBus-Radio-VAG,43616e42-7573-42d5-9261-64696f2d5641,1.0*
G04 #@! TF.SameCoordinates,Original*
G04 #@! TF.FileFunction,Copper,L2,Bot*
G04 #@! TF.FilePolarity,Positive*
%FSLAX46Y46*%
G04 Gerber Fmt 4.6, Leading zero omitted, Abs format (unit mm)*
G04 Created by KiCad (PCBNEW (6.0.9)) date 2023-01-15 18:07:44*
%MOMM*%
%LPD*%
G01*
G04 APERTURE LIST*
G04 Aperture macros list*
%AMRoundRect*
0 Rectangle with rounded corners*
0 $1 Rounding radius*
0 $2 $3 $4 $5 $6 $7 $8 $9 X,Y pos of 4 corners*
0 Add a 4 corners polygon primitive as box body*
4,1,4,$2,$3,$4,$5,$6,$7,$8,$9,$2,$3,0*
0 Add four circle primitives for the rounded corners*
1,1,$1+$1,$2,$3*
1,1,$1+$1,$4,$5*
1,1,$1+$1,$6,$7*
1,1,$1+$1,$8,$9*
0 Add four rect primitives between the rounded corners*
20,1,$1+$1,$2,$3,$4,$5,0*
20,1,$1+$1,$4,$5,$6,$7,0*
20,1,$1+$1,$6,$7,$8,$9,0*
20,1,$1+$1,$8,$9,$2,$3,0*%
G04 Aperture macros list end*
G04 #@! TA.AperFunction,ComponentPad*
%ADD10C,2.000000*%
G04 #@! TD*
G04 #@! TA.AperFunction,ComponentPad*
%ADD11C,4.400000*%
G04 #@! TD*
G04 #@! TA.AperFunction,ComponentPad*
%ADD12C,1.500000*%
G04 #@! TD*
G04 #@! TA.AperFunction,ComponentPad*
%ADD13O,1.700000X1.950000*%
G04 #@! TD*
G04 #@! TA.AperFunction,ComponentPad*
%ADD14RoundRect,0.250000X0.600000X0.725000X-0.600000X0.725000X-0.600000X-0.725000X0.600000X-0.725000X0*%
G04 #@! TD*
G04 #@! TA.AperFunction,ComponentPad*
%ADD15O,1.700000X1.700000*%
G04 #@! TD*
G04 #@! TA.AperFunction,ComponentPad*
%ADD16R,1.700000X1.700000*%
G04 #@! TD*
G04 #@! TA.AperFunction,ViaPad*
%ADD17C,0.800000*%
G04 #@! TD*
G04 #@! TA.AperFunction,Conductor*
%ADD18C,0.800000*%
G04 #@! TD*
G04 #@! TA.AperFunction,Conductor*
%ADD19C,0.450000*%
G04 #@! TD*
G04 #@! TA.AperFunction,Conductor*
%ADD20C,0.500000*%
G04 #@! TD*
G04 #@! TA.AperFunction,Conductor*
%ADD21C,0.350000*%
G04 #@! TD*
G04 APERTURE END LIST*
D10*
X73228500Y-75352000D03*
X73228500Y-60452000D03*
X81978500Y-75352000D03*
X81978500Y-60452000D03*
D11*
X73500000Y-91400000D03*
X106500000Y-91400000D03*
X73500000Y-53500000D03*
X106500000Y-53500000D03*
D12*
X101523800Y-87379200D03*
X101523800Y-82499200D03*
X99996600Y-75336400D03*
X104876600Y-75336400D03*
D10*
X80985500Y-79565500D03*
X80985500Y-84065500D03*
X74485500Y-79565500D03*
X74485500Y-84065500D03*
D13*
X81242500Y-52514500D03*
X83742500Y-52514500D03*
X86242500Y-52514500D03*
X88742500Y-52514500D03*
X91242500Y-52514500D03*
X93742500Y-52514500D03*
X96242500Y-52514500D03*
D14*
X98742500Y-52514500D03*
D15*
X91376500Y-73914000D03*
X88836500Y-73914000D03*
X91376500Y-71374000D03*
X88836500Y-71374000D03*
X91376500Y-68834000D03*
D16*
X88836500Y-68834000D03*
D15*
X81470500Y-91821000D03*
X78930500Y-91821000D03*
X81470500Y-89281000D03*
D16*
X78930500Y-89281000D03*
D17*
X73888600Y-70053200D03*
X73837800Y-68173600D03*
X73837800Y-66344800D03*
X102031800Y-89357200D03*
X97053400Y-90728800D03*
X76581000Y-80772000D03*
X77952600Y-80772000D03*
X76581000Y-82042000D03*
X78003400Y-82042000D03*
X72720200Y-66344800D03*
X72720200Y-68173600D03*
X72771000Y-70053200D03*
X95326200Y-93167200D03*
X90652600Y-86360000D03*
X91973400Y-87630000D03*
X90957400Y-88442800D03*
X89687400Y-87274400D03*
X84353400Y-64008000D03*
X84709000Y-82143600D03*
X84200164Y-88392836D03*
X88023210Y-92003777D03*
X87198200Y-91389200D03*
X109143800Y-65786000D03*
X95021400Y-80264000D03*
X102946200Y-65836800D03*
X88315800Y-80111600D03*
X103200200Y-71170800D03*
X109143800Y-64516000D03*
X92923595Y-79893395D03*
X90957400Y-83972400D03*
X77241400Y-93370400D03*
X85826600Y-91694000D03*
X83591400Y-91694000D03*
X102285800Y-64871600D03*
X109143800Y-63246000D03*
X98425000Y-78421610D03*
X92125800Y-93065600D03*
X89535000Y-94132400D03*
X84353400Y-65243190D03*
X94618839Y-62502811D03*
X94462600Y-60502800D03*
X84439010Y-60397830D03*
X81000600Y-72034400D03*
X82727800Y-70662800D03*
X81864200Y-68275200D03*
X101676200Y-72440800D03*
X100304602Y-56032400D03*
X102501200Y-73660000D03*
X100558600Y-54660800D03*
X103759000Y-93624400D03*
X90870415Y-94147015D03*
D18*
X73228500Y-73354900D02*
X82575400Y-64008000D01*
X82575400Y-64008000D02*
X84353400Y-64008000D01*
X73228500Y-75352000D02*
X73228500Y-73354900D01*
D19*
X84709000Y-82143600D02*
X84709000Y-79908400D01*
X84709000Y-79908400D02*
X82016600Y-77216000D01*
X75092500Y-77216000D02*
X73228500Y-75352000D01*
X82016600Y-77216000D02*
X75092500Y-77216000D01*
X83312000Y-89281000D02*
X84200164Y-88392836D01*
X81470500Y-89281000D02*
X83312000Y-89281000D01*
X88742500Y-57282100D02*
X88742500Y-52514500D01*
X88011000Y-58013600D02*
X88742500Y-57282100D01*
X84556600Y-58013600D02*
X88011000Y-58013600D01*
X83591400Y-58978800D02*
X84556600Y-58013600D01*
X83591400Y-63246000D02*
X83591400Y-58978800D01*
X84353400Y-64008000D02*
X83591400Y-63246000D01*
X78930500Y-89281000D02*
X78930500Y-87769700D01*
X78930500Y-87769700D02*
X79730600Y-86969600D01*
X79730600Y-86969600D02*
X86182200Y-86969600D01*
X86182200Y-86969600D02*
X88023210Y-88810610D01*
X88023210Y-88810610D02*
X88023210Y-92003777D01*
X79730600Y-94081600D02*
X78930500Y-93281500D01*
X87198200Y-91389200D02*
X87198200Y-92913200D01*
X78930500Y-93281500D02*
X78930500Y-91821000D01*
X87198200Y-92913200D02*
X86029800Y-94081600D01*
X86029800Y-94081600D02*
X79730600Y-94081600D01*
D20*
X109143800Y-65786000D02*
X109143800Y-78486000D01*
X107365800Y-80264000D02*
X95021400Y-80264000D01*
X109143800Y-78486000D02*
X107365800Y-80264000D01*
X100406200Y-68376800D02*
X102946200Y-65836800D01*
X91376500Y-71374000D02*
X94373700Y-68376800D01*
X94373700Y-68376800D02*
X100406200Y-68376800D01*
X87204601Y-79000401D02*
X88315800Y-80111600D01*
X87204601Y-73005899D02*
X87204601Y-79000401D01*
X88836500Y-71374000D02*
X87204601Y-73005899D01*
X88315800Y-80111600D02*
X97256600Y-71170800D01*
X97256600Y-71170800D02*
X103200200Y-71170800D01*
X109143800Y-64516000D02*
X108026200Y-64516000D01*
X108026200Y-64516000D02*
X107467400Y-65074800D01*
X107467400Y-65074800D02*
X107467400Y-78384400D01*
X107467400Y-78384400D02*
X107467400Y-78740000D01*
X107467400Y-78740000D02*
X106807000Y-79400400D01*
X93416590Y-79400400D02*
X92923595Y-79893395D01*
X106807000Y-79400400D02*
X93416590Y-79400400D01*
D19*
X90957400Y-83972400D02*
X88773000Y-86156800D01*
X88773000Y-86156800D02*
X78257400Y-86156800D01*
X77241400Y-87172800D02*
X77241400Y-93370400D01*
X78257400Y-86156800D02*
X77241400Y-87172800D01*
X85826600Y-91694000D02*
X83591400Y-91694000D01*
D20*
X99999800Y-67157600D02*
X102285800Y-64871600D01*
X90512900Y-67157600D02*
X99999800Y-67157600D01*
X88836500Y-68834000D02*
X90512900Y-67157600D01*
X106603800Y-64109600D02*
X106603800Y-78079600D01*
X106261790Y-78421610D02*
X98425000Y-78421610D01*
X106603800Y-78079600D02*
X106261790Y-78421610D01*
X109143800Y-63246000D02*
X107467400Y-63246000D01*
X107467400Y-63246000D02*
X106603800Y-64109600D01*
D21*
X92125800Y-93065600D02*
X90601800Y-93065600D01*
X90601800Y-93065600D02*
X89535000Y-94132400D01*
D20*
X91878460Y-65243190D02*
X94618839Y-62502811D01*
X84353400Y-65243190D02*
X91878460Y-65243190D01*
X94462600Y-60502800D02*
X84543980Y-60502800D01*
X84543980Y-60502800D02*
X84439010Y-60397830D01*
D19*
X81000600Y-72034400D02*
X82372200Y-70662800D01*
X82372200Y-70662800D02*
X82727800Y-70662800D01*
D18*
X98742500Y-59859154D02*
X98742500Y-52514500D01*
X83896200Y-66243200D02*
X92358454Y-66243200D01*
X92358454Y-66243200D02*
X98742500Y-59859154D01*
X81864200Y-68275200D02*
X83896200Y-66243200D01*
D19*
X103352600Y-72440800D02*
X104267000Y-71526400D01*
X104267000Y-71526400D02*
X104267000Y-59994798D01*
X101676200Y-72440800D02*
X103352600Y-72440800D01*
X104267000Y-59994798D02*
X100304602Y-56032400D01*
X102501200Y-73660000D02*
X104521000Y-73660000D01*
X104521000Y-73660000D02*
X105130600Y-73050400D01*
X105130600Y-73050400D02*
X105130600Y-59232800D01*
X105130600Y-59232800D02*
X101727000Y-55829200D01*
X101727000Y-55829200D02*
X100558600Y-54660800D01*
D21*
X103236385Y-94147015D02*
X90870415Y-94147015D01*
X103759000Y-93624400D02*
X103236385Y-94147015D01*
G04 #@! TA.AperFunction,Conductor*
G36*
X106662376Y-50231877D02*
G01*
X106662968Y-50231888D01*
X106675094Y-50234539D01*
X106687312Y-50232348D01*
X106699716Y-50232582D01*
X106699715Y-50232657D01*
X106710719Y-50232068D01*
X106989605Y-50251789D01*
X107002538Y-50253379D01*
X107306551Y-50306836D01*
X107319251Y-50309753D01*
X107616121Y-50394323D01*
X107628451Y-50398536D01*
X107914999Y-50513314D01*
X107926828Y-50518778D01*
X108199990Y-50662535D01*
X108211185Y-50669187D01*
X108388383Y-50787295D01*
X108468046Y-50840393D01*
X108478499Y-50848171D01*
X108716291Y-51044976D01*
X108725887Y-51053792D01*
X108942094Y-51274117D01*
X108950726Y-51283876D01*
X108956279Y-51290849D01*
X109143009Y-51525336D01*
X109150588Y-51535935D01*
X109316919Y-51795981D01*
X109323361Y-51807301D01*
X109362128Y-51884463D01*
X109461939Y-52083126D01*
X109467179Y-52095056D01*
X109497060Y-52173933D01*
X109557643Y-52333857D01*
X109576530Y-52383715D01*
X109580508Y-52396116D01*
X109659466Y-52694538D01*
X109662142Y-52707287D01*
X109706219Y-52989016D01*
X109709856Y-53012266D01*
X109711200Y-53025222D01*
X109723394Y-53260714D01*
X109725657Y-53304427D01*
X109724861Y-53315421D01*
X109724935Y-53315421D01*
X109724935Y-53327828D01*
X109722514Y-53340000D01*
X109725079Y-53352894D01*
X109727499Y-53377470D01*
X109727437Y-57324259D01*
X109727355Y-62608772D01*
X109707352Y-62676892D01*
X109653696Y-62723384D01*
X109583421Y-62733487D01*
X109529447Y-62712236D01*
X109525746Y-62709664D01*
X109520075Y-62704611D01*
X109513363Y-62701057D01*
X109513360Y-62701055D01*
X109386788Y-62634039D01*
X109386789Y-62634039D01*
X109380074Y-62630484D01*
X109226433Y-62591892D01*
X109218834Y-62591852D01*
X109218833Y-62591852D01*
X109152981Y-62591507D01*
X109068021Y-62591062D01*
X109060641Y-62592834D01*
X109060639Y-62592834D01*
X108921363Y-62626271D01*
X108921360Y-62626272D01*
X108913984Y-62628043D01*
X108773214Y-62700700D01*
X108767492Y-62705692D01*
X108767490Y-62705693D01*
X108762036Y-62710451D01*
X108697553Y-62740157D01*
X108679209Y-62741500D01*
X107538025Y-62741500D01*
X107526020Y-62740159D01*
X107525980Y-62740655D01*
X107517033Y-62739935D01*
X107508277Y-62737954D01*
X107464739Y-62740655D01*
X107455019Y-62741258D01*
X107447217Y-62741500D01*
X107431174Y-62741500D01*
X107426744Y-62742135D01*
X107426737Y-62742135D01*
X107420936Y-62742966D01*
X107410881Y-62743996D01*
X107373001Y-62746346D01*
X107372999Y-62746346D01*
X107364042Y-62746902D01*
X107355601Y-62749949D01*
X107352323Y-62750628D01*
X107336455Y-62754584D01*
X107333231Y-62755527D01*
X107324348Y-62756799D01*
X107316179Y-62760513D01*
X107316173Y-62760515D01*
X107281621Y-62776225D01*
X107272253Y-62780039D01*
X107228116Y-62795972D01*
X107220866Y-62801269D01*
X107217899Y-62802846D01*
X107203786Y-62811093D01*
X107200963Y-62812898D01*
X107192795Y-62816612D01*
X107185998Y-62822469D01*
X107185996Y-62822470D01*
X107157247Y-62847243D01*
X107149336Y-62853525D01*
X107138456Y-62861473D01*
X107127594Y-62872335D01*
X107120748Y-62878693D01*
X107083318Y-62910944D01*
X107078434Y-62918479D01*
X107072701Y-62925051D01*
X107063474Y-62936455D01*
X106297006Y-63702923D01*
X106287566Y-63710465D01*
X106287889Y-63710845D01*
X106281053Y-63716663D01*
X106273461Y-63721453D01*
X106267519Y-63728181D01*
X106238129Y-63761459D01*
X106232783Y-63767146D01*
X106221449Y-63778480D01*
X106218764Y-63782063D01*
X106218762Y-63782065D01*
X106215247Y-63786755D01*
X106208862Y-63794598D01*
X106177799Y-63829770D01*
X106173986Y-63837892D01*
X106172146Y-63840693D01*
X106163737Y-63854688D01*
X106162115Y-63857651D01*
X106156730Y-63864836D01*
X106153577Y-63873246D01*
X106153576Y-63873248D01*
X106140254Y-63908782D01*
X106136330Y-63918095D01*
X106116383Y-63960582D01*
X106115001Y-63969456D01*
X106114015Y-63972683D01*
X106109875Y-63988466D01*
X106109154Y-63991744D01*
X106106002Y-64000152D01*
X106105112Y-64012136D01*
X106102524Y-64046957D01*
X106101370Y-64057004D01*
X106099300Y-64070297D01*
X106099300Y-64085662D01*
X106098954Y-64094999D01*
X106095293Y-64144267D01*
X106097166Y-64153042D01*
X106097759Y-64161738D01*
X106099300Y-64176338D01*
X106099300Y-75057364D01*
X106079298Y-75125485D01*
X106025642Y-75171978D01*
X105955368Y-75182082D01*
X105890788Y-75152588D01*
X105852678Y-75093782D01*
X105828581Y-75013969D01*
X105809800Y-74951763D01*
X105790950Y-74916312D01*
X105720211Y-74783271D01*
X105720209Y-74783268D01*
X105717317Y-74777829D01*
X105592812Y-74625170D01*
X105498386Y-74547054D01*
X105445777Y-74503532D01*
X105445774Y-74503530D01*
X105441027Y-74499603D01*
X105267743Y-74405908D01*
X105079560Y-74347656D01*
X105073435Y-74347012D01*
X105073434Y-74347012D01*
X104889776Y-74327709D01*
X104889774Y-74327709D01*
X104883647Y-74327065D01*
X104792570Y-74335354D01*
X104722918Y-74321609D01*
X104671753Y-74272388D01*
X104655322Y-74203319D01*
X104678840Y-74136331D01*
X104732486Y-74095801D01*
X104732055Y-74094991D01*
X104737129Y-74092293D01*
X104738364Y-74091360D01*
X104739983Y-74090776D01*
X104739987Y-74090774D01*
X104748427Y-74087727D01*
X104755679Y-74082429D01*
X104760929Y-74079637D01*
X104768811Y-74075032D01*
X104773825Y-74071826D01*
X104781997Y-74068110D01*
X104815593Y-74039161D01*
X104823511Y-74032874D01*
X104826476Y-74030708D01*
X104829707Y-74028348D01*
X104829711Y-74028345D01*
X104833642Y-74025473D01*
X104843798Y-74015317D01*
X104850645Y-74008959D01*
X104853157Y-74006795D01*
X104886049Y-73978453D01*
X104890928Y-73970926D01*
X104896834Y-73964156D01*
X104896901Y-73964215D01*
X104905381Y-73953734D01*
X105421696Y-73437419D01*
X105430521Y-73430368D01*
X105430141Y-73429921D01*
X105436977Y-73424103D01*
X105444569Y-73419313D01*
X105478029Y-73381427D01*
X105483375Y-73375740D01*
X105494004Y-73365111D01*
X105499741Y-73357456D01*
X105506130Y-73349608D01*
X105529548Y-73323093D01*
X105535491Y-73316364D01*
X105539305Y-73308241D01*
X105542571Y-73303269D01*
X105547271Y-73295446D01*
X105550134Y-73290217D01*
X105555517Y-73283034D01*
X105571082Y-73241514D01*
X105575002Y-73232209D01*
X105593864Y-73192034D01*
X105595245Y-73183162D01*
X105596989Y-73177458D01*
X105599296Y-73168663D01*
X105600579Y-73162830D01*
X105603730Y-73154424D01*
X105604395Y-73145474D01*
X105604396Y-73145470D01*
X105607017Y-73110197D01*
X105608170Y-73100153D01*
X105609352Y-73092563D01*
X105609352Y-73092561D01*
X105610100Y-73087757D01*
X105610100Y-73073389D01*
X105610446Y-73064051D01*
X105613244Y-73026399D01*
X105613909Y-73017451D01*
X105612036Y-73008675D01*
X105611425Y-72999718D01*
X105611515Y-72999712D01*
X105610100Y-72986308D01*
X105610100Y-59300621D01*
X105611354Y-59289401D01*
X105610769Y-59289354D01*
X105611489Y-59280406D01*
X105613470Y-59271651D01*
X105610342Y-59221227D01*
X105610100Y-59213426D01*
X105610100Y-59198369D01*
X105608741Y-59188882D01*
X105607711Y-59178823D01*
X105605522Y-59143528D01*
X105604966Y-59134564D01*
X105601916Y-59126115D01*
X105600704Y-59120265D01*
X105598506Y-59111448D01*
X105596831Y-59105721D01*
X105595559Y-59096836D01*
X105577196Y-59056450D01*
X105573390Y-59047098D01*
X105561377Y-59013820D01*
X105561375Y-59013816D01*
X105558327Y-59005373D01*
X105553028Y-58998120D01*
X105550237Y-58992871D01*
X105545635Y-58984995D01*
X105542427Y-58979979D01*
X105538710Y-58971803D01*
X105509758Y-58938202D01*
X105503470Y-58930283D01*
X105498946Y-58924090D01*
X105496073Y-58920157D01*
X105485911Y-58909995D01*
X105479553Y-58903148D01*
X105454914Y-58874553D01*
X105449053Y-58867751D01*
X105441518Y-58862867D01*
X105434756Y-58856968D01*
X105434816Y-58856900D01*
X105424338Y-58848422D01*
X102162338Y-55586423D01*
X104778703Y-55586423D01*
X104786227Y-55596854D01*
X104925483Y-55709020D01*
X104931657Y-55713408D01*
X105202271Y-55882178D01*
X105208931Y-55885794D01*
X105497852Y-56020827D01*
X105504905Y-56023620D01*
X105807970Y-56122970D01*
X105815282Y-56124888D01*
X106128092Y-56187109D01*
X106135590Y-56188137D01*
X106453610Y-56212328D01*
X106461173Y-56212446D01*
X106779785Y-56198257D01*
X106787326Y-56197465D01*
X107101924Y-56145101D01*
X107109302Y-56143411D01*
X107415355Y-56053625D01*
X107422450Y-56051071D01*
X107715496Y-55925169D01*
X107722263Y-55921765D01*
X107998042Y-55761580D01*
X108004349Y-55757390D01*
X108214305Y-55598889D01*
X108222761Y-55587496D01*
X108216045Y-55575256D01*
X106512810Y-53872020D01*
X106498869Y-53864408D01*
X106497034Y-53864539D01*
X106490420Y-53868790D01*
X104785818Y-55573393D01*
X104778703Y-55586423D01*
X102162338Y-55586423D01*
X102041711Y-55465796D01*
X101246083Y-54670168D01*
X101212057Y-54607856D01*
X101210091Y-54596210D01*
X101199788Y-54511073D01*
X101198876Y-54503533D01*
X101142880Y-54355346D01*
X101053153Y-54224792D01*
X100934875Y-54119411D01*
X100927489Y-54115500D01*
X100801588Y-54048839D01*
X100801589Y-54048839D01*
X100794874Y-54045284D01*
X100641233Y-54006692D01*
X100633634Y-54006652D01*
X100633633Y-54006652D01*
X100567781Y-54006307D01*
X100482821Y-54005862D01*
X100475441Y-54007634D01*
X100475439Y-54007634D01*
X100336163Y-54041071D01*
X100336160Y-54041072D01*
X100328784Y-54042843D01*
X100188014Y-54115500D01*
X100068639Y-54219638D01*
X99977550Y-54349244D01*
X99920006Y-54496837D01*
X99919014Y-54504370D01*
X99919014Y-54504371D01*
X99918498Y-54508295D01*
X99899329Y-54653896D01*
X99916713Y-54811353D01*
X99971153Y-54960119D01*
X100059508Y-55091605D01*
X100167413Y-55189790D01*
X100204335Y-55250429D01*
X100202612Y-55321405D01*
X100162790Y-55380182D01*
X100112028Y-55405501D01*
X100082172Y-55412669D01*
X100082166Y-55412671D01*
X100074786Y-55414443D01*
X99934016Y-55487100D01*
X99814641Y-55591238D01*
X99723552Y-55720844D01*
X99666008Y-55868437D01*
X99665016Y-55875970D01*
X99665016Y-55875971D01*
X99647922Y-56005815D01*
X99639901Y-56023947D01*
X99643896Y-56030164D01*
X99648239Y-56051835D01*
X99656093Y-56122970D01*
X99662715Y-56182953D01*
X99665325Y-56190084D01*
X99665325Y-56190086D01*
X99673508Y-56212446D01*
X99717155Y-56331719D01*
X99805510Y-56463205D01*
X99922678Y-56569819D01*
X100061895Y-56645408D01*
X100215124Y-56685607D01*
X100227179Y-56685796D01*
X100229697Y-56685836D01*
X100297495Y-56706906D01*
X100316812Y-56722725D01*
X103750595Y-60156508D01*
X103784621Y-60218820D01*
X103787500Y-60245603D01*
X103787500Y-65521619D01*
X103767498Y-65589740D01*
X103713842Y-65636233D01*
X103643568Y-65646337D01*
X103578988Y-65616843D01*
X103543634Y-65566157D01*
X103533164Y-65538449D01*
X103530480Y-65531346D01*
X103523795Y-65521619D01*
X103445055Y-65407051D01*
X103445054Y-65407049D01*
X103440753Y-65400792D01*
X103322475Y-65295411D01*
X103182474Y-65221284D01*
X103028833Y-65182692D01*
X103028787Y-65182692D01*
X102966660Y-65155595D01*
X102927259Y-65096535D01*
X102922787Y-65041219D01*
X102944381Y-64889491D01*
X102944381Y-64889488D01*
X102944962Y-64885407D01*
X102945107Y-64871600D01*
X102926076Y-64714333D01*
X102870080Y-64566146D01*
X102851671Y-64539360D01*
X102784655Y-64441851D01*
X102784654Y-64441849D01*
X102780353Y-64435592D01*
X102758632Y-64416239D01*
X102744060Y-64403256D01*
X102662075Y-64330211D01*
X102654689Y-64326300D01*
X102528788Y-64259639D01*
X102528789Y-64259639D01*
X102522074Y-64256084D01*
X102368433Y-64217492D01*
X102360834Y-64217452D01*
X102360833Y-64217452D01*
X102294981Y-64217107D01*
X102210021Y-64216662D01*
X102202641Y-64218434D01*
X102202639Y-64218434D01*
X102063363Y-64251871D01*
X102063360Y-64251872D01*
X102055984Y-64253643D01*
X101915214Y-64326300D01*
X101795839Y-64430438D01*
X101704750Y-64560044D01*
X101678382Y-64627674D01*
X101650416Y-64699405D01*
X101647206Y-64707637D01*
X101646215Y-64715168D01*
X101646214Y-64715170D01*
X101639282Y-64767826D01*
X101610559Y-64832753D01*
X101603455Y-64840474D01*
X99827734Y-66616195D01*
X99765422Y-66650221D01*
X99738639Y-66653100D01*
X93178347Y-66653100D01*
X93110226Y-66633098D01*
X93063733Y-66579442D01*
X93053629Y-66509168D01*
X93083123Y-66444588D01*
X93089252Y-66438005D01*
X99147645Y-60379611D01*
X99156349Y-60371690D01*
X99163010Y-60367463D01*
X99211243Y-60316100D01*
X99213997Y-60313259D01*
X99234418Y-60292838D01*
X99237098Y-60289383D01*
X99244803Y-60280362D01*
X99270786Y-60252693D01*
X99276210Y-60246917D01*
X99283682Y-60233326D01*
X99286452Y-60228288D01*
X99297307Y-60211764D01*
X99305472Y-60201238D01*
X99305475Y-60201232D01*
X99310333Y-60194970D01*
X99328554Y-60152864D01*
X99333770Y-60142217D01*
X99355875Y-60102007D01*
X99361163Y-60081412D01*
X99367564Y-60062717D01*
X99372861Y-60050475D01*
X99376007Y-60043205D01*
X99383183Y-59997894D01*
X99385591Y-59986271D01*
X99395029Y-59949514D01*
X99395029Y-59949513D01*
X99397000Y-59941837D01*
X99397000Y-59920580D01*
X99398551Y-59900869D01*
X99400636Y-59887705D01*
X99401876Y-59879876D01*
X99397559Y-59834206D01*
X99397000Y-59822349D01*
X99397000Y-56065662D01*
X99407866Y-56028654D01*
X99398505Y-56008784D01*
X99397000Y-55989369D01*
X99397000Y-53845225D01*
X99417002Y-53777104D01*
X99470658Y-53730611D01*
X99478771Y-53727243D01*
X99522646Y-53710795D01*
X99587264Y-53686571D01*
X99594443Y-53681191D01*
X99594446Y-53681189D01*
X99695724Y-53605285D01*
X99702904Y-53599904D01*
X99718213Y-53579477D01*
X99784189Y-53491446D01*
X99784191Y-53491443D01*
X99789571Y-53484264D01*
X99792900Y-53475383D01*
X103787388Y-53475383D01*
X103803245Y-53793914D01*
X103804076Y-53801443D01*
X103858085Y-54115759D01*
X103859818Y-54123146D01*
X103951196Y-54428695D01*
X103953799Y-54435808D01*
X104081227Y-54728173D01*
X104084669Y-54734929D01*
X104246296Y-55009865D01*
X104250519Y-55016150D01*
X104401463Y-55213934D01*
X104412989Y-55222396D01*
X104425054Y-55215735D01*
X106127980Y-53512810D01*
X106134357Y-53501131D01*
X106864408Y-53501131D01*
X106864539Y-53502966D01*
X106868790Y-53509580D01*
X108573285Y-55214074D01*
X108586408Y-55221240D01*
X108596709Y-55213851D01*
X108700751Y-55086055D01*
X108705164Y-55079914D01*
X108875349Y-54810187D01*
X108879005Y-54803536D01*
X109015544Y-54515335D01*
X109018375Y-54508295D01*
X109119306Y-54205767D01*
X109121270Y-54198433D01*
X109185122Y-53885989D01*
X109186194Y-53878465D01*
X109212173Y-53559051D01*
X109212378Y-53554576D01*
X109212927Y-53502221D01*
X109212817Y-53497789D01*
X109193529Y-53177853D01*
X109192621Y-53170351D01*
X109135319Y-52856593D01*
X109133518Y-52849260D01*
X109038935Y-52544655D01*
X109036263Y-52537583D01*
X108905781Y-52246570D01*
X108902264Y-52239843D01*
X108737771Y-51966621D01*
X108733481Y-51960377D01*
X108597991Y-51786647D01*
X108586199Y-51778178D01*
X108574486Y-51784725D01*
X106872020Y-53487190D01*
X106864408Y-53501131D01*
X106134357Y-53501131D01*
X106135592Y-53498869D01*
X106135461Y-53497034D01*
X106131210Y-53490420D01*
X104426445Y-51785656D01*
X104413510Y-51778592D01*
X104402949Y-51786252D01*
X104282766Y-51937072D01*
X104278410Y-51943270D01*
X104111059Y-52214764D01*
X104107479Y-52221440D01*
X103973956Y-52511074D01*
X103971206Y-52518125D01*
X103873444Y-52821708D01*
X103871561Y-52829041D01*
X103810979Y-53142170D01*
X103809992Y-53149670D01*
X103787467Y-53467802D01*
X103787388Y-53475383D01*
X99792900Y-53475383D01*
X99840298Y-53348948D01*
X99847000Y-53287256D01*
X99847000Y-51741744D01*
X99840298Y-51680052D01*
X99830434Y-51653738D01*
X99792721Y-51553140D01*
X99789571Y-51544736D01*
X99784191Y-51537557D01*
X99784189Y-51537554D01*
X99708285Y-51436276D01*
X99702904Y-51429096D01*
X99681992Y-51413423D01*
X104777917Y-51413423D01*
X104784520Y-51425309D01*
X106487190Y-53127980D01*
X106501131Y-53135592D01*
X106502966Y-53135461D01*
X106509580Y-53131210D01*
X108214559Y-51426230D01*
X108221571Y-51413389D01*
X108213777Y-51402701D01*
X108051298Y-51274613D01*
X108045075Y-51270288D01*
X107772702Y-51104357D01*
X107766025Y-51100822D01*
X107475686Y-50968813D01*
X107468616Y-50966099D01*
X107164537Y-50869932D01*
X107157186Y-50868085D01*
X106843746Y-50809142D01*
X106836237Y-50808194D01*
X106517989Y-50787335D01*
X106510424Y-50787295D01*
X106191964Y-50804821D01*
X106184450Y-50805690D01*
X105870405Y-50861348D01*
X105863044Y-50863115D01*
X105557980Y-50956092D01*
X105550860Y-50958740D01*
X105259182Y-51087690D01*
X105252445Y-51091167D01*
X104978355Y-51254233D01*
X104972091Y-51258490D01*
X104786385Y-51401762D01*
X104777917Y-51413423D01*
X99681992Y-51413423D01*
X99635678Y-51378713D01*
X99594446Y-51347811D01*
X99594443Y-51347809D01*
X99587264Y-51342429D01*
X99483977Y-51303709D01*
X99459343Y-51294474D01*
X99459341Y-51294474D01*
X99451948Y-51291702D01*
X99444098Y-51290849D01*
X99444097Y-51290849D01*
X99393653Y-51285369D01*
X99393652Y-51285369D01*
X99390256Y-51285000D01*
X98094744Y-51285000D01*
X98091348Y-51285369D01*
X98091347Y-51285369D01*
X98040903Y-51290849D01*
X98040902Y-51290849D01*
X98033052Y-51291702D01*
X98025659Y-51294474D01*
X98025657Y-51294474D01*
X98001023Y-51303709D01*
X97897736Y-51342429D01*
X97890557Y-51347809D01*
X97890554Y-51347811D01*
X97849322Y-51378713D01*
X97782096Y-51429096D01*
X97776715Y-51436276D01*
X97700811Y-51537554D01*
X97700809Y-51537557D01*
X97695429Y-51544736D01*
X97644702Y-51680052D01*
X97642180Y-51679107D01*
X97613415Y-51729474D01*
X97550464Y-51762303D01*
X97479758Y-51755886D01*
X97421518Y-51709060D01*
X97307650Y-51539925D01*
X97300981Y-51531630D01*
X97149272Y-51372600D01*
X97141314Y-51365559D01*
X96964975Y-51234359D01*
X96955938Y-51228755D01*
X96760016Y-51129143D01*
X96750165Y-51125143D01*
X96540260Y-51059966D01*
X96529876Y-51057683D01*
X96514457Y-51055639D01*
X96500293Y-51057835D01*
X96496500Y-51071022D01*
X96496500Y-53955692D01*
X96500473Y-53969223D01*
X96511080Y-53970748D01*
X96628921Y-53946023D01*
X96639117Y-53942963D01*
X96843529Y-53862237D01*
X96853061Y-53857506D01*
X97040962Y-53743484D01*
X97049552Y-53737220D01*
X97215552Y-53593173D01*
X97222972Y-53585542D01*
X97362326Y-53415589D01*
X97368348Y-53406826D01*
X97415561Y-53323883D01*
X97466644Y-53274576D01*
X97536274Y-53260714D01*
X97602345Y-53286697D01*
X97643880Y-53344276D01*
X97644378Y-53345968D01*
X97644702Y-53348948D01*
X97695429Y-53484264D01*
X97700809Y-53491443D01*
X97700811Y-53491446D01*
X97766787Y-53579477D01*
X97782096Y-53599904D01*
X97789276Y-53605285D01*
X97890554Y-53681189D01*
X97890557Y-53681191D01*
X97897736Y-53686571D01*
X97962354Y-53710795D01*
X98006229Y-53727243D01*
X98062994Y-53769884D01*
X98087694Y-53836446D01*
X98088000Y-53845225D01*
X98088000Y-59535861D01*
X98067998Y-59603982D01*
X98051095Y-59624956D01*
X95416677Y-62259374D01*
X95354365Y-62293400D01*
X95283550Y-62288335D01*
X95226714Y-62245788D01*
X95209715Y-62214813D01*
X95205804Y-62204462D01*
X95205803Y-62204461D01*
X95203119Y-62197357D01*
X95113392Y-62066803D01*
X94995114Y-61961422D01*
X94987728Y-61957511D01*
X94861827Y-61890850D01*
X94861828Y-61890850D01*
X94855113Y-61887295D01*
X94701472Y-61848703D01*
X94693873Y-61848663D01*
X94693872Y-61848663D01*
X94628020Y-61848318D01*
X94543060Y-61847873D01*
X94535680Y-61849645D01*
X94535678Y-61849645D01*
X94396402Y-61883082D01*
X94396399Y-61883083D01*
X94389023Y-61884854D01*
X94248253Y-61957511D01*
X94128878Y-62061649D01*
X94037789Y-62191255D01*
X93980245Y-62338848D01*
X93979254Y-62346379D01*
X93979253Y-62346381D01*
X93972321Y-62399037D01*
X93943598Y-62463964D01*
X93936494Y-62471685D01*
X91706394Y-64701785D01*
X91644082Y-64735811D01*
X91617299Y-64738690D01*
X84848981Y-64738690D01*
X84780860Y-64718688D01*
X84734367Y-64665032D01*
X84724263Y-64594758D01*
X84753757Y-64530178D01*
X84774921Y-64510753D01*
X84798584Y-64493561D01*
X84804997Y-64488902D01*
X84810053Y-64482791D01*
X84814495Y-64477422D01*
X84829743Y-64461932D01*
X84832939Y-64459202D01*
X84832942Y-64459199D01*
X84838714Y-64454269D01*
X84869704Y-64411141D01*
X84874942Y-64404353D01*
X84905352Y-64367594D01*
X84910405Y-64361486D01*
X84915003Y-64351716D01*
X84926679Y-64331853D01*
X84931155Y-64325624D01*
X84933991Y-64318570D01*
X84952521Y-64272476D01*
X84955420Y-64265825D01*
X84977437Y-64219037D01*
X84977439Y-64219032D01*
X84980814Y-64211859D01*
X84982300Y-64204067D01*
X84983607Y-64200045D01*
X84985649Y-64193084D01*
X84985442Y-64193028D01*
X84987408Y-64185690D01*
X84990242Y-64178641D01*
X84998906Y-64117761D01*
X84999881Y-64111905D01*
X85010315Y-64057208D01*
X85011800Y-64049423D01*
X85011302Y-64041513D01*
X85011695Y-64035274D01*
X85011735Y-64029109D01*
X85011979Y-64025907D01*
X85012562Y-64021807D01*
X85012707Y-64008000D01*
X85012212Y-64003906D01*
X85012211Y-64003895D01*
X85005825Y-63951121D01*
X85005161Y-63943895D01*
X85001915Y-63892295D01*
X85001915Y-63892293D01*
X85001417Y-63884384D01*
X84998968Y-63876848D01*
X84998185Y-63872741D01*
X84996608Y-63865598D01*
X84996400Y-63865649D01*
X84994588Y-63858273D01*
X84993676Y-63850733D01*
X84989883Y-63840693D01*
X84971940Y-63793210D01*
X84969973Y-63787609D01*
X84952766Y-63734652D01*
X84952765Y-63734649D01*
X84950316Y-63727113D01*
X84946068Y-63720419D01*
X84945109Y-63718381D01*
X84943205Y-63715083D01*
X84940365Y-63709650D01*
X84937680Y-63702546D01*
X84900422Y-63648335D01*
X84897879Y-63644485D01*
X84865958Y-63594185D01*
X84865957Y-63594184D01*
X84861709Y-63587490D01*
X84855931Y-63582064D01*
X84854612Y-63580470D01*
X84851750Y-63577518D01*
X84847953Y-63571992D01*
X84842283Y-63566940D01*
X84842280Y-63566937D01*
X84795548Y-63525302D01*
X84793112Y-63523074D01*
X84746939Y-63479714D01*
X84741163Y-63474290D01*
X84734219Y-63470472D01*
X84733082Y-63469646D01*
X84729675Y-63466611D01*
X84663237Y-63431434D01*
X84661624Y-63430563D01*
X84603199Y-63398443D01*
X84603195Y-63398441D01*
X84596253Y-63394625D01*
X84591331Y-63393361D01*
X84589674Y-63392484D01*
X84545710Y-63381441D01*
X84509014Y-63372223D01*
X84508376Y-63372061D01*
X84456067Y-63358631D01*
X84436083Y-63353500D01*
X84428153Y-63353500D01*
X84420293Y-63352507D01*
X84420491Y-63350941D01*
X84361084Y-63333498D01*
X84340110Y-63316595D01*
X84107805Y-63084290D01*
X84073779Y-63021978D01*
X84070900Y-62995195D01*
X84070900Y-61141259D01*
X84090902Y-61073138D01*
X84144558Y-61026645D01*
X84214832Y-61016541D01*
X84228873Y-61019383D01*
X84342181Y-61049109D01*
X84342185Y-61049110D01*
X84349532Y-61051037D01*
X84433487Y-61052356D01*
X84500329Y-61053406D01*
X84500332Y-61053406D01*
X84507926Y-61053525D01*
X84662342Y-61018159D01*
X84669123Y-61014748D01*
X84711801Y-61007300D01*
X93995753Y-61007300D01*
X94063874Y-61027302D01*
X94068668Y-61030985D01*
X94068866Y-61030707D01*
X94075059Y-61035108D01*
X94080676Y-61040219D01*
X94219893Y-61115808D01*
X94373122Y-61156007D01*
X94457077Y-61157326D01*
X94523919Y-61158376D01*
X94523922Y-61158376D01*
X94531516Y-61158495D01*
X94685932Y-61123129D01*
X94768413Y-61081646D01*
X94820672Y-61055363D01*
X94820675Y-61055361D01*
X94827455Y-61051951D01*
X94833226Y-61047022D01*
X94833229Y-61047020D01*
X94942136Y-60954004D01*
X94942136Y-60954003D01*
X94947914Y-60949069D01*
X95040355Y-60820424D01*
X95099442Y-60673441D01*
X95121762Y-60516607D01*
X95121907Y-60502800D01*
X95102876Y-60345533D01*
X95046880Y-60197346D01*
X95016310Y-60152866D01*
X94961455Y-60073051D01*
X94961454Y-60073049D01*
X94957153Y-60066792D01*
X94838875Y-59961411D01*
X94831489Y-59957500D01*
X94743027Y-59910662D01*
X94698874Y-59887284D01*
X94545233Y-59848692D01*
X94537634Y-59848652D01*
X94537633Y-59848652D01*
X94471781Y-59848307D01*
X94386821Y-59847862D01*
X94379441Y-59849634D01*
X94379439Y-59849634D01*
X94240163Y-59883071D01*
X94240160Y-59883072D01*
X94232784Y-59884843D01*
X94226039Y-59888324D01*
X94226040Y-59888324D01*
X94107487Y-59949514D01*
X94092014Y-59957500D01*
X94086292Y-59962492D01*
X94086290Y-59962493D01*
X94080836Y-59967251D01*
X94016353Y-59996957D01*
X93998009Y-59998300D01*
X85021398Y-59998300D01*
X84953277Y-59978298D01*
X84933794Y-59961562D01*
X84933563Y-59961822D01*
X84933102Y-59961411D01*
X84815285Y-59856441D01*
X84675284Y-59782314D01*
X84521643Y-59743722D01*
X84514044Y-59743682D01*
X84514043Y-59743682D01*
X84448191Y-59743337D01*
X84363231Y-59742892D01*
X84355851Y-59744664D01*
X84355849Y-59744664D01*
X84287631Y-59761042D01*
X84226313Y-59775763D01*
X84155406Y-59772216D01*
X84097672Y-59730896D01*
X84071442Y-59664923D01*
X84070900Y-59653244D01*
X84070900Y-59229605D01*
X84090902Y-59161484D01*
X84107805Y-59140510D01*
X84718310Y-58530005D01*
X84780622Y-58495979D01*
X84807405Y-58493100D01*
X87943180Y-58493100D01*
X87954400Y-58494354D01*
X87954447Y-58493769D01*
X87963392Y-58494489D01*
X87972149Y-58496470D01*
X88022573Y-58493342D01*
X88030374Y-58493100D01*
X88045431Y-58493100D01*
X88054918Y-58491741D01*
X88064975Y-58490711D01*
X88109236Y-58487966D01*
X88117685Y-58484916D01*
X88123535Y-58483704D01*
X88132352Y-58481506D01*
X88138079Y-58479831D01*
X88146964Y-58478559D01*
X88187350Y-58460196D01*
X88196702Y-58456390D01*
X88229980Y-58444377D01*
X88229984Y-58444375D01*
X88238427Y-58441327D01*
X88245680Y-58436028D01*
X88250929Y-58433237D01*
X88258811Y-58428632D01*
X88263825Y-58425426D01*
X88271997Y-58421710D01*
X88305593Y-58392761D01*
X88313511Y-58386474D01*
X88316476Y-58384308D01*
X88319707Y-58381948D01*
X88319711Y-58381945D01*
X88323642Y-58379073D01*
X88333798Y-58368917D01*
X88340645Y-58362559D01*
X88369252Y-58337910D01*
X88369253Y-58337909D01*
X88376049Y-58332053D01*
X88380928Y-58324526D01*
X88386834Y-58317756D01*
X88386901Y-58317815D01*
X88395381Y-58307334D01*
X89033596Y-57669119D01*
X89042421Y-57662068D01*
X89042041Y-57661621D01*
X89048877Y-57655803D01*
X89056469Y-57651013D01*
X89089929Y-57613127D01*
X89095275Y-57607440D01*
X89105904Y-57596811D01*
X89109558Y-57591936D01*
X89111648Y-57589148D01*
X89118024Y-57581317D01*
X89141448Y-57554793D01*
X89147391Y-57548064D01*
X89151207Y-57539936D01*
X89154477Y-57534958D01*
X89159178Y-57527135D01*
X89162035Y-57521916D01*
X89167417Y-57514735D01*
X89182988Y-57473200D01*
X89186907Y-57463899D01*
X89205764Y-57423734D01*
X89207145Y-57414867D01*
X89208880Y-57409191D01*
X89211208Y-57400314D01*
X89212480Y-57394528D01*
X89215630Y-57386125D01*
X89218917Y-57341900D01*
X89220069Y-57331859D01*
X89221252Y-57324259D01*
X89222000Y-57319457D01*
X89222000Y-57305090D01*
X89222346Y-57295752D01*
X89225144Y-57258100D01*
X89225809Y-57249152D01*
X89223936Y-57240376D01*
X89223325Y-57231419D01*
X89223415Y-57231413D01*
X89222000Y-57218009D01*
X89222000Y-53715891D01*
X89242002Y-53647770D01*
X89285194Y-53606660D01*
X89290122Y-53603827D01*
X89295584Y-53601343D01*
X89436857Y-53501131D01*
X89462600Y-53482870D01*
X89462601Y-53482869D01*
X89467486Y-53479404D01*
X89613228Y-53327160D01*
X89670210Y-53238910D01*
X89724300Y-53155140D01*
X89724301Y-53155137D01*
X89727552Y-53150103D01*
X89806334Y-52954622D01*
X89846729Y-52747771D01*
X89847000Y-52742230D01*
X89847000Y-52692159D01*
X90138000Y-52692159D01*
X90152993Y-52849306D01*
X90212323Y-53051542D01*
X90215073Y-53056881D01*
X90277378Y-53177853D01*
X90308824Y-53238910D01*
X90336840Y-53274576D01*
X90435308Y-53399932D01*
X90435312Y-53399936D01*
X90439014Y-53404649D01*
X90443544Y-53408580D01*
X90443545Y-53408581D01*
X90593665Y-53538850D01*
X90593670Y-53538854D01*
X90598196Y-53542781D01*
X90780626Y-53648319D01*
X90979722Y-53717457D01*
X90985655Y-53718317D01*
X90985658Y-53718318D01*
X91182360Y-53746838D01*
X91182363Y-53746838D01*
X91188300Y-53747699D01*
X91398833Y-53737955D01*
X91404657Y-53736551D01*
X91404660Y-53736551D01*
X91597893Y-53689982D01*
X91597895Y-53689981D01*
X91603726Y-53688576D01*
X91609184Y-53686094D01*
X91609188Y-53686093D01*
X91723794Y-53633984D01*
X91795584Y-53601343D01*
X91936857Y-53501131D01*
X91962600Y-53482870D01*
X91962601Y-53482869D01*
X91967486Y-53479404D01*
X92113228Y-53327160D01*
X92170210Y-53238910D01*
X92224300Y-53155140D01*
X92224301Y-53155137D01*
X92227552Y-53150103D01*
X92306334Y-52954622D01*
X92346729Y-52747771D01*
X92347000Y-52742230D01*
X92347000Y-52692159D01*
X92638000Y-52692159D01*
X92652993Y-52849306D01*
X92712323Y-53051542D01*
X92715073Y-53056881D01*
X92777378Y-53177853D01*
X92808824Y-53238910D01*
X92836840Y-53274576D01*
X92935308Y-53399932D01*
X92935312Y-53399936D01*
X92939014Y-53404649D01*
X92943544Y-53408580D01*
X92943545Y-53408581D01*
X93093665Y-53538850D01*
X93093670Y-53538854D01*
X93098196Y-53542781D01*
X93280626Y-53648319D01*
X93479722Y-53717457D01*
X93485655Y-53718317D01*
X93485658Y-53718318D01*
X93682360Y-53746838D01*
X93682363Y-53746838D01*
X93688300Y-53747699D01*
X93898833Y-53737955D01*
X93904657Y-53736551D01*
X93904660Y-53736551D01*
X94097893Y-53689982D01*
X94097895Y-53689981D01*
X94103726Y-53688576D01*
X94109184Y-53686094D01*
X94109188Y-53686093D01*
X94223794Y-53633984D01*
X94295584Y-53601343D01*
X94436857Y-53501131D01*
X94462600Y-53482870D01*
X94462601Y-53482869D01*
X94467486Y-53479404D01*
X94613228Y-53327160D01*
X94670210Y-53238910D01*
X94724300Y-53155140D01*
X94724301Y-53155137D01*
X94727552Y-53150103D01*
X94733453Y-53135461D01*
X94737780Y-53124726D01*
X94781796Y-53069021D01*
X94848942Y-53045956D01*
X94917898Y-53062854D01*
X94969527Y-53120076D01*
X95049437Y-53297470D01*
X95054606Y-53306756D01*
X95177350Y-53489075D01*
X95184019Y-53497370D01*
X95335728Y-53656400D01*
X95343686Y-53663441D01*
X95520025Y-53794641D01*
X95529062Y-53800245D01*
X95724984Y-53899857D01*
X95734835Y-53903857D01*
X95944740Y-53969034D01*
X95955124Y-53971317D01*
X95970543Y-53973361D01*
X95984707Y-53971165D01*
X95988500Y-53957978D01*
X95988500Y-51073308D01*
X95984527Y-51059777D01*
X95973920Y-51058252D01*
X95856079Y-51082977D01*
X95845883Y-51086037D01*
X95641471Y-51166763D01*
X95631939Y-51171494D01*
X95444038Y-51285516D01*
X95435448Y-51291780D01*
X95269448Y-51435827D01*
X95262028Y-51443458D01*
X95122674Y-51613411D01*
X95116650Y-51622178D01*
X95007924Y-51813182D01*
X95003459Y-51822845D01*
X94973534Y-51905288D01*
X94931490Y-51962496D01*
X94865191Y-51987892D01*
X94795686Y-51973412D01*
X94743079Y-51919990D01*
X94724780Y-51884460D01*
X94676176Y-51790090D01*
X94606855Y-51701840D01*
X94549692Y-51629068D01*
X94549688Y-51629064D01*
X94545986Y-51624351D01*
X94533379Y-51613411D01*
X94391335Y-51490150D01*
X94391330Y-51490146D01*
X94386804Y-51486219D01*
X94204374Y-51380681D01*
X94005278Y-51311543D01*
X93999345Y-51310683D01*
X93999342Y-51310682D01*
X93802640Y-51282162D01*
X93802637Y-51282162D01*
X93796700Y-51281301D01*
X93586167Y-51291045D01*
X93580343Y-51292449D01*
X93580340Y-51292449D01*
X93387107Y-51339018D01*
X93387105Y-51339019D01*
X93381274Y-51340424D01*
X93375816Y-51342906D01*
X93375812Y-51342907D01*
X93310507Y-51372600D01*
X93189416Y-51427657D01*
X93167141Y-51443458D01*
X93031148Y-51539925D01*
X93017514Y-51549596D01*
X92871772Y-51701840D01*
X92868521Y-51706875D01*
X92799880Y-51813182D01*
X92757448Y-51878897D01*
X92678666Y-52074378D01*
X92638271Y-52281229D01*
X92638000Y-52286770D01*
X92638000Y-52692159D01*
X92347000Y-52692159D01*
X92347000Y-52336841D01*
X92332007Y-52179694D01*
X92305388Y-52088957D01*
X92274368Y-51983222D01*
X92272677Y-51977458D01*
X92221915Y-51878897D01*
X92178922Y-51795421D01*
X92178920Y-51795418D01*
X92176176Y-51790090D01*
X92106855Y-51701840D01*
X92049692Y-51629068D01*
X92049688Y-51629064D01*
X92045986Y-51624351D01*
X92033379Y-51613411D01*
X91891335Y-51490150D01*
X91891330Y-51490146D01*
X91886804Y-51486219D01*
X91704374Y-51380681D01*
X91505278Y-51311543D01*
X91499345Y-51310683D01*
X91499342Y-51310682D01*
X91302640Y-51282162D01*
X91302637Y-51282162D01*
X91296700Y-51281301D01*
X91086167Y-51291045D01*
X91080343Y-51292449D01*
X91080340Y-51292449D01*
X90887107Y-51339018D01*
X90887105Y-51339019D01*
X90881274Y-51340424D01*
X90875816Y-51342906D01*
X90875812Y-51342907D01*
X90810507Y-51372600D01*
X90689416Y-51427657D01*
X90667141Y-51443458D01*
X90531148Y-51539925D01*
X90517514Y-51549596D01*
X90371772Y-51701840D01*
X90368521Y-51706875D01*
X90299880Y-51813182D01*
X90257448Y-51878897D01*
X90178666Y-52074378D01*
X90138271Y-52281229D01*
X90138000Y-52286770D01*
X90138000Y-52692159D01*
X89847000Y-52692159D01*
X89847000Y-52336841D01*
X89832007Y-52179694D01*
X89805388Y-52088957D01*
X89774368Y-51983222D01*
X89772677Y-51977458D01*
X89721915Y-51878897D01*
X89678922Y-51795421D01*
X89678920Y-51795418D01*
X89676176Y-51790090D01*
X89606855Y-51701840D01*
X89549692Y-51629068D01*
X89549688Y-51629064D01*
X89545986Y-51624351D01*
X89533379Y-51613411D01*
X89391335Y-51490150D01*
X89391330Y-51490146D01*
X89386804Y-51486219D01*
X89204374Y-51380681D01*
X89005278Y-51311543D01*
X88999345Y-51310683D01*
X88999342Y-51310682D01*
X88802640Y-51282162D01*
X88802637Y-51282162D01*
X88796700Y-51281301D01*
X88586167Y-51291045D01*
X88580343Y-51292449D01*
X88580340Y-51292449D01*
X88387107Y-51339018D01*
X88387105Y-51339019D01*
X88381274Y-51340424D01*
X88375816Y-51342906D01*
X88375812Y-51342907D01*
X88310507Y-51372600D01*
X88189416Y-51427657D01*
X88167141Y-51443458D01*
X88031148Y-51539925D01*
X88017514Y-51549596D01*
X87871772Y-51701840D01*
X87868521Y-51706875D01*
X87799880Y-51813182D01*
X87757448Y-51878897D01*
X87755205Y-51884463D01*
X87747220Y-51904274D01*
X87703204Y-51959979D01*
X87636058Y-51983044D01*
X87567102Y-51966146D01*
X87515473Y-51908924D01*
X87435563Y-51731530D01*
X87430394Y-51722244D01*
X87307650Y-51539925D01*
X87300981Y-51531630D01*
X87149272Y-51372600D01*
X87141314Y-51365559D01*
X86964975Y-51234359D01*
X86955938Y-51228755D01*
X86760016Y-51129143D01*
X86750165Y-51125143D01*
X86540260Y-51059966D01*
X86529876Y-51057683D01*
X86514457Y-51055639D01*
X86500293Y-51057835D01*
X86496500Y-51071022D01*
X86496500Y-53955692D01*
X86500473Y-53969223D01*
X86511080Y-53970748D01*
X86628921Y-53946023D01*
X86639117Y-53942963D01*
X86843529Y-53862237D01*
X86853061Y-53857506D01*
X87040962Y-53743484D01*
X87049552Y-53737220D01*
X87215552Y-53593173D01*
X87222972Y-53585542D01*
X87362326Y-53415589D01*
X87368350Y-53406822D01*
X87477076Y-53215818D01*
X87481541Y-53206155D01*
X87511466Y-53123712D01*
X87553510Y-53066504D01*
X87619809Y-53041108D01*
X87689314Y-53055588D01*
X87741921Y-53109010D01*
X87808824Y-53238910D01*
X87836840Y-53274576D01*
X87935308Y-53399932D01*
X87935312Y-53399936D01*
X87939014Y-53404649D01*
X87943544Y-53408580D01*
X87943545Y-53408581D01*
X88093665Y-53538850D01*
X88093670Y-53538854D01*
X88098196Y-53542781D01*
X88103389Y-53545785D01*
X88200095Y-53601731D01*
X88249044Y-53653156D01*
X88263000Y-53710795D01*
X88263000Y-57031295D01*
X88242998Y-57099416D01*
X88226095Y-57120390D01*
X87849290Y-57497195D01*
X87786978Y-57531221D01*
X87760195Y-57534100D01*
X84624425Y-57534100D01*
X84613200Y-57532846D01*
X84613153Y-57533430D01*
X84604207Y-57532710D01*
X84595451Y-57530729D01*
X84545017Y-57533858D01*
X84537215Y-57534100D01*
X84522169Y-57534100D01*
X84517739Y-57534735D01*
X84517732Y-57534735D01*
X84512692Y-57535457D01*
X84502637Y-57536487D01*
X84467326Y-57538678D01*
X84458364Y-57539234D01*
X84449920Y-57542282D01*
X84444069Y-57543494D01*
X84435256Y-57545692D01*
X84429523Y-57547368D01*
X84420636Y-57548641D01*
X84380254Y-57567002D01*
X84370925Y-57570800D01*
X84329173Y-57585872D01*
X84321925Y-57591167D01*
X84316683Y-57593954D01*
X84308811Y-57598554D01*
X84303776Y-57601774D01*
X84295603Y-57605490D01*
X84288802Y-57611350D01*
X84262005Y-57634439D01*
X84254094Y-57640721D01*
X84249218Y-57644284D01*
X84243958Y-57648127D01*
X84233802Y-57658283D01*
X84226956Y-57664640D01*
X84191551Y-57695147D01*
X84186672Y-57702674D01*
X84180766Y-57709444D01*
X84180699Y-57709385D01*
X84172219Y-57719866D01*
X83300304Y-58591781D01*
X83291479Y-58598832D01*
X83291859Y-58599279D01*
X83285023Y-58605097D01*
X83277431Y-58609887D01*
X83271488Y-58616616D01*
X83243971Y-58647773D01*
X83238625Y-58653460D01*
X83227996Y-58664089D01*
X83225307Y-58667677D01*
X83222252Y-58671752D01*
X83215876Y-58679583D01*
X83197979Y-58699848D01*
X83186509Y-58712836D01*
X83182693Y-58720964D01*
X83179423Y-58725942D01*
X83174722Y-58733765D01*
X83171865Y-58738984D01*
X83166483Y-58746165D01*
X83163333Y-58754568D01*
X83150914Y-58787696D01*
X83146993Y-58797001D01*
X83128136Y-58837166D01*
X83126755Y-58846033D01*
X83125020Y-58851709D01*
X83122692Y-58860586D01*
X83121420Y-58866372D01*
X83118270Y-58874775D01*
X83117605Y-58883725D01*
X83114983Y-58919000D01*
X83113832Y-58929037D01*
X83111900Y-58941443D01*
X83111900Y-58955810D01*
X83111554Y-58965148D01*
X83108091Y-59011748D01*
X83109964Y-59020524D01*
X83110575Y-59029481D01*
X83110485Y-59029487D01*
X83111900Y-59042891D01*
X83111900Y-59163549D01*
X83091898Y-59231670D01*
X83038242Y-59278163D01*
X82967968Y-59288267D01*
X82904069Y-59259360D01*
X82871382Y-59231443D01*
X82863399Y-59225643D01*
X82669458Y-59106795D01*
X82660663Y-59102313D01*
X82450512Y-59015266D01*
X82441127Y-59012217D01*
X82219946Y-58959115D01*
X82210199Y-58957572D01*
X81983430Y-58939725D01*
X81973570Y-58939725D01*
X81746801Y-58957572D01*
X81737054Y-58959115D01*
X81515873Y-59012217D01*
X81506488Y-59015266D01*
X81296337Y-59102313D01*
X81287542Y-59106795D01*
X81120055Y-59209432D01*
X81110593Y-59219890D01*
X81114376Y-59228666D01*
X82248615Y-60362905D01*
X82282641Y-60425217D01*
X82277576Y-60496032D01*
X82248615Y-60541095D01*
X81117420Y-61672290D01*
X81110660Y-61684670D01*
X81116387Y-61692320D01*
X81287542Y-61797205D01*
X81296337Y-61801687D01*
X81506488Y-61888734D01*
X81515873Y-61891783D01*
X81737054Y-61944885D01*
X81746801Y-61946428D01*
X81973570Y-61964275D01*
X81983430Y-61964275D01*
X82210199Y-61946428D01*
X82219946Y-61944885D01*
X82441127Y-61891783D01*
X82450512Y-61888734D01*
X82660663Y-61801687D01*
X82669458Y-61797205D01*
X82863399Y-61678357D01*
X82871382Y-61672557D01*
X82904069Y-61644640D01*
X82968858Y-61615609D01*
X83039058Y-61626214D01*
X83092381Y-61673088D01*
X83111900Y-61740451D01*
X83111900Y-63178180D01*
X83110646Y-63189400D01*
X83111231Y-63189447D01*
X83110511Y-63198393D01*
X83108530Y-63207149D01*
X83109308Y-63219697D01*
X83108517Y-63223176D01*
X83108366Y-63225055D01*
X83108095Y-63225033D01*
X83093566Y-63288923D01*
X83042893Y-63338651D01*
X82983551Y-63353500D01*
X82656921Y-63353500D01*
X82645180Y-63352947D01*
X82637483Y-63351226D01*
X82629557Y-63351475D01*
X82629556Y-63351475D01*
X82567093Y-63353438D01*
X82563135Y-63353500D01*
X82534222Y-63353500D01*
X82530303Y-63353995D01*
X82530301Y-63353995D01*
X82529875Y-63354049D01*
X82518061Y-63354978D01*
X82480119Y-63356171D01*
X82480118Y-63356171D01*
X82472200Y-63356420D01*
X82464589Y-63358631D01*
X82464590Y-63358631D01*
X82451785Y-63362351D01*
X82432427Y-63366360D01*
X82428733Y-63366827D01*
X82419205Y-63368030D01*
X82419203Y-63368030D01*
X82411339Y-63369024D01*
X82403967Y-63371943D01*
X82403966Y-63371943D01*
X82368683Y-63385912D01*
X82357456Y-63389756D01*
X82313402Y-63402555D01*
X82295103Y-63413377D01*
X82277354Y-63422072D01*
X82257586Y-63429899D01*
X82251170Y-63434560D01*
X82251169Y-63434561D01*
X82220475Y-63456862D01*
X82210551Y-63463381D01*
X82177888Y-63482697D01*
X82177883Y-63482701D01*
X82171065Y-63486733D01*
X82156039Y-63501759D01*
X82141005Y-63514600D01*
X82123803Y-63527098D01*
X82094554Y-63562454D01*
X82086564Y-63571234D01*
X72823352Y-72834445D01*
X72814648Y-72842365D01*
X72807990Y-72846591D01*
X72802565Y-72852368D01*
X72759773Y-72897937D01*
X72757018Y-72900779D01*
X72736581Y-72921216D01*
X72733902Y-72924670D01*
X72726194Y-72933695D01*
X72694790Y-72967137D01*
X72686641Y-72981961D01*
X72684551Y-72985762D01*
X72673698Y-73002284D01*
X72668386Y-73009133D01*
X72660667Y-73019084D01*
X72657518Y-73026362D01*
X72642448Y-73061186D01*
X72637226Y-73071846D01*
X72615125Y-73112047D01*
X72609837Y-73132642D01*
X72603440Y-73151328D01*
X72594992Y-73170849D01*
X72593752Y-73178679D01*
X72593751Y-73178682D01*
X72587815Y-73216166D01*
X72585410Y-73227779D01*
X72574000Y-73272217D01*
X72574000Y-73293474D01*
X72572449Y-73313184D01*
X72569124Y-73334178D01*
X72570473Y-73348444D01*
X72573441Y-73379848D01*
X72574000Y-73391705D01*
X72574000Y-74213232D01*
X72553998Y-74281353D01*
X72520271Y-74316445D01*
X72423554Y-74384167D01*
X72423551Y-74384169D01*
X72419043Y-74387326D01*
X72263826Y-74542543D01*
X72260669Y-74547051D01*
X72260667Y-74547054D01*
X72154732Y-74698345D01*
X72137921Y-74722354D01*
X72135598Y-74727336D01*
X72135595Y-74727341D01*
X72111392Y-74779245D01*
X72045153Y-74921297D01*
X71988339Y-75133326D01*
X71969208Y-75352000D01*
X71988339Y-75570674D01*
X72045153Y-75782703D01*
X72088604Y-75875884D01*
X72135595Y-75976659D01*
X72135598Y-75976664D01*
X72137921Y-75981646D01*
X72141077Y-75986153D01*
X72141078Y-75986155D01*
X72197932Y-76067350D01*
X72263826Y-76161457D01*
X72419043Y-76316674D01*
X72423551Y-76319831D01*
X72423554Y-76319833D01*
X72459225Y-76344810D01*
X72598854Y-76442579D01*
X72603836Y-76444902D01*
X72603841Y-76444905D01*
X72704616Y-76491896D01*
X72797797Y-76535347D01*
X73009826Y-76592161D01*
X73228500Y-76611292D01*
X73447174Y-76592161D01*
X73452486Y-76590738D01*
X73452495Y-76590736D01*
X73647715Y-76538426D01*
X73718692Y-76540115D01*
X73769422Y-76571037D01*
X74705481Y-77507096D01*
X74712532Y-77515921D01*
X74712979Y-77515541D01*
X74718797Y-77522377D01*
X74723587Y-77529969D01*
X74730316Y-77535912D01*
X74761473Y-77563429D01*
X74767160Y-77568775D01*
X74777789Y-77579404D01*
X74781377Y-77582093D01*
X74785452Y-77585148D01*
X74793283Y-77591524D01*
X74813548Y-77609421D01*
X74826536Y-77620891D01*
X74834664Y-77624707D01*
X74839642Y-77627977D01*
X74847465Y-77632678D01*
X74852684Y-77635535D01*
X74859865Y-77640917D01*
X74901400Y-77656488D01*
X74910701Y-77660407D01*
X74950866Y-77679264D01*
X74959733Y-77680645D01*
X74965409Y-77682380D01*
X74974286Y-77684708D01*
X74980072Y-77685980D01*
X74988475Y-77689130D01*
X75011424Y-77690836D01*
X75032700Y-77692417D01*
X75042737Y-77693568D01*
X75055143Y-77695500D01*
X75069510Y-77695500D01*
X75078848Y-77695846D01*
X75125448Y-77699309D01*
X75134224Y-77697436D01*
X75143181Y-77696825D01*
X75143187Y-77696915D01*
X75156591Y-77695500D01*
X81765795Y-77695500D01*
X81833916Y-77715502D01*
X81854890Y-77732405D01*
X84192595Y-80070110D01*
X84226621Y-80132422D01*
X84229500Y-80159205D01*
X84229500Y-81647704D01*
X84206587Y-81720155D01*
X84127950Y-81832044D01*
X84125190Y-81839124D01*
X84085615Y-81940629D01*
X84070406Y-81979637D01*
X84069414Y-81987170D01*
X84069414Y-81987171D01*
X84052643Y-82114563D01*
X84049729Y-82136696D01*
X84058421Y-82215425D01*
X84065934Y-82283473D01*
X84067113Y-82294153D01*
X84069723Y-82301284D01*
X84069723Y-82301286D01*
X84070405Y-82303148D01*
X84121553Y-82442919D01*
X84125789Y-82449222D01*
X84125789Y-82449223D01*
X84195676Y-82553225D01*
X84209908Y-82574405D01*
X84215527Y-82579518D01*
X84215528Y-82579519D01*
X84269650Y-82628766D01*
X84327076Y-82681019D01*
X84466293Y-82756608D01*
X84619522Y-82796807D01*
X84703477Y-82798126D01*
X84770319Y-82799176D01*
X84770322Y-82799176D01*
X84777916Y-82799295D01*
X84932332Y-82763929D01*
X85014065Y-82722822D01*
X85067072Y-82696163D01*
X85067075Y-82696161D01*
X85073855Y-82692751D01*
X85079626Y-82687822D01*
X85079629Y-82687820D01*
X85188536Y-82594804D01*
X85188536Y-82594803D01*
X85194314Y-82589869D01*
X85269593Y-82485107D01*
X100514538Y-82485107D01*
X100515054Y-82491251D01*
X100523750Y-82594804D01*
X100531022Y-82681409D01*
X100555171Y-82765624D01*
X100577992Y-82845210D01*
X100585321Y-82870770D01*
X100675366Y-83045979D01*
X100679189Y-83050803D01*
X100679192Y-83050807D01*
X100706845Y-83085696D01*
X100797727Y-83200360D01*
X100802420Y-83204354D01*
X100802421Y-83204355D01*
X100827247Y-83225483D01*
X100947745Y-83328035D01*
X100953123Y-83331041D01*
X100953125Y-83331042D01*
X101001225Y-83357924D01*
X101119704Y-83424140D01*
X101307055Y-83485014D01*
X101502662Y-83508339D01*
X101508797Y-83507867D01*
X101508799Y-83507867D01*
X101568601Y-83503265D01*
X101699074Y-83493226D01*
X101888809Y-83440250D01*
X101897096Y-83436064D01*
X102059141Y-83354210D01*
X102059143Y-83354209D01*
X102064642Y-83351431D01*
X102219874Y-83230150D01*
X102223900Y-83225486D01*
X102223903Y-83225483D01*
X102344564Y-83085696D01*
X102344565Y-83085694D01*
X102348593Y-83081028D01*
X102445896Y-82909744D01*
X102508077Y-82722822D01*
X102532766Y-82527383D01*
X102533160Y-82499200D01*
X102513937Y-82303148D01*
X102457000Y-82114563D01*
X102389264Y-81987171D01*
X102367411Y-81946071D01*
X102367409Y-81946068D01*
X102364517Y-81940629D01*
X102240012Y-81787970D01*
X102174694Y-81733934D01*
X102092977Y-81666332D01*
X102092974Y-81666330D01*
X102088227Y-81662403D01*
X101914943Y-81568708D01*
X101726760Y-81510456D01*
X101720635Y-81509812D01*
X101720634Y-81509812D01*
X101536976Y-81490509D01*
X101536974Y-81490509D01*
X101530847Y-81489865D01*
X101448818Y-81497330D01*
X101340804Y-81507160D01*
X101340801Y-81507161D01*
X101334665Y-81507719D01*
X101328759Y-81509457D01*
X101328755Y-81509458D01*
X101188575Y-81550716D01*
X101145687Y-81563338D01*
X101140227Y-81566192D01*
X101140228Y-81566192D01*
X100976572Y-81651749D01*
X100976568Y-81651752D01*
X100971112Y-81654604D01*
X100817588Y-81778040D01*
X100690963Y-81928945D01*
X100596062Y-82101571D01*
X100594198Y-82107446D01*
X100594197Y-82107449D01*
X100577054Y-82161491D01*
X100536497Y-82289342D01*
X100514538Y-82485107D01*
X85269593Y-82485107D01*
X85286755Y-82461224D01*
X85345842Y-82314241D01*
X85368162Y-82157407D01*
X85368307Y-82143600D01*
X85349276Y-81986333D01*
X85293280Y-81838146D01*
X85210660Y-81717933D01*
X85188500Y-81646566D01*
X85188500Y-79976226D01*
X85189754Y-79965001D01*
X85189170Y-79964954D01*
X85189890Y-79956008D01*
X85191871Y-79947252D01*
X85188742Y-79896816D01*
X85188500Y-79889015D01*
X85188500Y-79873969D01*
X85187143Y-79864492D01*
X85186113Y-79854437D01*
X85183922Y-79819126D01*
X85183366Y-79810164D01*
X85180318Y-79801720D01*
X85179106Y-79795869D01*
X85176908Y-79787056D01*
X85175232Y-79781324D01*
X85173959Y-79772436D01*
X85155603Y-79732064D01*
X85151791Y-79722700D01*
X85139774Y-79689413D01*
X85136728Y-79680974D01*
X85131434Y-79673727D01*
X85128660Y-79668510D01*
X85124021Y-79660570D01*
X85120824Y-79655571D01*
X85117110Y-79647403D01*
X85111251Y-79640604D01*
X85111249Y-79640600D01*
X85088157Y-79613800D01*
X85081869Y-79605882D01*
X85074473Y-79595758D01*
X85064317Y-79585602D01*
X85057959Y-79578755D01*
X85033310Y-79550148D01*
X85033309Y-79550147D01*
X85027453Y-79543351D01*
X85019926Y-79538472D01*
X85013156Y-79532566D01*
X85013215Y-79532499D01*
X85002734Y-79524019D01*
X82454408Y-76975693D01*
X82420382Y-76913381D01*
X82425447Y-76842566D01*
X82467994Y-76785730D01*
X82495285Y-76770189D01*
X82660663Y-76701687D01*
X82669458Y-76697205D01*
X82836945Y-76594568D01*
X82846407Y-76584110D01*
X82842624Y-76575334D01*
X81991312Y-75724022D01*
X81977368Y-75716408D01*
X81975535Y-75716539D01*
X81968920Y-75720790D01*
X81117420Y-76572290D01*
X81109805Y-76586234D01*
X81110898Y-76601511D01*
X81095806Y-76670885D01*
X81045604Y-76721088D01*
X80985219Y-76736500D01*
X75343305Y-76736500D01*
X75275184Y-76716498D01*
X75254210Y-76699595D01*
X74447537Y-75892922D01*
X74413511Y-75830610D01*
X74414926Y-75771215D01*
X74467236Y-75575995D01*
X74467238Y-75575984D01*
X74468661Y-75570674D01*
X74487361Y-75356930D01*
X80466225Y-75356930D01*
X80484072Y-75583699D01*
X80485615Y-75593446D01*
X80538717Y-75814627D01*
X80541766Y-75824012D01*
X80628813Y-76034163D01*
X80633295Y-76042958D01*
X80735932Y-76210445D01*
X80746390Y-76219907D01*
X80755166Y-76216124D01*
X81606478Y-75364812D01*
X81612856Y-75353132D01*
X82342908Y-75353132D01*
X82343039Y-75354965D01*
X82347290Y-75361580D01*
X83198790Y-76213080D01*
X83211170Y-76219840D01*
X83218820Y-76214113D01*
X83323705Y-76042958D01*
X83328187Y-76034163D01*
X83415234Y-75824012D01*
X83418283Y-75814627D01*
X83471385Y-75593446D01*
X83472928Y-75583699D01*
X83490775Y-75356930D01*
X83490775Y-75347070D01*
X83472928Y-75120301D01*
X83471385Y-75110554D01*
X83418283Y-74889373D01*
X83415234Y-74879988D01*
X83328187Y-74669837D01*
X83323705Y-74661042D01*
X83221068Y-74493555D01*
X83210610Y-74484093D01*
X83201834Y-74487876D01*
X82350522Y-75339188D01*
X82342908Y-75353132D01*
X81612856Y-75353132D01*
X81614092Y-75350868D01*
X81613961Y-75349035D01*
X81609710Y-75342420D01*
X80758210Y-74490920D01*
X80745830Y-74484160D01*
X80738180Y-74489887D01*
X80633295Y-74661042D01*
X80628813Y-74669837D01*
X80541766Y-74879988D01*
X80538717Y-74889373D01*
X80485615Y-75110554D01*
X80484072Y-75120301D01*
X80466225Y-75347070D01*
X80466225Y-75356930D01*
X74487361Y-75356930D01*
X74487792Y-75352000D01*
X74468661Y-75133326D01*
X74411847Y-74921297D01*
X74345608Y-74779245D01*
X74321405Y-74727341D01*
X74321402Y-74727336D01*
X74319079Y-74722354D01*
X74302268Y-74698345D01*
X74196333Y-74547054D01*
X74196331Y-74547051D01*
X74193174Y-74542543D01*
X74037957Y-74387326D01*
X74033449Y-74384169D01*
X74033446Y-74384167D01*
X73936729Y-74316445D01*
X73892401Y-74260988D01*
X73883000Y-74213232D01*
X73883000Y-74119890D01*
X81110593Y-74119890D01*
X81114376Y-74128666D01*
X81965688Y-74979978D01*
X81979632Y-74987592D01*
X81981465Y-74987461D01*
X81988080Y-74983210D01*
X82839580Y-74131710D01*
X82846340Y-74119330D01*
X82840613Y-74111680D01*
X82669458Y-74006795D01*
X82660663Y-74002313D01*
X82450512Y-73915266D01*
X82441127Y-73912217D01*
X82219946Y-73859115D01*
X82210199Y-73857572D01*
X81983430Y-73839725D01*
X81973570Y-73839725D01*
X81746801Y-73857572D01*
X81737054Y-73859115D01*
X81515873Y-73912217D01*
X81506488Y-73915266D01*
X81296337Y-74002313D01*
X81287542Y-74006795D01*
X81120055Y-74109432D01*
X81110593Y-74119890D01*
X73883000Y-74119890D01*
X73883000Y-73678193D01*
X73903002Y-73610072D01*
X73919905Y-73589098D01*
X75481507Y-72027496D01*
X80341329Y-72027496D01*
X80358713Y-72184953D01*
X80361323Y-72192084D01*
X80361323Y-72192086D01*
X80389747Y-72269757D01*
X80413153Y-72333719D01*
X80417389Y-72340022D01*
X80417389Y-72340023D01*
X80485543Y-72441446D01*
X80501508Y-72465205D01*
X80507127Y-72470318D01*
X80507128Y-72470319D01*
X80519649Y-72481712D01*
X80618676Y-72571819D01*
X80757893Y-72647408D01*
X80911122Y-72687607D01*
X80995077Y-72688926D01*
X81061919Y-72689976D01*
X81061922Y-72689976D01*
X81069516Y-72690095D01*
X81223932Y-72654729D01*
X81314501Y-72609178D01*
X81358672Y-72586963D01*
X81358675Y-72586961D01*
X81365455Y-72583551D01*
X81371226Y-72578622D01*
X81371229Y-72578620D01*
X81480136Y-72485604D01*
X81480136Y-72485603D01*
X81485914Y-72480669D01*
X81578355Y-72352024D01*
X81637442Y-72205041D01*
X81652985Y-72095825D01*
X81682385Y-72031202D01*
X81688633Y-72024482D01*
X82396110Y-71317006D01*
X82458422Y-71282981D01*
X82517178Y-71284226D01*
X82630971Y-71314079D01*
X82630975Y-71314080D01*
X82638322Y-71316007D01*
X82722277Y-71317326D01*
X82789119Y-71318376D01*
X82789122Y-71318376D01*
X82796716Y-71318495D01*
X82951132Y-71283129D01*
X83021542Y-71247717D01*
X83085872Y-71215363D01*
X83085875Y-71215361D01*
X83092655Y-71211951D01*
X83098426Y-71207022D01*
X83098429Y-71207020D01*
X83207336Y-71114004D01*
X83207336Y-71114003D01*
X83213114Y-71109069D01*
X83305555Y-70980424D01*
X83364642Y-70833441D01*
X83386962Y-70676607D01*
X83387044Y-70668796D01*
X83387064Y-70666934D01*
X83387064Y-70666928D01*
X83387107Y-70662800D01*
X83368076Y-70505533D01*
X83312080Y-70357346D01*
X83274498Y-70302663D01*
X83226655Y-70233051D01*
X83226654Y-70233049D01*
X83222353Y-70226792D01*
X83104075Y-70121411D01*
X83096689Y-70117500D01*
X82970788Y-70050839D01*
X82970789Y-70050839D01*
X82964074Y-70047284D01*
X82810433Y-70008692D01*
X82802834Y-70008652D01*
X82802833Y-70008652D01*
X82736981Y-70008307D01*
X82652021Y-70007862D01*
X82644641Y-70009634D01*
X82644639Y-70009634D01*
X82505363Y-70043071D01*
X82505360Y-70043072D01*
X82497984Y-70044843D01*
X82357214Y-70117500D01*
X82351486Y-70122497D01*
X82298272Y-70168919D01*
X82250807Y-70194906D01*
X82245121Y-70196569D01*
X82236236Y-70197841D01*
X82195850Y-70216204D01*
X82186498Y-70220010D01*
X82153220Y-70232023D01*
X82153216Y-70232025D01*
X82144773Y-70235073D01*
X82137520Y-70240372D01*
X82132271Y-70243163D01*
X82124395Y-70247765D01*
X82119379Y-70250973D01*
X82111203Y-70254690D01*
X82077602Y-70283642D01*
X82069689Y-70289925D01*
X82059557Y-70297327D01*
X82049395Y-70307489D01*
X82042549Y-70313846D01*
X82007151Y-70344347D01*
X82002267Y-70351882D01*
X81996368Y-70358644D01*
X81996300Y-70358584D01*
X81987827Y-70369057D01*
X81014292Y-71342593D01*
X80951981Y-71376617D01*
X80939676Y-71378662D01*
X80932416Y-71379502D01*
X80924821Y-71379462D01*
X80917441Y-71381234D01*
X80917439Y-71381234D01*
X80778163Y-71414671D01*
X80778160Y-71414672D01*
X80770784Y-71416443D01*
X80630014Y-71489100D01*
X80510639Y-71593238D01*
X80419550Y-71722844D01*
X80416790Y-71729924D01*
X80373440Y-71841111D01*
X80362006Y-71870437D01*
X80361014Y-71877970D01*
X80361014Y-71877971D01*
X80344087Y-72006549D01*
X80341329Y-72027496D01*
X75481507Y-72027496D01*
X82809598Y-64699405D01*
X82871910Y-64665379D01*
X82898693Y-64662500D01*
X83718940Y-64662500D01*
X83787061Y-64682502D01*
X83833554Y-64736158D01*
X83843658Y-64806432D01*
X83822027Y-64860951D01*
X83772350Y-64931634D01*
X83769590Y-64938714D01*
X83724534Y-65054277D01*
X83714806Y-65079227D01*
X83713814Y-65086760D01*
X83713814Y-65086761D01*
X83696348Y-65219434D01*
X83694129Y-65236286D01*
X83697613Y-65267841D01*
X83706800Y-65351052D01*
X83711513Y-65393743D01*
X83714123Y-65400874D01*
X83714123Y-65400876D01*
X83738444Y-65467336D01*
X83743070Y-65538182D01*
X83708660Y-65600282D01*
X83655272Y-65631633D01*
X83634201Y-65637755D01*
X83627375Y-65641792D01*
X83615902Y-65648577D01*
X83598155Y-65657272D01*
X83578386Y-65665099D01*
X83541276Y-65692061D01*
X83531354Y-65698578D01*
X83498694Y-65717893D01*
X83498690Y-65717896D01*
X83491864Y-65721933D01*
X83476835Y-65736962D01*
X83461802Y-65749802D01*
X83444603Y-65762298D01*
X83415348Y-65797662D01*
X83407369Y-65806428D01*
X81420531Y-67793266D01*
X81414266Y-67799120D01*
X81374239Y-67834038D01*
X81338863Y-67884372D01*
X81335373Y-67889097D01*
X81296367Y-67939384D01*
X81293221Y-67946655D01*
X81292073Y-67948595D01*
X81290413Y-67952029D01*
X81287517Y-67957431D01*
X81283150Y-67963644D01*
X81280392Y-67970719D01*
X81280391Y-67970720D01*
X81259257Y-68024926D01*
X81257501Y-68029197D01*
X81230692Y-68091149D01*
X81229452Y-68098977D01*
X81228879Y-68100949D01*
X81228042Y-68104987D01*
X81225606Y-68111237D01*
X81224615Y-68118765D01*
X81216444Y-68180833D01*
X81215971Y-68184099D01*
X81204824Y-68254478D01*
X81205570Y-68262367D01*
X81205526Y-68263762D01*
X81204929Y-68268296D01*
X81205762Y-68275841D01*
X81205762Y-68275844D01*
X81213172Y-68342954D01*
X81213373Y-68344914D01*
X81220386Y-68419110D01*
X81222108Y-68423892D01*
X81222313Y-68425753D01*
X81223793Y-68429799D01*
X81223794Y-68429801D01*
X81250876Y-68503807D01*
X81251101Y-68504426D01*
X81273715Y-68567240D01*
X81273717Y-68567244D01*
X81276401Y-68574699D01*
X81280857Y-68581255D01*
X81280859Y-68581260D01*
X81318378Y-68636468D01*
X81318747Y-68637014D01*
X81362711Y-68702439D01*
X81362714Y-68702442D01*
X81365108Y-68706005D01*
X81366493Y-68707266D01*
X81369350Y-68711469D01*
X81375289Y-68716705D01*
X81425307Y-68760802D01*
X81426780Y-68762122D01*
X81482276Y-68812619D01*
X81486287Y-68814798D01*
X81487443Y-68815583D01*
X81493392Y-68820827D01*
X81556902Y-68853187D01*
X81559795Y-68854709D01*
X81621493Y-68888208D01*
X81627984Y-68889911D01*
X81631727Y-68891601D01*
X81633669Y-68892300D01*
X81640734Y-68895900D01*
X81648470Y-68897629D01*
X81648475Y-68897631D01*
X81706605Y-68910625D01*
X81711091Y-68911714D01*
X81760089Y-68924568D01*
X81774722Y-68928407D01*
X81782322Y-68928526D01*
X81788374Y-68929355D01*
X81792133Y-68930032D01*
X81794380Y-68930244D01*
X81802117Y-68931974D01*
X81810043Y-68931725D01*
X81865713Y-68929976D01*
X81871648Y-68929930D01*
X81925514Y-68930776D01*
X81925517Y-68930776D01*
X81933116Y-68930895D01*
X81940526Y-68929198D01*
X81948076Y-68928404D01*
X81948098Y-68928618D01*
X81955346Y-68927683D01*
X81959475Y-68927029D01*
X81967400Y-68926780D01*
X82024711Y-68910129D01*
X82031704Y-68908315D01*
X82087532Y-68895529D01*
X82094373Y-68892088D01*
X82115835Y-68883656D01*
X82118590Y-68882856D01*
X82118594Y-68882854D01*
X82126199Y-68880645D01*
X82151040Y-68865954D01*
X82174098Y-68852318D01*
X82181622Y-68848207D01*
X82184853Y-68846582D01*
X82229055Y-68824351D01*
X82234828Y-68819420D01*
X82234833Y-68819417D01*
X82238020Y-68816695D01*
X82255712Y-68804051D01*
X82261716Y-68800501D01*
X82261720Y-68800498D01*
X82268536Y-68796467D01*
X82305024Y-68759979D01*
X82312289Y-68753263D01*
X82343732Y-68726408D01*
X82343735Y-68726405D01*
X82349514Y-68721469D01*
X82358803Y-68708542D01*
X82372030Y-68692973D01*
X84130398Y-66934605D01*
X84192710Y-66900579D01*
X84219493Y-66897700D01*
X89755139Y-66897700D01*
X89823260Y-66917702D01*
X89869753Y-66971358D01*
X89879857Y-67041632D01*
X89850363Y-67106212D01*
X89844234Y-67112795D01*
X89264434Y-67692595D01*
X89202122Y-67726621D01*
X89175339Y-67729500D01*
X88095658Y-67729501D01*
X87961434Y-67729501D01*
X87925682Y-67736612D01*
X87899374Y-67741844D01*
X87899372Y-67741845D01*
X87887199Y-67744266D01*
X87876879Y-67751161D01*
X87876878Y-67751162D01*
X87859814Y-67762564D01*
X87803016Y-67800516D01*
X87746766Y-67884699D01*
X87732000Y-67958933D01*
X87732001Y-69709066D01*
X87746766Y-69783301D01*
X87753661Y-69793620D01*
X87753662Y-69793622D01*
X87794016Y-69854015D01*
X87803016Y-69867484D01*
X87887199Y-69923734D01*
X87961433Y-69938500D01*
X88836358Y-69938500D01*
X89711566Y-69938499D01*
X89747318Y-69931388D01*
X89773626Y-69926156D01*
X89773628Y-69926155D01*
X89785801Y-69923734D01*
X89796121Y-69916839D01*
X89796122Y-69916838D01*
X89859668Y-69874377D01*
X89869984Y-69867484D01*
X89926234Y-69783301D01*
X89941000Y-69709067D01*
X89940999Y-68495161D01*
X89961001Y-68427040D01*
X89977904Y-68406066D01*
X90183167Y-68200803D01*
X90245479Y-68166777D01*
X90316294Y-68171842D01*
X90373130Y-68214389D01*
X90397941Y-68280909D01*
X90383770Y-68348566D01*
X90351703Y-68409515D01*
X90291507Y-68603378D01*
X90267648Y-68804964D01*
X90280924Y-69007522D01*
X90282345Y-69013118D01*
X90282346Y-69013123D01*
X90302619Y-69092945D01*
X90330892Y-69204269D01*
X90333309Y-69209512D01*
X90370507Y-69290200D01*
X90415877Y-69388616D01*
X90419210Y-69393332D01*
X90489531Y-69492834D01*
X90533033Y-69554389D01*
X90678438Y-69696035D01*
X90847220Y-69808812D01*
X90852523Y-69811090D01*
X90852526Y-69811092D01*
X90983783Y-69867484D01*
X91033728Y-69888942D01*
X91106744Y-69905464D01*
X91226079Y-69932467D01*
X91226084Y-69932468D01*
X91231716Y-69933742D01*
X91237487Y-69933969D01*
X91237489Y-69933969D01*
X91297256Y-69936317D01*
X91434553Y-69941712D01*
X91541848Y-69926155D01*
X91629731Y-69913413D01*
X91629736Y-69913412D01*
X91635445Y-69912584D01*
X91640909Y-69910729D01*
X91640914Y-69910728D01*
X91822193Y-69849192D01*
X91822198Y-69849190D01*
X91827665Y-69847334D01*
X91855715Y-69831625D01*
X91924920Y-69815793D01*
X91991703Y-69839890D01*
X92034855Y-69896267D01*
X92040678Y-69967024D01*
X92006373Y-70030656D01*
X91768392Y-70268637D01*
X91706080Y-70302663D01*
X91654716Y-70303121D01*
X91498113Y-70271971D01*
X91498110Y-70271971D01*
X91492446Y-70270844D01*
X91486671Y-70270768D01*
X91486667Y-70270768D01*
X91385293Y-70269441D01*
X91289471Y-70268187D01*
X91283774Y-70269166D01*
X91283773Y-70269166D01*
X91162935Y-70289930D01*
X91089410Y-70302564D01*
X90898963Y-70372824D01*
X90724510Y-70476612D01*
X90720170Y-70480418D01*
X90720166Y-70480421D01*
X90578649Y-70604529D01*
X90571892Y-70610455D01*
X90446220Y-70769869D01*
X90443531Y-70774980D01*
X90443529Y-70774983D01*
X90404139Y-70849851D01*
X90351703Y-70949515D01*
X90291507Y-71143378D01*
X90267648Y-71344964D01*
X90280924Y-71547522D01*
X90282345Y-71553118D01*
X90282346Y-71553123D01*
X90319391Y-71698985D01*
X90330892Y-71744269D01*
X90333309Y-71749512D01*
X90368240Y-71825284D01*
X90415877Y-71928616D01*
X90533033Y-72094389D01*
X90678438Y-72236035D01*
X90847220Y-72348812D01*
X90852523Y-72351090D01*
X90852526Y-72351092D01*
X90949454Y-72392735D01*
X91004147Y-72438003D01*
X91025684Y-72505654D01*
X91007227Y-72574210D01*
X90954636Y-72621904D01*
X90938861Y-72628268D01*
X90853368Y-72656212D01*
X90843859Y-72660209D01*
X90654963Y-72758542D01*
X90646238Y-72764036D01*
X90475933Y-72891905D01*
X90468226Y-72898748D01*
X90321090Y-73052717D01*
X90314604Y-73060727D01*
X90194598Y-73236649D01*
X90189500Y-73245623D01*
X90099838Y-73438783D01*
X90096277Y-73448464D01*
X90091791Y-73464640D01*
X90054313Y-73524939D01*
X89990184Y-73555403D01*
X89919766Y-73546360D01*
X89865415Y-73500682D01*
X89857367Y-73486698D01*
X89784831Y-73339609D01*
X89782276Y-73334428D01*
X89776243Y-73326348D01*
X89709261Y-73236649D01*
X89660820Y-73171779D01*
X89553569Y-73072637D01*
X89516003Y-73037911D01*
X89511758Y-73033987D01*
X89506875Y-73030906D01*
X89506871Y-73030903D01*
X89352806Y-72933696D01*
X89340081Y-72925667D01*
X89151539Y-72850446D01*
X89145879Y-72849320D01*
X89145875Y-72849319D01*
X88958113Y-72811971D01*
X88958110Y-72811971D01*
X88952446Y-72810844D01*
X88946671Y-72810768D01*
X88946667Y-72810768D01*
X88845293Y-72809441D01*
X88749471Y-72808187D01*
X88743774Y-72809166D01*
X88743773Y-72809166D01*
X88555107Y-72841585D01*
X88549410Y-72842564D01*
X88487782Y-72865300D01*
X88364383Y-72910824D01*
X88364379Y-72910826D01*
X88358963Y-72912824D01*
X88354492Y-72915484D01*
X88284582Y-72926727D01*
X88219518Y-72898314D01*
X88180145Y-72839235D01*
X88178962Y-72768249D01*
X88211338Y-72712633D01*
X88445656Y-72478315D01*
X88507968Y-72444289D01*
X88562559Y-72444517D01*
X88686079Y-72472467D01*
X88686085Y-72472468D01*
X88691716Y-72473742D01*
X88697487Y-72473969D01*
X88697489Y-72473969D01*
X88757256Y-72476317D01*
X88894553Y-72481712D01*
X89008400Y-72465205D01*
X89089731Y-72453413D01*
X89089736Y-72453412D01*
X89095445Y-72452584D01*
X89100909Y-72450729D01*
X89100914Y-72450728D01*
X89282193Y-72389192D01*
X89282198Y-72389190D01*
X89287665Y-72387334D01*
X89350716Y-72352024D01*
X89362183Y-72345602D01*
X89464776Y-72288147D01*
X89469317Y-72284371D01*
X89616413Y-72162031D01*
X89620845Y-72158345D01*
X89711707Y-72049096D01*
X89746953Y-72006718D01*
X89746955Y-72006715D01*
X89750647Y-72002276D01*
X89820261Y-71877971D01*
X89847010Y-71830208D01*
X89847011Y-71830206D01*
X89849834Y-71825165D01*
X89851690Y-71819698D01*
X89851692Y-71819693D01*
X89913228Y-71638414D01*
X89913229Y-71638409D01*
X89915084Y-71632945D01*
X89915912Y-71627236D01*
X89915913Y-71627231D01*
X89935217Y-71494089D01*
X89944212Y-71432053D01*
X89945732Y-71374000D01*
X89934297Y-71249551D01*
X89927687Y-71177613D01*
X89927686Y-71177610D01*
X89927158Y-71171859D01*
X89925590Y-71166299D01*
X89873625Y-70982046D01*
X89873624Y-70982044D01*
X89872057Y-70976487D01*
X89861478Y-70955033D01*
X89784831Y-70799609D01*
X89782276Y-70794428D01*
X89660820Y-70631779D01*
X89524248Y-70505533D01*
X89516003Y-70497911D01*
X89511758Y-70493987D01*
X89506875Y-70490906D01*
X89506871Y-70490903D01*
X89344964Y-70388748D01*
X89340081Y-70385667D01*
X89151539Y-70310446D01*
X89145879Y-70309320D01*
X89145875Y-70309319D01*
X88958113Y-70271971D01*
X88958110Y-70271971D01*
X88952446Y-70270844D01*
X88946671Y-70270768D01*
X88946667Y-70270768D01*
X88845293Y-70269441D01*
X88749471Y-70268187D01*
X88743774Y-70269166D01*
X88743773Y-70269166D01*
X88622935Y-70289930D01*
X88549410Y-70302564D01*
X88358963Y-70372824D01*
X88184510Y-70476612D01*
X88180170Y-70480418D01*
X88180166Y-70480421D01*
X88038649Y-70604529D01*
X88031892Y-70610455D01*
X87906220Y-70769869D01*
X87903531Y-70774980D01*
X87903529Y-70774983D01*
X87864139Y-70849851D01*
X87811703Y-70949515D01*
X87751507Y-71143378D01*
X87727648Y-71344964D01*
X87740924Y-71547522D01*
X87742345Y-71553118D01*
X87742346Y-71553123D01*
X87765532Y-71644414D01*
X87762914Y-71715362D01*
X87732504Y-71764525D01*
X86897807Y-72599222D01*
X86888367Y-72606764D01*
X86888690Y-72607144D01*
X86881854Y-72612962D01*
X86874262Y-72617752D01*
X86868320Y-72624480D01*
X86838930Y-72657758D01*
X86833584Y-72663445D01*
X86822250Y-72674779D01*
X86819565Y-72678362D01*
X86819563Y-72678364D01*
X86816048Y-72683054D01*
X86809663Y-72690897D01*
X86778600Y-72726069D01*
X86774787Y-72734191D01*
X86772947Y-72736992D01*
X86764538Y-72750987D01*
X86762916Y-72753950D01*
X86757531Y-72761135D01*
X86754378Y-72769545D01*
X86754377Y-72769547D01*
X86741055Y-72805081D01*
X86737131Y-72814394D01*
X86717184Y-72856881D01*
X86715802Y-72865755D01*
X86714816Y-72868982D01*
X86710676Y-72884765D01*
X86709955Y-72888043D01*
X86706803Y-72896451D01*
X86706138Y-72905402D01*
X86703325Y-72943256D01*
X86702171Y-72953303D01*
X86700917Y-72961359D01*
X86700101Y-72966596D01*
X86700101Y-72981961D01*
X86699755Y-72991298D01*
X86696094Y-73040566D01*
X86697967Y-73049341D01*
X86698560Y-73058037D01*
X86700101Y-73072637D01*
X86700101Y-78929777D01*
X86698760Y-78941782D01*
X86699256Y-78941822D01*
X86698536Y-78950769D01*
X86696555Y-78959525D01*
X86697111Y-78968485D01*
X86699859Y-79012783D01*
X86700101Y-79020585D01*
X86700101Y-79036627D01*
X86700736Y-79041058D01*
X86700736Y-79041063D01*
X86701566Y-79046854D01*
X86702597Y-79056915D01*
X86705503Y-79103760D01*
X86708550Y-79112200D01*
X86709231Y-79115490D01*
X86713183Y-79131339D01*
X86714128Y-79134569D01*
X86715400Y-79143453D01*
X86719115Y-79151624D01*
X86734819Y-79186164D01*
X86738631Y-79195529D01*
X86751523Y-79231238D01*
X86751525Y-79231241D01*
X86754573Y-79239685D01*
X86759869Y-79246934D01*
X86761441Y-79249891D01*
X86769694Y-79264015D01*
X86771499Y-79266838D01*
X86775213Y-79275006D01*
X86781070Y-79281803D01*
X86781071Y-79281805D01*
X86805844Y-79310554D01*
X86812126Y-79318465D01*
X86820074Y-79329345D01*
X86830936Y-79340207D01*
X86837294Y-79347053D01*
X86869545Y-79384483D01*
X86877080Y-79389367D01*
X86883652Y-79395100D01*
X86895056Y-79404327D01*
X87632824Y-80142095D01*
X87666850Y-80204407D01*
X87668967Y-80217359D01*
X87673913Y-80262153D01*
X87676523Y-80269284D01*
X87676523Y-80269286D01*
X87704084Y-80344599D01*
X87728353Y-80410919D01*
X87732589Y-80417222D01*
X87732589Y-80417223D01*
X87792516Y-80506403D01*
X87816708Y-80542405D01*
X87822327Y-80547518D01*
X87822328Y-80547519D01*
X87917758Y-80634353D01*
X87933876Y-80649019D01*
X88073093Y-80724608D01*
X88226322Y-80764807D01*
X88310277Y-80766126D01*
X88377119Y-80767176D01*
X88377122Y-80767176D01*
X88384716Y-80767295D01*
X88539132Y-80731929D01*
X88625482Y-80688500D01*
X88673872Y-80664163D01*
X88673875Y-80664161D01*
X88680655Y-80660751D01*
X88686426Y-80655822D01*
X88686429Y-80655820D01*
X88795336Y-80562804D01*
X88795336Y-80562803D01*
X88801114Y-80557869D01*
X88893555Y-80429224D01*
X88952642Y-80282241D01*
X88962318Y-80214246D01*
X88991718Y-80149624D01*
X88997966Y-80142904D01*
X93818563Y-75322307D01*
X98987338Y-75322307D01*
X98987854Y-75328451D01*
X99001921Y-75495966D01*
X99003822Y-75518609D01*
X99058121Y-75707970D01*
X99148166Y-75883179D01*
X99151989Y-75888003D01*
X99151992Y-75888007D01*
X99179645Y-75922896D01*
X99270527Y-76037560D01*
X99275220Y-76041554D01*
X99275221Y-76041555D01*
X99300047Y-76062683D01*
X99420545Y-76165235D01*
X99425923Y-76168241D01*
X99425925Y-76168242D01*
X99518369Y-76219907D01*
X99592504Y-76261340D01*
X99779855Y-76322214D01*
X99975462Y-76345539D01*
X99981597Y-76345067D01*
X99981599Y-76345067D01*
X100041401Y-76340465D01*
X100171874Y-76330426D01*
X100361609Y-76277450D01*
X100367113Y-76274670D01*
X100531941Y-76191410D01*
X100531943Y-76191409D01*
X100537442Y-76188631D01*
X100692674Y-76067350D01*
X100696700Y-76062686D01*
X100696703Y-76062683D01*
X100817364Y-75922896D01*
X100817365Y-75922894D01*
X100821393Y-75918228D01*
X100918696Y-75746944D01*
X100980877Y-75560022D01*
X101005566Y-75364583D01*
X101005811Y-75347070D01*
X101005911Y-75339922D01*
X101005911Y-75339918D01*
X101005960Y-75336400D01*
X100986737Y-75140348D01*
X100929800Y-74951763D01*
X100910950Y-74916312D01*
X100840211Y-74783271D01*
X100840209Y-74783268D01*
X100837317Y-74777829D01*
X100712812Y-74625170D01*
X100618386Y-74547054D01*
X100565777Y-74503532D01*
X100565774Y-74503530D01*
X100561027Y-74499603D01*
X100387743Y-74405908D01*
X100199560Y-74347656D01*
X100193435Y-74347012D01*
X100193434Y-74347012D01*
X100009776Y-74327709D01*
X100009774Y-74327709D01*
X100003647Y-74327065D01*
X99921618Y-74334530D01*
X99813604Y-74344360D01*
X99813601Y-74344361D01*
X99807465Y-74344919D01*
X99801559Y-74346657D01*
X99801555Y-74346658D01*
X99663378Y-74387326D01*
X99618487Y-74400538D01*
X99613027Y-74403392D01*
X99613028Y-74403392D01*
X99449372Y-74488949D01*
X99449368Y-74488952D01*
X99443912Y-74491804D01*
X99439112Y-74495664D01*
X99439111Y-74495664D01*
X99363426Y-74556516D01*
X99290388Y-74615240D01*
X99163763Y-74766145D01*
X99158326Y-74776035D01*
X99075549Y-74926608D01*
X99068862Y-74938771D01*
X99066998Y-74944646D01*
X99066997Y-74944649D01*
X99039024Y-75032831D01*
X99009297Y-75126542D01*
X98987338Y-75322307D01*
X93818563Y-75322307D01*
X97428665Y-71712205D01*
X97490977Y-71678179D01*
X97517760Y-71675300D01*
X101221925Y-71675300D01*
X101290046Y-71695302D01*
X101336539Y-71748958D01*
X101346643Y-71819232D01*
X101317149Y-71883812D01*
X101304755Y-71896249D01*
X101296486Y-71903463D01*
X101186239Y-71999638D01*
X101095150Y-72129244D01*
X101037606Y-72276837D01*
X101036614Y-72284370D01*
X101036614Y-72284371D01*
X101022815Y-72389190D01*
X101016929Y-72433896D01*
X101021833Y-72478315D01*
X101033452Y-72583551D01*
X101034313Y-72591353D01*
X101036923Y-72598484D01*
X101036923Y-72598486D01*
X101081150Y-72719342D01*
X101088753Y-72740119D01*
X101092989Y-72746422D01*
X101092989Y-72746423D01*
X101163790Y-72851785D01*
X101177108Y-72871605D01*
X101182727Y-72876718D01*
X101182728Y-72876719D01*
X101255852Y-72943256D01*
X101294276Y-72978219D01*
X101433493Y-73053808D01*
X101586722Y-73094007D01*
X101670677Y-73095326D01*
X101737519Y-73096376D01*
X101737522Y-73096376D01*
X101745116Y-73096495D01*
X101752520Y-73094799D01*
X101752522Y-73094799D01*
X101844816Y-73073661D01*
X101915683Y-73077950D01*
X101972981Y-73119872D01*
X101998518Y-73186117D01*
X101984187Y-73255652D01*
X101976032Y-73268932D01*
X101924630Y-73342070D01*
X101920150Y-73348444D01*
X101903283Y-73391705D01*
X101888384Y-73429921D01*
X101862606Y-73496037D01*
X101861614Y-73503570D01*
X101861614Y-73503571D01*
X101845496Y-73626003D01*
X101841929Y-73653096D01*
X101859313Y-73810553D01*
X101861923Y-73817684D01*
X101861923Y-73817686D01*
X101897169Y-73914000D01*
X101913753Y-73959319D01*
X101917989Y-73965622D01*
X101917989Y-73965623D01*
X101986858Y-74068110D01*
X102002108Y-74090805D01*
X102007727Y-74095918D01*
X102007728Y-74095919D01*
X102058716Y-74142314D01*
X102119276Y-74197419D01*
X102258493Y-74273008D01*
X102411722Y-74313207D01*
X102495677Y-74314526D01*
X102562519Y-74315576D01*
X102562522Y-74315576D01*
X102570116Y-74315695D01*
X102724532Y-74280329D01*
X102866055Y-74209151D01*
X102912260Y-74169688D01*
X102977048Y-74140658D01*
X102994089Y-74139500D01*
X104453180Y-74139500D01*
X104464400Y-74140754D01*
X104464447Y-74140169D01*
X104473392Y-74140889D01*
X104482149Y-74142870D01*
X104492662Y-74142218D01*
X104495403Y-74142048D01*
X104499564Y-74142995D01*
X104500055Y-74143034D01*
X104500049Y-74143105D01*
X104564631Y-74157794D01*
X104614357Y-74208469D01*
X104628791Y-74277983D01*
X104603353Y-74344265D01*
X104546117Y-74386273D01*
X104538777Y-74388680D01*
X104504398Y-74398798D01*
X104504395Y-74398799D01*
X104498487Y-74400538D01*
X104493027Y-74403392D01*
X104493028Y-74403392D01*
X104329372Y-74488949D01*
X104329368Y-74488952D01*
X104323912Y-74491804D01*
X104319112Y-74495664D01*
X104319111Y-74495664D01*
X104243426Y-74556516D01*
X104170388Y-74615240D01*
X104043763Y-74766145D01*
X104038326Y-74776035D01*
X103955549Y-74926608D01*
X103948862Y-74938771D01*
X103946998Y-74944646D01*
X103946997Y-74944649D01*
X103919024Y-75032831D01*
X103889297Y-75126542D01*
X103867338Y-75322307D01*
X103867854Y-75328451D01*
X103881921Y-75495966D01*
X103883822Y-75518609D01*
X103938121Y-75707970D01*
X104028166Y-75883179D01*
X104031989Y-75888003D01*
X104031992Y-75888007D01*
X104059645Y-75922896D01*
X104150527Y-76037560D01*
X104155220Y-76041554D01*
X104155221Y-76041555D01*
X104180047Y-76062683D01*
X104300545Y-76165235D01*
X104305923Y-76168241D01*
X104305925Y-76168242D01*
X104398369Y-76219907D01*
X104472504Y-76261340D01*
X104659855Y-76322214D01*
X104855462Y-76345539D01*
X104861597Y-76345067D01*
X104861599Y-76345067D01*
X104921401Y-76340465D01*
X105051874Y-76330426D01*
X105241609Y-76277450D01*
X105247113Y-76274670D01*
X105411941Y-76191410D01*
X105411943Y-76191409D01*
X105417442Y-76188631D01*
X105572674Y-76067350D01*
X105576700Y-76062686D01*
X105576703Y-76062683D01*
X105697364Y-75922896D01*
X105697365Y-75922894D01*
X105701393Y-75918228D01*
X105798696Y-75746944D01*
X105853742Y-75581470D01*
X105894223Y-75523146D01*
X105959811Y-75495966D01*
X106029682Y-75508561D01*
X106081652Y-75556931D01*
X106099300Y-75621242D01*
X106099300Y-77791110D01*
X106079298Y-77859231D01*
X106025642Y-77905724D01*
X105973300Y-77917110D01*
X98890667Y-77917110D01*
X98822546Y-77897108D01*
X98807143Y-77885412D01*
X98806954Y-77885280D01*
X98801275Y-77880221D01*
X98661274Y-77806094D01*
X98507633Y-77767502D01*
X98500034Y-77767462D01*
X98500033Y-77767462D01*
X98434181Y-77767117D01*
X98349221Y-77766672D01*
X98341841Y-77768444D01*
X98341839Y-77768444D01*
X98202563Y-77801881D01*
X98202560Y-77801882D01*
X98195184Y-77803653D01*
X98054414Y-77876310D01*
X97935039Y-77980448D01*
X97843950Y-78110054D01*
X97786406Y-78257647D01*
X97785414Y-78265180D01*
X97785414Y-78265181D01*
X97769709Y-78384478D01*
X97765729Y-78414706D01*
X97766563Y-78422256D01*
X97779960Y-78543600D01*
X97783113Y-78572163D01*
X97785723Y-78579294D01*
X97785723Y-78579296D01*
X97837553Y-78720929D01*
X97836033Y-78721485D01*
X97847487Y-78782474D01*
X97820787Y-78848259D01*
X97762759Y-78889165D01*
X97722116Y-78895900D01*
X93487214Y-78895900D01*
X93475209Y-78894559D01*
X93475169Y-78895055D01*
X93466222Y-78894335D01*
X93457466Y-78892354D01*
X93413928Y-78895055D01*
X93404208Y-78895658D01*
X93396406Y-78895900D01*
X93380364Y-78895900D01*
X93375933Y-78896535D01*
X93375928Y-78896535D01*
X93371903Y-78897112D01*
X93370133Y-78897365D01*
X93360076Y-78898396D01*
X93337614Y-78899789D01*
X93322190Y-78900746D01*
X93322188Y-78900746D01*
X93313231Y-78901302D01*
X93304791Y-78904349D01*
X93301501Y-78905030D01*
X93285652Y-78908982D01*
X93282422Y-78909927D01*
X93273538Y-78911199D01*
X93232677Y-78929777D01*
X93230812Y-78930625D01*
X93221450Y-78934436D01*
X93185748Y-78947325D01*
X93185747Y-78947326D01*
X93177306Y-78950373D01*
X93170057Y-78955669D01*
X93167076Y-78957254D01*
X93152998Y-78965480D01*
X93150159Y-78967296D01*
X93141985Y-78971012D01*
X93106930Y-79001218D01*
X93106438Y-79001642D01*
X93098520Y-79007930D01*
X93087646Y-79015873D01*
X93076784Y-79026735D01*
X93069938Y-79033093D01*
X93032508Y-79065344D01*
X93027624Y-79072879D01*
X93021891Y-79079451D01*
X93012664Y-79090855D01*
X92895639Y-79207880D01*
X92835958Y-79241304D01*
X92803283Y-79249148D01*
X92701158Y-79273666D01*
X92701155Y-79273667D01*
X92693779Y-79275438D01*
X92553009Y-79348095D01*
X92433634Y-79452233D01*
X92342545Y-79581839D01*
X92285001Y-79729432D01*
X92284009Y-79736965D01*
X92284009Y-79736966D01*
X92265383Y-79878448D01*
X92264324Y-79886491D01*
X92281708Y-80043948D01*
X92284318Y-80051079D01*
X92284318Y-80051081D01*
X92323886Y-80159205D01*
X92336148Y-80192714D01*
X92340384Y-80199017D01*
X92340384Y-80199018D01*
X92350618Y-80214247D01*
X92424503Y-80324200D01*
X92430122Y-80329313D01*
X92430123Y-80329314D01*
X92531639Y-80421686D01*
X92541671Y-80430814D01*
X92680888Y-80506403D01*
X92834117Y-80546602D01*
X92918072Y-80547921D01*
X92984914Y-80548971D01*
X92984917Y-80548971D01*
X92992511Y-80549090D01*
X93146927Y-80513724D01*
X93217337Y-80478312D01*
X93281667Y-80445958D01*
X93281670Y-80445956D01*
X93288450Y-80442546D01*
X93294221Y-80437617D01*
X93294224Y-80437615D01*
X93403131Y-80344599D01*
X93403131Y-80344598D01*
X93408909Y-80339664D01*
X93501350Y-80211019D01*
X93560437Y-80064036D01*
X93567679Y-80013147D01*
X93597079Y-79948524D01*
X93656750Y-79910055D01*
X93692422Y-79904900D01*
X94274523Y-79904900D01*
X94342644Y-79924902D01*
X94389137Y-79978558D01*
X94399241Y-80048832D01*
X94391917Y-80076668D01*
X94382806Y-80100037D01*
X94381814Y-80107570D01*
X94381814Y-80107571D01*
X94369066Y-80204407D01*
X94362129Y-80257096D01*
X94369538Y-80324200D01*
X94375572Y-80378854D01*
X94379513Y-80414553D01*
X94382123Y-80421684D01*
X94382123Y-80421686D01*
X94427836Y-80546602D01*
X94433953Y-80563319D01*
X94438189Y-80569622D01*
X94438189Y-80569623D01*
X94500773Y-80662757D01*
X94522308Y-80694805D01*
X94527927Y-80699918D01*
X94527928Y-80699919D01*
X94599240Y-80764807D01*
X94639476Y-80801419D01*
X94778693Y-80877008D01*
X94931922Y-80917207D01*
X95015877Y-80918526D01*
X95082719Y-80919576D01*
X95082722Y-80919576D01*
X95090316Y-80919695D01*
X95244732Y-80884329D01*
X95315142Y-80848917D01*
X95379472Y-80816563D01*
X95379475Y-80816561D01*
X95386255Y-80813151D01*
X95403189Y-80798688D01*
X95467979Y-80769658D01*
X95485019Y-80768500D01*
X107295176Y-80768500D01*
X107307181Y-80769841D01*
X107307221Y-80769345D01*
X107316168Y-80770065D01*
X107324924Y-80772046D01*
X107378182Y-80768742D01*
X107385984Y-80768500D01*
X107402026Y-80768500D01*
X107406457Y-80767865D01*
X107406462Y-80767865D01*
X107410487Y-80767288D01*
X107412257Y-80767035D01*
X107422314Y-80766004D01*
X107444776Y-80764611D01*
X107460200Y-80763654D01*
X107460202Y-80763654D01*
X107469159Y-80763098D01*
X107477599Y-80760051D01*
X107480889Y-80759370D01*
X107496738Y-80755418D01*
X107499968Y-80754473D01*
X107508852Y-80753201D01*
X107551563Y-80733782D01*
X107560928Y-80729970D01*
X107596637Y-80717078D01*
X107596640Y-80717076D01*
X107605084Y-80714028D01*
X107612333Y-80708732D01*
X107615290Y-80707160D01*
X107629414Y-80698907D01*
X107632237Y-80697102D01*
X107640405Y-80693388D01*
X107647202Y-80687531D01*
X107647204Y-80687530D01*
X107663714Y-80673304D01*
X107675958Y-80662753D01*
X107683864Y-80656475D01*
X107694744Y-80648527D01*
X107705606Y-80637665D01*
X107712453Y-80631307D01*
X107743082Y-80604915D01*
X107749882Y-80599056D01*
X107754766Y-80591521D01*
X107760499Y-80584949D01*
X107769726Y-80573545D01*
X109450594Y-78892677D01*
X109460034Y-78885135D01*
X109459711Y-78884755D01*
X109466547Y-78878937D01*
X109474139Y-78874147D01*
X109493332Y-78852415D01*
X109506660Y-78837324D01*
X109566746Y-78799506D01*
X109637739Y-78800176D01*
X109697100Y-78839122D01*
X109725982Y-78903979D01*
X109727101Y-78920731D01*
X109727020Y-84075080D01*
X109726902Y-91652882D01*
X109724678Y-91673467D01*
X109724612Y-91676968D01*
X109721961Y-91689094D01*
X109724152Y-91701312D01*
X109723918Y-91713715D01*
X109723843Y-91713714D01*
X109724432Y-91724719D01*
X109704711Y-92003605D01*
X109703121Y-92016538D01*
X109649664Y-92320551D01*
X109646747Y-92333251D01*
X109562177Y-92630121D01*
X109557964Y-92642451D01*
X109443186Y-92928999D01*
X109437722Y-92940828D01*
X109293965Y-93213990D01*
X109287313Y-93225185D01*
X109121021Y-93474673D01*
X109116107Y-93482046D01*
X109108329Y-93492499D01*
X108911524Y-93730291D01*
X108902708Y-93739887D01*
X108715476Y-93923620D01*
X108682383Y-93956094D01*
X108672623Y-93964727D01*
X108431164Y-94157009D01*
X108420565Y-94164588D01*
X108160519Y-94330919D01*
X108149199Y-94337361D01*
X108062059Y-94381141D01*
X107873374Y-94475939D01*
X107861444Y-94481179D01*
X107696978Y-94543483D01*
X107572779Y-94590532D01*
X107560384Y-94594508D01*
X107261958Y-94673467D01*
X107249213Y-94676142D01*
X106944230Y-94723856D01*
X106931278Y-94725200D01*
X106652071Y-94739657D01*
X106641079Y-94738861D01*
X106641079Y-94738935D01*
X106628672Y-94738935D01*
X106616500Y-94736514D01*
X106603606Y-94739079D01*
X106579030Y-94741499D01*
X104521791Y-94741462D01*
X103541537Y-94741444D01*
X103473416Y-94721441D01*
X103426924Y-94667784D01*
X103416822Y-94597510D01*
X103446316Y-94532930D01*
X103470717Y-94511232D01*
X103472040Y-94510333D01*
X103480526Y-94506258D01*
X103485581Y-94501586D01*
X103491690Y-94498412D01*
X103496506Y-94494298D01*
X103531930Y-94458874D01*
X103535497Y-94455444D01*
X103568446Y-94424987D01*
X103568447Y-94424986D01*
X103575366Y-94418590D01*
X103578925Y-94412464D01*
X103583949Y-94406855D01*
X103674795Y-94316009D01*
X103737107Y-94281983D01*
X103765869Y-94279120D01*
X103783435Y-94279396D01*
X103820319Y-94279976D01*
X103820322Y-94279976D01*
X103827916Y-94280095D01*
X103982332Y-94244729D01*
X104052742Y-94209317D01*
X104117072Y-94176963D01*
X104117075Y-94176961D01*
X104123855Y-94173551D01*
X104129626Y-94168622D01*
X104129629Y-94168620D01*
X104238536Y-94075604D01*
X104238536Y-94075603D01*
X104244314Y-94070669D01*
X104336755Y-93942024D01*
X104395842Y-93795041D01*
X104409722Y-93697513D01*
X104417581Y-93642291D01*
X104417581Y-93642288D01*
X104418162Y-93638207D01*
X104418307Y-93624400D01*
X104415609Y-93602100D01*
X104411143Y-93565196D01*
X104401610Y-93486423D01*
X104778703Y-93486423D01*
X104786227Y-93496854D01*
X104925483Y-93609020D01*
X104931657Y-93613408D01*
X105202271Y-93782178D01*
X105208931Y-93785794D01*
X105497852Y-93920827D01*
X105504905Y-93923620D01*
X105807970Y-94022970D01*
X105815282Y-94024888D01*
X106128092Y-94087109D01*
X106135590Y-94088137D01*
X106453610Y-94112328D01*
X106461173Y-94112446D01*
X106779785Y-94098257D01*
X106787326Y-94097465D01*
X107101924Y-94045101D01*
X107109302Y-94043411D01*
X107415355Y-93953625D01*
X107422450Y-93951071D01*
X107715496Y-93825169D01*
X107722263Y-93821765D01*
X107998042Y-93661580D01*
X108004349Y-93657390D01*
X108214305Y-93498889D01*
X108222761Y-93487496D01*
X108216045Y-93475256D01*
X106512810Y-91772020D01*
X106498869Y-91764408D01*
X106497034Y-91764539D01*
X106490420Y-91768790D01*
X104785818Y-93473393D01*
X104778703Y-93486423D01*
X104401610Y-93486423D01*
X104399276Y-93467133D01*
X104343280Y-93318946D01*
X104338979Y-93312688D01*
X104335459Y-93305955D01*
X104338397Y-93304419D01*
X104321115Y-93250828D01*
X104339315Y-93182203D01*
X104386172Y-93137201D01*
X104425055Y-93115734D01*
X106127980Y-91412810D01*
X106134357Y-91401131D01*
X106864408Y-91401131D01*
X106864539Y-91402966D01*
X106868790Y-91409580D01*
X108573285Y-93114074D01*
X108586408Y-93121240D01*
X108596709Y-93113851D01*
X108700751Y-92986055D01*
X108705164Y-92979914D01*
X108875349Y-92710187D01*
X108879005Y-92703536D01*
X109015544Y-92415335D01*
X109018375Y-92408295D01*
X109119306Y-92105767D01*
X109121270Y-92098433D01*
X109185122Y-91785989D01*
X109186194Y-91778465D01*
X109212173Y-91459051D01*
X109212378Y-91454576D01*
X109212927Y-91402221D01*
X109212817Y-91397789D01*
X109193529Y-91077853D01*
X109192621Y-91070351D01*
X109135319Y-90756593D01*
X109133518Y-90749260D01*
X109038935Y-90444655D01*
X109036263Y-90437583D01*
X108905781Y-90146570D01*
X108902264Y-90139843D01*
X108737771Y-89866621D01*
X108733481Y-89860377D01*
X108597991Y-89686647D01*
X108586199Y-89678178D01*
X108574486Y-89684725D01*
X106872020Y-91387190D01*
X106864408Y-91401131D01*
X106134357Y-91401131D01*
X106135592Y-91398869D01*
X106135461Y-91397034D01*
X106131210Y-91390420D01*
X104426445Y-89685656D01*
X104413510Y-89678592D01*
X104402949Y-89686252D01*
X104282766Y-89837072D01*
X104278410Y-89843270D01*
X104111059Y-90114764D01*
X104107479Y-90121440D01*
X103973956Y-90411074D01*
X103971206Y-90418125D01*
X103873444Y-90721708D01*
X103871561Y-90729041D01*
X103810979Y-91042170D01*
X103809992Y-91049670D01*
X103787467Y-91367802D01*
X103787388Y-91375383D01*
X103803245Y-91693914D01*
X103804076Y-91701443D01*
X103858085Y-92015759D01*
X103859818Y-92023146D01*
X103951196Y-92328695D01*
X103953799Y-92335808D01*
X104081227Y-92628173D01*
X104084669Y-92634929D01*
X104218974Y-92863389D01*
X104236253Y-92932251D01*
X104213560Y-92999523D01*
X104158100Y-93043847D01*
X104087480Y-93051150D01*
X104051394Y-93038598D01*
X104001989Y-93012439D01*
X104001986Y-93012438D01*
X103995274Y-93008884D01*
X103841633Y-92970292D01*
X103834034Y-92970252D01*
X103834033Y-92970252D01*
X103768181Y-92969907D01*
X103683221Y-92969462D01*
X103675841Y-92971234D01*
X103675839Y-92971234D01*
X103536563Y-93004671D01*
X103536560Y-93004672D01*
X103529184Y-93006443D01*
X103388414Y-93079100D01*
X103269039Y-93183238D01*
X103177950Y-93312844D01*
X103175190Y-93319924D01*
X103126361Y-93445164D01*
X103120406Y-93460437D01*
X103119414Y-93467970D01*
X103119414Y-93467971D01*
X103100984Y-93607961D01*
X103072262Y-93672889D01*
X103012996Y-93711980D01*
X102976062Y-93717515D01*
X92707809Y-93717515D01*
X92639688Y-93697513D01*
X92593195Y-93643857D01*
X92583091Y-93573583D01*
X92612059Y-93512548D01*
X92611114Y-93511869D01*
X92614848Y-93506673D01*
X92614849Y-93506672D01*
X92703555Y-93383224D01*
X92762642Y-93236241D01*
X92774270Y-93154534D01*
X92784381Y-93083491D01*
X92784381Y-93083488D01*
X92784962Y-93079407D01*
X92785107Y-93065600D01*
X92784290Y-93058844D01*
X92773901Y-92973000D01*
X92766076Y-92908333D01*
X92710080Y-92760146D01*
X92673112Y-92706357D01*
X92624655Y-92635851D01*
X92624654Y-92635849D01*
X92620353Y-92629592D01*
X92502075Y-92524211D01*
X92494689Y-92520300D01*
X92368788Y-92453639D01*
X92368789Y-92453639D01*
X92362074Y-92450084D01*
X92208433Y-92411492D01*
X92200834Y-92411452D01*
X92200833Y-92411452D01*
X92134981Y-92411107D01*
X92050021Y-92410662D01*
X92042641Y-92412434D01*
X92042639Y-92412434D01*
X91903363Y-92445871D01*
X91903360Y-92445872D01*
X91895984Y-92447643D01*
X91755214Y-92520300D01*
X91749495Y-92525289D01*
X91658065Y-92605049D01*
X91593583Y-92634757D01*
X91575235Y-92636100D01*
X90634769Y-92636100D01*
X90619959Y-92635227D01*
X90615988Y-92634757D01*
X90588157Y-92631463D01*
X90578893Y-92633155D01*
X90578892Y-92633155D01*
X90533217Y-92641497D01*
X90529313Y-92642147D01*
X90474083Y-92650450D01*
X90467876Y-92653431D01*
X90461106Y-92654667D01*
X90452750Y-92659007D01*
X90452743Y-92659010D01*
X90411527Y-92680421D01*
X90408050Y-92682159D01*
X90357659Y-92706357D01*
X90352604Y-92711029D01*
X90346495Y-92714203D01*
X90341679Y-92718317D01*
X90306255Y-92753741D01*
X90302688Y-92757171D01*
X90291786Y-92767249D01*
X90262819Y-92794025D01*
X90259260Y-92800151D01*
X90254236Y-92805760D01*
X89619070Y-93440926D01*
X89556758Y-93474952D01*
X89529315Y-93477829D01*
X89486854Y-93477607D01*
X89459221Y-93477462D01*
X89451841Y-93479234D01*
X89451839Y-93479234D01*
X89312563Y-93512671D01*
X89312560Y-93512672D01*
X89305184Y-93514443D01*
X89164414Y-93587100D01*
X89045039Y-93691238D01*
X88953950Y-93820844D01*
X88951190Y-93827924D01*
X88903177Y-93951071D01*
X88896406Y-93968437D01*
X88895414Y-93975970D01*
X88895414Y-93975971D01*
X88877463Y-94112328D01*
X88875729Y-94125496D01*
X88893113Y-94282953D01*
X88895723Y-94290084D01*
X88895723Y-94290086D01*
X88942749Y-94418590D01*
X88947553Y-94431719D01*
X88951788Y-94438022D01*
X88951792Y-94438029D01*
X89023610Y-94544905D01*
X89045003Y-94612602D01*
X89026399Y-94681118D01*
X88973706Y-94728699D01*
X88919027Y-94741181D01*
X87160255Y-94741150D01*
X86323904Y-94741135D01*
X86255784Y-94721132D01*
X86209292Y-94667475D01*
X86199190Y-94597201D01*
X86228684Y-94532621D01*
X86257484Y-94509674D01*
X86257229Y-94509325D01*
X86262587Y-94505411D01*
X86263517Y-94504868D01*
X86264748Y-94503887D01*
X86269720Y-94501243D01*
X86277611Y-94496632D01*
X86282625Y-94493426D01*
X86290797Y-94489710D01*
X86303379Y-94478869D01*
X86324392Y-94460762D01*
X86332311Y-94454474D01*
X86337135Y-94450950D01*
X86338507Y-94449948D01*
X86338511Y-94449945D01*
X86342442Y-94447073D01*
X86352598Y-94436917D01*
X86359445Y-94430559D01*
X86388052Y-94405910D01*
X86388053Y-94405909D01*
X86394849Y-94400053D01*
X86399728Y-94392526D01*
X86405634Y-94385756D01*
X86405701Y-94385815D01*
X86414181Y-94375334D01*
X87489296Y-93300219D01*
X87498121Y-93293168D01*
X87497741Y-93292721D01*
X87504577Y-93286903D01*
X87512169Y-93282113D01*
X87545629Y-93244227D01*
X87550975Y-93238540D01*
X87561604Y-93227911D01*
X87567029Y-93220673D01*
X87567348Y-93220248D01*
X87573724Y-93212417D01*
X87597148Y-93185893D01*
X87603091Y-93179164D01*
X87606907Y-93171036D01*
X87610177Y-93166058D01*
X87614878Y-93158235D01*
X87617735Y-93153016D01*
X87623117Y-93145835D01*
X87638688Y-93104300D01*
X87642607Y-93094999D01*
X87661464Y-93054834D01*
X87662845Y-93045967D01*
X87664580Y-93040291D01*
X87666908Y-93031414D01*
X87668180Y-93025628D01*
X87671330Y-93017225D01*
X87673075Y-92993739D01*
X87674617Y-92973000D01*
X87675769Y-92962959D01*
X87676952Y-92955359D01*
X87677700Y-92950557D01*
X87677700Y-92936190D01*
X87678046Y-92926852D01*
X87680844Y-92889200D01*
X87681509Y-92880252D01*
X87679636Y-92871476D01*
X87679025Y-92862519D01*
X87679115Y-92862513D01*
X87677700Y-92849109D01*
X87677700Y-92753135D01*
X87697702Y-92685014D01*
X87751358Y-92638521D01*
X87821632Y-92628417D01*
X87835673Y-92631259D01*
X87926381Y-92655056D01*
X87926385Y-92655057D01*
X87933732Y-92656984D01*
X88017687Y-92658303D01*
X88084529Y-92659353D01*
X88084532Y-92659353D01*
X88092126Y-92659472D01*
X88246542Y-92624106D01*
X88332884Y-92580681D01*
X88381282Y-92556340D01*
X88381285Y-92556338D01*
X88388065Y-92552928D01*
X88393836Y-92547999D01*
X88393839Y-92547997D01*
X88502746Y-92454981D01*
X88502746Y-92454980D01*
X88508524Y-92450046D01*
X88600965Y-92321401D01*
X88660052Y-92174418D01*
X88681340Y-92024838D01*
X88681791Y-92021668D01*
X88681791Y-92021665D01*
X88682372Y-92017584D01*
X88682441Y-92011042D01*
X88682474Y-92007911D01*
X88682474Y-92007905D01*
X88682517Y-92003777D01*
X88681252Y-91993319D01*
X88667424Y-91879053D01*
X88663486Y-91846510D01*
X88607490Y-91698323D01*
X88524870Y-91578110D01*
X88502710Y-91506743D01*
X88502710Y-89313423D01*
X104777917Y-89313423D01*
X104784520Y-89325309D01*
X106487190Y-91027980D01*
X106501131Y-91035592D01*
X106502966Y-91035461D01*
X106509580Y-91031210D01*
X108214559Y-89326230D01*
X108221571Y-89313389D01*
X108213777Y-89302701D01*
X108051298Y-89174613D01*
X108045075Y-89170288D01*
X107772702Y-89004357D01*
X107766025Y-89000822D01*
X107475686Y-88868813D01*
X107468616Y-88866099D01*
X107164537Y-88769932D01*
X107157186Y-88768085D01*
X106843746Y-88709142D01*
X106836237Y-88708194D01*
X106517989Y-88687335D01*
X106510424Y-88687295D01*
X106191964Y-88704821D01*
X106184450Y-88705690D01*
X105870405Y-88761348D01*
X105863044Y-88763115D01*
X105557980Y-88856092D01*
X105550860Y-88858740D01*
X105259182Y-88987690D01*
X105252445Y-88991167D01*
X104978355Y-89154233D01*
X104972091Y-89158490D01*
X104786385Y-89301762D01*
X104777917Y-89313423D01*
X88502710Y-89313423D01*
X88502710Y-88878431D01*
X88503964Y-88867211D01*
X88503379Y-88867164D01*
X88504099Y-88858216D01*
X88506080Y-88849461D01*
X88502952Y-88799037D01*
X88502710Y-88791236D01*
X88502710Y-88776179D01*
X88501351Y-88766692D01*
X88500321Y-88756633D01*
X88498132Y-88721338D01*
X88497576Y-88712374D01*
X88494526Y-88703925D01*
X88493314Y-88698075D01*
X88491116Y-88689258D01*
X88489441Y-88683531D01*
X88488169Y-88674646D01*
X88469806Y-88634260D01*
X88466000Y-88624908D01*
X88453987Y-88591630D01*
X88453985Y-88591626D01*
X88450937Y-88583183D01*
X88445638Y-88575930D01*
X88442847Y-88570681D01*
X88438245Y-88562805D01*
X88435037Y-88557789D01*
X88431320Y-88549613D01*
X88402368Y-88516012D01*
X88396080Y-88508093D01*
X88391556Y-88501900D01*
X88388683Y-88497967D01*
X88378521Y-88487805D01*
X88372163Y-88480958D01*
X88347524Y-88452363D01*
X88341663Y-88445561D01*
X88334128Y-88440677D01*
X88327366Y-88434778D01*
X88327426Y-88434710D01*
X88316948Y-88426232D01*
X87533325Y-87642609D01*
X87255823Y-87365107D01*
X100514538Y-87365107D01*
X100515054Y-87371251D01*
X100528978Y-87537065D01*
X100531022Y-87561409D01*
X100556851Y-87651486D01*
X100582399Y-87740579D01*
X100585321Y-87750770D01*
X100675366Y-87925979D01*
X100679189Y-87930803D01*
X100679192Y-87930807D01*
X100704777Y-87963087D01*
X100797727Y-88080360D01*
X100802420Y-88084354D01*
X100802421Y-88084355D01*
X100925196Y-88188844D01*
X100947745Y-88208035D01*
X100953123Y-88211041D01*
X100953125Y-88211042D01*
X101099176Y-88292667D01*
X101119704Y-88304140D01*
X101307055Y-88365014D01*
X101502662Y-88388339D01*
X101508797Y-88387867D01*
X101508799Y-88387867D01*
X101568601Y-88383265D01*
X101699074Y-88373226D01*
X101888809Y-88320250D01*
X101894313Y-88317470D01*
X102059141Y-88234210D01*
X102059143Y-88234209D01*
X102064642Y-88231431D01*
X102219874Y-88110150D01*
X102223900Y-88105486D01*
X102223903Y-88105483D01*
X102344564Y-87965696D01*
X102344565Y-87965694D01*
X102348593Y-87961028D01*
X102353504Y-87952384D01*
X102412864Y-87847891D01*
X102445896Y-87789744D01*
X102508077Y-87602822D01*
X102532766Y-87407383D01*
X102533160Y-87379200D01*
X102513937Y-87183148D01*
X102457000Y-86994563D01*
X102452677Y-86986433D01*
X102367411Y-86826071D01*
X102367409Y-86826068D01*
X102364517Y-86820629D01*
X102240012Y-86667970D01*
X102159430Y-86601307D01*
X102092977Y-86546332D01*
X102092974Y-86546330D01*
X102088227Y-86542403D01*
X101914943Y-86448708D01*
X101726760Y-86390456D01*
X101720635Y-86389812D01*
X101720634Y-86389812D01*
X101536976Y-86370509D01*
X101536974Y-86370509D01*
X101530847Y-86369865D01*
X101448818Y-86377330D01*
X101340804Y-86387160D01*
X101340801Y-86387161D01*
X101334665Y-86387719D01*
X101328759Y-86389457D01*
X101328755Y-86389458D01*
X101188575Y-86430716D01*
X101145687Y-86443338D01*
X101140227Y-86446192D01*
X101140228Y-86446192D01*
X100976572Y-86531749D01*
X100976568Y-86531752D01*
X100971112Y-86534604D01*
X100966312Y-86538464D01*
X100966311Y-86538464D01*
X100841127Y-86639114D01*
X100817588Y-86658040D01*
X100690963Y-86808945D01*
X100684540Y-86820629D01*
X100637148Y-86906836D01*
X100596062Y-86981571D01*
X100594198Y-86987446D01*
X100594197Y-86987449D01*
X100590069Y-87000463D01*
X100536497Y-87169342D01*
X100514538Y-87365107D01*
X87255823Y-87365107D01*
X86742110Y-86851395D01*
X86708085Y-86789083D01*
X86713149Y-86718268D01*
X86755696Y-86661432D01*
X86822216Y-86636621D01*
X86831205Y-86636300D01*
X88705180Y-86636300D01*
X88716400Y-86637554D01*
X88716447Y-86636969D01*
X88725392Y-86637689D01*
X88734149Y-86639670D01*
X88784573Y-86636542D01*
X88792374Y-86636300D01*
X88807431Y-86636300D01*
X88816918Y-86634941D01*
X88826975Y-86633911D01*
X88871236Y-86631166D01*
X88879685Y-86628116D01*
X88885535Y-86626904D01*
X88894352Y-86624706D01*
X88900079Y-86623031D01*
X88908964Y-86621759D01*
X88949350Y-86603396D01*
X88958702Y-86599590D01*
X88991980Y-86587577D01*
X88991984Y-86587575D01*
X89000427Y-86584527D01*
X89007680Y-86579228D01*
X89012929Y-86576437D01*
X89020811Y-86571832D01*
X89025825Y-86568626D01*
X89033997Y-86564910D01*
X89067593Y-86535961D01*
X89075511Y-86529674D01*
X89078476Y-86527508D01*
X89081707Y-86525148D01*
X89081711Y-86525145D01*
X89085642Y-86522273D01*
X89095798Y-86512117D01*
X89102645Y-86505759D01*
X89131252Y-86481110D01*
X89131253Y-86481109D01*
X89138049Y-86475253D01*
X89142928Y-86467726D01*
X89148834Y-86460956D01*
X89148901Y-86461015D01*
X89157381Y-86450534D01*
X90943834Y-84664081D01*
X91006146Y-84630055D01*
X91019047Y-84627981D01*
X91026316Y-84628095D01*
X91180732Y-84592729D01*
X91290520Y-84537512D01*
X91315472Y-84524963D01*
X91315475Y-84524961D01*
X91322255Y-84521551D01*
X91328026Y-84516622D01*
X91328029Y-84516620D01*
X91436936Y-84423604D01*
X91436936Y-84423603D01*
X91442714Y-84418669D01*
X91535155Y-84290024D01*
X91594242Y-84143041D01*
X91605116Y-84066632D01*
X91615981Y-83990291D01*
X91615981Y-83990288D01*
X91616562Y-83986207D01*
X91616707Y-83972400D01*
X91597676Y-83815133D01*
X91541680Y-83666946D01*
X91451953Y-83536392D01*
X91333675Y-83431011D01*
X91326289Y-83427100D01*
X91200388Y-83360439D01*
X91200389Y-83360439D01*
X91193674Y-83356884D01*
X91040033Y-83318292D01*
X91032434Y-83318252D01*
X91032433Y-83318252D01*
X90966581Y-83317907D01*
X90881621Y-83317462D01*
X90874241Y-83319234D01*
X90874239Y-83319234D01*
X90734963Y-83352671D01*
X90734960Y-83352672D01*
X90727584Y-83354443D01*
X90586814Y-83427100D01*
X90467439Y-83531238D01*
X90376350Y-83660844D01*
X90318806Y-83808437D01*
X90317814Y-83815970D01*
X90317814Y-83815971D01*
X90305522Y-83909341D01*
X90276800Y-83974268D01*
X90269695Y-83981990D01*
X88611290Y-85640395D01*
X88548978Y-85674421D01*
X88522195Y-85677300D01*
X81668311Y-85677300D01*
X81600190Y-85657298D01*
X81553697Y-85603642D01*
X81543593Y-85533368D01*
X81573087Y-85468788D01*
X81620093Y-85434891D01*
X81667663Y-85415187D01*
X81676458Y-85410705D01*
X81843945Y-85308068D01*
X81853407Y-85297610D01*
X81849624Y-85288834D01*
X80998312Y-84437522D01*
X80984368Y-84429908D01*
X80982535Y-84430039D01*
X80975920Y-84434290D01*
X80124420Y-85285790D01*
X80117660Y-85298170D01*
X80123387Y-85305820D01*
X80294542Y-85410705D01*
X80303337Y-85415187D01*
X80350907Y-85434891D01*
X80406188Y-85479439D01*
X80428609Y-85546803D01*
X80411051Y-85615594D01*
X80359089Y-85663972D01*
X80302689Y-85677300D01*
X78325225Y-85677300D01*
X78314000Y-85676046D01*
X78313953Y-85676630D01*
X78305007Y-85675910D01*
X78296251Y-85673929D01*
X78245817Y-85677058D01*
X78238015Y-85677300D01*
X78222969Y-85677300D01*
X78218539Y-85677935D01*
X78218532Y-85677935D01*
X78213492Y-85678657D01*
X78203437Y-85679687D01*
X78182289Y-85680999D01*
X78159164Y-85682434D01*
X78150714Y-85685485D01*
X78144856Y-85686698D01*
X78136048Y-85688894D01*
X78130321Y-85690569D01*
X78121436Y-85691841D01*
X78081050Y-85710204D01*
X78071698Y-85714010D01*
X78038420Y-85726023D01*
X78038416Y-85726025D01*
X78029973Y-85729073D01*
X78022720Y-85734372D01*
X78017471Y-85737163D01*
X78009589Y-85741768D01*
X78004575Y-85744974D01*
X77996403Y-85748690D01*
X77989603Y-85754549D01*
X77989602Y-85754550D01*
X77962808Y-85777638D01*
X77954889Y-85783926D01*
X77951924Y-85786092D01*
X77948693Y-85788452D01*
X77948689Y-85788455D01*
X77944758Y-85791327D01*
X77934602Y-85801483D01*
X77927756Y-85807840D01*
X77892351Y-85838347D01*
X77887472Y-85845874D01*
X77881566Y-85852644D01*
X77881499Y-85852585D01*
X77873019Y-85863066D01*
X76950304Y-86785781D01*
X76941479Y-86792832D01*
X76941859Y-86793279D01*
X76935023Y-86799097D01*
X76927431Y-86803887D01*
X76921488Y-86810616D01*
X76893971Y-86841773D01*
X76888625Y-86847460D01*
X76877996Y-86858089D01*
X76875307Y-86861677D01*
X76872252Y-86865752D01*
X76865876Y-86873583D01*
X76847979Y-86893848D01*
X76836509Y-86906836D01*
X76832693Y-86914964D01*
X76829423Y-86919942D01*
X76824722Y-86927765D01*
X76821865Y-86932984D01*
X76816483Y-86940165D01*
X76813333Y-86948568D01*
X76800914Y-86981696D01*
X76796993Y-86991001D01*
X76778136Y-87031166D01*
X76776755Y-87040033D01*
X76775020Y-87045709D01*
X76772692Y-87054586D01*
X76771420Y-87060372D01*
X76768270Y-87068775D01*
X76767605Y-87077725D01*
X76764983Y-87113000D01*
X76763832Y-87123037D01*
X76761900Y-87135443D01*
X76761900Y-87149810D01*
X76761554Y-87159148D01*
X76758091Y-87205748D01*
X76759964Y-87214524D01*
X76760575Y-87223481D01*
X76760485Y-87223487D01*
X76761900Y-87236891D01*
X76761900Y-92874504D01*
X76738987Y-92946955D01*
X76721285Y-92972143D01*
X76660350Y-93058844D01*
X76646260Y-93094984D01*
X76610816Y-93185893D01*
X76602806Y-93206437D01*
X76601814Y-93213970D01*
X76601814Y-93213971D01*
X76585818Y-93335477D01*
X76582129Y-93363496D01*
X76584989Y-93389398D01*
X76598599Y-93512671D01*
X76599513Y-93520953D01*
X76602123Y-93528084D01*
X76602123Y-93528086D01*
X76650975Y-93661580D01*
X76653953Y-93669719D01*
X76658189Y-93676022D01*
X76658189Y-93676023D01*
X76733109Y-93787515D01*
X76742308Y-93801205D01*
X76747927Y-93806318D01*
X76747928Y-93806319D01*
X76757060Y-93814628D01*
X76859476Y-93907819D01*
X76998693Y-93983408D01*
X77151922Y-94023607D01*
X77233475Y-94024888D01*
X77302719Y-94025976D01*
X77302722Y-94025976D01*
X77310316Y-94026095D01*
X77464732Y-93990729D01*
X77561572Y-93942024D01*
X77599472Y-93922963D01*
X77599475Y-93922961D01*
X77606255Y-93919551D01*
X77612026Y-93914622D01*
X77612029Y-93914620D01*
X77720936Y-93821604D01*
X77720936Y-93821603D01*
X77726714Y-93816669D01*
X77819155Y-93688024D01*
X77878242Y-93541041D01*
X77888641Y-93467971D01*
X77899981Y-93388291D01*
X77899981Y-93388288D01*
X77900562Y-93384207D01*
X77900631Y-93377665D01*
X77900664Y-93374534D01*
X77900664Y-93374528D01*
X77900707Y-93370400D01*
X77881676Y-93213133D01*
X77825680Y-93064946D01*
X77743060Y-92944733D01*
X77720900Y-92873366D01*
X77720900Y-92409818D01*
X77740902Y-92341697D01*
X77794558Y-92295204D01*
X77864832Y-92285100D01*
X77929412Y-92314594D01*
X77961325Y-92357065D01*
X77969877Y-92375616D01*
X77992972Y-92408295D01*
X78075655Y-92525289D01*
X78087033Y-92541389D01*
X78091175Y-92545424D01*
X78120897Y-92574378D01*
X78232438Y-92683035D01*
X78347843Y-92760146D01*
X78395002Y-92791657D01*
X78440530Y-92846134D01*
X78451000Y-92896422D01*
X78451000Y-93213680D01*
X78449746Y-93224900D01*
X78450331Y-93224947D01*
X78449611Y-93233892D01*
X78447630Y-93242649D01*
X78448186Y-93251609D01*
X78450758Y-93293073D01*
X78451000Y-93300874D01*
X78451000Y-93315931D01*
X78451634Y-93320357D01*
X78452358Y-93325408D01*
X78453389Y-93335475D01*
X78456134Y-93379736D01*
X78459184Y-93388185D01*
X78460396Y-93394035D01*
X78462594Y-93402852D01*
X78464269Y-93408579D01*
X78465541Y-93417464D01*
X78483904Y-93457850D01*
X78487710Y-93467202D01*
X78499723Y-93500480D01*
X78499725Y-93500484D01*
X78502773Y-93508927D01*
X78508072Y-93516180D01*
X78510863Y-93521429D01*
X78515468Y-93529311D01*
X78518674Y-93534325D01*
X78522390Y-93542497D01*
X78528249Y-93549297D01*
X78528250Y-93549298D01*
X78551338Y-93576092D01*
X78557626Y-93584011D01*
X78565027Y-93594142D01*
X78575183Y-93604298D01*
X78581541Y-93611145D01*
X78601305Y-93634082D01*
X78612047Y-93646549D01*
X78619574Y-93651428D01*
X78626344Y-93657334D01*
X78626285Y-93657401D01*
X78636766Y-93665881D01*
X79343581Y-94372696D01*
X79350632Y-94381521D01*
X79351079Y-94381141D01*
X79356897Y-94387977D01*
X79361687Y-94395569D01*
X79368416Y-94401512D01*
X79399573Y-94429029D01*
X79405260Y-94434375D01*
X79415889Y-94445004D01*
X79419477Y-94447693D01*
X79423552Y-94450748D01*
X79431383Y-94457124D01*
X79451648Y-94475021D01*
X79464636Y-94486491D01*
X79472764Y-94490307D01*
X79477742Y-94493577D01*
X79485546Y-94498266D01*
X79490777Y-94501130D01*
X79497965Y-94506517D01*
X79499517Y-94507099D01*
X79547060Y-94554748D01*
X79562075Y-94624139D01*
X79537191Y-94690632D01*
X79480308Y-94733115D01*
X79436404Y-94741011D01*
X73383618Y-94740902D01*
X73363027Y-94738678D01*
X73359533Y-94738612D01*
X73347406Y-94735961D01*
X73335188Y-94738152D01*
X73322784Y-94737918D01*
X73322785Y-94737843D01*
X73311781Y-94738432D01*
X73032895Y-94718711D01*
X73019962Y-94717121D01*
X72715949Y-94663664D01*
X72703249Y-94660747D01*
X72406379Y-94576177D01*
X72394049Y-94571964D01*
X72107501Y-94457186D01*
X72095672Y-94451722D01*
X71822510Y-94307965D01*
X71811315Y-94301313D01*
X71554453Y-94130106D01*
X71544001Y-94122329D01*
X71306209Y-93925524D01*
X71296613Y-93916708D01*
X71101143Y-93717515D01*
X71080406Y-93696383D01*
X71071773Y-93686623D01*
X70912347Y-93486423D01*
X71778703Y-93486423D01*
X71786227Y-93496854D01*
X71925483Y-93609020D01*
X71931657Y-93613408D01*
X72202271Y-93782178D01*
X72208931Y-93785794D01*
X72497852Y-93920827D01*
X72504905Y-93923620D01*
X72807970Y-94022970D01*
X72815282Y-94024888D01*
X73128092Y-94087109D01*
X73135590Y-94088137D01*
X73453610Y-94112328D01*
X73461173Y-94112446D01*
X73779785Y-94098257D01*
X73787326Y-94097465D01*
X74101924Y-94045101D01*
X74109302Y-94043411D01*
X74415355Y-93953625D01*
X74422450Y-93951071D01*
X74715496Y-93825169D01*
X74722263Y-93821765D01*
X74998042Y-93661580D01*
X75004349Y-93657390D01*
X75214305Y-93498889D01*
X75222761Y-93487496D01*
X75216045Y-93475256D01*
X73512810Y-91772020D01*
X73498869Y-91764408D01*
X73497034Y-91764539D01*
X73490420Y-91768790D01*
X71785818Y-93473393D01*
X71778703Y-93486423D01*
X70912347Y-93486423D01*
X70879491Y-93445164D01*
X70871912Y-93434565D01*
X70705581Y-93174519D01*
X70699136Y-93163193D01*
X70695218Y-93155393D01*
X70620383Y-93006443D01*
X70560561Y-92887374D01*
X70555321Y-92875444D01*
X70482432Y-92683035D01*
X70445968Y-92586779D01*
X70441990Y-92574378D01*
X70437218Y-92556340D01*
X70363033Y-92275958D01*
X70360357Y-92263209D01*
X70360119Y-92261685D01*
X70312644Y-91958230D01*
X70311299Y-91945273D01*
X70308311Y-91887564D01*
X70296843Y-91666071D01*
X70297639Y-91655079D01*
X70297565Y-91655079D01*
X70297565Y-91642672D01*
X70299986Y-91630500D01*
X70297421Y-91617606D01*
X70295001Y-91593028D01*
X70295002Y-91567769D01*
X70295005Y-91375383D01*
X70787388Y-91375383D01*
X70803245Y-91693914D01*
X70804076Y-91701443D01*
X70858085Y-92015759D01*
X70859818Y-92023146D01*
X70951196Y-92328695D01*
X70953799Y-92335808D01*
X71081227Y-92628173D01*
X71084669Y-92634929D01*
X71246296Y-92909865D01*
X71250519Y-92916150D01*
X71401463Y-93113934D01*
X71412989Y-93122396D01*
X71425054Y-93115735D01*
X73127980Y-91412810D01*
X73134357Y-91401131D01*
X73864408Y-91401131D01*
X73864539Y-91402966D01*
X73868790Y-91409580D01*
X75573285Y-93114074D01*
X75586408Y-93121240D01*
X75596709Y-93113851D01*
X75700751Y-92986055D01*
X75705164Y-92979914D01*
X75875349Y-92710187D01*
X75879005Y-92703536D01*
X76015544Y-92415335D01*
X76018375Y-92408295D01*
X76119306Y-92105767D01*
X76121270Y-92098433D01*
X76185122Y-91785989D01*
X76186194Y-91778465D01*
X76212173Y-91459051D01*
X76212378Y-91454576D01*
X76212927Y-91402221D01*
X76212817Y-91397789D01*
X76193529Y-91077853D01*
X76192621Y-91070351D01*
X76135319Y-90756593D01*
X76133518Y-90749260D01*
X76038935Y-90444655D01*
X76036263Y-90437583D01*
X75905781Y-90146570D01*
X75902264Y-90139843D01*
X75737771Y-89866621D01*
X75733481Y-89860377D01*
X75597991Y-89686647D01*
X75586199Y-89678178D01*
X75574486Y-89684725D01*
X73872020Y-91387190D01*
X73864408Y-91401131D01*
X73134357Y-91401131D01*
X73135592Y-91398869D01*
X73135461Y-91397034D01*
X73131210Y-91390420D01*
X71426445Y-89685656D01*
X71413510Y-89678592D01*
X71402949Y-89686252D01*
X71282766Y-89837072D01*
X71278410Y-89843270D01*
X71111059Y-90114764D01*
X71107479Y-90121440D01*
X70973956Y-90411074D01*
X70971206Y-90418125D01*
X70873444Y-90721708D01*
X70871561Y-90729041D01*
X70810979Y-91042170D01*
X70809992Y-91049670D01*
X70787467Y-91367802D01*
X70787388Y-91375383D01*
X70295005Y-91375383D01*
X70295037Y-89313423D01*
X71777917Y-89313423D01*
X71784520Y-89325309D01*
X73487190Y-91027980D01*
X73501131Y-91035592D01*
X73502966Y-91035461D01*
X73509580Y-91031210D01*
X75214559Y-89326230D01*
X75221571Y-89313389D01*
X75213777Y-89302701D01*
X75051298Y-89174613D01*
X75045075Y-89170288D01*
X74772702Y-89004357D01*
X74766025Y-89000822D01*
X74475686Y-88868813D01*
X74468616Y-88866099D01*
X74164537Y-88769932D01*
X74157186Y-88768085D01*
X73843746Y-88709142D01*
X73836237Y-88708194D01*
X73517989Y-88687335D01*
X73510424Y-88687295D01*
X73191964Y-88704821D01*
X73184450Y-88705690D01*
X72870405Y-88761348D01*
X72863044Y-88763115D01*
X72557980Y-88856092D01*
X72550860Y-88858740D01*
X72259182Y-88987690D01*
X72252445Y-88991167D01*
X71978355Y-89154233D01*
X71972091Y-89158490D01*
X71786385Y-89301762D01*
X71777917Y-89313423D01*
X70295037Y-89313423D01*
X70295100Y-85298170D01*
X73617660Y-85298170D01*
X73623387Y-85305820D01*
X73794542Y-85410705D01*
X73803337Y-85415187D01*
X74013488Y-85502234D01*
X74022873Y-85505283D01*
X74244054Y-85558385D01*
X74253801Y-85559928D01*
X74480570Y-85577775D01*
X74490430Y-85577775D01*
X74717199Y-85559928D01*
X74726946Y-85558385D01*
X74948127Y-85505283D01*
X74957512Y-85502234D01*
X75167663Y-85415187D01*
X75176458Y-85410705D01*
X75343945Y-85308068D01*
X75353407Y-85297610D01*
X75349624Y-85288834D01*
X74498312Y-84437522D01*
X74484368Y-84429908D01*
X74482535Y-84430039D01*
X74475920Y-84434290D01*
X73624420Y-85285790D01*
X73617660Y-85298170D01*
X70295100Y-85298170D01*
X70295119Y-84070430D01*
X72973225Y-84070430D01*
X72991072Y-84297199D01*
X72992615Y-84306946D01*
X73045717Y-84528127D01*
X73048766Y-84537512D01*
X73135813Y-84747663D01*
X73140295Y-84756458D01*
X73242932Y-84923945D01*
X73253390Y-84933407D01*
X73262166Y-84929624D01*
X74113478Y-84078312D01*
X74119856Y-84066632D01*
X74849908Y-84066632D01*
X74850039Y-84068465D01*
X74854290Y-84075080D01*
X75705790Y-84926580D01*
X75718170Y-84933340D01*
X75725820Y-84927613D01*
X75830705Y-84756458D01*
X75835187Y-84747663D01*
X75922234Y-84537512D01*
X75925283Y-84528127D01*
X75978385Y-84306946D01*
X75979928Y-84297199D01*
X75997775Y-84070430D01*
X79473225Y-84070430D01*
X79491072Y-84297199D01*
X79492615Y-84306946D01*
X79545717Y-84528127D01*
X79548766Y-84537512D01*
X79635813Y-84747663D01*
X79640295Y-84756458D01*
X79742932Y-84923945D01*
X79753390Y-84933407D01*
X79762166Y-84929624D01*
X80613478Y-84078312D01*
X80619856Y-84066632D01*
X81349908Y-84066632D01*
X81350039Y-84068465D01*
X81354290Y-84075080D01*
X82205790Y-84926580D01*
X82218170Y-84933340D01*
X82225820Y-84927613D01*
X82330705Y-84756458D01*
X82335187Y-84747663D01*
X82422234Y-84537512D01*
X82425283Y-84528127D01*
X82478385Y-84306946D01*
X82479928Y-84297199D01*
X82497775Y-84070430D01*
X82497775Y-84060570D01*
X82479928Y-83833801D01*
X82478385Y-83824054D01*
X82425283Y-83602873D01*
X82422234Y-83593488D01*
X82335187Y-83383337D01*
X82330705Y-83374542D01*
X82228068Y-83207055D01*
X82217610Y-83197593D01*
X82208834Y-83201376D01*
X81357522Y-84052688D01*
X81349908Y-84066632D01*
X80619856Y-84066632D01*
X80621092Y-84064368D01*
X80620961Y-84062535D01*
X80616710Y-84055920D01*
X79765210Y-83204420D01*
X79752830Y-83197660D01*
X79745180Y-83203387D01*
X79640295Y-83374542D01*
X79635813Y-83383337D01*
X79548766Y-83593488D01*
X79545717Y-83602873D01*
X79492615Y-83824054D01*
X79491072Y-83833801D01*
X79473225Y-84060570D01*
X79473225Y-84070430D01*
X75997775Y-84070430D01*
X75997775Y-84060570D01*
X75979928Y-83833801D01*
X75978385Y-83824054D01*
X75925283Y-83602873D01*
X75922234Y-83593488D01*
X75835187Y-83383337D01*
X75830705Y-83374542D01*
X75728068Y-83207055D01*
X75717610Y-83197593D01*
X75708834Y-83201376D01*
X74857522Y-84052688D01*
X74849908Y-84066632D01*
X74119856Y-84066632D01*
X74121092Y-84064368D01*
X74120961Y-84062535D01*
X74116710Y-84055920D01*
X73265210Y-83204420D01*
X73252830Y-83197660D01*
X73245180Y-83203387D01*
X73140295Y-83374542D01*
X73135813Y-83383337D01*
X73048766Y-83593488D01*
X73045717Y-83602873D01*
X72992615Y-83824054D01*
X72991072Y-83833801D01*
X72973225Y-84060570D01*
X72973225Y-84070430D01*
X70295119Y-84070430D01*
X70295138Y-82833390D01*
X73617593Y-82833390D01*
X73621376Y-82842166D01*
X74472688Y-83693478D01*
X74486632Y-83701092D01*
X74488465Y-83700961D01*
X74495080Y-83696710D01*
X75346580Y-82845210D01*
X75353034Y-82833390D01*
X80117593Y-82833390D01*
X80121376Y-82842166D01*
X80972688Y-83693478D01*
X80986632Y-83701092D01*
X80988465Y-83700961D01*
X80995080Y-83696710D01*
X81846580Y-82845210D01*
X81853340Y-82832830D01*
X81847613Y-82825180D01*
X81676458Y-82720295D01*
X81667663Y-82715813D01*
X81457512Y-82628766D01*
X81448127Y-82625717D01*
X81226946Y-82572615D01*
X81217199Y-82571072D01*
X80990430Y-82553225D01*
X80980570Y-82553225D01*
X80753801Y-82571072D01*
X80744054Y-82572615D01*
X80522873Y-82625717D01*
X80513488Y-82628766D01*
X80303337Y-82715813D01*
X80294542Y-82720295D01*
X80127055Y-82822932D01*
X80117593Y-82833390D01*
X75353034Y-82833390D01*
X75353340Y-82832830D01*
X75347613Y-82825180D01*
X75176458Y-82720295D01*
X75167663Y-82715813D01*
X74957512Y-82628766D01*
X74948127Y-82625717D01*
X74726946Y-82572615D01*
X74717199Y-82571072D01*
X74490430Y-82553225D01*
X74480570Y-82553225D01*
X74253801Y-82571072D01*
X74244054Y-82572615D01*
X74022873Y-82625717D01*
X74013488Y-82628766D01*
X73803337Y-82715813D01*
X73794542Y-82720295D01*
X73627055Y-82822932D01*
X73617593Y-82833390D01*
X70295138Y-82833390D01*
X70295189Y-79565500D01*
X73226208Y-79565500D01*
X73245339Y-79784174D01*
X73302153Y-79996203D01*
X73333784Y-80064036D01*
X73392595Y-80190159D01*
X73392598Y-80190164D01*
X73394921Y-80195146D01*
X73398077Y-80199653D01*
X73398078Y-80199655D01*
X73496114Y-80339664D01*
X73520826Y-80374957D01*
X73676043Y-80530174D01*
X73680551Y-80533331D01*
X73680554Y-80533333D01*
X73850945Y-80652642D01*
X73855854Y-80656079D01*
X73860836Y-80658402D01*
X73860841Y-80658405D01*
X73949870Y-80699919D01*
X74054797Y-80748847D01*
X74266826Y-80805661D01*
X74485500Y-80824792D01*
X74704174Y-80805661D01*
X74916203Y-80748847D01*
X75021130Y-80699919D01*
X75110159Y-80658405D01*
X75110164Y-80658402D01*
X75115146Y-80656079D01*
X75120055Y-80652642D01*
X75290446Y-80533333D01*
X75290449Y-80533331D01*
X75294957Y-80530174D01*
X75450174Y-80374957D01*
X75474887Y-80339664D01*
X75572922Y-80199655D01*
X75572923Y-80199653D01*
X75576079Y-80195146D01*
X75578402Y-80190164D01*
X75578405Y-80190159D01*
X75637216Y-80064036D01*
X75668847Y-79996203D01*
X75725661Y-79784174D01*
X75744792Y-79565500D01*
X79726208Y-79565500D01*
X79745339Y-79784174D01*
X79802153Y-79996203D01*
X79833784Y-80064036D01*
X79892595Y-80190159D01*
X79892598Y-80190164D01*
X79894921Y-80195146D01*
X79898077Y-80199653D01*
X79898078Y-80199655D01*
X79996114Y-80339664D01*
X80020826Y-80374957D01*
X80176043Y-80530174D01*
X80180551Y-80533331D01*
X80180554Y-80533333D01*
X80350945Y-80652642D01*
X80355854Y-80656079D01*
X80360836Y-80658402D01*
X80360841Y-80658405D01*
X80449870Y-80699919D01*
X80554797Y-80748847D01*
X80766826Y-80805661D01*
X80985500Y-80824792D01*
X81204174Y-80805661D01*
X81416203Y-80748847D01*
X81521130Y-80699919D01*
X81610159Y-80658405D01*
X81610164Y-80658402D01*
X81615146Y-80656079D01*
X81620055Y-80652642D01*
X81790446Y-80533333D01*
X81790449Y-80533331D01*
X81794957Y-80530174D01*
X81950174Y-80374957D01*
X81974887Y-80339664D01*
X82072922Y-80199655D01*
X82072923Y-80199653D01*
X82076079Y-80195146D01*
X82078402Y-80190164D01*
X82078405Y-80190159D01*
X82137216Y-80064036D01*
X82168847Y-79996203D01*
X82225661Y-79784174D01*
X82244792Y-79565500D01*
X82225661Y-79346826D01*
X82168847Y-79134797D01*
X82118457Y-79026735D01*
X82078405Y-78940841D01*
X82078402Y-78940836D01*
X82076079Y-78935854D01*
X82061416Y-78914913D01*
X81953333Y-78760554D01*
X81953331Y-78760551D01*
X81950174Y-78756043D01*
X81794957Y-78600826D01*
X81790449Y-78597669D01*
X81790446Y-78597667D01*
X81619655Y-78478078D01*
X81619653Y-78478077D01*
X81615146Y-78474921D01*
X81610164Y-78472598D01*
X81610159Y-78472595D01*
X81502205Y-78422256D01*
X81416203Y-78382153D01*
X81204174Y-78325339D01*
X80985500Y-78306208D01*
X80766826Y-78325339D01*
X80554797Y-78382153D01*
X80468795Y-78422256D01*
X80360841Y-78472595D01*
X80360836Y-78472598D01*
X80355854Y-78474921D01*
X80351347Y-78478077D01*
X80351345Y-78478078D01*
X80180554Y-78597667D01*
X80180551Y-78597669D01*
X80176043Y-78600826D01*
X80020826Y-78756043D01*
X80017669Y-78760551D01*
X80017667Y-78760554D01*
X79909584Y-78914913D01*
X79894921Y-78935854D01*
X79892598Y-78940836D01*
X79892595Y-78940841D01*
X79852543Y-79026735D01*
X79802153Y-79134797D01*
X79745339Y-79346826D01*
X79726208Y-79565500D01*
X75744792Y-79565500D01*
X75725661Y-79346826D01*
X75668847Y-79134797D01*
X75618457Y-79026735D01*
X75578405Y-78940841D01*
X75578402Y-78940836D01*
X75576079Y-78935854D01*
X75561416Y-78914913D01*
X75453333Y-78760554D01*
X75453331Y-78760551D01*
X75450174Y-78756043D01*
X75294957Y-78600826D01*
X75290449Y-78597669D01*
X75290446Y-78597667D01*
X75119655Y-78478078D01*
X75119653Y-78478077D01*
X75115146Y-78474921D01*
X75110164Y-78472598D01*
X75110159Y-78472595D01*
X75002205Y-78422256D01*
X74916203Y-78382153D01*
X74704174Y-78325339D01*
X74485500Y-78306208D01*
X74266826Y-78325339D01*
X74054797Y-78382153D01*
X73968795Y-78422256D01*
X73860841Y-78472595D01*
X73860836Y-78472598D01*
X73855854Y-78474921D01*
X73851347Y-78478077D01*
X73851345Y-78478078D01*
X73680554Y-78597667D01*
X73680551Y-78597669D01*
X73676043Y-78600826D01*
X73520826Y-78756043D01*
X73517669Y-78760551D01*
X73517667Y-78760554D01*
X73409584Y-78914913D01*
X73394921Y-78935854D01*
X73392598Y-78940836D01*
X73392595Y-78940841D01*
X73352543Y-79026735D01*
X73302153Y-79134797D01*
X73245339Y-79346826D01*
X73226208Y-79565500D01*
X70295189Y-79565500D01*
X70295308Y-71923371D01*
X70295488Y-60452000D01*
X71969208Y-60452000D01*
X71988339Y-60670674D01*
X72045153Y-60882703D01*
X72064416Y-60924012D01*
X72135595Y-61076659D01*
X72135598Y-61076664D01*
X72137921Y-61081646D01*
X72141077Y-61086153D01*
X72141078Y-61086155D01*
X72190544Y-61156799D01*
X72263826Y-61261457D01*
X72419043Y-61416674D01*
X72423551Y-61419831D01*
X72423554Y-61419833D01*
X72594345Y-61539422D01*
X72598854Y-61542579D01*
X72603836Y-61544902D01*
X72603841Y-61544905D01*
X72704616Y-61591896D01*
X72797797Y-61635347D01*
X73009826Y-61692161D01*
X73228500Y-61711292D01*
X73447174Y-61692161D01*
X73659203Y-61635347D01*
X73752384Y-61591896D01*
X73853159Y-61544905D01*
X73853164Y-61544902D01*
X73858146Y-61542579D01*
X73862655Y-61539422D01*
X74033446Y-61419833D01*
X74033449Y-61419831D01*
X74037957Y-61416674D01*
X74193174Y-61261457D01*
X74266457Y-61156799D01*
X74315922Y-61086155D01*
X74315923Y-61086153D01*
X74319079Y-61081646D01*
X74321402Y-61076664D01*
X74321405Y-61076659D01*
X74392584Y-60924012D01*
X74411847Y-60882703D01*
X74468661Y-60670674D01*
X74487361Y-60456930D01*
X80466225Y-60456930D01*
X80484072Y-60683699D01*
X80485615Y-60693446D01*
X80538717Y-60914627D01*
X80541766Y-60924012D01*
X80628813Y-61134163D01*
X80633295Y-61142958D01*
X80735932Y-61310445D01*
X80746390Y-61319907D01*
X80755166Y-61316124D01*
X81606478Y-60464812D01*
X81614092Y-60450868D01*
X81613961Y-60449035D01*
X81609710Y-60442420D01*
X80758210Y-59590920D01*
X80745830Y-59584160D01*
X80738180Y-59589887D01*
X80633295Y-59761042D01*
X80628813Y-59769837D01*
X80541766Y-59979988D01*
X80538717Y-59989373D01*
X80485615Y-60210554D01*
X80484072Y-60220301D01*
X80466225Y-60447070D01*
X80466225Y-60456930D01*
X74487361Y-60456930D01*
X74487792Y-60452000D01*
X74468661Y-60233326D01*
X74411847Y-60021297D01*
X74364882Y-59920580D01*
X74321405Y-59827341D01*
X74321402Y-59827336D01*
X74319079Y-59822354D01*
X74291043Y-59782314D01*
X74196333Y-59647054D01*
X74196331Y-59647051D01*
X74193174Y-59642543D01*
X74037957Y-59487326D01*
X74033449Y-59484169D01*
X74033446Y-59484167D01*
X73862655Y-59364578D01*
X73862653Y-59364577D01*
X73858146Y-59361421D01*
X73853164Y-59359098D01*
X73853159Y-59359095D01*
X73727759Y-59300621D01*
X73659203Y-59268653D01*
X73447174Y-59211839D01*
X73228500Y-59192708D01*
X73009826Y-59211839D01*
X72797797Y-59268653D01*
X72729241Y-59300621D01*
X72603841Y-59359095D01*
X72603836Y-59359098D01*
X72598854Y-59361421D01*
X72594347Y-59364577D01*
X72594345Y-59364578D01*
X72423554Y-59484167D01*
X72423551Y-59484169D01*
X72419043Y-59487326D01*
X72263826Y-59642543D01*
X72260669Y-59647051D01*
X72260667Y-59647054D01*
X72165957Y-59782314D01*
X72137921Y-59822354D01*
X72135598Y-59827336D01*
X72135595Y-59827341D01*
X72092118Y-59920580D01*
X72045153Y-60021297D01*
X71988339Y-60233326D01*
X71969208Y-60452000D01*
X70295488Y-60452000D01*
X70295564Y-55586423D01*
X71778703Y-55586423D01*
X71786227Y-55596854D01*
X71925483Y-55709020D01*
X71931657Y-55713408D01*
X72202271Y-55882178D01*
X72208931Y-55885794D01*
X72497852Y-56020827D01*
X72504905Y-56023620D01*
X72807970Y-56122970D01*
X72815282Y-56124888D01*
X73128092Y-56187109D01*
X73135590Y-56188137D01*
X73453610Y-56212328D01*
X73461173Y-56212446D01*
X73779785Y-56198257D01*
X73787326Y-56197465D01*
X74101924Y-56145101D01*
X74109302Y-56143411D01*
X74415355Y-56053625D01*
X74422450Y-56051071D01*
X74715496Y-55925169D01*
X74722263Y-55921765D01*
X74998042Y-55761580D01*
X75004349Y-55757390D01*
X75214305Y-55598889D01*
X75222761Y-55587496D01*
X75216045Y-55575256D01*
X73512810Y-53872020D01*
X73498869Y-53864408D01*
X73497034Y-53864539D01*
X73490420Y-53868790D01*
X71785818Y-55573393D01*
X71778703Y-55586423D01*
X70295564Y-55586423D01*
X70295597Y-53475383D01*
X70787388Y-53475383D01*
X70803245Y-53793914D01*
X70804076Y-53801443D01*
X70858085Y-54115759D01*
X70859818Y-54123146D01*
X70951196Y-54428695D01*
X70953799Y-54435808D01*
X71081227Y-54728173D01*
X71084669Y-54734929D01*
X71246296Y-55009865D01*
X71250519Y-55016150D01*
X71401463Y-55213934D01*
X71412989Y-55222396D01*
X71425054Y-55215735D01*
X73127980Y-53512810D01*
X73134357Y-53501131D01*
X73864408Y-53501131D01*
X73864539Y-53502966D01*
X73868790Y-53509580D01*
X75573285Y-55214074D01*
X75586408Y-55221240D01*
X75596709Y-55213851D01*
X75700751Y-55086055D01*
X75705164Y-55079914D01*
X75875349Y-54810187D01*
X75879005Y-54803536D01*
X76015544Y-54515335D01*
X76018375Y-54508295D01*
X76119306Y-54205767D01*
X76121270Y-54198433D01*
X76185122Y-53885989D01*
X76186194Y-53878465D01*
X76212173Y-53559051D01*
X76212378Y-53554576D01*
X76212927Y-53502221D01*
X76212817Y-53497789D01*
X76193529Y-53177853D01*
X76192621Y-53170351D01*
X76135319Y-52856593D01*
X76133518Y-52849260D01*
X76084737Y-52692159D01*
X80138000Y-52692159D01*
X80152993Y-52849306D01*
X80212323Y-53051542D01*
X80215073Y-53056881D01*
X80277378Y-53177853D01*
X80308824Y-53238910D01*
X80336840Y-53274576D01*
X80435308Y-53399932D01*
X80435312Y-53399936D01*
X80439014Y-53404649D01*
X80443544Y-53408580D01*
X80443545Y-53408581D01*
X80593665Y-53538850D01*
X80593670Y-53538854D01*
X80598196Y-53542781D01*
X80780626Y-53648319D01*
X80979722Y-53717457D01*
X80985655Y-53718317D01*
X80985658Y-53718318D01*
X81182360Y-53746838D01*
X81182363Y-53746838D01*
X81188300Y-53747699D01*
X81398833Y-53737955D01*
X81404657Y-53736551D01*
X81404660Y-53736551D01*
X81597893Y-53689982D01*
X81597895Y-53689981D01*
X81603726Y-53688576D01*
X81609184Y-53686094D01*
X81609188Y-53686093D01*
X81723794Y-53633984D01*
X81795584Y-53601343D01*
X81936857Y-53501131D01*
X81962600Y-53482870D01*
X81962601Y-53482869D01*
X81967486Y-53479404D01*
X82113228Y-53327160D01*
X82170210Y-53238910D01*
X82224300Y-53155140D01*
X82224301Y-53155137D01*
X82227552Y-53150103D01*
X82306334Y-52954622D01*
X82346729Y-52747771D01*
X82347000Y-52742230D01*
X82347000Y-52692159D01*
X82638000Y-52692159D01*
X82652993Y-52849306D01*
X82712323Y-53051542D01*
X82715073Y-53056881D01*
X82777378Y-53177853D01*
X82808824Y-53238910D01*
X82836840Y-53274576D01*
X82935308Y-53399932D01*
X82935312Y-53399936D01*
X82939014Y-53404649D01*
X82943544Y-53408580D01*
X82943545Y-53408581D01*
X83093665Y-53538850D01*
X83093670Y-53538854D01*
X83098196Y-53542781D01*
X83280626Y-53648319D01*
X83479722Y-53717457D01*
X83485655Y-53718317D01*
X83485658Y-53718318D01*
X83682360Y-53746838D01*
X83682363Y-53746838D01*
X83688300Y-53747699D01*
X83898833Y-53737955D01*
X83904657Y-53736551D01*
X83904660Y-53736551D01*
X84097893Y-53689982D01*
X84097895Y-53689981D01*
X84103726Y-53688576D01*
X84109184Y-53686094D01*
X84109188Y-53686093D01*
X84223794Y-53633984D01*
X84295584Y-53601343D01*
X84436857Y-53501131D01*
X84462600Y-53482870D01*
X84462601Y-53482869D01*
X84467486Y-53479404D01*
X84613228Y-53327160D01*
X84670210Y-53238910D01*
X84724300Y-53155140D01*
X84724301Y-53155137D01*
X84727552Y-53150103D01*
X84733453Y-53135461D01*
X84737780Y-53124726D01*
X84781796Y-53069021D01*
X84848942Y-53045956D01*
X84917898Y-53062854D01*
X84969527Y-53120076D01*
X85049437Y-53297470D01*
X85054606Y-53306756D01*
X85177350Y-53489075D01*
X85184019Y-53497370D01*
X85335728Y-53656400D01*
X85343686Y-53663441D01*
X85520025Y-53794641D01*
X85529062Y-53800245D01*
X85724984Y-53899857D01*
X85734835Y-53903857D01*
X85944740Y-53969034D01*
X85955124Y-53971317D01*
X85970543Y-53973361D01*
X85984707Y-53971165D01*
X85988500Y-53957978D01*
X85988500Y-51073308D01*
X85984527Y-51059777D01*
X85973920Y-51058252D01*
X85856079Y-51082977D01*
X85845883Y-51086037D01*
X85641471Y-51166763D01*
X85631939Y-51171494D01*
X85444038Y-51285516D01*
X85435448Y-51291780D01*
X85269448Y-51435827D01*
X85262028Y-51443458D01*
X85122674Y-51613411D01*
X85116650Y-51622178D01*
X85007924Y-51813182D01*
X85003459Y-51822845D01*
X84973534Y-51905288D01*
X84931490Y-51962496D01*
X84865191Y-51987892D01*
X84795686Y-51973412D01*
X84743079Y-51919990D01*
X84724780Y-51884460D01*
X84676176Y-51790090D01*
X84606855Y-51701840D01*
X84549692Y-51629068D01*
X84549688Y-51629064D01*
X84545986Y-51624351D01*
X84533379Y-51613411D01*
X84391335Y-51490150D01*
X84391330Y-51490146D01*
X84386804Y-51486219D01*
X84204374Y-51380681D01*
X84005278Y-51311543D01*
X83999345Y-51310683D01*
X83999342Y-51310682D01*
X83802640Y-51282162D01*
X83802637Y-51282162D01*
X83796700Y-51281301D01*
X83586167Y-51291045D01*
X83580343Y-51292449D01*
X83580340Y-51292449D01*
X83387107Y-51339018D01*
X83387105Y-51339019D01*
X83381274Y-51340424D01*
X83375816Y-51342906D01*
X83375812Y-51342907D01*
X83310507Y-51372600D01*
X83189416Y-51427657D01*
X83167141Y-51443458D01*
X83031148Y-51539925D01*
X83017514Y-51549596D01*
X82871772Y-51701840D01*
X82868521Y-51706875D01*
X82799880Y-51813182D01*
X82757448Y-51878897D01*
X82678666Y-52074378D01*
X82638271Y-52281229D01*
X82638000Y-52286770D01*
X82638000Y-52692159D01*
X82347000Y-52692159D01*
X82347000Y-52336841D01*
X82332007Y-52179694D01*
X82305388Y-52088957D01*
X82274368Y-51983222D01*
X82272677Y-51977458D01*
X82221915Y-51878897D01*
X82178922Y-51795421D01*
X82178920Y-51795418D01*
X82176176Y-51790090D01*
X82106855Y-51701840D01*
X82049692Y-51629068D01*
X82049688Y-51629064D01*
X82045986Y-51624351D01*
X82033379Y-51613411D01*
X81891335Y-51490150D01*
X81891330Y-51490146D01*
X81886804Y-51486219D01*
X81704374Y-51380681D01*
X81505278Y-51311543D01*
X81499345Y-51310683D01*
X81499342Y-51310682D01*
X81302640Y-51282162D01*
X81302637Y-51282162D01*
X81296700Y-51281301D01*
X81086167Y-51291045D01*
X81080343Y-51292449D01*
X81080340Y-51292449D01*
X80887107Y-51339018D01*
X80887105Y-51339019D01*
X80881274Y-51340424D01*
X80875816Y-51342906D01*
X80875812Y-51342907D01*
X80810507Y-51372600D01*
X80689416Y-51427657D01*
X80667141Y-51443458D01*
X80531148Y-51539925D01*
X80517514Y-51549596D01*
X80371772Y-51701840D01*
X80368521Y-51706875D01*
X80299880Y-51813182D01*
X80257448Y-51878897D01*
X80178666Y-52074378D01*
X80138271Y-52281229D01*
X80138000Y-52286770D01*
X80138000Y-52692159D01*
X76084737Y-52692159D01*
X76038935Y-52544655D01*
X76036263Y-52537583D01*
X75905781Y-52246570D01*
X75902264Y-52239843D01*
X75737771Y-51966621D01*
X75733481Y-51960377D01*
X75597991Y-51786647D01*
X75586199Y-51778178D01*
X75574486Y-51784725D01*
X73872020Y-53487190D01*
X73864408Y-53501131D01*
X73134357Y-53501131D01*
X73135592Y-53498869D01*
X73135461Y-53497034D01*
X73131210Y-53490420D01*
X71426445Y-51785656D01*
X71413510Y-51778592D01*
X71402949Y-51786252D01*
X71282766Y-51937072D01*
X71278410Y-51943270D01*
X71111059Y-52214764D01*
X71107479Y-52221440D01*
X70973956Y-52511074D01*
X70971206Y-52518125D01*
X70873444Y-52821708D01*
X70871561Y-52829041D01*
X70810979Y-53142170D01*
X70809992Y-53149670D01*
X70787467Y-53467802D01*
X70787388Y-53475383D01*
X70295597Y-53475383D01*
X70295598Y-53381118D01*
X70297822Y-53360533D01*
X70297888Y-53357032D01*
X70300539Y-53344906D01*
X70298348Y-53332688D01*
X70298582Y-53320285D01*
X70298657Y-53320286D01*
X70298068Y-53309281D01*
X70317789Y-53030395D01*
X70319379Y-53017462D01*
X70372836Y-52713449D01*
X70375753Y-52700749D01*
X70460323Y-52403879D01*
X70464536Y-52391549D01*
X70579314Y-52105001D01*
X70584778Y-52093172D01*
X70728535Y-51820010D01*
X70735187Y-51808815D01*
X70906394Y-51551953D01*
X70914171Y-51541501D01*
X71020173Y-51413423D01*
X71777917Y-51413423D01*
X71784520Y-51425309D01*
X73487190Y-53127980D01*
X73501131Y-53135592D01*
X73502966Y-53135461D01*
X73509580Y-53131210D01*
X75214559Y-51426230D01*
X75221571Y-51413389D01*
X75213777Y-51402701D01*
X75051298Y-51274613D01*
X75045075Y-51270288D01*
X74772702Y-51104357D01*
X74766025Y-51100822D01*
X74475686Y-50968813D01*
X74468616Y-50966099D01*
X74164537Y-50869932D01*
X74157186Y-50868085D01*
X73843746Y-50809142D01*
X73836237Y-50808194D01*
X73517989Y-50787335D01*
X73510424Y-50787295D01*
X73191964Y-50804821D01*
X73184450Y-50805690D01*
X72870405Y-50861348D01*
X72863044Y-50863115D01*
X72557980Y-50956092D01*
X72550860Y-50958740D01*
X72259182Y-51087690D01*
X72252445Y-51091167D01*
X71978355Y-51254233D01*
X71972091Y-51258490D01*
X71786385Y-51401762D01*
X71777917Y-51413423D01*
X71020173Y-51413423D01*
X71110976Y-51303709D01*
X71119792Y-51294113D01*
X71340117Y-51077906D01*
X71349877Y-51069273D01*
X71591336Y-50876991D01*
X71601935Y-50869412D01*
X71861981Y-50703081D01*
X71873301Y-50696639D01*
X72010406Y-50627756D01*
X72149126Y-50558061D01*
X72161056Y-50552821D01*
X72325522Y-50490517D01*
X72449721Y-50443468D01*
X72462116Y-50439492D01*
X72760542Y-50360533D01*
X72773287Y-50357858D01*
X73078270Y-50310144D01*
X73091222Y-50308800D01*
X73370429Y-50294343D01*
X73381421Y-50295139D01*
X73381421Y-50295065D01*
X73393828Y-50295065D01*
X73406000Y-50297486D01*
X73418172Y-50295065D01*
X73418173Y-50295065D01*
X73419259Y-50294849D01*
X73443595Y-50292429D01*
X96292210Y-50248825D01*
X106636293Y-50229084D01*
X106662376Y-50231877D01*
G37*
G04 #@! TD.AperFunction*
G04 #@! TA.AperFunction,Conductor*
G36*
X81666621Y-91587002D02*
G01*
X81713114Y-91640658D01*
X81724500Y-91693000D01*
X81724500Y-93139517D01*
X81728564Y-93153359D01*
X81741978Y-93155393D01*
X81748684Y-93154534D01*
X81758762Y-93152392D01*
X81962755Y-93091191D01*
X81972342Y-93087433D01*
X82163595Y-92993739D01*
X82172445Y-92988464D01*
X82345828Y-92864792D01*
X82353700Y-92858139D01*
X82504552Y-92707812D01*
X82511230Y-92699965D01*
X82635503Y-92527020D01*
X82640813Y-92518183D01*
X82735170Y-92327267D01*
X82738969Y-92317672D01*
X82800876Y-92113915D01*
X82803055Y-92103834D01*
X82804609Y-92092032D01*
X82833331Y-92027105D01*
X82892597Y-91988013D01*
X82963588Y-91987168D01*
X83023767Y-92024838D01*
X83034112Y-92038202D01*
X83088067Y-92118495D01*
X83088071Y-92118499D01*
X83092308Y-92124805D01*
X83097927Y-92129918D01*
X83097928Y-92129919D01*
X83203860Y-92226309D01*
X83209476Y-92231419D01*
X83348693Y-92307008D01*
X83501922Y-92347207D01*
X83585877Y-92348526D01*
X83652719Y-92349576D01*
X83652722Y-92349576D01*
X83660316Y-92349695D01*
X83814732Y-92314329D01*
X83956255Y-92243151D01*
X84002460Y-92203688D01*
X84067248Y-92174658D01*
X84084289Y-92173500D01*
X85332278Y-92173500D01*
X85400399Y-92193502D01*
X85417076Y-92206305D01*
X85444676Y-92231419D01*
X85583893Y-92307008D01*
X85737122Y-92347207D01*
X85821077Y-92348526D01*
X85887919Y-92349576D01*
X85887922Y-92349576D01*
X85895516Y-92349695D01*
X86049932Y-92314329D01*
X86133767Y-92272165D01*
X86184672Y-92246563D01*
X86184675Y-92246561D01*
X86191455Y-92243151D01*
X86197226Y-92238222D01*
X86197229Y-92238220D01*
X86306136Y-92145204D01*
X86306136Y-92145203D01*
X86311914Y-92140269D01*
X86404355Y-92011624D01*
X86463442Y-91864641D01*
X86464513Y-91857114D01*
X86466478Y-91849782D01*
X86469442Y-91850576D01*
X86493023Y-91798741D01*
X86552693Y-91760270D01*
X86623690Y-91760168D01*
X86683472Y-91798465D01*
X86692953Y-91810845D01*
X86697286Y-91817294D01*
X86718700Y-91887564D01*
X86718700Y-92662395D01*
X86698698Y-92730516D01*
X86681795Y-92751490D01*
X85868090Y-93565195D01*
X85805778Y-93599221D01*
X85778995Y-93602100D01*
X79981407Y-93602100D01*
X79913286Y-93582098D01*
X79892312Y-93565196D01*
X79446905Y-93119790D01*
X79412880Y-93057477D01*
X79410000Y-93030694D01*
X79410000Y-92892316D01*
X79430002Y-92824195D01*
X79474433Y-92782382D01*
X79553734Y-92737971D01*
X79553737Y-92737969D01*
X79558776Y-92735147D01*
X79714845Y-92605345D01*
X79782324Y-92524211D01*
X79840953Y-92453718D01*
X79840955Y-92453715D01*
X79844647Y-92449276D01*
X79913137Y-92326979D01*
X79941010Y-92277208D01*
X79941011Y-92277206D01*
X79943834Y-92272165D01*
X79946220Y-92265135D01*
X79946670Y-92264496D01*
X79948041Y-92261416D01*
X79948646Y-92261685D01*
X79987053Y-92207059D01*
X80052805Y-92180278D01*
X80122598Y-92193295D01*
X80174273Y-92241980D01*
X80182277Y-92258229D01*
X80252270Y-92430603D01*
X80256913Y-92439794D01*
X80368194Y-92621388D01*
X80374277Y-92629699D01*
X80513713Y-92790667D01*
X80521080Y-92797883D01*
X80684934Y-92933916D01*
X80693381Y-92939831D01*
X80877256Y-93047279D01*
X80886542Y-93051729D01*
X81085501Y-93127703D01*
X81095399Y-93130579D01*
X81198750Y-93151606D01*
X81212799Y-93150410D01*
X81216500Y-93140065D01*
X81216500Y-91693000D01*
X81236502Y-91624879D01*
X81290158Y-91578386D01*
X81342500Y-91567000D01*
X81598500Y-91567000D01*
X81666621Y-91587002D01*
G37*
G04 #@! TD.AperFunction*
G04 #@! TA.AperFunction,Conductor*
G36*
X103724656Y-66041054D02*
G01*
X103773576Y-66092507D01*
X103787500Y-66150083D01*
X103787500Y-70536408D01*
X103767498Y-70604529D01*
X103713842Y-70651022D01*
X103643568Y-70661126D01*
X103590136Y-70636284D01*
X103588387Y-70638801D01*
X103582146Y-70634464D01*
X103576475Y-70629411D01*
X103569089Y-70625500D01*
X103443188Y-70558839D01*
X103443189Y-70558839D01*
X103436474Y-70555284D01*
X103282833Y-70516692D01*
X103275234Y-70516652D01*
X103275233Y-70516652D01*
X103209381Y-70516307D01*
X103124421Y-70515862D01*
X103117041Y-70517634D01*
X103117039Y-70517634D01*
X102977763Y-70551071D01*
X102977760Y-70551072D01*
X102970384Y-70552843D01*
X102829614Y-70625500D01*
X102823892Y-70630492D01*
X102823890Y-70630493D01*
X102818436Y-70635251D01*
X102753953Y-70664957D01*
X102735609Y-70666300D01*
X97327230Y-70666300D01*
X97315222Y-70664958D01*
X97315182Y-70665454D01*
X97306231Y-70664734D01*
X97297477Y-70662753D01*
X97267030Y-70664642D01*
X97244207Y-70666058D01*
X97236405Y-70666300D01*
X97220374Y-70666300D01*
X97210141Y-70667765D01*
X97200089Y-70668795D01*
X97170685Y-70670620D01*
X97162201Y-70671146D01*
X97162200Y-70671146D01*
X97153242Y-70671702D01*
X97144799Y-70674750D01*
X97141520Y-70675429D01*
X97125655Y-70679384D01*
X97122431Y-70680327D01*
X97113548Y-70681599D01*
X97105379Y-70685313D01*
X97105373Y-70685315D01*
X97070821Y-70701025D01*
X97061453Y-70704839D01*
X97017316Y-70720772D01*
X97010066Y-70726069D01*
X97007099Y-70727646D01*
X96992986Y-70735893D01*
X96990163Y-70737698D01*
X96981995Y-70741412D01*
X96975198Y-70747269D01*
X96975196Y-70747270D01*
X96946447Y-70772043D01*
X96938536Y-70778325D01*
X96927656Y-70786273D01*
X96916794Y-70797135D01*
X96909948Y-70803493D01*
X96872518Y-70835744D01*
X96867634Y-70843279D01*
X96861901Y-70849851D01*
X96852674Y-70861255D01*
X88404895Y-79309034D01*
X88342583Y-79343060D01*
X88271768Y-79337995D01*
X88226705Y-79309034D01*
X87746006Y-78828335D01*
X87711980Y-78766023D01*
X87709101Y-78739240D01*
X87709101Y-74629236D01*
X87729103Y-74561115D01*
X87782759Y-74514622D01*
X87853033Y-74504518D01*
X87917613Y-74534012D01*
X87937998Y-74556516D01*
X87986518Y-74625170D01*
X87993033Y-74634389D01*
X88138438Y-74776035D01*
X88307220Y-74888812D01*
X88312523Y-74891090D01*
X88312526Y-74891092D01*
X88488421Y-74966662D01*
X88493728Y-74968942D01*
X88556784Y-74983210D01*
X88686079Y-75012467D01*
X88686084Y-75012468D01*
X88691716Y-75013742D01*
X88697487Y-75013969D01*
X88697489Y-75013969D01*
X88757256Y-75016317D01*
X88894553Y-75021712D01*
X88994999Y-75007148D01*
X89089731Y-74993413D01*
X89089736Y-74993412D01*
X89095445Y-74992584D01*
X89100909Y-74990729D01*
X89100914Y-74990728D01*
X89282193Y-74929192D01*
X89282198Y-74929190D01*
X89287665Y-74927334D01*
X89464776Y-74828147D01*
X89525277Y-74777829D01*
X89597399Y-74717845D01*
X89620845Y-74698345D01*
X89678323Y-74629236D01*
X89746953Y-74546718D01*
X89746955Y-74546715D01*
X89750647Y-74542276D01*
X89838013Y-74386273D01*
X89847010Y-74370208D01*
X89847011Y-74370206D01*
X89849834Y-74365165D01*
X89852220Y-74358135D01*
X89852670Y-74357496D01*
X89854041Y-74354416D01*
X89854646Y-74354685D01*
X89893053Y-74300059D01*
X89958805Y-74273278D01*
X90028598Y-74286295D01*
X90080273Y-74334980D01*
X90088277Y-74351229D01*
X90158270Y-74523603D01*
X90162913Y-74532794D01*
X90274194Y-74714388D01*
X90280277Y-74722699D01*
X90419713Y-74883667D01*
X90427080Y-74890883D01*
X90590934Y-75026916D01*
X90599381Y-75032831D01*
X90783256Y-75140279D01*
X90792542Y-75144729D01*
X90991501Y-75220703D01*
X91001399Y-75223579D01*
X91104750Y-75244606D01*
X91118799Y-75243410D01*
X91122500Y-75233065D01*
X91122500Y-75232517D01*
X91630500Y-75232517D01*
X91634564Y-75246359D01*
X91647978Y-75248393D01*
X91654684Y-75247534D01*
X91664762Y-75245392D01*
X91868755Y-75184191D01*
X91878342Y-75180433D01*
X92069595Y-75086739D01*
X92078445Y-75081464D01*
X92251828Y-74957792D01*
X92259700Y-74951139D01*
X92410552Y-74800812D01*
X92417230Y-74792965D01*
X92541503Y-74620020D01*
X92546813Y-74611183D01*
X92641170Y-74420267D01*
X92644969Y-74410672D01*
X92706877Y-74206910D01*
X92709055Y-74196837D01*
X92710486Y-74185962D01*
X92708275Y-74171778D01*
X92695117Y-74168000D01*
X91648615Y-74168000D01*
X91633376Y-74172475D01*
X91632171Y-74173865D01*
X91630500Y-74181548D01*
X91630500Y-75232517D01*
X91122500Y-75232517D01*
X91122500Y-73786000D01*
X91142502Y-73717879D01*
X91196158Y-73671386D01*
X91248500Y-73660000D01*
X92694844Y-73660000D01*
X92708375Y-73656027D01*
X92709680Y-73646947D01*
X92667714Y-73479875D01*
X92664394Y-73470124D01*
X92579472Y-73274814D01*
X92574605Y-73265739D01*
X92458926Y-73086926D01*
X92452636Y-73078757D01*
X92309306Y-72921240D01*
X92301773Y-72914215D01*
X92134639Y-72782222D01*
X92126052Y-72776517D01*
X91939617Y-72673599D01*
X91930205Y-72669369D01*
X91815891Y-72628888D01*
X91758355Y-72587294D01*
X91732439Y-72521196D01*
X91746373Y-72451580D01*
X91795732Y-72400549D01*
X91817443Y-72390804D01*
X91827665Y-72387334D01*
X91890716Y-72352024D01*
X91902183Y-72345602D01*
X92004776Y-72288147D01*
X92009317Y-72284371D01*
X92156413Y-72162031D01*
X92160845Y-72158345D01*
X92251707Y-72049096D01*
X92286953Y-72006718D01*
X92286955Y-72006715D01*
X92290647Y-72002276D01*
X92360261Y-71877971D01*
X92387010Y-71830208D01*
X92387011Y-71830206D01*
X92389834Y-71825165D01*
X92391690Y-71819698D01*
X92391692Y-71819693D01*
X92453228Y-71638414D01*
X92453229Y-71638409D01*
X92455084Y-71632945D01*
X92455912Y-71627236D01*
X92455913Y-71627231D01*
X92475217Y-71494089D01*
X92484212Y-71432053D01*
X92485732Y-71374000D01*
X92474297Y-71249551D01*
X92467687Y-71177613D01*
X92467686Y-71177610D01*
X92467158Y-71171859D01*
X92460744Y-71149115D01*
X92448696Y-71106398D01*
X92449456Y-71035405D01*
X92480870Y-70983101D01*
X94545766Y-68918205D01*
X94608078Y-68884179D01*
X94634861Y-68881300D01*
X100335576Y-68881300D01*
X100347581Y-68882641D01*
X100347621Y-68882145D01*
X100356568Y-68882865D01*
X100365324Y-68884846D01*
X100418582Y-68881542D01*
X100426384Y-68881300D01*
X100442426Y-68881300D01*
X100446857Y-68880665D01*
X100446862Y-68880665D01*
X100450887Y-68880088D01*
X100452657Y-68879835D01*
X100462714Y-68878804D01*
X100485176Y-68877411D01*
X100500600Y-68876454D01*
X100500602Y-68876454D01*
X100509559Y-68875898D01*
X100517999Y-68872851D01*
X100521289Y-68872170D01*
X100537138Y-68868218D01*
X100540368Y-68867273D01*
X100549252Y-68866001D01*
X100591963Y-68846582D01*
X100601328Y-68842770D01*
X100637037Y-68829878D01*
X100637040Y-68829876D01*
X100645484Y-68826828D01*
X100652733Y-68821532D01*
X100655690Y-68819960D01*
X100669814Y-68811707D01*
X100672637Y-68809902D01*
X100680805Y-68806188D01*
X100687602Y-68800331D01*
X100687604Y-68800330D01*
X100716353Y-68775557D01*
X100724264Y-68769275D01*
X100735144Y-68761327D01*
X100746006Y-68750465D01*
X100752853Y-68744107D01*
X100790282Y-68711856D01*
X100795166Y-68704321D01*
X100800899Y-68697749D01*
X100810126Y-68686345D01*
X102975034Y-66521437D01*
X103036000Y-66487712D01*
X103162127Y-66458825D01*
X103169532Y-66457129D01*
X103239942Y-66421717D01*
X103304272Y-66389363D01*
X103304275Y-66389361D01*
X103311055Y-66385951D01*
X103316826Y-66381022D01*
X103316829Y-66381020D01*
X103425736Y-66288004D01*
X103425736Y-66288003D01*
X103431514Y-66283069D01*
X103523955Y-66154424D01*
X103544593Y-66103086D01*
X103588560Y-66047342D01*
X103655685Y-66024217D01*
X103724656Y-66041054D01*
G37*
G04 #@! TD.AperFunction*
M02*
