<?xml version="1.0" encoding="UTF-8" standalone="no"?>
<svg
   xmlns:dc="http://purl.org/dc/elements/1.1/"
   xmlns:cc="http://creativecommons.org/ns#"
   xmlns:rdf="http://www.w3.org/1999/02/22-rdf-syntax-ns#"
   xmlns:svg="http://www.w3.org/2000/svg"
   xmlns="http://www.w3.org/2000/svg"
   xmlns:sodipodi="http://sodipodi.sourceforge.net/DTD/sodipodi-0.dtd"
   xmlns:inkscape="http://www.inkscape.org/namespaces/inkscape"
   inkscape:export-ydpi="96"
   inkscape:export-xdpi="96"
   inkscape:export-filename="C:\Users\Augusto\Desktop\Nodo_BMS_1_1\logos\logo_augusto.png"
   sodipodi:docname="logo_augusto.svg"
   inkscape:version="1.0 (4035a4fb49, 2020-05-01)"
   id="svg8"
   version="1.1"
   viewBox="0 0 210 297"
   height="297mm"
   width="210mm">
  <defs
     id="defs2" />
  <sodipodi:namedview
     inkscape:window-maximized="1"
     inkscape:window-y="-9"
     inkscape:window-x="-9"
     inkscape:window-height="1001"
     inkscape:window-width="1920"
     showgrid="false"
     inkscape:document-rotation="0"
     inkscape:current-layer="layer2"
     inkscape:document-units="mm"
     inkscape:cy="403.95006"
     inkscape:cx="592.4363"
     inkscape:zoom="0.98994949"
     inkscape:pageshadow="2"
     inkscape:pageopacity="0.0"
     borderopacity="1.0"
     bordercolor="#666666"
     pagecolor="#ffffff"
     id="base" />
  <metadata
     id="metadata5">
    <rdf:RDF>
      <cc:Work
         rdf:about="">
        <dc:format>image/svg+xml</dc:format>
        <dc:type
           rdf:resource="http://purl.org/dc/dcmitype/StillImage" />
        <dc:title></dc:title>
      </cc:Work>
    </rdf:RDF>
  </metadata>
  <g
     id="layer1"
     inkscape:groupmode="layer"
     inkscape:label="Capa 1">
    <g
       inkscape:export-ydpi="96"
       inkscape:export-xdpi="96"
       transform="translate(-67.759459,4.9313381)"
       id="g1109">
      <path
         style="fill:#000000;stroke-width:0.151743"
         d="m 170.19574,165.68586 c -0.0885,-0.44013 -0.50128,-4.13614 -1.46268,-13.09689 -0.17054,-1.59066 -0.34932,-3.04134 -0.39701,-3.22369 -0.0581,-0.22205 -0.26875,-0.37984 -0.63827,-0.47783 -3.81412,-1.01135 -6.23618,-1.94059 -11.04869,-4.23884 -1.76741,-0.84403 -3.34395,-1.53461 -3.50346,-1.53461 -0.15948,0 -2.60568,1.85417 -5.43595,4.12036 -2.83025,2.2662 -5.75774,4.58232 -6.50552,5.14696 l -1.35958,1.02658 -0.45955,-0.32724 c -0.25276,-0.18002 -3.09453,-2.95702 -6.31505,-6.17121 -5.40939,-5.39876 -7.72912,-7.85463 -7.72912,-8.1827 0,-0.20217 1.75259,-2.44939 6.21921,-7.97424 2.25464,-2.78882 4.09936,-5.1341 4.09936,-5.21174 0,-0.0777 -0.71114,-1.60114 -1.58033,-3.38553 -2.06074,-4.23064 -3.68286,-8.37991 -4.2313,-10.8233 -0.17754,-0.79122 -0.25565,-0.91648 -0.63427,-1.01774 -0.23747,-0.0635 -2.11073,-0.29151 -4.16281,-0.5067 -5.22769,-0.54814 -11.69428,-1.28131 -12.19077,-1.38214 l -0.41729,-0.0847 V 97.958273 c 0,-5.71029 0.0513,-10.38289 0.11384,-10.38351 0.0626,-5.8e-4 0.52352,-0.0659 1.02428,-0.14547 0.50076,-0.0793 3.30042,-0.38784 6.22149,-0.68557 9.771,-0.9959 9.56508,-0.95746 9.90379,-1.84956 0.0897,-0.23598 0.41452,-1.24846 0.72203,-2.24998 0.83545,-2.72076 2.0735,-5.74768 3.59434,-8.78776 0.74787,-1.4949 1.41903,-2.87395 1.49151,-3.064571 0.1527,-0.40188 -0.27365,-0.99094 -4.76661,-6.584508 -5.57333,-6.938605 -5.40055,-6.70767 -5.24119,-7.005445 0.44225,-0.826315 11.37599,-11.886331 13.68389,-13.841894 l 0.87483,-0.741274 0.94597,0.738451 c 0.5203,0.406134 2.17318,1.729847 3.67308,2.941542 3.59081,2.900898 7.98321,6.360673 8.29531,6.534025 0.18409,0.102314 1.09033,-0.275622 3.49011,-1.455089 3.54187,-1.740751 6.05039,-2.769188 8.85602,-3.63072 1.00149,-0.307536 2.01398,-0.632445 2.24996,-0.722054 0.87115,-0.330764 0.90924,-0.500623 1.53985,-6.868939 0.48054,-4.852472 0.96115,-9.243401 1.08371,-9.901257 l 0.0919,-0.493167 h 10.36549 10.3655 l 0.0883,0.417293 c 0.11474,0.543177 0.87975,7.272452 1.3764,12.108999 0.21458,2.090554 0.44167,3.992976 0.5044,4.227594 0.10477,0.392062 0.2303,0.455913 1.55041,0.789139 2.72678,0.688282 6.95042,2.395406 11.23204,4.539783 1.24524,0.62368 2.33846,1.133952 2.42934,1.133952 0.0908,0 2.44928,-1.847263 5.24085,-4.105037 5.49286,-4.442473 7.76184,-6.213518 7.96048,-6.213518 0.33973,0 2.55454,2.087098 8.03976,7.576211 3.3003,3.302665 6.14564,6.21244 6.32296,6.466177 l 0.3224,0.461309 -1.04113,1.380682 c -0.57264,0.759363 -2.88878,3.689787 -5.14695,6.512067 -2.25821,2.82227 -4.10581,5.255708 -4.10581,5.407658 0,0.15202 0.71373,1.771391 1.58607,3.598741 1.63437,3.42371 3.25813,7.56461 3.89375,9.9297 0.24442,0.90944 0.46228,1.41397 0.66955,1.55045 0.31486,0.20736 2.3315,0.47523 6.74884,0.89663 3.38203,0.32264 9.23446,0.9674 9.74951,1.07412 l 0.41732,0.0865 v 10.36591 10.365947 l -0.34464,0.0865 c -0.44974,0.11294 -5.95524,0.72239 -11.87073,1.3142 -2.58722,0.25884 -4.74837,0.51791 -4.80251,0.57568 -0.0542,0.0579 -0.31842,0.89033 -0.58725,1.85013 -0.896,3.19908 -1.92347,5.77974 -4.02261,10.10365 -0.79052,1.62832 -1.43708,3.07689 -1.43679,3.21901 5.7e-4,0.28598 0.9153,1.47184 6.35959,8.24457 2.03752,2.53468 3.77004,4.69386 3.85008,4.79818 0.10321,0.13462 -0.11271,0.48673 -0.74467,1.21394 -1.0056,1.15713 -13.56454,13.84752 -13.70155,13.84499 -0.0488,-0.001 -1.79579,-1.38404 -3.88224,-3.07363 -6.72831,-5.44848 -9.23262,-7.39503 -9.51397,-7.39503 -0.15157,0 -1.68444,0.68446 -3.40659,1.52101 -3.78407,1.83818 -6.66704,2.99392 -9.52327,3.81778 -1.17625,0.33925 -2.18496,0.65959 -2.24155,0.71184 -0.0566,0.0522 -0.2809,1.87039 -0.49845,4.04032 -0.55063,5.49261 -1.29425,12.22426 -1.39547,12.63265 l -0.0847,0.34142 H 180.6539 170.29487 Z m 16.29778,-38.9628 c 3.50214,-0.70877 8.2299,-2.75574 11.15105,-4.82806 1.81857,-1.29012 5.91002,-5.4211 7.02089,-7.08875 2.23891,-3.36108 4.3614,-8.37886 4.87499,-11.52495 0.49574,-3.03693 0.29684,-9.766727 -0.36106,-12.215347 -1.14496,-4.26156 -3.24129,-8.42573 -5.8439,-11.60839 -1.36708,-1.67175 -4.06923,-4.19048 -5.84575,-5.44894 -3.12915,-2.21662 -7.57197,-4.096781 -11.39969,-4.824231 -1.53982,-0.29266 -2.30686,-0.34195 -5.36278,-0.34466 -3.08888,-0.002 -3.8096,0.0431 -5.38689,0.34323 -4.62706,0.88019 -9.48182,3.128731 -13.18211,6.105451 -1.63062,1.31177 -4.15358,3.99719 -5.41406,5.76266 -2.02322,2.83383 -3.94757,7.1328 -4.62524,10.3328 -0.98206,4.63749 -0.925,9.536157 0.16128,13.840007 1.85365,7.34439 6.84554,14.0103 13.3839,17.87222 2.64333,1.56129 5.711,2.82447 8.51595,3.50659 2.46192,0.59871 9.60492,0.66853 12.31344,0.12039 z"
         id="path1103" />
      <circle
         style="fill:#ffffff;fill-opacity:1;stroke:none;stroke-width:0.12643"
         id="path1105"
         cx="181.00519"
         cy="97.283218"
         r="43.421875" />
    </g>
  </g>
  <g
     inkscape:label="Capa 2"
     id="layer2"
     inkscape:groupmode="layer">
    <g
       inkscape:export-ydpi="96"
       inkscape:export-xdpi="96"
       style="stroke:#ffffff;stroke-opacity:1;stroke-width:1.76575969;stroke-miterlimit:4;stroke-dasharray:none"
       transform="matrix(1.4158212,0,0,1.4158212,51.645277,-102.29854)"
       id="g1172">
      <circle
         style="fill:#000000;stroke:#ffffff;stroke-width:1.76575969;stroke-opacity:1;stroke-miterlimit:4;stroke-dasharray:none"
         id="path833"
         cx="43.089287"
         cy="144.3869"
         r="25.702381" />
      <rect
         style="fill:#ffffff;fill-opacity:1;stroke:#ffffff;stroke-width:1.76575969;stroke-opacity:1;stroke-miterlimit:4;stroke-dasharray:none"
         id="rect835"
         width="0.47247005"
         height="22.300592"
         x="39.215034"
         y="116.22768" />
      <rect
         y="45.281837"
         x="-138.79263"
         height="4.5380144"
         width="0.47244787"
         id="rect835-9"
         style="fill:#ffffff;fill-opacity:1;stroke:#ffffff;stroke-width:1.76672025;stroke-opacity:1;stroke-miterlimit:4;stroke-dasharray:none"
         transform="matrix(0.04370989,-0.99904427,0.99999577,-0.00290882,0,0)" />
      <ellipse
         style="fill:#ffffff;fill-opacity:1;stroke:#ffffff;stroke-width:1.76575969;stroke-opacity:1;stroke-miterlimit:4;stroke-dasharray:none"
         id="path866"
         cx="45.718887"
         cy="138.30934"
         rx="2.1047475"
         ry="2.1381562" />
      <ellipse
         ry="1.6237684"
         rx="1.5983971"
         cy="138.32948"
         cx="45.747063"
         id="path866-0"
         style="fill:#000000;fill-opacity:1;stroke:#ffffff;stroke-width:1.76575969;stroke-opacity:1;stroke-miterlimit:4;stroke-dasharray:none" />
      <rect
         transform="matrix(0.08482358,-0.99639599,0.99999888,-0.00149496,0,0)"
         style="fill:#ffffff;fill-opacity:1;stroke:#ffffff;stroke-width:1.76906379;stroke-opacity:1;stroke-miterlimit:4;stroke-dasharray:none"
         id="rect835-9-1"
         width="0.47370356"
         height="8.8298674"
         x="-144.79373"
         y="29.463139" />
      <ellipse
         ry="2.1381562"
         rx="2.1047475"
         cy="144.00894"
         cx="27.996422"
         id="path866-6"
         style="fill:#ffffff;fill-opacity:1;stroke:#ffffff;stroke-width:1.76575969;stroke-opacity:1;stroke-miterlimit:4;stroke-dasharray:none" />
      <ellipse
         style="fill:#000000;fill-opacity:1;stroke:#ffffff;stroke-width:1.76575969;stroke-opacity:1;stroke-miterlimit:4;stroke-dasharray:none"
         id="path866-0-5"
         cx="28.024597"
         cy="144.02908"
         rx="1.5983971"
         ry="1.6237684" />
      <rect
         y="13.649583"
         x="-155.18251"
         height="22.300592"
         width="0.47247005"
         id="rect835-6"
         style="fill:#ffffff;fill-opacity:1;stroke:#ffffff;stroke-width:1.76575969;stroke-opacity:1;stroke-miterlimit:4;stroke-dasharray:none"
         transform="rotate(-90.553509)" />
      <rect
         transform="matrix(-0.9994199,-0.03405668,-0.01256905,-0.99992101,0,0)"
         style="fill:#ffffff;fill-opacity:1;stroke:#ffffff;stroke-width:1.76672025;stroke-opacity:1;stroke-miterlimit:4;stroke-dasharray:none"
         id="rect835-9-9"
         width="0.47244787"
         height="4.5380144"
         x="-35.537254"
         y="-153.62982" />
      <ellipse
         ry="2.1381562"
         rx="2.1047475"
         cy="35.731251"
         cx="-148.67865"
         id="path866-1"
         style="fill:#ffffff;fill-opacity:1;stroke:#ffffff;stroke-width:1.76575969;stroke-opacity:1;stroke-miterlimit:4;stroke-dasharray:none"
         transform="rotate(-90.553509)" />
      <ellipse
         style="fill:#000000;fill-opacity:1;stroke:#ffffff;stroke-width:1.76575969;stroke-opacity:1;stroke-miterlimit:4;stroke-dasharray:none"
         id="path866-0-1"
         cx="-148.65048"
         cy="35.751408"
         rx="1.5983971"
         ry="1.6237684"
         transform="rotate(-90.553509)" />
      <rect
         y="-80.843323"
         x="152.14954"
         height="8.8298674"
         width="0.47370356"
         id="rect835-9-1-0"
         style="fill:#ffffff;fill-opacity:1;stroke:#ffffff;stroke-width:1.76906379;stroke-opacity:1;stroke-miterlimit:4;stroke-dasharray:none"
         transform="matrix(-0.08270924,0.99657372,-0.99999346,0.00361675,0,0)" />
      <ellipse
         style="fill:#ffffff;fill-opacity:1;stroke:#ffffff;stroke-width:1.76575969;stroke-opacity:1;stroke-miterlimit:4;stroke-dasharray:none"
         id="path866-6-7"
         cx="-57.12212"
         cy="-151.69923"
         rx="2.1047475"
         ry="2.1381562"
         transform="rotate(179.87843)" />
      <ellipse
         ry="1.6237684"
         rx="1.5983971"
         cy="-151.67909"
         cx="-57.093929"
         id="path866-0-5-2"
         style="fill:#000000;fill-opacity:1;stroke:#ffffff;stroke-width:1.76575969;stroke-opacity:1;stroke-miterlimit:4;stroke-dasharray:none"
         transform="rotate(179.87843)" />
      <rect
         y="-169.89471"
         x="-52.13055"
         height="22.300592"
         width="0.47247005"
         id="rect835-7"
         style="fill:#ffffff;fill-opacity:1;stroke:#ffffff;stroke-width:1.76575969;stroke-opacity:1;stroke-miterlimit:4;stroke-dasharray:none"
         transform="rotate(-179.85711)" />
      <rect
         transform="matrix(-0.04620129,0.99893215,-0.99999991,4.1489578e-4,0,0)"
         style="fill:#ffffff;fill-opacity:1;stroke:#ffffff;stroke-width:1.76672026;stroke-opacity:1;stroke-miterlimit:4;stroke-dasharray:none"
         id="rect835-9-4"
         width="0.47244787"
         height="4.5380144"
         x="147.90593"
         y="-58.595745" />
      <ellipse
         ry="2.1381562"
         rx="2.1047475"
         cy="-147.81305"
         cx="-45.626705"
         id="path866-10"
         style="fill:#ffffff;fill-opacity:1;stroke:#ffffff;stroke-width:1.76575969;stroke-opacity:1;stroke-miterlimit:4;stroke-dasharray:none"
         transform="rotate(-179.85711)" />
      <ellipse
         style="fill:#000000;fill-opacity:1;stroke:#ffffff;stroke-width:1.76575969;stroke-opacity:1;stroke-miterlimit:4;stroke-dasharray:none"
         id="path866-0-0"
         cx="-45.598522"
         cy="-147.79289"
         rx="1.5983971"
         ry="1.6237684"
         transform="rotate(-179.85711)" />
      <rect
         y="-67.566315"
         x="128.70517"
         height="8.8298674"
         width="0.47370356"
         id="rect835-9-1-9"
         style="fill:#ffffff;fill-opacity:1;stroke:#ffffff;stroke-width:1.76906379;stroke-opacity:1;stroke-miterlimit:4;stroke-dasharray:none"
         transform="matrix(-0.08411078,0.99645641,-0.99999756,0.00221031,0,0)" />
      <ellipse
         style="fill:#ffffff;fill-opacity:1;stroke:#ffffff;stroke-width:1.76575969;stroke-opacity:1;stroke-miterlimit:4;stroke-dasharray:none"
         id="path866-6-4"
         cx="-45.833771"
         cy="-128.35921"
         rx="2.1047475"
         ry="2.1381562"
         transform="rotate(179.95901)" />
      <ellipse
         ry="1.6237684"
         rx="1.5983971"
         cy="-128.33905"
         cx="-45.805588"
         id="path866-0-5-8"
         style="fill:#000000;fill-opacity:1;stroke:#ffffff;stroke-width:1.76575969;stroke-opacity:1;stroke-miterlimit:4;stroke-dasharray:none"
         transform="rotate(179.95901)" />
      <rect
         transform="matrix(-0.86942581,0.49406352,-0.56726251,-0.82353703,0,0)"
         style="fill:#ffffff;fill-opacity:1;stroke:#ffffff;stroke-width:1.76906379;stroke-opacity:1;stroke-miterlimit:4;stroke-dasharray:none"
         id="rect835-9-1-9-0"
         width="0.47370356"
         height="8.8298674"
         x="26.035311"
         y="-148.75877" />
      <rect
         transform="matrix(-0.05698172,0.99837522,-0.99999466,0.00326891,0,0)"
         style="fill:#ffffff;fill-opacity:1;stroke:#ffffff;stroke-width:1.76736552;stroke-opacity:1;stroke-miterlimit:4;stroke-dasharray:none"
         id="rect835-9-1-9-9"
         width="0.47279313"
         height="5.9704056"
         x="135.57961"
         y="-75.060936" />
      <rect
         y="116.54185"
         x="33.548458"
         height="8.8298674"
         width="0.47370356"
         id="rect835-9-1-2"
         style="fill:#ffffff;fill-opacity:1;stroke:#ffffff;stroke-width:1.76906379;stroke-opacity:1;stroke-miterlimit:4;stroke-dasharray:none"
         transform="matrix(0.99471671,0.10265802,-0.01641786,0.99986522,0,0)" />
      <ellipse
         style="fill:#ffffff;fill-opacity:1;stroke:#ffffff;stroke-width:1.76575969;stroke-opacity:1;stroke-miterlimit:4;stroke-dasharray:none"
         id="path866-6-1"
         cx="130.20265"
         cy="-33.820686"
         rx="2.1047475"
         ry="2.1381562"
         transform="rotate(91.026371)" />
      <ellipse
         ry="1.6237684"
         rx="1.5983971"
         cy="-33.800545"
         cx="130.23083"
         id="path866-0-5-0"
         style="fill:#000000;fill-opacity:1;stroke:#ffffff;stroke-width:1.76575969;stroke-opacity:1;stroke-miterlimit:4;stroke-dasharray:none"
         transform="rotate(91.026371)" />
      <rect
         y="-164.68814"
         x="-45.546028"
         height="10.623981"
         width="0.47479698"
         id="rect835-9-1-5"
         style="fill:#ffffff;fill-opacity:1;stroke:#ffffff;stroke-width:1.77107202;stroke-opacity:1;stroke-miterlimit:4;stroke-dasharray:none"
         transform="matrix(-0.99253474,-0.12196227,0.01275837,-0.99991861,0,0)" />
      <ellipse
         style="fill:#ffffff;fill-opacity:1;stroke:#ffffff;stroke-width:1.76575969;stroke-opacity:1;stroke-miterlimit:4;stroke-dasharray:none"
         id="path866-6-2"
         cx="-156.86031"
         cy="45.717026"
         rx="2.1047475"
         ry="2.1381562"
         transform="rotate(-89.03478)" />
      <ellipse
         ry="1.6237684"
         rx="1.5983971"
         cy="45.737167"
         cx="-156.83212"
         id="path866-0-5-02"
         style="fill:#000000;fill-opacity:1;stroke:#ffffff;stroke-width:1.76575969;stroke-opacity:1;stroke-miterlimit:4;stroke-dasharray:none"
         transform="rotate(-89.03478)" />
    </g>
  </g>
</svg>
