<?xml version="1.0" encoding="utf-8"?>
<!-- Generator: Adobe Illustrator 22.0.1, SVG Export Plug-In . SVG Version: 6.00 Build 0)  -->
<svg version="1.1" id="Capa_1" xmlns="http://www.w3.org/2000/svg" xmlns:xlink="http://www.w3.org/1999/xlink" x="0px" y="0px"
	 viewBox="0 0 234.2 103.8" style="enable-background:new 0 0 234.2 103.8;" xml:space="preserve">
<style type="text/css">
	.st0{fill:#57068C;}
	.st1{fill:#FFFFFF;}
</style>
<g>
	<g>
		<g>
			<path d="M93.3,36v7.2c0,1.1,0.2,2,0.7,2.8c0.4,0.8,1.1,1.4,1.9,1.8c0.8,0.4,1.8,0.6,2.9,0.6c1.1,0,2.1-0.2,2.9-0.6
				c0.8-0.4,1.4-1,1.9-1.8c0.4-0.8,0.7-1.7,0.7-2.8V36h-2.7v7.2c0,0.9-0.2,1.6-0.7,2.1c-0.5,0.5-1.1,0.8-1.9,0.8
				c-0.8,0-1.5-0.3-2-0.8S96,44,96,43.1V36H93.3z"/>
		</g>
		<g>
			<path d="M113.5,48.2h2.6v-5.9c0-1.1-0.3-2-0.9-2.6l0,0c-0.6-0.6-1.5-1-2.5-1c-1.5,0-2.6,0.6-3.2,1.7l0,0.1v-1.7h-2.6v9.4h2.6
				v-4.6c0-0.7,0.2-1.3,0.6-1.7c0.4-0.4,0.9-0.7,1.6-0.7c0.6,0,1,0.2,1.4,0.5c0.3,0.3,0.5,0.8,0.5,1.4V48.2z"/>
		</g>
		<g>
			<path d="M118.5,48.2h2.6v-9.4h-2.6V48.2z M119.8,34.6c-0.4,0-0.8,0.1-1,0.4c-0.3,0.3-0.4,0.6-0.4,1.1c0,0.4,0.1,0.8,0.4,1.1
				c0.3,0.3,0.6,0.4,1,0.4c0.4,0,0.8-0.1,1-0.4c0.3-0.3,0.4-0.6,0.4-1.1s-0.1-0.8-0.4-1.1C120.6,34.8,120.2,34.6,119.8,34.6z"/>
		</g>
		<g>
			<path d="M126.1,48.2h2.7l3.5-9.4h-2.6l-2.2,6.9l0-0.1l-2.2-6.8l-2.7,0L126.1,48.2z"/>
		</g>
		<g>
			<path d="M137.8,38.7c-0.9,0-1.8,0.2-2.5,0.6c-0.7,0.4-1.3,1-1.7,1.7c-0.4,0.7-0.6,1.6-0.6,2.5c0,0.9,0.2,1.8,0.6,2.5
				c0.4,0.7,1,1.3,1.7,1.7c0.7,0.4,1.6,0.6,2.6,0.6c0.8,0,1.6-0.1,2.3-0.4c0.7-0.3,1.3-0.7,1.7-1.2l-1.4-1.4
				c-0.3,0.3-0.7,0.6-1.1,0.7c-0.4,0.2-0.8,0.3-1.3,0.3c-0.6,0-1.1-0.2-1.6-0.5c-0.4-0.3-0.7-0.8-0.9-1.4l0,0h6.8c0-0.1,0-0.4,0-0.6
				c0-1.6-0.4-2.8-1.2-3.6C140.4,39.2,139.3,38.7,137.8,38.7z M139.9,42.7h-4.3l0,0c0.1-0.6,0.4-1.1,0.7-1.5
				c0.4-0.4,0.9-0.6,1.5-0.6c0.6,0,1.1,0.2,1.5,0.6C139.7,41.6,139.9,42.1,139.9,42.7L139.9,42.7z"/>
		</g>
		<g>
			<path d="M144.4,48.2h2.6v-4.5c0-0.8,0.2-1.4,0.7-1.8c0.5-0.4,1.2-0.7,2-0.7c0.2,0,0.3,0,0.4,0v-2.5c-0.7,0-1.3,0.2-1.8,0.5l0,0
				c-0.5,0.3-0.9,0.7-1.3,1.3l0,0.1v-1.8h-2.6V48.2z"/>
		</g>
		<g>
			<path d="M151,47c0.5,0.4,1.1,0.7,1.8,1c0.7,0.2,1.5,0.3,2.2,0.3c1.1,0,2-0.3,2.7-0.8c0.7-0.5,1.1-1.2,1.1-2.2
				c0-0.6-0.2-1.1-0.5-1.5c-0.3-0.4-0.7-0.7-1.1-0.9c-0.4-0.2-1-0.4-1.6-0.6c-0.6-0.2-1.1-0.3-1.3-0.5c-0.3-0.1-0.4-0.3-0.4-0.6
				c0-0.2,0.1-0.4,0.3-0.5c0.2-0.1,0.5-0.2,0.8-0.2c0.4,0,0.9,0.1,1.4,0.2l0,0c0.5,0.2,1,0.4,1.5,0.7l0.9-1.8
				c-0.5-0.3-1.1-0.6-1.7-0.8c-0.6-0.2-1.3-0.3-1.9-0.3c-1.1,0-2,0.3-2.6,0.8c-0.7,0.5-1,1.2-1,2.2c0,0.6,0.2,1.1,0.5,1.5
				c0.3,0.4,0.7,0.7,1.1,0.8c0.4,0.2,1,0.4,1.6,0.6c0.6,0.2,1,0.3,1.3,0.5c0.3,0.2,0.4,0.4,0.4,0.6c0,0.3-0.1,0.4-0.3,0.6
				c-0.2,0.1-0.5,0.2-0.9,0.2c-0.5,0-1.1-0.1-1.7-0.3c-0.6-0.2-1.1-0.5-1.6-0.9L151,47z"/>
		</g>
		<g>
			<path d="M160.9,48.2h2.6v-9.4h-2.6V48.2z M162.2,34.6c-0.4,0-0.8,0.1-1,0.4c-0.3,0.3-0.4,0.6-0.4,1.1c0,0.4,0.1,0.8,0.4,1.1
				c0.3,0.3,0.6,0.4,1,0.4c0.4,0,0.8-0.1,1-0.4c0.3-0.3,0.4-0.6,0.4-1.1s-0.1-0.8-0.4-1.1l0,0C163,34.8,162.6,34.6,162.2,34.6z"/>
		</g>
		<g>
			<path d="M169.8,38.7c-0.9,0-1.6,0.2-2.3,0.6c-0.7,0.4-1.2,1-1.5,1.7c-0.4,0.7-0.5,1.6-0.5,2.5c0,0.9,0.2,1.8,0.5,2.5
				c0.4,0.7,0.9,1.3,1.6,1.7c0.7,0.4,1.4,0.6,2.3,0.6c0.6,0,1.2-0.1,1.7-0.4c0.5-0.2,0.9-0.6,1.3-1.1l0-0.1v1.4h2.6V35.2h-2.6v5
				l0-0.1C172.2,39.2,171.2,38.7,169.8,38.7z M170.5,46.2c-0.7,0-1.3-0.2-1.7-0.7c-0.4-0.5-0.7-1.1-0.7-1.9c0-0.8,0.2-1.4,0.7-1.9
				c0.4-0.5,1-0.7,1.7-0.7c0.7,0,1.3,0.2,1.7,0.7c0.4,0.5,0.7,1.1,0.7,1.9c0,0.8-0.2,1.4-0.7,1.9l0,0
				C171.8,45.9,171.2,46.2,170.5,46.2z"/>
		</g>
		<g>
			<path d="M180.9,42.6c-1.1,0-2,0.3-2.6,0.8c-0.6,0.5-0.9,1.2-0.9,2.1c0,0.9,0.3,1.6,0.9,2.1c0.6,0.5,1.4,0.8,2.3,0.8
				c0.6,0,1.2-0.1,1.7-0.3c0.5-0.2,0.9-0.5,1.2-0.9l0,0v1.1h2.6l0-6.1c0-1-0.4-1.9-1.1-2.5c-0.7-0.6-1.7-0.9-2.9-0.9
				c-0.8,0-1.5,0.1-2.1,0.3c-0.6,0.2-1.3,0.4-2.1,0.8l0.8,1.8c1-0.5,1.9-0.8,2.8-0.8c0.6,0,1.1,0.1,1.5,0.4c0.3,0.3,0.5,0.7,0.5,1.2
				v0.2H180.9z M181.3,46.4c-0.5,0-0.8-0.1-1.1-0.3c-0.3-0.2-0.4-0.5-0.4-0.9c0-0.4,0.1-0.7,0.4-0.8c0.3-0.2,0.7-0.3,1.2-0.3h2.1V45
				c-0.1,0.4-0.3,0.8-0.7,1l0,0C182.4,46.3,181.9,46.4,181.3,46.4z"/>
		</g>
		<g>
			<path d="M192.4,38.7c-0.9,0-1.6,0.2-2.3,0.6c-0.7,0.4-1.2,1-1.5,1.7c-0.4,0.7-0.5,1.6-0.5,2.5c0,0.9,0.2,1.8,0.5,2.5
				c0.4,0.7,0.9,1.3,1.6,1.7c0.7,0.4,1.4,0.6,2.3,0.6c0.6,0,1.2-0.1,1.7-0.4c0.5-0.2,0.9-0.6,1.3-1.1l0-0.1v1.4h2.6V35.2h-2.6v5
				l0-0.1C194.7,39.2,193.7,38.7,192.4,38.7z M193.1,46.2c-0.7,0-1.3-0.2-1.7-0.7c-0.4-0.5-0.7-1.1-0.7-1.9c0-0.8,0.2-1.4,0.7-1.9
				c0.4-0.5,1-0.7,1.7-0.7c0.7,0,1.3,0.2,1.7,0.7c0.4,0.5,0.7,1.1,0.7,1.9c0,0.8-0.2,1.4-0.7,1.9l0,0
				C194.3,45.9,193.8,46.2,193.1,46.2z"/>
		</g>
		<g>
			<path d="M100.7,60.5c-0.3-0.6-0.8-1-1.3-1.3c-0.6-0.4-1.3-0.5-2.2-0.5c-0.9,0-1.6,0.2-2.3,0.6c-0.7,0.4-1.2,0.9-1.6,1.6
				c-0.4,0.7-0.6,1.5-0.6,2.4c0,0.9,0.2,1.7,0.6,2.4c0.4,0.7,0.9,1.3,1.6,1.7c0.7,0.4,1.4,0.6,2.3,0.6c0.8,0,1.5-0.2,2.1-0.5
				c0.5-0.3,1-0.8,1.3-1.3v1.8h1.5V55h-1.5V60.5z M97.5,66.7c-0.6,0-1.2-0.1-1.7-0.4c-0.5-0.3-0.9-0.7-1.1-1.2
				c-0.3-0.5-0.4-1.1-0.4-1.7c0-0.6,0.1-1.2,0.4-1.7c0.3-0.5,0.7-0.9,1.1-1.2c0.5-0.3,1-0.4,1.7-0.4c0.6,0,1.2,0.1,1.7,0.4
				c0.5,0.3,0.9,0.7,1.1,1.2c0.3,0.5,0.4,1.1,0.4,1.7s-0.1,1.2-0.4,1.7c-0.3,0.5-0.7,0.9-1.1,1.2C98.7,66.6,98.1,66.7,97.5,66.7z"/>
			<path d="M108.7,58.7c-0.9,0-1.7,0.2-2.4,0.6c-0.7,0.4-1.2,0.9-1.6,1.6c-0.4,0.7-0.6,1.5-0.6,2.4c0,0.9,0.2,1.7,0.6,2.4
				c0.4,0.7,0.9,1.3,1.6,1.6c0.7,0.4,1.5,0.6,2.4,0.6c0.8,0,1.5-0.1,2.1-0.4c0.6-0.3,1.2-0.6,1.6-1.1l0,0l-0.8-0.9l0,0
				c-0.4,0.4-0.8,0.6-1.2,0.8c-0.5,0.2-1,0.3-1.5,0.3c-0.9,0-1.6-0.3-2.2-0.8c-0.6-0.5-0.9-1.2-1-2h7.4l0-0.1c0.1-1.6-0.3-2.8-1-3.8
				C111.2,59.2,110.1,58.7,108.7,58.7z M108.7,60c0.9,0,1.6,0.3,2.1,0.8c0.5,0.5,0.8,1.2,0.9,2h-6.1c0.1-0.8,0.4-1.5,1-2
				C107.1,60.2,107.8,60,108.7,60z"/>
			<polygon points="120.2,55.8 118.7,55.8 118.7,67.9 125.5,67.9 125.5,66.5 120.2,66.5 			"/>
			<path d="M133.5,59.6c-0.6-0.6-1.5-0.8-2.6-0.8c-0.7,0-1.4,0.1-1.9,0.3c-0.5,0.2-1.1,0.5-1.8,0.9l0,0l0.6,1.1l0.1,0
				c1-0.7,1.9-1,2.8-1c0.8,0,1.4,0.2,1.8,0.5c0.4,0.4,0.6,0.9,0.6,1.5v0.5h-2.9c-1.1,0-1.9,0.3-2.5,0.7c-0.6,0.5-0.9,1.1-0.9,1.9
				c0,0.5,0.1,1,0.4,1.4c0.3,0.4,0.6,0.8,1.1,1c0.5,0.2,1,0.4,1.6,0.4c1.4,0,2.5-0.5,3.3-1.3v1.3h1.4l0-6.1
				C134.4,60.9,134.1,60.1,133.5,59.6z M132,66.2c-0.5,0.4-1.2,0.5-1.9,0.5c-0.6,0-1.1-0.2-1.5-0.4c-0.4-0.3-0.5-0.7-0.5-1.2
				c0-1,0.7-1.4,2.2-1.4h2.8v1C132.8,65.4,132.5,65.9,132,66.2z"/>
			<polygon points="142.4,55.8 140.9,55.8 140.9,67.9 147.7,67.9 147.7,66.5 142.4,66.5 			"/>
			<path d="M155.8,59.6c-0.6-0.6-1.5-0.8-2.6-0.8c-0.7,0-1.4,0.1-1.9,0.3c-0.5,0.2-1.1,0.5-1.8,0.9l0,0L150,61l0.1,0
				c1-0.7,1.9-1,2.8-1c0.8,0,1.4,0.2,1.8,0.5c0.4,0.4,0.6,0.9,0.6,1.5v0.5h-2.9c-1.1,0-1.9,0.3-2.5,0.7c-0.6,0.5-0.9,1.1-0.9,1.9
				c0,0.5,0.1,1,0.4,1.4c0.3,0.4,0.6,0.8,1.1,1c0.5,0.2,1,0.4,1.6,0.4c1.4,0,2.5-0.5,3.3-1.3v1.3h1.4l0-6.1
				C156.7,60.9,156.4,60.1,155.8,59.6z M154.2,66.2c-0.5,0.4-1.2,0.5-1.9,0.5c-0.6,0-1.1-0.2-1.5-0.4c-0.4-0.3-0.5-0.7-0.5-1.2
				c0-1,0.7-1.4,2.2-1.4h2.8v1C155.1,65.4,154.7,65.9,154.2,66.2z"/>
			<path d="M166,60.4c-0.3-0.5-0.7-0.9-1.3-1.2c-0.6-0.3-1.2-0.5-2-0.5c-0.8,0-1.6,0.2-2.2,0.6c-0.6,0.4-1.1,0.9-1.5,1.6
				c-0.4,0.7-0.5,1.4-0.5,2.3c0,0.9,0.2,1.6,0.5,2.3c0.4,0.7,0.9,1.2,1.5,1.6c0.6,0.4,1.4,0.6,2.2,0.6c0.8,0,1.4-0.2,2-0.5
				c0.5-0.3,0.9-0.7,1.2-1.2V67c0,0.9-0.3,1.7-0.9,2.2c-0.6,0.5-1.4,0.8-2.3,0.8c-0.6,0-1.1-0.1-1.6-0.3c-0.5-0.2-1-0.5-1.4-0.9
				l-0.1,0l-0.7,1.1l0,0c1.2,0.9,2.4,1.3,3.8,1.3c0.9,0,1.7-0.2,2.4-0.5c0.7-0.4,1.2-0.9,1.6-1.5c0.4-0.7,0.6-1.4,0.6-2.3v-8.2H166
				V60.4z M163,66.3c-0.6,0-1.1-0.1-1.6-0.4c-0.5-0.3-0.8-0.6-1.1-1.1c-0.3-0.5-0.4-1-0.4-1.6c0-0.6,0.1-1.2,0.4-1.7
				c0.3-0.5,0.6-0.9,1.1-1.1c0.5-0.3,1-0.4,1.6-0.4c0.6,0,1.1,0.1,1.6,0.4c0.5,0.3,0.8,0.7,1.1,1.1c0.3,0.5,0.4,1,0.4,1.6
				c0,0.6-0.1,1.2-0.4,1.6c-0.3,0.5-0.6,0.9-1.1,1.1C164.1,66.2,163.6,66.3,163,66.3z"/>
			<path d="M176.3,63.3c0,1-0.3,1.8-0.8,2.4c-0.5,0.6-1.2,0.9-2.1,0.9c-0.8,0-1.4-0.2-1.8-0.7c-0.4-0.4-0.7-1.1-0.7-1.9v-5.3h-1.5
				v5.6c0,1.1,0.3,2,0.9,2.6c0.6,0.6,1.5,1,2.5,1c1.6,0,2.8-0.7,3.4-1.9v1.8h1.5v-9.2h-1.5V63.3z"/>
			<path d="M184.9,58.7c-1.6,0-2.8,0.6-3.5,1.8v-1.8h-1.5v9.2h1.5V63c0.1-0.9,0.4-1.6,0.9-2.1c0.5-0.5,1.2-0.8,2.1-0.8
				c0.8,0,1.4,0.2,1.8,0.7c0.4,0.4,0.7,1.1,0.7,1.8v5.3h1.5v-5.6c0-1.1-0.3-2-0.9-2.6C186.8,59,186,58.7,184.9,58.7z"/>
			<path d="M197.7,67.9l0-6.1c0-1-0.3-1.8-0.9-2.3c-0.6-0.6-1.5-0.8-2.6-0.8c-0.7,0-1.4,0.1-1.9,0.3c-0.5,0.2-1.1,0.5-1.8,0.9l0,0
				L191,61l0.1,0c1-0.7,1.9-1,2.8-1c0.8,0,1.4,0.2,1.8,0.5c0.4,0.4,0.6,0.9,0.6,1.5v0.5h-2.9c-1.1,0-1.9,0.3-2.5,0.7
				c-0.6,0.5-0.9,1.1-0.9,1.9c0,0.5,0.1,1,0.4,1.4c0.3,0.4,0.6,0.8,1.1,1c0.5,0.2,1,0.4,1.6,0.4c1.4,0,2.5-0.5,3.3-1.3v1.3H197.7z
				 M195.2,66.2c-0.5,0.4-1.2,0.5-1.9,0.5c-0.6,0-1.1-0.2-1.5-0.4c-0.4-0.3-0.5-0.7-0.5-1.2c0-1,0.7-1.4,2.2-1.4h2.8v1
				C196.1,65.4,195.7,65.9,195.2,66.2z"/>
		</g>
	</g>
	<polygon points="70.4,56.6 70.4,32.3 69.9,32.3 58.8,42.9 58.8,56.6 47.8,56.6 47.8,32.3 47.3,32.3 36.2,42.9 36.2,67.9 45.4,67.9 
		47.8,67.9 58.8,57.4 58.8,67.9 68,67.9 70.4,67.9 81.8,57 81.8,56.6 	"/>
</g>
</svg>
