%
M48
METRIC,000.000
T01C0.50
%
T01
X041231Y088692
X041231Y089692
X041231Y090692
X041231Y091692
X041231Y092692
X044791Y093128
X044791Y092128
X044791Y091128
X044791Y090128
X044790Y089128
X041231Y057692
X041231Y058692
X041231Y059692
X041231Y060692
X041231Y061692
X044790Y062128
X044790Y061128
X044790Y060128
X044790Y059128
X044790Y058128
X041231Y074692
X041231Y075692
X041231Y076692
X041231Y077692
X041231Y078692
X044790Y079128
X044790Y078128
X044790Y077128
X044790Y076128
X044790Y075128
X041231Y040692
X041231Y041692
X041231Y042692
X041231Y043692
X041231Y044692
X044791Y045128
X044791Y044128
X044791Y043128
X044791Y042128
X044791Y041128
X041231Y024692
X041231Y025692
X041231Y026692
X041231Y027692
X041231Y028692
X044790Y029128
X044790Y028128
X044790Y027128
X044790Y026128
X044790Y025128
X041231Y008692
X041231Y009692
X041231Y010692
X041231Y011692
X041231Y012692
X044790Y013128
X044790Y012128
X044790Y011128
X044790Y010128
X044790Y009128
X047970Y053780
X048969Y053754
X049969Y053754
X050969Y053754
X051969Y053754
X052261Y050219
X051261Y050217
X050261Y050215
X049261Y050213
X048261Y050205
X063969Y053754
X064969Y053754
X065969Y053754
X066969Y053754
X067969Y053754
X067261Y050247
X066261Y050246
X065261Y050244
X064261Y050242
X063261Y050240
X076969Y053754
X077969Y053754
X078969Y053754
X079969Y053754
X080969Y053754
X081261Y050274
X080261Y050272
X079261Y050270
X078261Y050268
X077261Y050267
X005969Y053754
X006969Y053754
X007969Y053754
X008969Y053754
X009969Y053754
X010261Y050223
X009261Y050221
X008261Y050219
X007261Y050217
X006261Y050215
X018969Y053754
X019969Y053754
X020969Y053754
X021969Y053754
X022969Y053754
X023261Y050247
X022261Y050246
X021261Y050244
X020261Y050242
X019261Y050240
X031969Y053754
X032969Y053754
X033969Y053754
X034969Y053754
X035969Y053754
X036261Y050272
X035261Y050270
X034261Y050268
X033261Y050267
X032261Y050265
M30