%MOIN*%
%OFA0B0*%
%FSLAX36Y36*%
%IPPOS*%
%LPD*%
%ADD10C,0*%
D10*
X002672471Y002126151D02*
X002672471Y002126151D01*
X003022346Y002126145D01*
X003025454Y002126022D01*
X003028543Y002125654D01*
X003031594Y002125043D01*
X003034586Y002124193D01*
X003037502Y002123110D01*
X003040324Y002121800D01*
X003043033Y002120271D01*
X003045613Y002118533D01*
X003048048Y002116596D01*
X003050323Y002114474D01*
X003052422Y002112178D01*
X003054334Y002109724D01*
X003056046Y002107127D01*
X003057548Y002104402D01*
X003058830Y002101568D01*
X003059884Y002098641D01*
X003060704Y002095640D01*
X003061284Y002092584D01*
X003061621Y002089491D01*
X003061713Y002086382D01*
X003060932Y002008114D01*
X003060782Y002005050D01*
X003060394Y002002007D01*
X003059769Y001999003D01*
X003058913Y001996057D01*
X003057831Y001993186D01*
X003056527Y001990409D01*
X003055012Y001987741D01*
X003053294Y001985200D01*
X003051382Y001982800D01*
X003049290Y001980556D01*
X003047029Y001978482D01*
X003044614Y001976590D01*
X003042059Y001974892D01*
X003039379Y001973398D01*
X003036591Y001972118D01*
X003033712Y001971058D01*
X003030759Y001970226D01*
X003027751Y001969626D01*
X003024704Y001969262D01*
X003021639Y001969137D01*
X002672580Y001968471D01*
X002669488Y001968587D01*
X002666414Y001968945D01*
X002663378Y001969543D01*
X002660399Y001970378D01*
X002657494Y001971444D01*
X002654682Y001972736D01*
X002651981Y001974244D01*
X002649406Y001975959D01*
X002646973Y001977872D01*
X002644698Y001979969D01*
X002642595Y001982239D01*
X002640677Y001984667D01*
X002638956Y001987238D01*
X002637441Y001989936D01*
X002636144Y001992745D01*
X002635070Y001995647D01*
X002634228Y001998625D01*
X002633623Y002001659D01*
X002633257Y002004732D01*
X002633135Y002007824D01*
X002633100Y002086764D01*
X002633220Y002089854D01*
X002633582Y002092925D01*
X002634185Y002095958D01*
X002635023Y002098934D01*
X002636092Y002101835D01*
X002637386Y002104644D01*
X002638896Y002107342D01*
X002640613Y002109914D01*
X002642527Y002112343D01*
X002644626Y002114614D01*
X002646896Y002116713D01*
X002649324Y002118628D01*
X002651895Y002120346D01*
X002654592Y002121858D01*
X002657400Y002123153D01*
X002660301Y002124223D01*
X002663278Y002125063D01*
X002666310Y002125666D01*
X002669381Y002126030D01*
X002672471Y002126151D01*
X002065648Y002126162D02*
X002065648Y002126162D01*
X002496693Y002126154D01*
X002499779Y002126033D01*
X002502846Y002125670D01*
X002505876Y002125068D01*
X002508848Y002124231D01*
X002511746Y002123163D01*
X002514551Y002121871D01*
X002517247Y002120363D01*
X002519815Y002118648D01*
X002522242Y002116738D01*
X002524511Y002114643D01*
X002526610Y002112377D01*
X002528524Y002109953D01*
X002530242Y002107386D01*
X002531753Y002104693D01*
X002533049Y002101890D01*
X002534122Y002098993D01*
X002534963Y002096022D01*
X002535570Y002092994D01*
X002535937Y002089927D01*
X002536063Y002086841D01*
X002536178Y002007563D01*
X002536061Y002004475D01*
X002535702Y002001405D01*
X002535104Y001998373D01*
X002534270Y001995397D01*
X002533205Y001992496D01*
X002531915Y001989688D01*
X002530409Y001986989D01*
X002528697Y001984417D01*
X002526787Y001981986D01*
X002524693Y001979714D01*
X002522428Y001977612D01*
X002520004Y001975694D01*
X002517437Y001973973D01*
X002514744Y001972458D01*
X002511939Y001971159D01*
X002509042Y001970085D01*
X002506069Y001969240D01*
X002503039Y001968632D01*
X002499971Y001968263D01*
X002496883Y001968136D01*
X002064714Y001967311D01*
X002061597Y001967428D01*
X002058498Y001967793D01*
X002055438Y001968401D01*
X002052436Y001969250D01*
X002049511Y001970333D01*
X002046680Y001971646D01*
X002043962Y001973178D01*
X002041374Y001974920D01*
X002038933Y001976862D01*
X002036652Y001978991D01*
X002034548Y001981294D01*
X002032632Y001983756D01*
X002030917Y001986363D01*
X002029414Y001989097D01*
X002028133Y001991941D01*
X002027080Y001994878D01*
X002026263Y001997889D01*
X002025688Y002000955D01*
X002025357Y002004058D01*
X002025272Y002007176D01*
X002026280Y002087287D01*
X002026438Y002090350D01*
X002026834Y002093391D01*
X002027466Y002096392D01*
X002028329Y002099334D01*
X002029418Y002102201D01*
X002030727Y002104974D01*
X002032248Y002107637D01*
X002033972Y002110173D01*
X002035888Y002112568D01*
X002037985Y002114806D01*
X002040249Y002116874D01*
X002042667Y002118759D01*
X002045225Y002120451D01*
X002047907Y002121938D01*
X002050696Y002123212D01*
X002053576Y002124266D01*
X002056530Y002125092D01*
X002059538Y002125685D01*
X002062584Y002126043D01*
X002065648Y002126162D01*
X000912311Y001968417D02*
X000912311Y001968417D01*
X000909218Y001968533D01*
X000906143Y001968892D01*
X000903106Y001969491D01*
X000900126Y001970326D01*
X000897220Y001971393D01*
X000894407Y001972685D01*
X000891705Y001974195D01*
X000889129Y001975911D01*
X000886696Y001977825D01*
X000884421Y001979924D01*
X000882318Y001982196D01*
X000880400Y001984625D01*
X000878679Y001987198D01*
X000877165Y001989898D01*
X000875868Y001992708D01*
X000874796Y001995612D01*
X000873955Y001998591D01*
X000873351Y002001627D01*
X000872987Y002004701D01*
X000872866Y002007794D01*
X000872879Y002086788D01*
X000873001Y002089876D01*
X000873365Y002092946D01*
X000873968Y002095978D01*
X000874807Y002098952D01*
X000875878Y002101852D01*
X000877172Y002104659D01*
X000878683Y002107356D01*
X000880400Y002109926D01*
X000882314Y002112353D01*
X000884413Y002114623D01*
X000886683Y002116721D01*
X000889110Y002118634D01*
X000891680Y002120351D01*
X000894378Y002121861D01*
X000897185Y002123155D01*
X000900085Y002124225D01*
X000903060Y002125064D01*
X000906091Y002125667D01*
X000909161Y002126030D01*
X000912250Y002126151D01*
X001250693Y002126145D01*
X001253800Y002126022D01*
X001256887Y002125655D01*
X001259936Y002125045D01*
X001262927Y002124196D01*
X001265842Y002123114D01*
X001268662Y002121805D01*
X001271370Y002120278D01*
X001273950Y002118541D01*
X001276384Y002116607D01*
X001278658Y002114486D01*
X001280758Y002112193D01*
X001282670Y002109741D01*
X001284382Y002107146D01*
X001285885Y002104424D01*
X001287168Y002101592D01*
X001288223Y002098667D01*
X001289045Y002095668D01*
X001289627Y002092614D01*
X001289966Y002089523D01*
X001290061Y002086416D01*
X001289345Y002008072D01*
X001289197Y002005006D01*
X001288811Y002001961D01*
X001288189Y001998955D01*
X001287334Y001996007D01*
X001286253Y001993134D01*
X001284951Y001990354D01*
X001283436Y001987685D01*
X001281718Y001985141D01*
X001279807Y001982739D01*
X001277715Y001980493D01*
X001275454Y001978417D01*
X001273038Y001976523D01*
X001270482Y001974823D01*
X001267801Y001973328D01*
X001265012Y001972046D01*
X001262131Y001970985D01*
X001259177Y001970152D01*
X001256167Y001969552D01*
X001253119Y001969188D01*
X001250052Y001969062D01*
X000912311Y001968417D01*
X000402035Y001967444D02*
X000402035Y001967444D01*
X000398920Y001967561D01*
X000395825Y001967924D01*
X000392768Y001968532D01*
X000389769Y001969379D01*
X000386846Y001970460D01*
X000384018Y001971770D01*
X000381302Y001973299D01*
X000378716Y001975038D01*
X000376275Y001976976D01*
X000373995Y001979101D01*
X000371891Y001981400D01*
X000369975Y001983858D01*
X000368259Y001986460D01*
X000366755Y001989189D01*
X000365471Y001992029D01*
X000364416Y001994962D01*
X000363596Y001997968D01*
X000363017Y002001031D01*
X000362681Y002004129D01*
X000362592Y002007245D01*
X000363467Y002087221D01*
X000363621Y002090287D01*
X000364012Y002093332D01*
X000364640Y002096337D01*
X000365500Y002099284D01*
X000366587Y002102155D01*
X000367894Y002104933D01*
X000369414Y002107600D01*
X000371137Y002110141D01*
X000373052Y002112539D01*
X000375149Y002114782D01*
X000377414Y002116854D01*
X000379834Y002118743D01*
X000382393Y002120438D01*
X000385077Y002121928D01*
X000387869Y002123205D01*
X000390752Y002124260D01*
X000393708Y002125088D01*
X000396719Y002125683D01*
X000399768Y002126041D01*
X000402836Y002126161D01*
X000736473Y002126155D01*
X000739558Y002126034D01*
X000742624Y002125671D01*
X000745652Y002125070D01*
X000748623Y002124233D01*
X000751520Y002123165D01*
X000754325Y002121874D01*
X000757019Y002120368D01*
X000759588Y002118654D01*
X000762014Y002116745D01*
X000764283Y002114652D01*
X000766381Y002112387D01*
X000768295Y002109965D01*
X000770013Y002107400D01*
X000771526Y002104708D01*
X000772822Y002101907D01*
X000773895Y002099012D01*
X000774738Y002096042D01*
X000775346Y002093015D01*
X000775715Y002089950D01*
X000775842Y002086865D01*
X000776005Y002007533D01*
X000775890Y002004444D01*
X000775533Y002001373D01*
X000774936Y001998339D01*
X000774103Y001995362D01*
X000773039Y001992459D01*
X000771750Y001989649D01*
X000770245Y001986949D01*
X000768532Y001984375D01*
X000766623Y001981943D01*
X000764529Y001979669D01*
X000762263Y001977566D01*
X000759839Y001975647D01*
X000757272Y001973924D01*
X000754577Y001972408D01*
X000751772Y001971108D01*
X000748874Y001970033D01*
X000745900Y001969188D01*
X000742869Y001968579D01*
X000739799Y001968210D01*
X000736710Y001968082D01*
X000402035Y001967444D01*
X001613441Y000345696D02*
X001613441Y000345696D01*
X001613561Y000348766D01*
X001613920Y000351817D01*
X001614515Y000354831D01*
X001615344Y000357789D01*
X001616401Y000360673D01*
X001617680Y000363467D01*
X001619172Y000366152D01*
X001620870Y000368712D01*
X001622761Y000371133D01*
X001624836Y000373398D01*
X001627081Y000375495D01*
X001629483Y000377411D01*
X001632027Y000379133D01*
X001634697Y000380652D01*
X001637478Y000381958D01*
X001640352Y000383043D01*
X001643302Y000383900D01*
X001646310Y000384525D01*
X001649357Y000384914D01*
X001652425Y000385064D01*
X001733492Y000385857D01*
X001736601Y000385765D01*
X001739693Y000385427D01*
X001742749Y000384847D01*
X001745750Y000384026D01*
X001748676Y000382972D01*
X001751510Y000381690D01*
X001754234Y000380188D01*
X001756831Y000378476D01*
X001759285Y000376564D01*
X001761580Y000374464D01*
X001763702Y000372189D01*
X001765638Y000369755D01*
X001767375Y000367175D01*
X001768904Y000364465D01*
X001770214Y000361644D01*
X001771297Y000358728D01*
X001772146Y000355736D01*
X001772757Y000352686D01*
X001773125Y000349597D01*
X001773247Y000346489D01*
X001773247Y000329507D01*
X001773870Y000316676D01*
X001775733Y000303964D01*
X001778817Y000291494D01*
X001783096Y000279380D01*
X001788527Y000267738D01*
X001795060Y000256676D01*
X001802633Y000246299D01*
X001811176Y000236704D01*
X001820608Y000227981D01*
X001830840Y000220213D01*
X001841777Y000213473D01*
X001853315Y000207823D01*
X001865346Y000203318D01*
X001877756Y000199998D01*
X001890430Y000197896D01*
X001903248Y000197031D01*
X003213248Y000197007D01*
X003226079Y000197630D01*
X003238790Y000199493D01*
X003251261Y000202578D01*
X003263375Y000206856D01*
X003275017Y000212287D01*
X003286079Y000218820D01*
X003296456Y000226393D01*
X003306051Y000234936D01*
X003314773Y000244368D01*
X003322542Y000254601D01*
X003329282Y000265537D01*
X003334932Y000277075D01*
X003339437Y000289106D01*
X003342757Y000301516D01*
X003344859Y000314191D01*
X003345724Y000327008D01*
X003345748Y001837007D01*
X003345125Y001849839D01*
X003343262Y001862551D01*
X003340177Y001875022D01*
X003335899Y001887135D01*
X003330468Y001898777D01*
X003323935Y001909839D01*
X003316362Y001920216D01*
X003307818Y001929811D01*
X003298387Y001938534D01*
X003288154Y001946302D01*
X003277218Y001953042D01*
X003265680Y001958692D01*
X003253649Y001963198D01*
X003241238Y001966517D01*
X003228564Y001968619D01*
X003215748Y001969507D01*
X003199130Y001969476D01*
X003196060Y001969590D01*
X003193009Y001969943D01*
X003189995Y001970532D01*
X003187035Y001971355D01*
X003184149Y001972406D01*
X003181353Y001973679D01*
X003178666Y001975167D01*
X003176102Y001976859D01*
X003173678Y001978745D01*
X003171409Y001980815D01*
X003169308Y001983056D01*
X003167388Y001985454D01*
X003165660Y001987994D01*
X003164136Y001990661D01*
X003162825Y001993438D01*
X003161734Y001996310D01*
X003160870Y001999257D01*
X003160239Y002002264D01*
X003159844Y002005310D01*
X003159688Y002008377D01*
X003158761Y002086303D01*
X003158847Y002089417D01*
X003159179Y002092514D01*
X003159755Y002095575D01*
X003160571Y002098581D01*
X003161622Y002101513D01*
X003162901Y002104352D01*
X003164401Y002107082D01*
X003166113Y002109685D01*
X003168024Y002112144D01*
X003170124Y002114444D01*
X003172400Y002116572D01*
X003174836Y002118512D01*
X003177418Y002120254D01*
X003180130Y002121787D01*
X003182954Y002123100D01*
X003185873Y002124186D01*
X003188869Y002125037D01*
X003191923Y002125649D01*
X003195016Y002126018D01*
X003198129Y002126141D01*
X003213248Y002126141D01*
X003226079Y002126764D01*
X003238790Y002128627D01*
X003251261Y002131712D01*
X003263375Y002135990D01*
X003275017Y002141421D01*
X003286079Y002147954D01*
X003296456Y002155527D01*
X003306051Y002164070D01*
X003314773Y002173502D01*
X003322542Y002183735D01*
X003329282Y002194671D01*
X003334932Y002206209D01*
X003339437Y002218240D01*
X003342757Y002230650D01*
X003344859Y002243324D01*
X003345724Y002256142D01*
X003345748Y003766141D01*
X003345125Y003778973D01*
X003343262Y003791685D01*
X003340177Y003804155D01*
X003335899Y003816269D01*
X003330468Y003827911D01*
X003323935Y003838973D01*
X003316362Y003849350D01*
X003307818Y003858945D01*
X003298387Y003867668D01*
X003288154Y003875436D01*
X003277218Y003882176D01*
X003265680Y003887826D01*
X003253649Y003892331D01*
X003241238Y003895651D01*
X003228564Y003897753D01*
X003215748Y003898641D01*
X001905747Y003896141D01*
X001892916Y003895519D01*
X001880204Y003893656D01*
X001867733Y003890571D01*
X001855620Y003886293D01*
X001843978Y003880862D01*
X001832916Y003874329D01*
X001822538Y003866756D01*
X001812944Y003858213D01*
X001804221Y003848781D01*
X001796453Y003838548D01*
X001789713Y003827612D01*
X001784063Y003816074D01*
X001779557Y003804043D01*
X001776238Y003791633D01*
X001774136Y003778959D01*
X001773271Y003766141D01*
X001773269Y003669238D01*
X001773146Y003666129D01*
X001772778Y003663039D01*
X001772167Y003659989D01*
X001771317Y003656995D01*
X001770234Y003654079D01*
X001768923Y003651257D01*
X001767393Y003648547D01*
X001765655Y003645967D01*
X001763718Y003643532D01*
X001761595Y003641257D01*
X001759299Y003639158D01*
X001756844Y003637246D01*
X001754246Y003635534D01*
X001751520Y003634032D01*
X001748685Y003632751D01*
X001745758Y003631697D01*
X001742756Y003630878D01*
X001739699Y003630298D01*
X001736606Y003629962D01*
X001733496Y003629871D01*
X001652429Y003630702D01*
X001649362Y003630853D01*
X001646315Y003631243D01*
X001643309Y003631869D01*
X001640360Y003632728D01*
X001637487Y003633814D01*
X001634708Y003635120D01*
X001632038Y003636639D01*
X001629496Y003638362D01*
X001627095Y003640278D01*
X001624851Y003642374D01*
X001622778Y003644640D01*
X001620887Y003647060D01*
X001619190Y003649620D01*
X001617699Y003652305D01*
X001616421Y003655097D01*
X001615365Y003657981D01*
X001614536Y003660939D01*
X001613941Y003663951D01*
X001613582Y003667002D01*
X001613463Y003670071D01*
X001613464Y003766141D01*
X001612841Y003778973D01*
X001610979Y003791685D01*
X001607893Y003804155D01*
X001603616Y003816269D01*
X001598185Y003827911D01*
X001591652Y003838973D01*
X001584078Y003849350D01*
X001575535Y003858945D01*
X001566103Y003867668D01*
X001555871Y003875436D01*
X001544934Y003882176D01*
X001533396Y003887826D01*
X001521366Y003892331D01*
X001508955Y003895651D01*
X001496281Y003897753D01*
X001483464Y003898641D01*
X000173464Y003896141D01*
X000160632Y003895519D01*
X000147921Y003893656D01*
X000135450Y003890571D01*
X000123336Y003886293D01*
X000111694Y003880862D01*
X000100632Y003874329D01*
X000090255Y003866756D01*
X000080660Y003858213D01*
X000071938Y003848781D01*
X000064170Y003838548D01*
X000057429Y003827612D01*
X000051779Y003816074D01*
X000047274Y003804043D01*
X000043954Y003791633D01*
X000041852Y003778959D01*
X000040987Y003766141D01*
X000040964Y002258641D01*
X000041587Y002245810D01*
X000043449Y002233098D01*
X000046534Y002220628D01*
X000050812Y002208514D01*
X000056243Y002196872D01*
X000062776Y002185810D01*
X000070349Y002175432D01*
X000078893Y002165838D01*
X000088325Y002157115D01*
X000098557Y002149347D01*
X000109494Y002142607D01*
X000121031Y002136957D01*
X000133062Y002132452D01*
X000145473Y002129132D01*
X000158147Y002127030D01*
X000170964Y002126165D01*
X000227087Y002126164D01*
X000230151Y002126044D01*
X000233196Y002125687D01*
X000236204Y002125094D01*
X000239157Y002124268D01*
X000242037Y002123215D01*
X000244826Y002121941D01*
X000247507Y002120454D01*
X000250065Y002118763D01*
X000252483Y002116878D01*
X000254747Y002114810D01*
X000256843Y002112573D01*
X000258759Y002110179D01*
X000260483Y002107643D01*
X000262004Y002104981D01*
X000263314Y002102209D01*
X000264403Y002099343D01*
X000265267Y002096401D01*
X000265898Y002093400D01*
X000266295Y002090360D01*
X000266454Y002087298D01*
X000267482Y002006986D01*
X000267399Y002003875D01*
X000267070Y002000779D01*
X000266498Y001997720D01*
X000265686Y001994715D01*
X000264639Y001991783D01*
X000263363Y001988944D01*
X000261868Y001986214D01*
X000260161Y001983611D01*
X000258254Y001981151D01*
X000256159Y001978849D01*
X000253888Y001976720D01*
X000251456Y001974777D01*
X000248878Y001973032D01*
X000246171Y001971496D01*
X000243350Y001970179D01*
X000240435Y001969089D01*
X000237442Y001968232D01*
X000234391Y001967615D01*
X000231301Y001967241D01*
X000228191Y001967112D01*
X000173464Y001967007D01*
X000160632Y001966385D01*
X000147921Y001964522D01*
X000135450Y001961437D01*
X000123336Y001957159D01*
X000111694Y001951728D01*
X000100632Y001945195D01*
X000090255Y001937622D01*
X000080660Y001929079D01*
X000071938Y001919647D01*
X000064170Y001909415D01*
X000057429Y001898478D01*
X000051779Y001886940D01*
X000047274Y001874909D01*
X000043954Y001862499D01*
X000041852Y001849825D01*
X000040987Y001837007D01*
X000040964Y000329507D01*
X000041587Y000316676D01*
X000043449Y000303964D01*
X000046534Y000291494D01*
X000050812Y000279380D01*
X000056243Y000267738D01*
X000062776Y000256676D01*
X000070349Y000246299D01*
X000078893Y000236704D01*
X000088325Y000227981D01*
X000098557Y000220213D01*
X000109494Y000213473D01*
X000121031Y000207823D01*
X000133062Y000203318D01*
X000145473Y000199998D01*
X000158147Y000197896D01*
X000170964Y000197031D01*
X001480964Y000197007D01*
X001493796Y000197630D01*
X001506507Y000199493D01*
X001518978Y000202578D01*
X001531092Y000206856D01*
X001542734Y000212287D01*
X001553796Y000218820D01*
X001564173Y000226393D01*
X001573768Y000234936D01*
X001582490Y000244368D01*
X001590258Y000254601D01*
X001596998Y000265537D01*
X001602648Y000277075D01*
X001607154Y000289106D01*
X001610473Y000301516D01*
X001612575Y000314191D01*
X001613440Y000327008D01*
X001613441Y000345696D01*
X001613451Y000975609D02*
X001613451Y000975609D01*
X001613570Y000978678D01*
X001613929Y000981729D01*
X001614525Y000984742D01*
X001615353Y000987700D01*
X001616410Y000990584D01*
X001617688Y000993377D01*
X001619181Y000996061D01*
X001620877Y000998622D01*
X001622769Y001001042D01*
X001624843Y001003307D01*
X001627088Y001005404D01*
X001629489Y001007320D01*
X001632032Y001009042D01*
X001634702Y001010561D01*
X001637482Y001011867D01*
X001640355Y001012953D01*
X001643305Y001013811D01*
X001646312Y001014436D01*
X001649359Y001014826D01*
X001652427Y001014976D01*
X001733493Y001015788D01*
X001736603Y001015696D01*
X001739695Y001015359D01*
X001742752Y001014779D01*
X001745753Y001013959D01*
X001748680Y001012905D01*
X001751515Y001011623D01*
X001754239Y001010121D01*
X001756837Y001008409D01*
X001759291Y001006497D01*
X001761587Y001004397D01*
X001763709Y001002123D01*
X001765646Y000999688D01*
X001767384Y000997108D01*
X001768913Y000994398D01*
X001770223Y000991577D01*
X001771306Y000988660D01*
X001772156Y000985667D01*
X001772766Y000982617D01*
X001773134Y000979528D01*
X001773257Y000976419D01*
X001773250Y000519650D01*
X001773127Y000516541D01*
X001772759Y000513453D01*
X001772149Y000510403D01*
X001771299Y000507410D01*
X001770216Y000504494D01*
X001768906Y000501673D01*
X001767377Y000498964D01*
X001765640Y000496384D01*
X001763704Y000493949D01*
X001761582Y000491675D01*
X001759287Y000489575D01*
X001756833Y000487663D01*
X001754236Y000485951D01*
X001751512Y000484449D01*
X001748678Y000483167D01*
X001745751Y000482113D01*
X001742751Y000481293D01*
X001739695Y000480712D01*
X001736603Y000480374D01*
X001733493Y000480282D01*
X001652427Y000481078D01*
X001649359Y000481228D01*
X001646311Y000481617D01*
X001643304Y000482242D01*
X001640354Y000483100D01*
X001637480Y000484185D01*
X001634699Y000485491D01*
X001632029Y000487010D01*
X001629485Y000488732D01*
X001627083Y000490648D01*
X001624838Y000492745D01*
X001622763Y000495010D01*
X001620872Y000497431D01*
X001619174Y000499991D01*
X001617682Y000502676D01*
X001616403Y000505470D01*
X001615346Y000508354D01*
X001614518Y000511312D01*
X001613922Y000514326D01*
X001613563Y000517377D01*
X001613443Y000520447D01*
X001613451Y000975609D01*
X001613461Y001605521D02*
X001613461Y001605521D01*
X001613580Y001608590D01*
X001613939Y001611640D01*
X001614534Y001614653D01*
X001615363Y001617610D01*
X001616419Y001620494D01*
X001617697Y001623287D01*
X001619189Y001625971D01*
X001620885Y001628531D01*
X001622776Y001630951D01*
X001624850Y001633217D01*
X001627094Y001635313D01*
X001629494Y001637229D01*
X001632037Y001638951D01*
X001634706Y001640470D01*
X001637486Y001641777D01*
X001640358Y001642863D01*
X001643307Y001643721D01*
X001646314Y001644347D01*
X001649360Y001644737D01*
X001652428Y001644888D01*
X001733494Y001645718D01*
X001736604Y001645627D01*
X001739698Y001645291D01*
X001742755Y001644711D01*
X001745756Y001643892D01*
X001748684Y001642838D01*
X001751519Y001641556D01*
X001754244Y001640055D01*
X001756842Y001638343D01*
X001759297Y001636431D01*
X001761593Y001634331D01*
X001763716Y001632056D01*
X001765653Y001629621D01*
X001767392Y001627041D01*
X001768921Y001624331D01*
X001770232Y001621509D01*
X001771315Y001618592D01*
X001772165Y001615599D01*
X001772776Y001612548D01*
X001773144Y001609459D01*
X001773267Y001606350D01*
X001773260Y001149562D01*
X001773137Y001146453D01*
X001772769Y001143364D01*
X001772158Y001140313D01*
X001771308Y001137321D01*
X001770225Y001134404D01*
X001768915Y001131583D01*
X001767386Y001128873D01*
X001765648Y001126293D01*
X001763711Y001123858D01*
X001761588Y001121584D01*
X001759293Y001119484D01*
X001756839Y001117572D01*
X001754241Y001115860D01*
X001751516Y001114358D01*
X001748682Y001113077D01*
X001745755Y001112023D01*
X001742753Y001111203D01*
X001739697Y001110623D01*
X001736604Y001110286D01*
X001733495Y001110194D01*
X001652428Y001111008D01*
X001649360Y001111159D01*
X001646313Y001111548D01*
X001643306Y001112174D01*
X001640357Y001113032D01*
X001637483Y001114118D01*
X001634703Y001115424D01*
X001632034Y001116943D01*
X001629491Y001118666D01*
X001627089Y001120581D01*
X001624845Y001122678D01*
X001622771Y001124943D01*
X001620879Y001127364D01*
X001619183Y001129924D01*
X001617691Y001132609D01*
X001616412Y001135402D01*
X001615356Y001138286D01*
X001614527Y001141244D01*
X001613932Y001144257D01*
X001613573Y001147308D01*
X001613453Y001150377D01*
X001613461Y001605521D01*
X001613441Y002274830D02*
X001613441Y002274830D01*
X001613561Y002277900D01*
X001613920Y002280951D01*
X001614515Y002283965D01*
X001615344Y002286923D01*
X001616401Y002289807D01*
X001617680Y002292601D01*
X001619172Y002295286D01*
X001620870Y002297846D01*
X001622761Y002300267D01*
X001624836Y002302532D01*
X001627081Y002304629D01*
X001629483Y002306544D01*
X001632027Y002308267D01*
X001634697Y002309785D01*
X001637478Y002311091D01*
X001640352Y002312176D01*
X001643302Y002313034D01*
X001646310Y002313659D01*
X001649357Y002314048D01*
X001652425Y002314198D01*
X001733492Y002314991D01*
X001736601Y002314899D01*
X001739693Y002314561D01*
X001742749Y002313980D01*
X001745750Y002313160D01*
X001748676Y002312106D01*
X001751510Y002310824D01*
X001754234Y002309322D01*
X001756831Y002307609D01*
X001759285Y002305697D01*
X001761580Y002303598D01*
X001763702Y002301323D01*
X001765638Y002298888D01*
X001767375Y002296308D01*
X001768904Y002293599D01*
X001770214Y002290778D01*
X001771297Y002287862D01*
X001772146Y002284870D01*
X001772757Y002281819D01*
X001773125Y002278731D01*
X001773247Y002275622D01*
X001773247Y002258641D01*
X001773870Y002245810D01*
X001775733Y002233098D01*
X001778817Y002220628D01*
X001783096Y002208514D01*
X001788527Y002196872D01*
X001795060Y002185810D01*
X001802633Y002175432D01*
X001811176Y002165838D01*
X001820608Y002157115D01*
X001830840Y002149347D01*
X001841777Y002142607D01*
X001853315Y002136957D01*
X001865346Y002132452D01*
X001877756Y002129132D01*
X001890430Y002127030D01*
X001890660Y002127014D01*
X001893647Y002126698D01*
X001896601Y002126155D01*
X001899506Y002125388D01*
X001902343Y002124402D01*
X001905097Y002123202D01*
X001907751Y002121796D01*
X001910290Y002120192D01*
X001912700Y002118399D01*
X001914966Y002116427D01*
X001917075Y002114289D01*
X001919015Y002111995D01*
X001920775Y002109561D01*
X001922343Y002106999D01*
X001923712Y002104326D01*
X001924873Y002101556D01*
X001925820Y002098705D01*
X001926546Y002095790D01*
X001927048Y002092829D01*
X001927323Y002089838D01*
X001927369Y002086834D01*
X001925483Y002004281D01*
X001925323Y002001525D01*
X001924971Y001998788D01*
X001924427Y001996082D01*
X001923696Y001993420D01*
X001922780Y001990816D01*
X001921683Y001988283D01*
X001920412Y001985833D01*
X001918972Y001983479D01*
X001917371Y001981230D01*
X001915616Y001979100D01*
X001913716Y001977097D01*
X001911681Y001975233D01*
X001909520Y001973516D01*
X001907243Y001971955D01*
X001904864Y001970556D01*
X001902392Y001969328D01*
X001899840Y001968277D01*
X001897220Y001967406D01*
X001894546Y001966722D01*
X001891831Y001966226D01*
X001880204Y001964522D01*
X001867733Y001961437D01*
X001855620Y001957159D01*
X001843978Y001951728D01*
X001832916Y001945195D01*
X001822538Y001937622D01*
X001812944Y001929079D01*
X001804221Y001919647D01*
X001796453Y001909415D01*
X001789713Y001898478D01*
X001784063Y001886940D01*
X001779557Y001874909D01*
X001776238Y001862499D01*
X001774136Y001849825D01*
X001773271Y001837007D01*
X001773270Y001779474D01*
X001773147Y001776365D01*
X001772779Y001773275D01*
X001772168Y001770224D01*
X001771318Y001767231D01*
X001770234Y001764314D01*
X001768923Y001761492D01*
X001767394Y001758783D01*
X001765655Y001756202D01*
X001763718Y001753767D01*
X001761595Y001751493D01*
X001759299Y001749393D01*
X001756844Y001747481D01*
X001754246Y001745769D01*
X001751521Y001744268D01*
X001748685Y001742986D01*
X001745758Y001741932D01*
X001742756Y001741113D01*
X001739699Y001740534D01*
X001736606Y001740197D01*
X001733496Y001740106D01*
X001652429Y001740939D01*
X001649362Y001741090D01*
X001646315Y001741480D01*
X001643309Y001742106D01*
X001640360Y001742965D01*
X001637487Y001744051D01*
X001634708Y001745357D01*
X001632039Y001746876D01*
X001629496Y001748599D01*
X001627096Y001750514D01*
X001624852Y001752611D01*
X001622778Y001754877D01*
X001620887Y001757297D01*
X001619191Y001759857D01*
X001617699Y001762542D01*
X001616421Y001765334D01*
X001615365Y001768218D01*
X001614537Y001771175D01*
X001613942Y001774188D01*
X001613583Y001777238D01*
X001613463Y001780307D01*
X001613464Y001837007D01*
X001612841Y001849839D01*
X001610979Y001862551D01*
X001607893Y001875022D01*
X001603616Y001887135D01*
X001598185Y001898777D01*
X001591652Y001909839D01*
X001584078Y001920216D01*
X001575535Y001929811D01*
X001566103Y001938534D01*
X001555871Y001946302D01*
X001544934Y001953042D01*
X001533396Y001958692D01*
X001521366Y001963198D01*
X001508955Y001966517D01*
X001496281Y001968619D01*
X001483464Y001969507D01*
X001427411Y001969400D01*
X001424339Y001969515D01*
X001421286Y001969868D01*
X001418270Y001970458D01*
X001415309Y001971282D01*
X001412422Y001972334D01*
X001409625Y001973609D01*
X001406936Y001975097D01*
X001404372Y001976791D01*
X001401947Y001978680D01*
X001399677Y001980752D01*
X001397576Y001982995D01*
X001395656Y001985395D01*
X001393929Y001987937D01*
X001392406Y001990606D01*
X001391096Y001993386D01*
X001390006Y001996260D01*
X001389144Y001999210D01*
X001388514Y002002218D01*
X001388122Y002005266D01*
X001387968Y002008336D01*
X001387106Y002086337D01*
X001387195Y002089449D01*
X001387529Y002092544D01*
X001388107Y002095603D01*
X001388925Y002098607D01*
X001389977Y002101537D01*
X001391258Y002104374D01*
X001392759Y002107102D01*
X001394470Y002109702D01*
X001396382Y002112159D01*
X001398482Y002114457D01*
X001400757Y002116582D01*
X001403192Y002118521D01*
X001405774Y002120261D01*
X001408484Y002121792D01*
X001411308Y002123104D01*
X001414226Y002124188D01*
X001417220Y002125039D01*
X001420273Y002125651D01*
X001423364Y002126019D01*
X001426474Y002126142D01*
X001480964Y002126141D01*
X001493796Y002126764D01*
X001506507Y002128627D01*
X001518978Y002131712D01*
X001531092Y002135990D01*
X001542734Y002141421D01*
X001553796Y002147954D01*
X001564173Y002155527D01*
X001573768Y002164070D01*
X001582490Y002173502D01*
X001590258Y002183735D01*
X001596998Y002194671D01*
X001602648Y002206209D01*
X001607154Y002218240D01*
X001610473Y002230650D01*
X001612575Y002243324D01*
X001613440Y002256142D01*
X001613441Y002274830D01*
X001773250Y002448783D02*
X001773250Y002448783D01*
X001773127Y002445675D01*
X001772759Y002442586D01*
X001772149Y002439536D01*
X001771299Y002436544D01*
X001770216Y002433628D01*
X001768906Y002430807D01*
X001767377Y002428098D01*
X001765640Y002425518D01*
X001763704Y002423083D01*
X001761582Y002420809D01*
X001759287Y002418709D01*
X001756833Y002416797D01*
X001754236Y002415085D01*
X001751512Y002413583D01*
X001748678Y002412301D01*
X001745751Y002411246D01*
X001742751Y002410426D01*
X001739695Y002409846D01*
X001736603Y002409508D01*
X001733493Y002409416D01*
X001652427Y002410212D01*
X001649359Y002410362D01*
X001646311Y002410751D01*
X001643304Y002411376D01*
X001640354Y002412234D01*
X001637480Y002413319D01*
X001634699Y002414625D01*
X001632029Y002416144D01*
X001629485Y002417866D01*
X001627083Y002419781D01*
X001624838Y002421878D01*
X001622763Y002424144D01*
X001620872Y002426564D01*
X001619174Y002429125D01*
X001617682Y002431810D01*
X001616403Y002434604D01*
X001615346Y002437488D01*
X001614518Y002440446D01*
X001613922Y002443460D01*
X001613563Y002446511D01*
X001613443Y002449581D01*
X001613451Y002944112D01*
X001613571Y002947181D01*
X001613930Y002950232D01*
X001614525Y002953245D01*
X001615354Y002956203D01*
X001616411Y002959087D01*
X001617689Y002961880D01*
X001619181Y002964565D01*
X001620878Y002967125D01*
X001622769Y002969545D01*
X001624843Y002971811D01*
X001627088Y002973907D01*
X001629489Y002975823D01*
X001632032Y002977545D01*
X001634702Y002979064D01*
X001637482Y002980370D01*
X001640355Y002981456D01*
X001643305Y002982314D01*
X001646312Y002982940D01*
X001649359Y002983329D01*
X001652427Y002983480D01*
X001733493Y002984292D01*
X001736603Y002984201D01*
X001739696Y002983864D01*
X001742752Y002983283D01*
X001745753Y002982464D01*
X001748680Y002981410D01*
X001751515Y002980128D01*
X001754240Y002978626D01*
X001756837Y002976914D01*
X001759291Y002975002D01*
X001761587Y002972902D01*
X001763710Y002970628D01*
X001765646Y002968193D01*
X001767384Y002965612D01*
X001768913Y002962903D01*
X001770223Y002960081D01*
X001771307Y002957165D01*
X001772156Y002954172D01*
X001772767Y002951121D01*
X001773135Y002948032D01*
X001773258Y002944924D01*
X001773250Y002448783D01*
X001613460Y003495285D02*
X001613460Y003495285D01*
X001613580Y003498354D01*
X001613938Y003501404D01*
X001614534Y003504417D01*
X001615362Y003507375D01*
X001616419Y003510258D01*
X001617697Y003513051D01*
X001619188Y003515736D01*
X001620885Y003518296D01*
X001622776Y003520716D01*
X001624849Y003522981D01*
X001627093Y003525078D01*
X001629494Y003526993D01*
X001632037Y003528716D01*
X001634706Y003530235D01*
X001637485Y003531541D01*
X001640358Y003532627D01*
X001643307Y003533486D01*
X001646314Y003534112D01*
X001649360Y003534502D01*
X001652428Y003534653D01*
X001733494Y003535481D01*
X001736604Y003535390D01*
X001739697Y003535054D01*
X001742754Y003534474D01*
X001745756Y003533655D01*
X001748684Y003532601D01*
X001751519Y003531319D01*
X001754244Y003529818D01*
X001756842Y003528106D01*
X001759297Y003526194D01*
X001761593Y003524094D01*
X001763716Y003521819D01*
X001765653Y003519384D01*
X001767391Y003516804D01*
X001768921Y003514094D01*
X001770231Y003511272D01*
X001771315Y003508355D01*
X001772165Y003505362D01*
X001772776Y003502311D01*
X001773144Y003499222D01*
X001773267Y003496113D01*
X001773261Y003118065D01*
X001773138Y003114956D01*
X001772770Y003111867D01*
X001772159Y003108817D01*
X001771309Y003105824D01*
X001770226Y003102908D01*
X001768915Y003100086D01*
X001767386Y003097376D01*
X001765648Y003094796D01*
X001763712Y003092361D01*
X001761589Y003090087D01*
X001759293Y003087987D01*
X001756839Y003086075D01*
X001754241Y003084363D01*
X001751517Y003082862D01*
X001748682Y003081580D01*
X001745755Y003080526D01*
X001742754Y003079706D01*
X001739697Y003079126D01*
X001736604Y003078789D01*
X001733495Y003078698D01*
X001652428Y003079513D01*
X001649360Y003079664D01*
X001646313Y003080053D01*
X001643306Y003080679D01*
X001640357Y003081537D01*
X001637484Y003082622D01*
X001634704Y003083929D01*
X001632034Y003085448D01*
X001629491Y003087170D01*
X001627090Y003089086D01*
X001624845Y003091183D01*
X001622771Y003093448D01*
X001620880Y003095868D01*
X001619183Y003098429D01*
X001617691Y003101114D01*
X001616413Y003103907D01*
X001615356Y003106791D01*
X001614528Y003109748D01*
X001613932Y003112762D01*
X001613574Y003115812D01*
X001613454Y003118882D01*
X001613460Y003495285D01*
M02*