%
M48
METRIC,000.000
T10C0.40
T11C0.80
T12C0.95
T13C1.00
T14C1.10
T15C2.20
%
T10
X003719Y082655
X003719Y080826
X003771Y078947
X004837Y082655
X004837Y080826
X004888Y078947
X007581Y068228
X007581Y066958
X008241Y055629
X008953Y068228
X009003Y066958
X012001Y076966
X012864Y080725
X013727Y078337
X014590Y057306
X015200Y060607
X015352Y084992
X015352Y083757
X015438Y088602
X015709Y066856
X016827Y057306
X018197Y057611
X019022Y056995
X019316Y068888
X020534Y054867
X020686Y061726
X021653Y062640
X021870Y054852
X021956Y065028
X021956Y060557
X022973Y061370
X023126Y055934
X023924Y069107
X025462Y088497
X025619Y086497
X026021Y068736
X026325Y055833
X028052Y058271
X029424Y070578
X031305Y092968
X031558Y094339
X032676Y076559
X033032Y059643
X033286Y084128
X033501Y075340
X033946Y083163
X034200Y077829
X034759Y055376
X040144Y085753
X040144Y084484
X040144Y083214
X047720Y082655
X047720Y080826
X047771Y078947
X048837Y082655
X048837Y080826
X048888Y078947
X051581Y068228
X051581Y066958
X052241Y055629
X052953Y068228
X053003Y066958
X056001Y076966
X056864Y080725
X057727Y078337
X058590Y057306
X059200Y060607
X059352Y084992
X059352Y083757
X059438Y088602
X059709Y066856
X060827Y057306
X062197Y057611
X063022Y056995
X063316Y068888
X064535Y054867
X064687Y061726
X065653Y062640
X065870Y054852
X065957Y065028
X065957Y060557
X066973Y061370
X067126Y055934
X067924Y069107
X069463Y088497
X069619Y086497
X070021Y068736
X070326Y055833
X072053Y058271
X073425Y070578
X075305Y092968
X075559Y094339
X076676Y076559
X077032Y059643
X077286Y084128
X077501Y075340
X077946Y083163
X078200Y077829
X078759Y055376
X084144Y085753
X084144Y084484
X084144Y083214
X003719Y033655
X003719Y031825
X003771Y029947
X004837Y033655
X004837Y031825
X004888Y029947
X007581Y019227
X007581Y017958
X008241Y006629
X008953Y019227
X009003Y017958
X012001Y027965
X012864Y031724
X013727Y029337
X014590Y008305
X015200Y011607
X015352Y035992
X015352Y034757
X015438Y039602
X015709Y017855
X016827Y008305
X018197Y008611
X019022Y007995
X019316Y019888
X020534Y005867
X020686Y012726
X021653Y013640
X021870Y005852
X021956Y016027
X021956Y011557
X022973Y012370
X023126Y006933
X023924Y020107
X025462Y039497
X025619Y037497
X026021Y019736
X026325Y006832
X028052Y009271
X029424Y021578
X031305Y043968
X031558Y045339
X032676Y027558
X033032Y010643
X033286Y035128
X033501Y026340
X033946Y034163
X034200Y028828
X034759Y006376
X040144Y036754
X040144Y035483
X040144Y034214
X047720Y033655
X047720Y031825
X047771Y029947
X048837Y033655
X048837Y031825
X048888Y029947
X051581Y019227
X051581Y017958
X052241Y006629
X052953Y019227
X053003Y017958
X056001Y027965
X056864Y031724
X057727Y029337
X058590Y008305
X059200Y011607
X059352Y035992
X059352Y034757
X059438Y039602
X059709Y017855
X060827Y008305
X062197Y008611
X063022Y007995
X063316Y019888
X064535Y005867
X064687Y012726
X065653Y013640
X065870Y005852
X065957Y016027
X065957Y011557
X066973Y012370
X067126Y006933
X067924Y020107
X069463Y039497
X069619Y037497
X070021Y019736
X070326Y006832
X072053Y009271
X073425Y021578
X075305Y043968
X075559Y045339
X076676Y027558
X077032Y010643
X077286Y035128
X077501Y026340
X077946Y034163
X078200Y028828
X078759Y006376
X084144Y036754
X084144Y035483
X084144Y034214
T11
X030997Y073664
X032524Y066501
X032524Y061620
X035876Y073664
X074997Y073664
X076524Y066501
X076524Y061620
X079877Y073664
X030997Y024664
X032524Y017501
X032524Y012620
X035876Y024664
X074997Y024664
X076524Y017501
X076524Y012620
X079877Y024664
T12
X012242Y096485
X014742Y096485
X017242Y096485
X019742Y096485
X022242Y096485
X024742Y096485
X027242Y096485
X029742Y096485
X056242Y096485
X058742Y096485
X061242Y096485
X063742Y096485
X066242Y096485
X068742Y096485
X071242Y096485
X073742Y096485
X012242Y047486
X014742Y047486
X017242Y047486
X019742Y047486
X022242Y047486
X024742Y047486
X027242Y047486
X029742Y047486
X056242Y047486
X058742Y047486
X061242Y047486
X063742Y047486
X066242Y047486
X068742Y047486
X071242Y047486
X073742Y047486
T13
X004227Y088548
X004227Y073648
X009930Y059718
X009930Y057179
X012471Y059718
X012471Y057179
X012977Y088548
X012977Y073648
X019837Y080166
X019837Y077626
X019837Y075086
X022376Y080166
X022376Y077626
X022376Y075086
X048227Y088548
X048227Y073648
X053930Y059718
X053930Y057179
X056471Y059718
X056471Y057179
X056977Y088548
X056977Y073648
X063837Y080166
X063837Y077626
X063837Y075086
X066376Y080166
X066376Y077626
X066376Y075086
X004227Y039548
X004227Y024647
X009930Y010718
X009930Y008179
X012471Y010718
X012471Y008179
X012977Y039548
X012977Y024647
X019837Y031165
X019837Y028626
X019837Y026086
X022376Y031165
X022376Y028626
X022376Y026086
X048227Y039548
X048227Y024647
X053930Y010718
X053930Y008179
X056471Y010718
X056471Y008179
X056977Y039548
X056977Y024647
X063837Y031165
X063837Y028626
X063837Y026086
X066376Y031165
X066376Y028626
X066376Y026086
T14
X005486Y069434
X005486Y064934
X011986Y069434
X011986Y064934
X049486Y069434
X049486Y064934
X055986Y069434
X055986Y064934
X005486Y020433
X005486Y015933
X011986Y020433
X011986Y015933
X049486Y020433
X049486Y015933
X055986Y020433
X055986Y015933
T15
X004500Y095500
X004500Y057599
X037500Y095500
X037500Y057599
X048500Y095500
X048500Y057599
X081500Y095500
X081500Y057599
X004500Y046500
X004500Y008599
X037500Y046500
X037500Y008599
X048500Y046500
X048500Y008599
X081500Y046500
X081500Y008599
M30